G04 #@! TF.GenerationSoftware,KiCad,Pcbnew,(5.1.5)-3*
G04 #@! TF.CreationDate,2021-08-16T12:48:35-05:00*
G04 #@! TF.ProjectId,Valpo-PCB-Ruler,56616c70-6f2d-4504-9342-2d52756c6572,rev?*
G04 #@! TF.SameCoordinates,Original*
G04 #@! TF.FileFunction,Legend,Top*
G04 #@! TF.FilePolarity,Positive*
%FSLAX46Y46*%
G04 Gerber Fmt 4.6, Leading zero omitted, Abs format (unit mm)*
G04 Created by KiCad (PCBNEW (5.1.5)-3) date 2021-08-16 12:48:35*
%MOMM*%
%LPD*%
G04 APERTURE LIST*
%ADD10C,0.150000*%
%ADD11C,0.076200*%
%ADD12C,0.010000*%
G04 APERTURE END LIST*
D10*
X100679285Y-99560119D02*
X100726904Y-99512500D01*
X100822142Y-99464880D01*
X101060238Y-99464880D01*
X101155476Y-99512500D01*
X101203095Y-99560119D01*
X101250714Y-99655357D01*
X101250714Y-99750595D01*
X101203095Y-99893452D01*
X100631666Y-100464880D01*
X101250714Y-100464880D01*
X51990773Y-72080380D02*
X51419345Y-72080380D01*
X51705059Y-72080380D02*
X51705059Y-71080380D01*
X51609821Y-71223238D01*
X51514583Y-71318476D01*
X51419345Y-71366095D01*
X53133630Y-71032761D02*
X52276488Y-72318476D01*
X53371726Y-71080380D02*
X53990773Y-71080380D01*
X53657440Y-71461333D01*
X53800297Y-71461333D01*
X53895535Y-71508952D01*
X53943154Y-71556571D01*
X53990773Y-71651809D01*
X53990773Y-71889904D01*
X53943154Y-71985142D01*
X53895535Y-72032761D01*
X53800297Y-72080380D01*
X53514583Y-72080380D01*
X53419345Y-72032761D01*
X53371726Y-71985142D01*
X54371726Y-71175619D02*
X54419345Y-71128000D01*
X54514583Y-71080380D01*
X54752678Y-71080380D01*
X54847916Y-71128000D01*
X54895535Y-71175619D01*
X54943154Y-71270857D01*
X54943154Y-71366095D01*
X54895535Y-71508952D01*
X54324107Y-72080380D01*
X54943154Y-72080380D01*
X52149523Y-99703380D02*
X51578095Y-99703380D01*
X51863809Y-99703380D02*
X51863809Y-98703380D01*
X51768571Y-98846238D01*
X51673333Y-98941476D01*
X51578095Y-98989095D01*
X53292380Y-98655761D02*
X52435238Y-99941476D01*
X54149523Y-99703380D02*
X53578095Y-99703380D01*
X53863809Y-99703380D02*
X53863809Y-98703380D01*
X53768571Y-98846238D01*
X53673333Y-98941476D01*
X53578095Y-98989095D01*
X54768571Y-98703380D02*
X54863809Y-98703380D01*
X54959047Y-98751000D01*
X55006666Y-98798619D01*
X55054285Y-98893857D01*
X55101904Y-99084333D01*
X55101904Y-99322428D01*
X55054285Y-99512904D01*
X55006666Y-99608142D01*
X54959047Y-99655761D01*
X54863809Y-99703380D01*
X54768571Y-99703380D01*
X54673333Y-99655761D01*
X54625714Y-99608142D01*
X54578095Y-99512904D01*
X54530476Y-99322428D01*
X54530476Y-99084333D01*
X54578095Y-98893857D01*
X54625714Y-98798619D01*
X54673333Y-98751000D01*
X54768571Y-98703380D01*
D11*
X195443908Y-77916138D02*
X195443908Y-95577066D01*
X188895034Y-77916138D02*
X188895034Y-95577066D01*
X180163784Y-79503638D02*
X180163784Y-95577066D01*
X202984552Y-79503638D02*
X202984950Y-95577066D01*
X180164182Y-95577066D02*
X202984950Y-95577066D01*
X202984552Y-77916138D02*
X202984552Y-79503638D01*
X180163784Y-77916138D02*
X202984552Y-77916138D01*
X180163784Y-79503638D02*
X180163784Y-77916138D01*
X202984552Y-79503638D02*
X180163784Y-79503638D01*
D10*
X180816944Y-78223054D02*
X181288659Y-78223054D01*
X181034659Y-78561721D01*
X181143516Y-78561721D01*
X181216087Y-78604054D01*
X181252373Y-78646388D01*
X181288659Y-78731054D01*
X181288659Y-78942721D01*
X181252373Y-79027388D01*
X181216087Y-79069721D01*
X181143516Y-79112054D01*
X180925801Y-79112054D01*
X180853230Y-79069721D01*
X180816944Y-79027388D01*
X181978087Y-78223054D02*
X181615230Y-78223054D01*
X181578944Y-78646388D01*
X181615230Y-78604054D01*
X181687801Y-78561721D01*
X181869230Y-78561721D01*
X181941801Y-78604054D01*
X181978087Y-78646388D01*
X182014373Y-78731054D01*
X182014373Y-78942721D01*
X181978087Y-79027388D01*
X181941801Y-79069721D01*
X181869230Y-79112054D01*
X181687801Y-79112054D01*
X181615230Y-79069721D01*
X181578944Y-79027388D01*
X182667516Y-78519388D02*
X182667516Y-79112054D01*
X182340944Y-78519388D02*
X182340944Y-78985054D01*
X182377230Y-79069721D01*
X182449801Y-79112054D01*
X182558659Y-79112054D01*
X182631230Y-79069721D01*
X182667516Y-79027388D01*
X183030373Y-79112054D02*
X183030373Y-78519388D01*
X183030373Y-78604054D02*
X183066659Y-78561721D01*
X183139230Y-78519388D01*
X183248087Y-78519388D01*
X183320659Y-78561721D01*
X183356944Y-78646388D01*
X183356944Y-79112054D01*
X183356944Y-78646388D02*
X183393230Y-78561721D01*
X183465801Y-78519388D01*
X183574659Y-78519388D01*
X183647230Y-78561721D01*
X183683516Y-78646388D01*
X183683516Y-79112054D01*
X184046373Y-78646388D02*
X184626944Y-78646388D01*
X184626944Y-78900388D02*
X184046373Y-78900388D01*
X185388944Y-79112054D02*
X184953516Y-79112054D01*
X185171230Y-79112054D02*
X185171230Y-78223054D01*
X185098659Y-78350054D01*
X185026087Y-78434721D01*
X184953516Y-78477054D01*
X185715516Y-79027388D02*
X185751801Y-79069721D01*
X185715516Y-79112054D01*
X185679230Y-79069721D01*
X185715516Y-79027388D01*
X185715516Y-79112054D01*
X186404944Y-78519388D02*
X186404944Y-79112054D01*
X186223516Y-78180721D02*
X186042087Y-78815721D01*
X186513801Y-78815721D01*
X186804087Y-79112054D02*
X186804087Y-78519388D01*
X186804087Y-78604054D02*
X186840373Y-78561721D01*
X186912944Y-78519388D01*
X187021801Y-78519388D01*
X187094373Y-78561721D01*
X187130659Y-78646388D01*
X187130659Y-79112054D01*
X187130659Y-78646388D02*
X187166944Y-78561721D01*
X187239516Y-78519388D01*
X187348373Y-78519388D01*
X187420944Y-78561721D01*
X187457230Y-78646388D01*
X187457230Y-79112054D01*
X187820087Y-79112054D02*
X187820087Y-78519388D01*
X187820087Y-78223054D02*
X187783801Y-78265388D01*
X187820087Y-78307721D01*
X187856373Y-78265388D01*
X187820087Y-78223054D01*
X187820087Y-78307721D01*
X188291801Y-79112054D02*
X188219230Y-79069721D01*
X188182944Y-78985054D01*
X188182944Y-78223054D01*
X195997300Y-78773388D02*
X196674633Y-78773388D01*
X196335966Y-79112054D02*
X196335966Y-78434721D01*
X197563633Y-79112054D02*
X197055633Y-79112054D01*
X197309633Y-79112054D02*
X197309633Y-78223054D01*
X197224966Y-78350054D01*
X197140300Y-78434721D01*
X197055633Y-78477054D01*
X198113966Y-78223054D02*
X198198633Y-78223054D01*
X198283300Y-78265388D01*
X198325633Y-78307721D01*
X198367966Y-78392388D01*
X198410300Y-78561721D01*
X198410300Y-78773388D01*
X198367966Y-78942721D01*
X198325633Y-79027388D01*
X198283300Y-79069721D01*
X198198633Y-79112054D01*
X198113966Y-79112054D01*
X198029300Y-79069721D01*
X197986966Y-79027388D01*
X197944633Y-78942721D01*
X197902300Y-78773388D01*
X197902300Y-78561721D01*
X197944633Y-78392388D01*
X197986966Y-78307721D01*
X198029300Y-78265388D01*
X198113966Y-78223054D01*
X199426300Y-78180721D02*
X198664300Y-79323721D01*
X200145966Y-78223054D02*
X199722633Y-78223054D01*
X199680300Y-78646388D01*
X199722633Y-78604054D01*
X199807300Y-78561721D01*
X200018966Y-78561721D01*
X200103633Y-78604054D01*
X200145966Y-78646388D01*
X200188300Y-78731054D01*
X200188300Y-78942721D01*
X200145966Y-79027388D01*
X200103633Y-79069721D01*
X200018966Y-79112054D01*
X199807300Y-79112054D01*
X199722633Y-79069721D01*
X199680300Y-79027388D01*
X200738633Y-78223054D02*
X200823300Y-78223054D01*
X200907966Y-78265388D01*
X200950300Y-78307721D01*
X200992633Y-78392388D01*
X201034966Y-78561721D01*
X201034966Y-78773388D01*
X200992633Y-78942721D01*
X200950300Y-79027388D01*
X200907966Y-79069721D01*
X200823300Y-79112054D01*
X200738633Y-79112054D01*
X200653966Y-79069721D01*
X200611633Y-79027388D01*
X200569300Y-78942721D01*
X200526966Y-78773388D01*
X200526966Y-78561721D01*
X200569300Y-78392388D01*
X200611633Y-78307721D01*
X200653966Y-78265388D01*
X200738633Y-78223054D01*
X201923966Y-79027388D02*
X201881633Y-79069721D01*
X201754633Y-79112054D01*
X201669966Y-79112054D01*
X201542966Y-79069721D01*
X201458300Y-78985054D01*
X201415966Y-78900388D01*
X201373633Y-78731054D01*
X201373633Y-78604054D01*
X201415966Y-78434721D01*
X201458300Y-78350054D01*
X201542966Y-78265388D01*
X201669966Y-78223054D01*
X201754633Y-78223054D01*
X201881633Y-78265388D01*
X201923966Y-78307721D01*
X189586427Y-79112054D02*
X189586427Y-78519388D01*
X189586427Y-78604054D02*
X189628760Y-78561721D01*
X189713427Y-78519388D01*
X189840427Y-78519388D01*
X189925094Y-78561721D01*
X189967427Y-78646388D01*
X189967427Y-79112054D01*
X189967427Y-78646388D02*
X190009760Y-78561721D01*
X190094427Y-78519388D01*
X190221427Y-78519388D01*
X190306094Y-78561721D01*
X190348427Y-78646388D01*
X190348427Y-79112054D01*
X190771760Y-79112054D02*
X190771760Y-78519388D01*
X190771760Y-78223054D02*
X190729427Y-78265388D01*
X190771760Y-78307721D01*
X190814094Y-78265388D01*
X190771760Y-78223054D01*
X190771760Y-78307721D01*
X191322094Y-79112054D02*
X191237427Y-79069721D01*
X191195094Y-78985054D01*
X191195094Y-78223054D01*
X192295760Y-78180721D02*
X191533760Y-79323721D01*
X192592094Y-79112054D02*
X192592094Y-78519388D01*
X192592094Y-78604054D02*
X192634427Y-78561721D01*
X192719094Y-78519388D01*
X192846094Y-78519388D01*
X192930760Y-78561721D01*
X192973094Y-78646388D01*
X192973094Y-79112054D01*
X192973094Y-78646388D02*
X193015427Y-78561721D01*
X193100094Y-78519388D01*
X193227094Y-78519388D01*
X193311760Y-78561721D01*
X193354094Y-78646388D01*
X193354094Y-79112054D01*
X193777427Y-79112054D02*
X193777427Y-78519388D01*
X193777427Y-78604054D02*
X193819760Y-78561721D01*
X193904427Y-78519388D01*
X194031427Y-78519388D01*
X194116094Y-78561721D01*
X194158427Y-78646388D01*
X194158427Y-79112054D01*
X194158427Y-78646388D02*
X194200760Y-78561721D01*
X194285427Y-78519388D01*
X194412427Y-78519388D01*
X194497094Y-78561721D01*
X194539427Y-78646388D01*
X194539427Y-79112054D01*
X195970391Y-92545007D02*
X196012725Y-92497388D01*
X196097391Y-92449768D01*
X196309058Y-92449768D01*
X196393725Y-92497388D01*
X196436058Y-92545007D01*
X196478391Y-92640245D01*
X196478391Y-92735483D01*
X196436058Y-92878340D01*
X195928058Y-93449768D01*
X196478391Y-93449768D01*
X196859391Y-93354530D02*
X196901725Y-93402149D01*
X196859391Y-93449768D01*
X196817058Y-93402149D01*
X196859391Y-93354530D01*
X196859391Y-93449768D01*
X197452058Y-92449768D02*
X197536725Y-92449768D01*
X197621391Y-92497388D01*
X197663725Y-92545007D01*
X197706058Y-92640245D01*
X197748391Y-92830721D01*
X197748391Y-93068816D01*
X197706058Y-93259292D01*
X197663725Y-93354530D01*
X197621391Y-93402149D01*
X197536725Y-93449768D01*
X197452058Y-93449768D01*
X197367391Y-93402149D01*
X197325058Y-93354530D01*
X197282725Y-93259292D01*
X197240391Y-93068816D01*
X197240391Y-92830721D01*
X197282725Y-92640245D01*
X197325058Y-92545007D01*
X197367391Y-92497388D01*
X197452058Y-92449768D01*
X198087058Y-93164054D02*
X198510391Y-93164054D01*
X198002391Y-93449768D02*
X198298725Y-92449768D01*
X198595058Y-93449768D01*
X199526391Y-92402149D02*
X198764391Y-93687864D01*
X200203725Y-92783102D02*
X200203725Y-93449768D01*
X199992058Y-92402149D02*
X199780391Y-93116435D01*
X200330725Y-93116435D01*
X200669391Y-93354530D02*
X200711725Y-93402149D01*
X200669391Y-93449768D01*
X200627058Y-93402149D01*
X200669391Y-93354530D01*
X200669391Y-93449768D01*
X201262058Y-92449768D02*
X201346725Y-92449768D01*
X201431391Y-92497388D01*
X201473725Y-92545007D01*
X201516058Y-92640245D01*
X201558391Y-92830721D01*
X201558391Y-93068816D01*
X201516058Y-93259292D01*
X201473725Y-93354530D01*
X201431391Y-93402149D01*
X201346725Y-93449768D01*
X201262058Y-93449768D01*
X201177391Y-93402149D01*
X201135058Y-93354530D01*
X201092725Y-93259292D01*
X201050391Y-93068816D01*
X201050391Y-92830721D01*
X201092725Y-92640245D01*
X201135058Y-92545007D01*
X201177391Y-92497388D01*
X201262058Y-92449768D01*
X201897058Y-93164054D02*
X202320391Y-93164054D01*
X201812391Y-93449768D02*
X202108725Y-92449768D01*
X202405058Y-93449768D01*
X196478391Y-90224554D02*
X195970391Y-90224554D01*
X196224391Y-90224554D02*
X196224391Y-89335554D01*
X196139725Y-89462554D01*
X196055058Y-89547221D01*
X195970391Y-89589554D01*
X196859391Y-90139888D02*
X196901725Y-90182221D01*
X196859391Y-90224554D01*
X196817058Y-90182221D01*
X196859391Y-90139888D01*
X196859391Y-90224554D01*
X197706058Y-89335554D02*
X197282725Y-89335554D01*
X197240391Y-89758888D01*
X197282725Y-89716554D01*
X197367391Y-89674221D01*
X197579058Y-89674221D01*
X197663725Y-89716554D01*
X197706058Y-89758888D01*
X197748391Y-89843554D01*
X197748391Y-90055221D01*
X197706058Y-90139888D01*
X197663725Y-90182221D01*
X197579058Y-90224554D01*
X197367391Y-90224554D01*
X197282725Y-90182221D01*
X197240391Y-90139888D01*
X198087058Y-89970554D02*
X198510391Y-89970554D01*
X198002391Y-90224554D02*
X198298725Y-89335554D01*
X198595058Y-90224554D01*
X199526391Y-89293221D02*
X198764391Y-90436221D01*
X199738058Y-89335554D02*
X200288391Y-89335554D01*
X199992058Y-89674221D01*
X200119058Y-89674221D01*
X200203725Y-89716554D01*
X200246058Y-89758888D01*
X200288391Y-89843554D01*
X200288391Y-90055221D01*
X200246058Y-90139888D01*
X200203725Y-90182221D01*
X200119058Y-90224554D01*
X199865058Y-90224554D01*
X199780391Y-90182221D01*
X199738058Y-90139888D01*
X200669391Y-90139888D02*
X200711725Y-90182221D01*
X200669391Y-90224554D01*
X200627058Y-90182221D01*
X200669391Y-90139888D01*
X200669391Y-90224554D01*
X201262058Y-89335554D02*
X201346725Y-89335554D01*
X201431391Y-89377888D01*
X201473725Y-89420221D01*
X201516058Y-89504888D01*
X201558391Y-89674221D01*
X201558391Y-89885888D01*
X201516058Y-90055221D01*
X201473725Y-90139888D01*
X201431391Y-90182221D01*
X201346725Y-90224554D01*
X201262058Y-90224554D01*
X201177391Y-90182221D01*
X201135058Y-90139888D01*
X201092725Y-90055221D01*
X201050391Y-89885888D01*
X201050391Y-89674221D01*
X201092725Y-89504888D01*
X201135058Y-89420221D01*
X201177391Y-89377888D01*
X201262058Y-89335554D01*
X201897058Y-89970554D02*
X202320391Y-89970554D01*
X201812391Y-90224554D02*
X202108725Y-89335554D01*
X202405058Y-90224554D01*
X195970391Y-94132507D02*
X196012725Y-94084888D01*
X196097391Y-94037268D01*
X196309058Y-94037268D01*
X196393725Y-94084888D01*
X196436058Y-94132507D01*
X196478391Y-94227745D01*
X196478391Y-94322983D01*
X196436058Y-94465840D01*
X195928058Y-95037268D01*
X196478391Y-95037268D01*
X196859391Y-94942030D02*
X196901725Y-94989649D01*
X196859391Y-95037268D01*
X196817058Y-94989649D01*
X196859391Y-94942030D01*
X196859391Y-95037268D01*
X197663725Y-94370602D02*
X197663725Y-95037268D01*
X197452058Y-93989649D02*
X197240391Y-94703935D01*
X197790725Y-94703935D01*
X198087058Y-94751554D02*
X198510391Y-94751554D01*
X198002391Y-95037268D02*
X198298725Y-94037268D01*
X198595058Y-95037268D01*
X199526391Y-93989649D02*
X198764391Y-95275364D01*
X200203725Y-94370602D02*
X200203725Y-95037268D01*
X199992058Y-93989649D02*
X199780391Y-94703935D01*
X200330725Y-94703935D01*
X200669391Y-94942030D02*
X200711725Y-94989649D01*
X200669391Y-95037268D01*
X200627058Y-94989649D01*
X200669391Y-94942030D01*
X200669391Y-95037268D01*
X201135058Y-95037268D02*
X201304391Y-95037268D01*
X201389058Y-94989649D01*
X201431391Y-94942030D01*
X201516058Y-94799173D01*
X201558391Y-94608697D01*
X201558391Y-94227745D01*
X201516058Y-94132507D01*
X201473725Y-94084888D01*
X201389058Y-94037268D01*
X201219725Y-94037268D01*
X201135058Y-94084888D01*
X201092725Y-94132507D01*
X201050391Y-94227745D01*
X201050391Y-94465840D01*
X201092725Y-94561078D01*
X201135058Y-94608697D01*
X201219725Y-94656316D01*
X201389058Y-94656316D01*
X201473725Y-94608697D01*
X201516058Y-94561078D01*
X201558391Y-94465840D01*
X201897058Y-94751554D02*
X202320391Y-94751554D01*
X201812391Y-95037268D02*
X202108725Y-94037268D01*
X202405058Y-95037268D01*
X196478391Y-91812054D02*
X195970391Y-91812054D01*
X196224391Y-91812054D02*
X196224391Y-90923054D01*
X196139725Y-91050054D01*
X196055058Y-91134721D01*
X195970391Y-91177054D01*
X196859391Y-91727388D02*
X196901725Y-91769721D01*
X196859391Y-91812054D01*
X196817058Y-91769721D01*
X196859391Y-91727388D01*
X196859391Y-91812054D01*
X197198058Y-90923054D02*
X197790725Y-90923054D01*
X197409725Y-91812054D01*
X198087058Y-91558054D02*
X198510391Y-91558054D01*
X198002391Y-91812054D02*
X198298725Y-90923054D01*
X198595058Y-91812054D01*
X199526391Y-90880721D02*
X198764391Y-92023721D01*
X199738058Y-90923054D02*
X200288391Y-90923054D01*
X199992058Y-91261721D01*
X200119058Y-91261721D01*
X200203725Y-91304054D01*
X200246058Y-91346388D01*
X200288391Y-91431054D01*
X200288391Y-91642721D01*
X200246058Y-91727388D01*
X200203725Y-91769721D01*
X200119058Y-91812054D01*
X199865058Y-91812054D01*
X199780391Y-91769721D01*
X199738058Y-91727388D01*
X200669391Y-91727388D02*
X200711725Y-91769721D01*
X200669391Y-91812054D01*
X200627058Y-91769721D01*
X200669391Y-91727388D01*
X200669391Y-91812054D01*
X201473725Y-91219388D02*
X201473725Y-91812054D01*
X201262058Y-90880721D02*
X201050391Y-91515721D01*
X201600725Y-91515721D01*
X201897058Y-91558054D02*
X202320391Y-91558054D01*
X201812391Y-91812054D02*
X202108725Y-90923054D01*
X202405058Y-91812054D01*
X196478391Y-88637054D02*
X195970391Y-88637054D01*
X196224391Y-88637054D02*
X196224391Y-87748054D01*
X196139725Y-87875054D01*
X196055058Y-87959721D01*
X195970391Y-88002054D01*
X196859391Y-88552388D02*
X196901725Y-88594721D01*
X196859391Y-88637054D01*
X196817058Y-88594721D01*
X196859391Y-88552388D01*
X196859391Y-88637054D01*
X197663725Y-88044388D02*
X197663725Y-88637054D01*
X197452058Y-87705721D02*
X197240391Y-88340721D01*
X197790725Y-88340721D01*
X198087058Y-88383054D02*
X198510391Y-88383054D01*
X198002391Y-88637054D02*
X198298725Y-87748054D01*
X198595058Y-88637054D01*
X199526391Y-87705721D02*
X198764391Y-88848721D01*
X199780391Y-87832721D02*
X199822725Y-87790388D01*
X199907391Y-87748054D01*
X200119058Y-87748054D01*
X200203725Y-87790388D01*
X200246058Y-87832721D01*
X200288391Y-87917388D01*
X200288391Y-88002054D01*
X200246058Y-88129054D01*
X199738058Y-88637054D01*
X200288391Y-88637054D01*
X200669391Y-88552388D02*
X200711725Y-88594721D01*
X200669391Y-88637054D01*
X200627058Y-88594721D01*
X200669391Y-88552388D01*
X200669391Y-88637054D01*
X201219725Y-88129054D02*
X201135058Y-88086721D01*
X201092725Y-88044388D01*
X201050391Y-87959721D01*
X201050391Y-87917388D01*
X201092725Y-87832721D01*
X201135058Y-87790388D01*
X201219725Y-87748054D01*
X201389058Y-87748054D01*
X201473725Y-87790388D01*
X201516058Y-87832721D01*
X201558391Y-87917388D01*
X201558391Y-87959721D01*
X201516058Y-88044388D01*
X201473725Y-88086721D01*
X201389058Y-88129054D01*
X201219725Y-88129054D01*
X201135058Y-88171388D01*
X201092725Y-88213721D01*
X201050391Y-88298388D01*
X201050391Y-88467721D01*
X201092725Y-88552388D01*
X201135058Y-88594721D01*
X201219725Y-88637054D01*
X201389058Y-88637054D01*
X201473725Y-88594721D01*
X201516058Y-88552388D01*
X201558391Y-88467721D01*
X201558391Y-88298388D01*
X201516058Y-88213721D01*
X201473725Y-88171388D01*
X201389058Y-88129054D01*
X201897058Y-88383054D02*
X202320391Y-88383054D01*
X201812391Y-88637054D02*
X202108725Y-87748054D01*
X202405058Y-88637054D01*
X196478391Y-87049554D02*
X195970391Y-87049554D01*
X196224391Y-87049554D02*
X196224391Y-86160554D01*
X196139725Y-86287554D01*
X196055058Y-86372221D01*
X195970391Y-86414554D01*
X196859391Y-86964888D02*
X196901725Y-87007221D01*
X196859391Y-87049554D01*
X196817058Y-87007221D01*
X196859391Y-86964888D01*
X196859391Y-87049554D01*
X197240391Y-86245221D02*
X197282725Y-86202888D01*
X197367391Y-86160554D01*
X197579058Y-86160554D01*
X197663725Y-86202888D01*
X197706058Y-86245221D01*
X197748391Y-86329888D01*
X197748391Y-86414554D01*
X197706058Y-86541554D01*
X197198058Y-87049554D01*
X197748391Y-87049554D01*
X198087058Y-86795554D02*
X198510391Y-86795554D01*
X198002391Y-87049554D02*
X198298725Y-86160554D01*
X198595058Y-87049554D01*
X199526391Y-86118221D02*
X198764391Y-87261221D01*
X199780391Y-86245221D02*
X199822725Y-86202888D01*
X199907391Y-86160554D01*
X200119058Y-86160554D01*
X200203725Y-86202888D01*
X200246058Y-86245221D01*
X200288391Y-86329888D01*
X200288391Y-86414554D01*
X200246058Y-86541554D01*
X199738058Y-87049554D01*
X200288391Y-87049554D01*
X200669391Y-86964888D02*
X200711725Y-87007221D01*
X200669391Y-87049554D01*
X200627058Y-87007221D01*
X200669391Y-86964888D01*
X200669391Y-87049554D01*
X201516058Y-86160554D02*
X201092725Y-86160554D01*
X201050391Y-86583888D01*
X201092725Y-86541554D01*
X201177391Y-86499221D01*
X201389058Y-86499221D01*
X201473725Y-86541554D01*
X201516058Y-86583888D01*
X201558391Y-86668554D01*
X201558391Y-86880221D01*
X201516058Y-86964888D01*
X201473725Y-87007221D01*
X201389058Y-87049554D01*
X201177391Y-87049554D01*
X201092725Y-87007221D01*
X201050391Y-86964888D01*
X201897058Y-86795554D02*
X202320391Y-86795554D01*
X201812391Y-87049554D02*
X202108725Y-86160554D01*
X202405058Y-87049554D01*
X196478381Y-85462054D02*
X195970381Y-85462054D01*
X196224381Y-85462054D02*
X196224381Y-84573054D01*
X196139715Y-84700054D01*
X196055048Y-84784721D01*
X195970381Y-84827054D01*
X196859381Y-85377388D02*
X196901715Y-85419721D01*
X196859381Y-85462054D01*
X196817048Y-85419721D01*
X196859381Y-85377388D01*
X196859381Y-85462054D01*
X197452048Y-84573054D02*
X197536715Y-84573054D01*
X197621381Y-84615388D01*
X197663715Y-84657721D01*
X197706048Y-84742388D01*
X197748381Y-84911721D01*
X197748381Y-85123388D01*
X197706048Y-85292721D01*
X197663715Y-85377388D01*
X197621381Y-85419721D01*
X197536715Y-85462054D01*
X197452048Y-85462054D01*
X197367381Y-85419721D01*
X197325048Y-85377388D01*
X197282715Y-85292721D01*
X197240381Y-85123388D01*
X197240381Y-84911721D01*
X197282715Y-84742388D01*
X197325048Y-84657721D01*
X197367381Y-84615388D01*
X197452048Y-84573054D01*
X198087048Y-85208054D02*
X198510381Y-85208054D01*
X198002381Y-85462054D02*
X198298715Y-84573054D01*
X198595048Y-85462054D01*
X199526381Y-84530721D02*
X198764381Y-85673721D01*
X199780381Y-84657721D02*
X199822715Y-84615388D01*
X199907381Y-84573054D01*
X200119048Y-84573054D01*
X200203715Y-84615388D01*
X200246048Y-84657721D01*
X200288381Y-84742388D01*
X200288381Y-84827054D01*
X200246048Y-84954054D01*
X199738048Y-85462054D01*
X200288381Y-85462054D01*
X200669381Y-85377388D02*
X200711715Y-85419721D01*
X200669381Y-85462054D01*
X200627048Y-85419721D01*
X200669381Y-85377388D01*
X200669381Y-85462054D01*
X201262048Y-84573054D02*
X201346715Y-84573054D01*
X201431381Y-84615388D01*
X201473715Y-84657721D01*
X201516048Y-84742388D01*
X201558381Y-84911721D01*
X201558381Y-85123388D01*
X201516048Y-85292721D01*
X201473715Y-85377388D01*
X201431381Y-85419721D01*
X201346715Y-85462054D01*
X201262048Y-85462054D01*
X201177381Y-85419721D01*
X201135048Y-85377388D01*
X201092715Y-85292721D01*
X201050381Y-85123388D01*
X201050381Y-84911721D01*
X201092715Y-84742388D01*
X201135048Y-84657721D01*
X201177381Y-84615388D01*
X201262048Y-84573054D01*
X201897048Y-85208054D02*
X202320381Y-85208054D01*
X201812381Y-85462054D02*
X202108715Y-84573054D01*
X202405048Y-85462054D01*
X196182048Y-82985554D02*
X196266715Y-82985554D01*
X196351381Y-83027888D01*
X196393715Y-83070221D01*
X196436048Y-83154888D01*
X196478381Y-83324221D01*
X196478381Y-83535888D01*
X196436048Y-83705221D01*
X196393715Y-83789888D01*
X196351381Y-83832221D01*
X196266715Y-83874554D01*
X196182048Y-83874554D01*
X196097381Y-83832221D01*
X196055048Y-83789888D01*
X196012715Y-83705221D01*
X195970381Y-83535888D01*
X195970381Y-83324221D01*
X196012715Y-83154888D01*
X196055048Y-83070221D01*
X196097381Y-83027888D01*
X196182048Y-82985554D01*
X196859381Y-83789888D02*
X196901715Y-83832221D01*
X196859381Y-83874554D01*
X196817048Y-83832221D01*
X196859381Y-83789888D01*
X196859381Y-83874554D01*
X197325048Y-83874554D02*
X197494381Y-83874554D01*
X197579048Y-83832221D01*
X197621381Y-83789888D01*
X197706048Y-83662888D01*
X197748381Y-83493554D01*
X197748381Y-83154888D01*
X197706048Y-83070221D01*
X197663715Y-83027888D01*
X197579048Y-82985554D01*
X197409715Y-82985554D01*
X197325048Y-83027888D01*
X197282715Y-83070221D01*
X197240381Y-83154888D01*
X197240381Y-83366554D01*
X197282715Y-83451221D01*
X197325048Y-83493554D01*
X197409715Y-83535888D01*
X197579048Y-83535888D01*
X197663715Y-83493554D01*
X197706048Y-83451221D01*
X197748381Y-83366554D01*
X198087048Y-83620554D02*
X198510381Y-83620554D01*
X198002381Y-83874554D02*
X198298715Y-82985554D01*
X198595048Y-83874554D01*
X199526381Y-82943221D02*
X198764381Y-84086221D01*
X200288381Y-83874554D02*
X199780381Y-83874554D01*
X200034381Y-83874554D02*
X200034381Y-82985554D01*
X199949715Y-83112554D01*
X199865048Y-83197221D01*
X199780381Y-83239554D01*
X200669381Y-83789888D02*
X200711715Y-83832221D01*
X200669381Y-83874554D01*
X200627048Y-83832221D01*
X200669381Y-83789888D01*
X200669381Y-83874554D01*
X201219715Y-83366554D02*
X201135048Y-83324221D01*
X201092715Y-83281888D01*
X201050381Y-83197221D01*
X201050381Y-83154888D01*
X201092715Y-83070221D01*
X201135048Y-83027888D01*
X201219715Y-82985554D01*
X201389048Y-82985554D01*
X201473715Y-83027888D01*
X201516048Y-83070221D01*
X201558381Y-83154888D01*
X201558381Y-83197221D01*
X201516048Y-83281888D01*
X201473715Y-83324221D01*
X201389048Y-83366554D01*
X201219715Y-83366554D01*
X201135048Y-83408888D01*
X201092715Y-83451221D01*
X201050381Y-83535888D01*
X201050381Y-83705221D01*
X201092715Y-83789888D01*
X201135048Y-83832221D01*
X201219715Y-83874554D01*
X201389048Y-83874554D01*
X201473715Y-83832221D01*
X201516048Y-83789888D01*
X201558381Y-83705221D01*
X201558381Y-83535888D01*
X201516048Y-83451221D01*
X201473715Y-83408888D01*
X201389048Y-83366554D01*
X201897048Y-83620554D02*
X202320381Y-83620554D01*
X201812381Y-83874554D02*
X202108715Y-82985554D01*
X202405048Y-83874554D01*
X196182048Y-81398054D02*
X196266715Y-81398054D01*
X196351381Y-81440388D01*
X196393715Y-81482721D01*
X196436048Y-81567388D01*
X196478381Y-81736721D01*
X196478381Y-81948388D01*
X196436048Y-82117721D01*
X196393715Y-82202388D01*
X196351381Y-82244721D01*
X196266715Y-82287054D01*
X196182048Y-82287054D01*
X196097381Y-82244721D01*
X196055048Y-82202388D01*
X196012715Y-82117721D01*
X195970381Y-81948388D01*
X195970381Y-81736721D01*
X196012715Y-81567388D01*
X196055048Y-81482721D01*
X196097381Y-81440388D01*
X196182048Y-81398054D01*
X196859381Y-82202388D02*
X196901715Y-82244721D01*
X196859381Y-82287054D01*
X196817048Y-82244721D01*
X196859381Y-82202388D01*
X196859381Y-82287054D01*
X197409715Y-81779054D02*
X197325048Y-81736721D01*
X197282715Y-81694388D01*
X197240381Y-81609721D01*
X197240381Y-81567388D01*
X197282715Y-81482721D01*
X197325048Y-81440388D01*
X197409715Y-81398054D01*
X197579048Y-81398054D01*
X197663715Y-81440388D01*
X197706048Y-81482721D01*
X197748381Y-81567388D01*
X197748381Y-81609721D01*
X197706048Y-81694388D01*
X197663715Y-81736721D01*
X197579048Y-81779054D01*
X197409715Y-81779054D01*
X197325048Y-81821388D01*
X197282715Y-81863721D01*
X197240381Y-81948388D01*
X197240381Y-82117721D01*
X197282715Y-82202388D01*
X197325048Y-82244721D01*
X197409715Y-82287054D01*
X197579048Y-82287054D01*
X197663715Y-82244721D01*
X197706048Y-82202388D01*
X197748381Y-82117721D01*
X197748381Y-81948388D01*
X197706048Y-81863721D01*
X197663715Y-81821388D01*
X197579048Y-81779054D01*
X198087048Y-82033054D02*
X198510381Y-82033054D01*
X198002381Y-82287054D02*
X198298715Y-81398054D01*
X198595048Y-82287054D01*
X199526381Y-81355721D02*
X198764381Y-82498721D01*
X200288381Y-82287054D02*
X199780381Y-82287054D01*
X200034381Y-82287054D02*
X200034381Y-81398054D01*
X199949715Y-81525054D01*
X199865048Y-81609721D01*
X199780381Y-81652054D01*
X200669381Y-82202388D02*
X200711715Y-82244721D01*
X200669381Y-82287054D01*
X200627048Y-82244721D01*
X200669381Y-82202388D01*
X200669381Y-82287054D01*
X201516048Y-81398054D02*
X201092715Y-81398054D01*
X201050381Y-81821388D01*
X201092715Y-81779054D01*
X201177381Y-81736721D01*
X201389048Y-81736721D01*
X201473715Y-81779054D01*
X201516048Y-81821388D01*
X201558381Y-81906054D01*
X201558381Y-82117721D01*
X201516048Y-82202388D01*
X201473715Y-82244721D01*
X201389048Y-82287054D01*
X201177381Y-82287054D01*
X201092715Y-82244721D01*
X201050381Y-82202388D01*
X201897048Y-82033054D02*
X202320381Y-82033054D01*
X201812381Y-82287054D02*
X202108715Y-81398054D01*
X202405048Y-82287054D01*
X196182048Y-79810554D02*
X196266715Y-79810554D01*
X196351381Y-79852888D01*
X196393715Y-79895221D01*
X196436048Y-79979888D01*
X196478381Y-80149221D01*
X196478381Y-80360888D01*
X196436048Y-80530221D01*
X196393715Y-80614888D01*
X196351381Y-80657221D01*
X196266715Y-80699554D01*
X196182048Y-80699554D01*
X196097381Y-80657221D01*
X196055048Y-80614888D01*
X196012715Y-80530221D01*
X195970381Y-80360888D01*
X195970381Y-80149221D01*
X196012715Y-79979888D01*
X196055048Y-79895221D01*
X196097381Y-79852888D01*
X196182048Y-79810554D01*
X196859381Y-80614888D02*
X196901715Y-80657221D01*
X196859381Y-80699554D01*
X196817048Y-80657221D01*
X196859381Y-80614888D01*
X196859381Y-80699554D01*
X197663715Y-79810554D02*
X197494381Y-79810554D01*
X197409715Y-79852888D01*
X197367381Y-79895221D01*
X197282715Y-80022221D01*
X197240381Y-80191554D01*
X197240381Y-80530221D01*
X197282715Y-80614888D01*
X197325048Y-80657221D01*
X197409715Y-80699554D01*
X197579048Y-80699554D01*
X197663715Y-80657221D01*
X197706048Y-80614888D01*
X197748381Y-80530221D01*
X197748381Y-80318554D01*
X197706048Y-80233888D01*
X197663715Y-80191554D01*
X197579048Y-80149221D01*
X197409715Y-80149221D01*
X197325048Y-80191554D01*
X197282715Y-80233888D01*
X197240381Y-80318554D01*
X198087048Y-80445554D02*
X198510381Y-80445554D01*
X198002381Y-80699554D02*
X198298715Y-79810554D01*
X198595048Y-80699554D01*
X199526381Y-79768221D02*
X198764381Y-80911221D01*
X200288381Y-80699554D02*
X199780381Y-80699554D01*
X200034381Y-80699554D02*
X200034381Y-79810554D01*
X199949715Y-79937554D01*
X199865048Y-80022221D01*
X199780381Y-80064554D01*
X200669381Y-80614888D02*
X200711715Y-80657221D01*
X200669381Y-80699554D01*
X200627048Y-80657221D01*
X200669381Y-80614888D01*
X200669381Y-80699554D01*
X201050381Y-79895221D02*
X201092715Y-79852888D01*
X201177381Y-79810554D01*
X201389048Y-79810554D01*
X201473715Y-79852888D01*
X201516048Y-79895221D01*
X201558381Y-79979888D01*
X201558381Y-80064554D01*
X201516048Y-80191554D01*
X201008048Y-80699554D01*
X201558381Y-80699554D01*
X201897048Y-80445554D02*
X202320381Y-80445554D01*
X201812381Y-80699554D02*
X202108715Y-79810554D01*
X202405048Y-80699554D01*
X190800427Y-79810554D02*
X190631094Y-79810554D01*
X190546427Y-79852888D01*
X190504094Y-79895221D01*
X190419427Y-80022221D01*
X190377094Y-80191554D01*
X190377094Y-80530221D01*
X190419427Y-80614888D01*
X190461760Y-80657221D01*
X190546427Y-80699554D01*
X190715760Y-80699554D01*
X190800427Y-80657221D01*
X190842760Y-80614888D01*
X190885094Y-80530221D01*
X190885094Y-80318554D01*
X190842760Y-80233888D01*
X190800427Y-80191554D01*
X190715760Y-80149221D01*
X190546427Y-80149221D01*
X190461760Y-80191554D01*
X190419427Y-80233888D01*
X190377094Y-80318554D01*
X191901094Y-79768221D02*
X191139094Y-80911221D01*
X192366760Y-79810554D02*
X192451427Y-79810554D01*
X192536094Y-79852888D01*
X192578427Y-79895221D01*
X192620760Y-79979888D01*
X192663094Y-80149221D01*
X192663094Y-80360888D01*
X192620760Y-80530221D01*
X192578427Y-80614888D01*
X192536094Y-80657221D01*
X192451427Y-80699554D01*
X192366760Y-80699554D01*
X192282094Y-80657221D01*
X192239760Y-80614888D01*
X192197427Y-80530221D01*
X192155094Y-80360888D01*
X192155094Y-80149221D01*
X192197427Y-79979888D01*
X192239760Y-79895221D01*
X192282094Y-79852888D01*
X192366760Y-79810554D01*
X193044094Y-80614888D02*
X193086427Y-80657221D01*
X193044094Y-80699554D01*
X193001760Y-80657221D01*
X193044094Y-80614888D01*
X193044094Y-80699554D01*
X193933094Y-80699554D02*
X193425094Y-80699554D01*
X193679094Y-80699554D02*
X193679094Y-79810554D01*
X193594427Y-79937554D01*
X193509760Y-80022221D01*
X193425094Y-80064554D01*
X194737427Y-79810554D02*
X194314094Y-79810554D01*
X194271760Y-80233888D01*
X194314094Y-80191554D01*
X194398760Y-80149221D01*
X194610427Y-80149221D01*
X194695094Y-80191554D01*
X194737427Y-80233888D01*
X194779760Y-80318554D01*
X194779760Y-80530221D01*
X194737427Y-80614888D01*
X194695094Y-80657221D01*
X194610427Y-80699554D01*
X194398760Y-80699554D01*
X194314094Y-80657221D01*
X194271760Y-80614888D01*
X189953768Y-94394388D02*
X189953768Y-94987054D01*
X189742102Y-94055721D02*
X189530435Y-94690721D01*
X190080768Y-94690721D01*
X190588768Y-94098054D02*
X190673435Y-94098054D01*
X190758102Y-94140388D01*
X190800435Y-94182721D01*
X190842768Y-94267388D01*
X190885102Y-94436721D01*
X190885102Y-94648388D01*
X190842768Y-94817721D01*
X190800435Y-94902388D01*
X190758102Y-94944721D01*
X190673435Y-94987054D01*
X190588768Y-94987054D01*
X190504102Y-94944721D01*
X190461768Y-94902388D01*
X190419435Y-94817721D01*
X190377102Y-94648388D01*
X190377102Y-94436721D01*
X190419435Y-94267388D01*
X190461768Y-94182721D01*
X190504102Y-94140388D01*
X190588768Y-94098054D01*
X191901102Y-94055721D02*
X191139102Y-95198721D01*
X192663102Y-94987054D02*
X192155102Y-94987054D01*
X192409102Y-94987054D02*
X192409102Y-94098054D01*
X192324435Y-94225054D01*
X192239768Y-94309721D01*
X192155102Y-94352054D01*
X193044102Y-94902388D02*
X193086435Y-94944721D01*
X193044102Y-94987054D01*
X193001768Y-94944721D01*
X193044102Y-94902388D01*
X193044102Y-94987054D01*
X193636768Y-94098054D02*
X193721435Y-94098054D01*
X193806102Y-94140388D01*
X193848435Y-94182721D01*
X193890768Y-94267388D01*
X193933102Y-94436721D01*
X193933102Y-94648388D01*
X193890768Y-94817721D01*
X193848435Y-94902388D01*
X193806102Y-94944721D01*
X193721435Y-94987054D01*
X193636768Y-94987054D01*
X193552102Y-94944721D01*
X193509768Y-94902388D01*
X193467435Y-94817721D01*
X193425102Y-94648388D01*
X193425102Y-94436721D01*
X193467435Y-94267388D01*
X193509768Y-94182721D01*
X193552102Y-94140388D01*
X193636768Y-94098054D01*
X194483435Y-94098054D02*
X194568102Y-94098054D01*
X194652768Y-94140388D01*
X194695102Y-94182721D01*
X194737435Y-94267388D01*
X194779768Y-94436721D01*
X194779768Y-94648388D01*
X194737435Y-94817721D01*
X194695102Y-94902388D01*
X194652768Y-94944721D01*
X194568102Y-94987054D01*
X194483435Y-94987054D01*
X194398768Y-94944721D01*
X194356435Y-94902388D01*
X194314102Y-94817721D01*
X194271768Y-94648388D01*
X194271768Y-94436721D01*
X194314102Y-94267388D01*
X194356435Y-94182721D01*
X194398768Y-94140388D01*
X194483435Y-94098054D01*
X189488102Y-92510554D02*
X190038435Y-92510554D01*
X189742102Y-92849221D01*
X189869102Y-92849221D01*
X189953768Y-92891554D01*
X189996102Y-92933888D01*
X190038435Y-93018554D01*
X190038435Y-93230221D01*
X189996102Y-93314888D01*
X189953768Y-93357221D01*
X189869102Y-93399554D01*
X189615102Y-93399554D01*
X189530435Y-93357221D01*
X189488102Y-93314888D01*
X190588768Y-92510554D02*
X190673435Y-92510554D01*
X190758102Y-92552888D01*
X190800435Y-92595221D01*
X190842768Y-92679888D01*
X190885102Y-92849221D01*
X190885102Y-93060888D01*
X190842768Y-93230221D01*
X190800435Y-93314888D01*
X190758102Y-93357221D01*
X190673435Y-93399554D01*
X190588768Y-93399554D01*
X190504102Y-93357221D01*
X190461768Y-93314888D01*
X190419435Y-93230221D01*
X190377102Y-93060888D01*
X190377102Y-92849221D01*
X190419435Y-92679888D01*
X190461768Y-92595221D01*
X190504102Y-92552888D01*
X190588768Y-92510554D01*
X191901102Y-92468221D02*
X191139102Y-93611221D01*
X192366768Y-92510554D02*
X192451435Y-92510554D01*
X192536102Y-92552888D01*
X192578435Y-92595221D01*
X192620768Y-92679888D01*
X192663102Y-92849221D01*
X192663102Y-93060888D01*
X192620768Y-93230221D01*
X192578435Y-93314888D01*
X192536102Y-93357221D01*
X192451435Y-93399554D01*
X192366768Y-93399554D01*
X192282102Y-93357221D01*
X192239768Y-93314888D01*
X192197435Y-93230221D01*
X192155102Y-93060888D01*
X192155102Y-92849221D01*
X192197435Y-92679888D01*
X192239768Y-92595221D01*
X192282102Y-92552888D01*
X192366768Y-92510554D01*
X193044102Y-93314888D02*
X193086435Y-93357221D01*
X193044102Y-93399554D01*
X193001768Y-93357221D01*
X193044102Y-93314888D01*
X193044102Y-93399554D01*
X193382768Y-92510554D02*
X193975435Y-92510554D01*
X193594435Y-93399554D01*
X194695102Y-92510554D02*
X194525768Y-92510554D01*
X194441102Y-92552888D01*
X194398768Y-92595221D01*
X194314102Y-92722221D01*
X194271768Y-92891554D01*
X194271768Y-93230221D01*
X194314102Y-93314888D01*
X194356435Y-93357221D01*
X194441102Y-93399554D01*
X194610435Y-93399554D01*
X194695102Y-93357221D01*
X194737435Y-93314888D01*
X194779768Y-93230221D01*
X194779768Y-93018554D01*
X194737435Y-92933888D01*
X194695102Y-92891554D01*
X194610435Y-92849221D01*
X194441102Y-92849221D01*
X194356435Y-92891554D01*
X194314102Y-92933888D01*
X194271768Y-93018554D01*
X189530435Y-91007721D02*
X189572768Y-90965388D01*
X189657435Y-90923054D01*
X189869102Y-90923054D01*
X189953768Y-90965388D01*
X189996102Y-91007721D01*
X190038435Y-91092388D01*
X190038435Y-91177054D01*
X189996102Y-91304054D01*
X189488102Y-91812054D01*
X190038435Y-91812054D01*
X190800435Y-91219388D02*
X190800435Y-91812054D01*
X190588768Y-90880721D02*
X190377102Y-91515721D01*
X190927435Y-91515721D01*
X191901102Y-90880721D02*
X191139102Y-92023721D01*
X192366768Y-90923054D02*
X192451435Y-90923054D01*
X192536102Y-90965388D01*
X192578435Y-91007721D01*
X192620768Y-91092388D01*
X192663102Y-91261721D01*
X192663102Y-91473388D01*
X192620768Y-91642721D01*
X192578435Y-91727388D01*
X192536102Y-91769721D01*
X192451435Y-91812054D01*
X192366768Y-91812054D01*
X192282102Y-91769721D01*
X192239768Y-91727388D01*
X192197435Y-91642721D01*
X192155102Y-91473388D01*
X192155102Y-91261721D01*
X192197435Y-91092388D01*
X192239768Y-91007721D01*
X192282102Y-90965388D01*
X192366768Y-90923054D01*
X193044102Y-91727388D02*
X193086435Y-91769721D01*
X193044102Y-91812054D01*
X193001768Y-91769721D01*
X193044102Y-91727388D01*
X193044102Y-91812054D01*
X193848435Y-90923054D02*
X193679102Y-90923054D01*
X193594435Y-90965388D01*
X193552102Y-91007721D01*
X193467435Y-91134721D01*
X193425102Y-91304054D01*
X193425102Y-91642721D01*
X193467435Y-91727388D01*
X193509768Y-91769721D01*
X193594435Y-91812054D01*
X193763768Y-91812054D01*
X193848435Y-91769721D01*
X193890768Y-91727388D01*
X193933102Y-91642721D01*
X193933102Y-91431054D01*
X193890768Y-91346388D01*
X193848435Y-91304054D01*
X193763768Y-91261721D01*
X193594435Y-91261721D01*
X193509768Y-91304054D01*
X193467435Y-91346388D01*
X193425102Y-91431054D01*
X194483435Y-90923054D02*
X194568102Y-90923054D01*
X194652768Y-90965388D01*
X194695102Y-91007721D01*
X194737435Y-91092388D01*
X194779768Y-91261721D01*
X194779768Y-91473388D01*
X194737435Y-91642721D01*
X194695102Y-91727388D01*
X194652768Y-91769721D01*
X194568102Y-91812054D01*
X194483435Y-91812054D01*
X194398768Y-91769721D01*
X194356435Y-91727388D01*
X194314102Y-91642721D01*
X194271768Y-91473388D01*
X194271768Y-91261721D01*
X194314102Y-91092388D01*
X194356435Y-91007721D01*
X194398768Y-90965388D01*
X194483435Y-90923054D01*
X189530435Y-89420221D02*
X189572768Y-89377888D01*
X189657435Y-89335554D01*
X189869102Y-89335554D01*
X189953768Y-89377888D01*
X189996102Y-89420221D01*
X190038435Y-89504888D01*
X190038435Y-89589554D01*
X189996102Y-89716554D01*
X189488102Y-90224554D01*
X190038435Y-90224554D01*
X190588768Y-89335554D02*
X190673435Y-89335554D01*
X190758102Y-89377888D01*
X190800435Y-89420221D01*
X190842768Y-89504888D01*
X190885102Y-89674221D01*
X190885102Y-89885888D01*
X190842768Y-90055221D01*
X190800435Y-90139888D01*
X190758102Y-90182221D01*
X190673435Y-90224554D01*
X190588768Y-90224554D01*
X190504102Y-90182221D01*
X190461768Y-90139888D01*
X190419435Y-90055221D01*
X190377102Y-89885888D01*
X190377102Y-89674221D01*
X190419435Y-89504888D01*
X190461768Y-89420221D01*
X190504102Y-89377888D01*
X190588768Y-89335554D01*
X191901102Y-89293221D02*
X191139102Y-90436221D01*
X192366768Y-89335554D02*
X192451435Y-89335554D01*
X192536102Y-89377888D01*
X192578435Y-89420221D01*
X192620768Y-89504888D01*
X192663102Y-89674221D01*
X192663102Y-89885888D01*
X192620768Y-90055221D01*
X192578435Y-90139888D01*
X192536102Y-90182221D01*
X192451435Y-90224554D01*
X192366768Y-90224554D01*
X192282102Y-90182221D01*
X192239768Y-90139888D01*
X192197435Y-90055221D01*
X192155102Y-89885888D01*
X192155102Y-89674221D01*
X192197435Y-89504888D01*
X192239768Y-89420221D01*
X192282102Y-89377888D01*
X192366768Y-89335554D01*
X193044102Y-90139888D02*
X193086435Y-90182221D01*
X193044102Y-90224554D01*
X193001768Y-90182221D01*
X193044102Y-90139888D01*
X193044102Y-90224554D01*
X193890768Y-89335554D02*
X193467435Y-89335554D01*
X193425102Y-89758888D01*
X193467435Y-89716554D01*
X193552102Y-89674221D01*
X193763768Y-89674221D01*
X193848435Y-89716554D01*
X193890768Y-89758888D01*
X193933102Y-89843554D01*
X193933102Y-90055221D01*
X193890768Y-90139888D01*
X193848435Y-90182221D01*
X193763768Y-90224554D01*
X193552102Y-90224554D01*
X193467435Y-90182221D01*
X193425102Y-90139888D01*
X194483435Y-89335554D02*
X194568102Y-89335554D01*
X194652768Y-89377888D01*
X194695102Y-89420221D01*
X194737435Y-89504888D01*
X194779768Y-89674221D01*
X194779768Y-89885888D01*
X194737435Y-90055221D01*
X194695102Y-90139888D01*
X194652768Y-90182221D01*
X194568102Y-90224554D01*
X194483435Y-90224554D01*
X194398768Y-90182221D01*
X194356435Y-90139888D01*
X194314102Y-90055221D01*
X194271768Y-89885888D01*
X194271768Y-89674221D01*
X194314102Y-89504888D01*
X194356435Y-89420221D01*
X194398768Y-89377888D01*
X194483435Y-89335554D01*
X190038435Y-88637054D02*
X189530435Y-88637054D01*
X189784435Y-88637054D02*
X189784435Y-87748054D01*
X189699768Y-87875054D01*
X189615102Y-87959721D01*
X189530435Y-88002054D01*
X190546435Y-88129054D02*
X190461768Y-88086721D01*
X190419435Y-88044388D01*
X190377102Y-87959721D01*
X190377102Y-87917388D01*
X190419435Y-87832721D01*
X190461768Y-87790388D01*
X190546435Y-87748054D01*
X190715768Y-87748054D01*
X190800435Y-87790388D01*
X190842768Y-87832721D01*
X190885102Y-87917388D01*
X190885102Y-87959721D01*
X190842768Y-88044388D01*
X190800435Y-88086721D01*
X190715768Y-88129054D01*
X190546435Y-88129054D01*
X190461768Y-88171388D01*
X190419435Y-88213721D01*
X190377102Y-88298388D01*
X190377102Y-88467721D01*
X190419435Y-88552388D01*
X190461768Y-88594721D01*
X190546435Y-88637054D01*
X190715768Y-88637054D01*
X190800435Y-88594721D01*
X190842768Y-88552388D01*
X190885102Y-88467721D01*
X190885102Y-88298388D01*
X190842768Y-88213721D01*
X190800435Y-88171388D01*
X190715768Y-88129054D01*
X191901102Y-87705721D02*
X191139102Y-88848721D01*
X192366768Y-87748054D02*
X192451435Y-87748054D01*
X192536102Y-87790388D01*
X192578435Y-87832721D01*
X192620768Y-87917388D01*
X192663102Y-88086721D01*
X192663102Y-88298388D01*
X192620768Y-88467721D01*
X192578435Y-88552388D01*
X192536102Y-88594721D01*
X192451435Y-88637054D01*
X192366768Y-88637054D01*
X192282102Y-88594721D01*
X192239768Y-88552388D01*
X192197435Y-88467721D01*
X192155102Y-88298388D01*
X192155102Y-88086721D01*
X192197435Y-87917388D01*
X192239768Y-87832721D01*
X192282102Y-87790388D01*
X192366768Y-87748054D01*
X193044102Y-88552388D02*
X193086435Y-88594721D01*
X193044102Y-88637054D01*
X193001768Y-88594721D01*
X193044102Y-88552388D01*
X193044102Y-88637054D01*
X193848435Y-88044388D02*
X193848435Y-88637054D01*
X193636768Y-87705721D02*
X193425102Y-88340721D01*
X193975435Y-88340721D01*
X194737435Y-87748054D02*
X194314102Y-87748054D01*
X194271768Y-88171388D01*
X194314102Y-88129054D01*
X194398768Y-88086721D01*
X194610435Y-88086721D01*
X194695102Y-88129054D01*
X194737435Y-88171388D01*
X194779768Y-88256054D01*
X194779768Y-88467721D01*
X194737435Y-88552388D01*
X194695102Y-88594721D01*
X194610435Y-88637054D01*
X194398768Y-88637054D01*
X194314102Y-88594721D01*
X194271768Y-88552388D01*
X190038435Y-87049554D02*
X189530435Y-87049554D01*
X189784435Y-87049554D02*
X189784435Y-86160554D01*
X189699768Y-86287554D01*
X189615102Y-86372221D01*
X189530435Y-86414554D01*
X190800435Y-86160554D02*
X190631102Y-86160554D01*
X190546435Y-86202888D01*
X190504102Y-86245221D01*
X190419435Y-86372221D01*
X190377102Y-86541554D01*
X190377102Y-86880221D01*
X190419435Y-86964888D01*
X190461768Y-87007221D01*
X190546435Y-87049554D01*
X190715768Y-87049554D01*
X190800435Y-87007221D01*
X190842768Y-86964888D01*
X190885102Y-86880221D01*
X190885102Y-86668554D01*
X190842768Y-86583888D01*
X190800435Y-86541554D01*
X190715768Y-86499221D01*
X190546435Y-86499221D01*
X190461768Y-86541554D01*
X190419435Y-86583888D01*
X190377102Y-86668554D01*
X191901102Y-86118221D02*
X191139102Y-87261221D01*
X192366768Y-86160554D02*
X192451435Y-86160554D01*
X192536102Y-86202888D01*
X192578435Y-86245221D01*
X192620768Y-86329888D01*
X192663102Y-86499221D01*
X192663102Y-86710888D01*
X192620768Y-86880221D01*
X192578435Y-86964888D01*
X192536102Y-87007221D01*
X192451435Y-87049554D01*
X192366768Y-87049554D01*
X192282102Y-87007221D01*
X192239768Y-86964888D01*
X192197435Y-86880221D01*
X192155102Y-86710888D01*
X192155102Y-86499221D01*
X192197435Y-86329888D01*
X192239768Y-86245221D01*
X192282102Y-86202888D01*
X192366768Y-86160554D01*
X193044102Y-86964888D02*
X193086435Y-87007221D01*
X193044102Y-87049554D01*
X193001768Y-87007221D01*
X193044102Y-86964888D01*
X193044102Y-87049554D01*
X193848435Y-86456888D02*
X193848435Y-87049554D01*
X193636768Y-86118221D02*
X193425102Y-86753221D01*
X193975435Y-86753221D01*
X194483435Y-86160554D02*
X194568102Y-86160554D01*
X194652768Y-86202888D01*
X194695102Y-86245221D01*
X194737435Y-86329888D01*
X194779768Y-86499221D01*
X194779768Y-86710888D01*
X194737435Y-86880221D01*
X194695102Y-86964888D01*
X194652768Y-87007221D01*
X194568102Y-87049554D01*
X194483435Y-87049554D01*
X194398768Y-87007221D01*
X194356435Y-86964888D01*
X194314102Y-86880221D01*
X194271768Y-86710888D01*
X194271768Y-86499221D01*
X194314102Y-86329888D01*
X194356435Y-86245221D01*
X194398768Y-86202888D01*
X194483435Y-86160554D01*
X190038427Y-85462054D02*
X189530427Y-85462054D01*
X189784427Y-85462054D02*
X189784427Y-84573054D01*
X189699760Y-84700054D01*
X189615094Y-84784721D01*
X189530427Y-84827054D01*
X190377094Y-84657721D02*
X190419427Y-84615388D01*
X190504094Y-84573054D01*
X190715760Y-84573054D01*
X190800427Y-84615388D01*
X190842760Y-84657721D01*
X190885094Y-84742388D01*
X190885094Y-84827054D01*
X190842760Y-84954054D01*
X190334760Y-85462054D01*
X190885094Y-85462054D01*
X191901094Y-84530721D02*
X191139094Y-85673721D01*
X192366760Y-84573054D02*
X192451427Y-84573054D01*
X192536094Y-84615388D01*
X192578427Y-84657721D01*
X192620760Y-84742388D01*
X192663094Y-84911721D01*
X192663094Y-85123388D01*
X192620760Y-85292721D01*
X192578427Y-85377388D01*
X192536094Y-85419721D01*
X192451427Y-85462054D01*
X192366760Y-85462054D01*
X192282094Y-85419721D01*
X192239760Y-85377388D01*
X192197427Y-85292721D01*
X192155094Y-85123388D01*
X192155094Y-84911721D01*
X192197427Y-84742388D01*
X192239760Y-84657721D01*
X192282094Y-84615388D01*
X192366760Y-84573054D01*
X193044094Y-85377388D02*
X193086427Y-85419721D01*
X193044094Y-85462054D01*
X193001760Y-85419721D01*
X193044094Y-85377388D01*
X193044094Y-85462054D01*
X193382760Y-84573054D02*
X193933094Y-84573054D01*
X193636760Y-84911721D01*
X193763760Y-84911721D01*
X193848427Y-84954054D01*
X193890760Y-84996388D01*
X193933094Y-85081054D01*
X193933094Y-85292721D01*
X193890760Y-85377388D01*
X193848427Y-85419721D01*
X193763760Y-85462054D01*
X193509760Y-85462054D01*
X193425094Y-85419721D01*
X193382760Y-85377388D01*
X194483427Y-84573054D02*
X194568094Y-84573054D01*
X194652760Y-84615388D01*
X194695094Y-84657721D01*
X194737427Y-84742388D01*
X194779760Y-84911721D01*
X194779760Y-85123388D01*
X194737427Y-85292721D01*
X194695094Y-85377388D01*
X194652760Y-85419721D01*
X194568094Y-85462054D01*
X194483427Y-85462054D01*
X194398760Y-85419721D01*
X194356427Y-85377388D01*
X194314094Y-85292721D01*
X194271760Y-85123388D01*
X194271760Y-84911721D01*
X194314094Y-84742388D01*
X194356427Y-84657721D01*
X194398760Y-84615388D01*
X194483427Y-84573054D01*
X190038427Y-83874554D02*
X189530427Y-83874554D01*
X189784427Y-83874554D02*
X189784427Y-82985554D01*
X189699760Y-83112554D01*
X189615094Y-83197221D01*
X189530427Y-83239554D01*
X190588760Y-82985554D02*
X190673427Y-82985554D01*
X190758094Y-83027888D01*
X190800427Y-83070221D01*
X190842760Y-83154888D01*
X190885094Y-83324221D01*
X190885094Y-83535888D01*
X190842760Y-83705221D01*
X190800427Y-83789888D01*
X190758094Y-83832221D01*
X190673427Y-83874554D01*
X190588760Y-83874554D01*
X190504094Y-83832221D01*
X190461760Y-83789888D01*
X190419427Y-83705221D01*
X190377094Y-83535888D01*
X190377094Y-83324221D01*
X190419427Y-83154888D01*
X190461760Y-83070221D01*
X190504094Y-83027888D01*
X190588760Y-82985554D01*
X191901094Y-82943221D02*
X191139094Y-84086221D01*
X192366760Y-82985554D02*
X192451427Y-82985554D01*
X192536094Y-83027888D01*
X192578427Y-83070221D01*
X192620760Y-83154888D01*
X192663094Y-83324221D01*
X192663094Y-83535888D01*
X192620760Y-83705221D01*
X192578427Y-83789888D01*
X192536094Y-83832221D01*
X192451427Y-83874554D01*
X192366760Y-83874554D01*
X192282094Y-83832221D01*
X192239760Y-83789888D01*
X192197427Y-83705221D01*
X192155094Y-83535888D01*
X192155094Y-83324221D01*
X192197427Y-83154888D01*
X192239760Y-83070221D01*
X192282094Y-83027888D01*
X192366760Y-82985554D01*
X193044094Y-83789888D02*
X193086427Y-83832221D01*
X193044094Y-83874554D01*
X193001760Y-83832221D01*
X193044094Y-83789888D01*
X193044094Y-83874554D01*
X193425094Y-83070221D02*
X193467427Y-83027888D01*
X193552094Y-82985554D01*
X193763760Y-82985554D01*
X193848427Y-83027888D01*
X193890760Y-83070221D01*
X193933094Y-83154888D01*
X193933094Y-83239554D01*
X193890760Y-83366554D01*
X193382760Y-83874554D01*
X193933094Y-83874554D01*
X194737427Y-82985554D02*
X194314094Y-82985554D01*
X194271760Y-83408888D01*
X194314094Y-83366554D01*
X194398760Y-83324221D01*
X194610427Y-83324221D01*
X194695094Y-83366554D01*
X194737427Y-83408888D01*
X194779760Y-83493554D01*
X194779760Y-83705221D01*
X194737427Y-83789888D01*
X194695094Y-83832221D01*
X194610427Y-83874554D01*
X194398760Y-83874554D01*
X194314094Y-83832221D01*
X194271760Y-83789888D01*
X190546427Y-81779054D02*
X190461760Y-81736721D01*
X190419427Y-81694388D01*
X190377094Y-81609721D01*
X190377094Y-81567388D01*
X190419427Y-81482721D01*
X190461760Y-81440388D01*
X190546427Y-81398054D01*
X190715760Y-81398054D01*
X190800427Y-81440388D01*
X190842760Y-81482721D01*
X190885094Y-81567388D01*
X190885094Y-81609721D01*
X190842760Y-81694388D01*
X190800427Y-81736721D01*
X190715760Y-81779054D01*
X190546427Y-81779054D01*
X190461760Y-81821388D01*
X190419427Y-81863721D01*
X190377094Y-81948388D01*
X190377094Y-82117721D01*
X190419427Y-82202388D01*
X190461760Y-82244721D01*
X190546427Y-82287054D01*
X190715760Y-82287054D01*
X190800427Y-82244721D01*
X190842760Y-82202388D01*
X190885094Y-82117721D01*
X190885094Y-81948388D01*
X190842760Y-81863721D01*
X190800427Y-81821388D01*
X190715760Y-81779054D01*
X191901094Y-81355721D02*
X191139094Y-82498721D01*
X192366760Y-81398054D02*
X192451427Y-81398054D01*
X192536094Y-81440388D01*
X192578427Y-81482721D01*
X192620760Y-81567388D01*
X192663094Y-81736721D01*
X192663094Y-81948388D01*
X192620760Y-82117721D01*
X192578427Y-82202388D01*
X192536094Y-82244721D01*
X192451427Y-82287054D01*
X192366760Y-82287054D01*
X192282094Y-82244721D01*
X192239760Y-82202388D01*
X192197427Y-82117721D01*
X192155094Y-81948388D01*
X192155094Y-81736721D01*
X192197427Y-81567388D01*
X192239760Y-81482721D01*
X192282094Y-81440388D01*
X192366760Y-81398054D01*
X193044094Y-82202388D02*
X193086427Y-82244721D01*
X193044094Y-82287054D01*
X193001760Y-82244721D01*
X193044094Y-82202388D01*
X193044094Y-82287054D01*
X193425094Y-81482721D02*
X193467427Y-81440388D01*
X193552094Y-81398054D01*
X193763760Y-81398054D01*
X193848427Y-81440388D01*
X193890760Y-81482721D01*
X193933094Y-81567388D01*
X193933094Y-81652054D01*
X193890760Y-81779054D01*
X193382760Y-82287054D01*
X193933094Y-82287054D01*
X194483427Y-81398054D02*
X194568094Y-81398054D01*
X194652760Y-81440388D01*
X194695094Y-81482721D01*
X194737427Y-81567388D01*
X194779760Y-81736721D01*
X194779760Y-81948388D01*
X194737427Y-82117721D01*
X194695094Y-82202388D01*
X194652760Y-82244721D01*
X194568094Y-82287054D01*
X194483427Y-82287054D01*
X194398760Y-82244721D01*
X194356427Y-82202388D01*
X194314094Y-82117721D01*
X194271760Y-81948388D01*
X194271760Y-81736721D01*
X194314094Y-81567388D01*
X194356427Y-81482721D01*
X194398760Y-81440388D01*
X194483427Y-81398054D01*
X202755476Y-99464880D02*
X202565000Y-99464880D01*
X202469761Y-99512500D01*
X202422142Y-99560119D01*
X202326904Y-99702976D01*
X202279285Y-99893452D01*
X202279285Y-100274404D01*
X202326904Y-100369642D01*
X202374523Y-100417261D01*
X202469761Y-100464880D01*
X202660238Y-100464880D01*
X202755476Y-100417261D01*
X202803095Y-100369642D01*
X202850714Y-100274404D01*
X202850714Y-100036309D01*
X202803095Y-99941071D01*
X202755476Y-99893452D01*
X202660238Y-99845833D01*
X202469761Y-99845833D01*
X202374523Y-99893452D01*
X202326904Y-99941071D01*
X202279285Y-100036309D01*
X177403095Y-99464880D02*
X176926904Y-99464880D01*
X176879285Y-99941071D01*
X176926904Y-99893452D01*
X177022142Y-99845833D01*
X177260238Y-99845833D01*
X177355476Y-99893452D01*
X177403095Y-99941071D01*
X177450714Y-100036309D01*
X177450714Y-100274404D01*
X177403095Y-100369642D01*
X177355476Y-100417261D01*
X177260238Y-100464880D01*
X177022142Y-100464880D01*
X176926904Y-100417261D01*
X176879285Y-100369642D01*
X151955476Y-99798214D02*
X151955476Y-100464880D01*
X151717380Y-99417261D02*
X151479285Y-100131547D01*
X152098333Y-100131547D01*
X126031666Y-99464880D02*
X126650714Y-99464880D01*
X126317380Y-99845833D01*
X126460238Y-99845833D01*
X126555476Y-99893452D01*
X126603095Y-99941071D01*
X126650714Y-100036309D01*
X126650714Y-100274404D01*
X126603095Y-100369642D01*
X126555476Y-100417261D01*
X126460238Y-100464880D01*
X126174523Y-100464880D01*
X126079285Y-100417261D01*
X126031666Y-100369642D01*
X75850714Y-100464880D02*
X75279285Y-100464880D01*
X75565000Y-100464880D02*
X75565000Y-99464880D01*
X75469761Y-99607738D01*
X75374523Y-99702976D01*
X75279285Y-99750595D01*
X178525714Y-71355857D02*
X177074285Y-71355857D01*
X176929142Y-72807285D01*
X177074285Y-72662142D01*
X177364571Y-72517000D01*
X178090285Y-72517000D01*
X178380571Y-72662142D01*
X178525714Y-72807285D01*
X178670857Y-73097571D01*
X178670857Y-73823285D01*
X178525714Y-74113571D01*
X178380571Y-74258714D01*
X178090285Y-74403857D01*
X177364571Y-74403857D01*
X177074285Y-74258714D01*
X176929142Y-74113571D01*
X152980571Y-72371857D02*
X152980571Y-74403857D01*
X152254857Y-71210714D02*
X151529142Y-73387857D01*
X153416000Y-73387857D01*
X125984000Y-71355857D02*
X127870857Y-71355857D01*
X126854857Y-72517000D01*
X127290285Y-72517000D01*
X127580571Y-72662142D01*
X127725714Y-72807285D01*
X127870857Y-73097571D01*
X127870857Y-73823285D01*
X127725714Y-74113571D01*
X127580571Y-74258714D01*
X127290285Y-74403857D01*
X126419428Y-74403857D01*
X126129142Y-74258714D01*
X125984000Y-74113571D01*
X100729142Y-71646142D02*
X100874285Y-71501000D01*
X101164571Y-71355857D01*
X101890285Y-71355857D01*
X102180571Y-71501000D01*
X102325714Y-71646142D01*
X102470857Y-71936428D01*
X102470857Y-72226714D01*
X102325714Y-72662142D01*
X100584000Y-74403857D01*
X102470857Y-74403857D01*
X77070857Y-74403857D02*
X75329142Y-74403857D01*
X76200000Y-74403857D02*
X76200000Y-71355857D01*
X75909714Y-71791285D01*
X75619428Y-72081571D01*
X75329142Y-72226714D01*
D12*
G36*
X57359469Y-83715756D02*
G01*
X57443730Y-83792252D01*
X57460522Y-83985416D01*
X57460560Y-84008750D01*
X57447002Y-84214210D01*
X57370506Y-84298471D01*
X57177342Y-84315263D01*
X57154009Y-84315301D01*
X56948548Y-84301743D01*
X56864287Y-84225247D01*
X56847495Y-84032083D01*
X56847457Y-84008750D01*
X56861015Y-83803289D01*
X56937511Y-83719028D01*
X57130675Y-83702236D01*
X57154009Y-83702198D01*
X57359469Y-83715756D01*
G37*
X57359469Y-83715756D02*
X57443730Y-83792252D01*
X57460522Y-83985416D01*
X57460560Y-84008750D01*
X57447002Y-84214210D01*
X57370506Y-84298471D01*
X57177342Y-84315263D01*
X57154009Y-84315301D01*
X56948548Y-84301743D01*
X56864287Y-84225247D01*
X56847495Y-84032083D01*
X56847457Y-84008750D01*
X56861015Y-83803289D01*
X56937511Y-83719028D01*
X57130675Y-83702236D01*
X57154009Y-83702198D01*
X57359469Y-83715756D01*
G36*
X64716711Y-88620584D02*
G01*
X64800972Y-88697080D01*
X64817764Y-88890244D01*
X64817802Y-88913577D01*
X64804243Y-89119038D01*
X64727747Y-89203299D01*
X64534583Y-89220091D01*
X64511250Y-89220129D01*
X64305789Y-89206570D01*
X64221528Y-89130074D01*
X64204736Y-88936910D01*
X64204698Y-88913577D01*
X64218257Y-88708117D01*
X64294753Y-88623856D01*
X64487917Y-88607064D01*
X64511250Y-88607025D01*
X64716711Y-88620584D01*
G37*
X64716711Y-88620584D02*
X64800972Y-88697080D01*
X64817764Y-88890244D01*
X64817802Y-88913577D01*
X64804243Y-89119038D01*
X64727747Y-89203299D01*
X64534583Y-89220091D01*
X64511250Y-89220129D01*
X64305789Y-89206570D01*
X64221528Y-89130074D01*
X64204736Y-88936910D01*
X64204698Y-88913577D01*
X64218257Y-88708117D01*
X64294753Y-88623856D01*
X64487917Y-88607064D01*
X64511250Y-88607025D01*
X64716711Y-88620584D01*
G36*
X63490504Y-78197825D02*
G01*
X63574765Y-78274321D01*
X63591557Y-78467485D01*
X63591595Y-78490819D01*
X63578036Y-78696279D01*
X63501540Y-78780540D01*
X63308376Y-78797332D01*
X63285043Y-78797370D01*
X63079582Y-78783812D01*
X62995321Y-78707316D01*
X62978529Y-78514152D01*
X62978491Y-78490819D01*
X62992050Y-78285358D01*
X63068546Y-78201097D01*
X63261710Y-78184305D01*
X63285043Y-78184267D01*
X63490504Y-78197825D01*
G37*
X63490504Y-78197825D02*
X63574765Y-78274321D01*
X63591557Y-78467485D01*
X63591595Y-78490819D01*
X63578036Y-78696279D01*
X63501540Y-78780540D01*
X63308376Y-78797332D01*
X63285043Y-78797370D01*
X63079582Y-78783812D01*
X62995321Y-78707316D01*
X62978529Y-78514152D01*
X62978491Y-78490819D01*
X62992050Y-78285358D01*
X63068546Y-78201097D01*
X63261710Y-78184305D01*
X63285043Y-78184267D01*
X63490504Y-78197825D01*
G36*
X68496422Y-81862888D02*
G01*
X64204698Y-81862888D01*
X64204698Y-78184267D01*
X64817802Y-78184267D01*
X64817802Y-81249784D01*
X67883319Y-81249784D01*
X67883319Y-78184267D01*
X64817802Y-78184267D01*
X64204698Y-78184267D01*
X64204698Y-77571163D01*
X68496422Y-77571163D01*
X68496422Y-81862888D01*
G37*
X68496422Y-81862888D02*
X64204698Y-81862888D01*
X64204698Y-78184267D01*
X64817802Y-78184267D01*
X64817802Y-81249784D01*
X67883319Y-81249784D01*
X67883319Y-78184267D01*
X64817802Y-78184267D01*
X64204698Y-78184267D01*
X64204698Y-77571163D01*
X68496422Y-77571163D01*
X68496422Y-81862888D01*
G36*
X57460560Y-81862888D02*
G01*
X53168836Y-81862888D01*
X53168836Y-78184267D01*
X53781940Y-78184267D01*
X53781940Y-81249784D01*
X56847457Y-81249784D01*
X56847457Y-78184267D01*
X53781940Y-78184267D01*
X53168836Y-78184267D01*
X53168836Y-77571163D01*
X57460560Y-77571163D01*
X57460560Y-81862888D01*
G37*
X57460560Y-81862888D02*
X53168836Y-81862888D01*
X53168836Y-78184267D01*
X53781940Y-78184267D01*
X53781940Y-81249784D01*
X56847457Y-81249784D01*
X56847457Y-78184267D01*
X53781940Y-78184267D01*
X53168836Y-78184267D01*
X53168836Y-77571163D01*
X57460560Y-77571163D01*
X57460560Y-81862888D01*
G36*
X59299871Y-90446336D02*
G01*
X58993319Y-90446336D01*
X58787858Y-90459894D01*
X58703597Y-90536390D01*
X58686805Y-90729554D01*
X58686767Y-90752888D01*
X58673209Y-90958348D01*
X58596713Y-91042609D01*
X58403549Y-91059401D01*
X58380216Y-91059439D01*
X58073664Y-91059439D01*
X58073664Y-89833232D01*
X58380216Y-89833232D01*
X58585676Y-89819674D01*
X58669937Y-89743178D01*
X58686729Y-89550014D01*
X58686767Y-89526681D01*
X58700326Y-89321220D01*
X58776822Y-89236959D01*
X58969986Y-89220167D01*
X58993319Y-89220129D01*
X59299871Y-89220129D01*
X59299871Y-90446336D01*
G37*
X59299871Y-90446336D02*
X58993319Y-90446336D01*
X58787858Y-90459894D01*
X58703597Y-90536390D01*
X58686805Y-90729554D01*
X58686767Y-90752888D01*
X58673209Y-90958348D01*
X58596713Y-91042609D01*
X58403549Y-91059401D01*
X58380216Y-91059439D01*
X58073664Y-91059439D01*
X58073664Y-89833232D01*
X58380216Y-89833232D01*
X58585676Y-89819674D01*
X58669937Y-89743178D01*
X58686729Y-89550014D01*
X58686767Y-89526681D01*
X58700326Y-89321220D01*
X58776822Y-89236959D01*
X58969986Y-89220167D01*
X58993319Y-89220129D01*
X59299871Y-89220129D01*
X59299871Y-90446336D01*
G36*
X66657112Y-88607025D02*
G01*
X66657112Y-87380819D01*
X66044009Y-87380819D01*
X66044009Y-90446336D01*
X64817802Y-90446336D01*
X64817802Y-90752888D01*
X64804243Y-90958348D01*
X64727747Y-91042609D01*
X64534583Y-91059401D01*
X64511250Y-91059439D01*
X64305789Y-91072998D01*
X64221528Y-91149494D01*
X64204736Y-91342658D01*
X64204698Y-91365991D01*
X64204698Y-91672543D01*
X62978491Y-91672543D01*
X62978491Y-91365991D01*
X62992050Y-91160530D01*
X63068546Y-91076269D01*
X63261710Y-91059477D01*
X63285043Y-91059439D01*
X63490504Y-91045881D01*
X63574765Y-90969385D01*
X63591557Y-90776221D01*
X63591595Y-90752888D01*
X63591595Y-90446336D01*
X62365388Y-90446336D01*
X62365388Y-89220129D01*
X62978491Y-89220129D01*
X62978491Y-87993922D01*
X63591595Y-87993922D01*
X63591595Y-89833232D01*
X65430905Y-89833232D01*
X65430905Y-87993922D01*
X63591595Y-87993922D01*
X62978491Y-87993922D01*
X62978491Y-87380819D01*
X64817802Y-87380819D01*
X64817802Y-87074267D01*
X65430905Y-87074267D01*
X65444464Y-87279728D01*
X65520960Y-87363989D01*
X65714124Y-87380780D01*
X65737457Y-87380819D01*
X65942918Y-87367260D01*
X66027179Y-87290764D01*
X66043970Y-87097600D01*
X66044009Y-87074267D01*
X67270216Y-87074267D01*
X67283774Y-87279728D01*
X67360270Y-87363989D01*
X67553434Y-87380780D01*
X67576767Y-87380819D01*
X67782228Y-87367260D01*
X67866489Y-87290764D01*
X67883281Y-87097600D01*
X67883319Y-87074267D01*
X67869760Y-86868806D01*
X67793264Y-86784545D01*
X67600100Y-86767753D01*
X67576767Y-86767715D01*
X67371307Y-86781274D01*
X67287046Y-86857770D01*
X67270254Y-87050934D01*
X67270216Y-87074267D01*
X66044009Y-87074267D01*
X66030450Y-86868806D01*
X65953954Y-86784545D01*
X65760790Y-86767753D01*
X65737457Y-86767715D01*
X65531996Y-86781274D01*
X65447735Y-86857770D01*
X65430943Y-87050934D01*
X65430905Y-87074267D01*
X64817802Y-87074267D01*
X64831360Y-86868806D01*
X64907856Y-86784545D01*
X65101020Y-86767753D01*
X65124353Y-86767715D01*
X65430905Y-86767715D01*
X65430905Y-85541508D01*
X64204698Y-85541508D01*
X64204698Y-84928405D01*
X65430905Y-84928405D01*
X65430905Y-85234957D01*
X65444464Y-85440417D01*
X65520960Y-85524678D01*
X65714124Y-85541470D01*
X65737457Y-85541508D01*
X65942918Y-85555067D01*
X66027179Y-85631563D01*
X66043970Y-85824727D01*
X66044009Y-85848060D01*
X66044009Y-86154612D01*
X67270216Y-86154612D01*
X67270216Y-85848060D01*
X67283774Y-85642599D01*
X67360270Y-85558338D01*
X67553434Y-85541546D01*
X67576767Y-85541508D01*
X67782228Y-85527950D01*
X67866489Y-85451454D01*
X67883281Y-85258290D01*
X67883319Y-85234957D01*
X67883319Y-84928405D01*
X66044009Y-84928405D01*
X66044009Y-84315301D01*
X64204698Y-84315301D01*
X64204698Y-84008750D01*
X64218257Y-83803289D01*
X64294753Y-83719028D01*
X64487917Y-83702236D01*
X64511250Y-83702198D01*
X66657112Y-83702198D01*
X66657112Y-84315301D01*
X67883319Y-84315301D01*
X67883319Y-83702198D01*
X66657112Y-83702198D01*
X64511250Y-83702198D01*
X64716711Y-83688639D01*
X64800972Y-83612143D01*
X64817764Y-83418979D01*
X64817802Y-83395646D01*
X64804243Y-83190185D01*
X64727747Y-83105924D01*
X64534583Y-83089133D01*
X64511250Y-83089094D01*
X64305789Y-83075536D01*
X64221528Y-82999040D01*
X64204736Y-82805876D01*
X64204698Y-82782543D01*
X64218257Y-82577082D01*
X64294753Y-82492821D01*
X64487917Y-82476029D01*
X64511250Y-82475991D01*
X64716711Y-82489550D01*
X64800972Y-82566046D01*
X64817764Y-82759210D01*
X64817802Y-82782543D01*
X64817802Y-83089094D01*
X67883319Y-83089094D01*
X67883319Y-82782543D01*
X67896877Y-82577082D01*
X67973373Y-82492821D01*
X68166538Y-82476029D01*
X68189871Y-82475991D01*
X68395331Y-82489550D01*
X68479592Y-82566046D01*
X68496384Y-82759210D01*
X68496422Y-82782543D01*
X68482864Y-82988003D01*
X68406368Y-83072264D01*
X68213204Y-83089056D01*
X68189871Y-83089094D01*
X67984410Y-83102653D01*
X67900149Y-83179149D01*
X67883357Y-83372313D01*
X67883319Y-83395646D01*
X67896877Y-83601107D01*
X67973373Y-83685368D01*
X68166538Y-83702160D01*
X68189871Y-83702198D01*
X68496422Y-83702198D01*
X68496422Y-85541508D01*
X68189871Y-85541508D01*
X67984410Y-85555067D01*
X67900149Y-85631563D01*
X67883357Y-85824727D01*
X67883319Y-85848060D01*
X67896877Y-86053521D01*
X67973373Y-86137782D01*
X68166538Y-86154574D01*
X68189871Y-86154612D01*
X68496422Y-86154612D01*
X68496422Y-87380819D01*
X67883319Y-87380819D01*
X67883319Y-88607025D01*
X66657112Y-88607025D01*
G37*
X66657112Y-88607025D02*
X66657112Y-87380819D01*
X66044009Y-87380819D01*
X66044009Y-90446336D01*
X64817802Y-90446336D01*
X64817802Y-90752888D01*
X64804243Y-90958348D01*
X64727747Y-91042609D01*
X64534583Y-91059401D01*
X64511250Y-91059439D01*
X64305789Y-91072998D01*
X64221528Y-91149494D01*
X64204736Y-91342658D01*
X64204698Y-91365991D01*
X64204698Y-91672543D01*
X62978491Y-91672543D01*
X62978491Y-91365991D01*
X62992050Y-91160530D01*
X63068546Y-91076269D01*
X63261710Y-91059477D01*
X63285043Y-91059439D01*
X63490504Y-91045881D01*
X63574765Y-90969385D01*
X63591557Y-90776221D01*
X63591595Y-90752888D01*
X63591595Y-90446336D01*
X62365388Y-90446336D01*
X62365388Y-89220129D01*
X62978491Y-89220129D01*
X62978491Y-87993922D01*
X63591595Y-87993922D01*
X63591595Y-89833232D01*
X65430905Y-89833232D01*
X65430905Y-87993922D01*
X63591595Y-87993922D01*
X62978491Y-87993922D01*
X62978491Y-87380819D01*
X64817802Y-87380819D01*
X64817802Y-87074267D01*
X65430905Y-87074267D01*
X65444464Y-87279728D01*
X65520960Y-87363989D01*
X65714124Y-87380780D01*
X65737457Y-87380819D01*
X65942918Y-87367260D01*
X66027179Y-87290764D01*
X66043970Y-87097600D01*
X66044009Y-87074267D01*
X67270216Y-87074267D01*
X67283774Y-87279728D01*
X67360270Y-87363989D01*
X67553434Y-87380780D01*
X67576767Y-87380819D01*
X67782228Y-87367260D01*
X67866489Y-87290764D01*
X67883281Y-87097600D01*
X67883319Y-87074267D01*
X67869760Y-86868806D01*
X67793264Y-86784545D01*
X67600100Y-86767753D01*
X67576767Y-86767715D01*
X67371307Y-86781274D01*
X67287046Y-86857770D01*
X67270254Y-87050934D01*
X67270216Y-87074267D01*
X66044009Y-87074267D01*
X66030450Y-86868806D01*
X65953954Y-86784545D01*
X65760790Y-86767753D01*
X65737457Y-86767715D01*
X65531996Y-86781274D01*
X65447735Y-86857770D01*
X65430943Y-87050934D01*
X65430905Y-87074267D01*
X64817802Y-87074267D01*
X64831360Y-86868806D01*
X64907856Y-86784545D01*
X65101020Y-86767753D01*
X65124353Y-86767715D01*
X65430905Y-86767715D01*
X65430905Y-85541508D01*
X64204698Y-85541508D01*
X64204698Y-84928405D01*
X65430905Y-84928405D01*
X65430905Y-85234957D01*
X65444464Y-85440417D01*
X65520960Y-85524678D01*
X65714124Y-85541470D01*
X65737457Y-85541508D01*
X65942918Y-85555067D01*
X66027179Y-85631563D01*
X66043970Y-85824727D01*
X66044009Y-85848060D01*
X66044009Y-86154612D01*
X67270216Y-86154612D01*
X67270216Y-85848060D01*
X67283774Y-85642599D01*
X67360270Y-85558338D01*
X67553434Y-85541546D01*
X67576767Y-85541508D01*
X67782228Y-85527950D01*
X67866489Y-85451454D01*
X67883281Y-85258290D01*
X67883319Y-85234957D01*
X67883319Y-84928405D01*
X66044009Y-84928405D01*
X66044009Y-84315301D01*
X64204698Y-84315301D01*
X64204698Y-84008750D01*
X64218257Y-83803289D01*
X64294753Y-83719028D01*
X64487917Y-83702236D01*
X64511250Y-83702198D01*
X66657112Y-83702198D01*
X66657112Y-84315301D01*
X67883319Y-84315301D01*
X67883319Y-83702198D01*
X66657112Y-83702198D01*
X64511250Y-83702198D01*
X64716711Y-83688639D01*
X64800972Y-83612143D01*
X64817764Y-83418979D01*
X64817802Y-83395646D01*
X64804243Y-83190185D01*
X64727747Y-83105924D01*
X64534583Y-83089133D01*
X64511250Y-83089094D01*
X64305789Y-83075536D01*
X64221528Y-82999040D01*
X64204736Y-82805876D01*
X64204698Y-82782543D01*
X64218257Y-82577082D01*
X64294753Y-82492821D01*
X64487917Y-82476029D01*
X64511250Y-82475991D01*
X64716711Y-82489550D01*
X64800972Y-82566046D01*
X64817764Y-82759210D01*
X64817802Y-82782543D01*
X64817802Y-83089094D01*
X67883319Y-83089094D01*
X67883319Y-82782543D01*
X67896877Y-82577082D01*
X67973373Y-82492821D01*
X68166538Y-82476029D01*
X68189871Y-82475991D01*
X68395331Y-82489550D01*
X68479592Y-82566046D01*
X68496384Y-82759210D01*
X68496422Y-82782543D01*
X68482864Y-82988003D01*
X68406368Y-83072264D01*
X68213204Y-83089056D01*
X68189871Y-83089094D01*
X67984410Y-83102653D01*
X67900149Y-83179149D01*
X67883357Y-83372313D01*
X67883319Y-83395646D01*
X67896877Y-83601107D01*
X67973373Y-83685368D01*
X68166538Y-83702160D01*
X68189871Y-83702198D01*
X68496422Y-83702198D01*
X68496422Y-85541508D01*
X68189871Y-85541508D01*
X67984410Y-85555067D01*
X67900149Y-85631563D01*
X67883357Y-85824727D01*
X67883319Y-85848060D01*
X67896877Y-86053521D01*
X67973373Y-86137782D01*
X68166538Y-86154574D01*
X68189871Y-86154612D01*
X68496422Y-86154612D01*
X68496422Y-87380819D01*
X67883319Y-87380819D01*
X67883319Y-88607025D01*
X66657112Y-88607025D01*
G36*
X68189871Y-88607025D02*
G01*
X68395331Y-88620584D01*
X68479592Y-88697080D01*
X68496384Y-88890244D01*
X68496422Y-88913577D01*
X68482864Y-89119038D01*
X68406368Y-89203299D01*
X68213204Y-89220091D01*
X68189871Y-89220129D01*
X67984410Y-89206570D01*
X67900149Y-89130074D01*
X67883357Y-88936910D01*
X67883319Y-88913577D01*
X67883319Y-88607025D01*
X68189871Y-88607025D01*
G37*
X68189871Y-88607025D02*
X68395331Y-88620584D01*
X68479592Y-88697080D01*
X68496384Y-88890244D01*
X68496422Y-88913577D01*
X68482864Y-89119038D01*
X68406368Y-89203299D01*
X68213204Y-89220091D01*
X68189871Y-89220129D01*
X67984410Y-89206570D01*
X67900149Y-89130074D01*
X67883357Y-88936910D01*
X67883319Y-88913577D01*
X67883319Y-88607025D01*
X68189871Y-88607025D01*
G36*
X62978491Y-83702198D02*
G01*
X63285043Y-83702198D01*
X63490504Y-83715756D01*
X63574765Y-83792252D01*
X63591557Y-83985416D01*
X63591595Y-84008750D01*
X63591595Y-84315301D01*
X62365388Y-84315301D01*
X62365388Y-83702198D01*
X61139181Y-83702198D01*
X61139181Y-84008750D01*
X61125622Y-84214210D01*
X61049126Y-84298471D01*
X60855962Y-84315263D01*
X60832629Y-84315301D01*
X60627169Y-84301743D01*
X60542908Y-84225247D01*
X60526116Y-84032083D01*
X60526078Y-84008750D01*
X60539636Y-83803289D01*
X60616132Y-83719028D01*
X60809296Y-83702236D01*
X60832629Y-83702198D01*
X61038090Y-83688639D01*
X61122351Y-83612143D01*
X61139143Y-83418979D01*
X61139181Y-83395646D01*
X61125622Y-83190185D01*
X61049126Y-83105924D01*
X60855962Y-83089133D01*
X60832629Y-83089094D01*
X60526078Y-83089094D01*
X60526078Y-82782543D01*
X61139181Y-82782543D01*
X61152740Y-82988003D01*
X61229236Y-83072264D01*
X61422400Y-83089056D01*
X61445733Y-83089094D01*
X61651193Y-83075536D01*
X61735454Y-82999040D01*
X61752246Y-82805876D01*
X61752284Y-82782543D01*
X61738726Y-82577082D01*
X61662230Y-82492821D01*
X61469066Y-82476029D01*
X61445733Y-82475991D01*
X61240272Y-82489550D01*
X61156011Y-82566046D01*
X61139219Y-82759210D01*
X61139181Y-82782543D01*
X60526078Y-82782543D01*
X60526078Y-81249784D01*
X60219526Y-81249784D01*
X60014065Y-81263343D01*
X59929804Y-81339839D01*
X59913012Y-81533003D01*
X59912974Y-81556336D01*
X59899416Y-81761796D01*
X59822920Y-81846057D01*
X59629756Y-81862849D01*
X59606422Y-81862888D01*
X59299871Y-81862888D01*
X59299871Y-83089094D01*
X59606422Y-83089094D01*
X59811883Y-83102653D01*
X59896144Y-83179149D01*
X59912936Y-83372313D01*
X59912974Y-83395646D01*
X59899416Y-83601107D01*
X59822920Y-83685368D01*
X59629756Y-83702160D01*
X59606422Y-83702198D01*
X59400962Y-83715756D01*
X59316701Y-83792252D01*
X59299909Y-83985416D01*
X59299871Y-84008750D01*
X59299871Y-84315301D01*
X58073664Y-84315301D01*
X58073664Y-84928405D01*
X59912974Y-84928405D01*
X59912974Y-86767715D01*
X61139181Y-86767715D01*
X61139181Y-86461163D01*
X61125622Y-86255703D01*
X61049126Y-86171442D01*
X60855962Y-86154650D01*
X60832629Y-86154612D01*
X60526078Y-86154612D01*
X60526078Y-84928405D01*
X60832629Y-84928405D01*
X61038090Y-84941963D01*
X61122351Y-85018459D01*
X61139143Y-85211623D01*
X61139181Y-85234957D01*
X61152740Y-85440417D01*
X61229236Y-85524678D01*
X61422400Y-85541470D01*
X61445733Y-85541508D01*
X61752284Y-85541508D01*
X61752284Y-86767715D01*
X62365388Y-86767715D01*
X62365388Y-84928405D01*
X63591595Y-84928405D01*
X63591595Y-86154612D01*
X63898147Y-86154612D01*
X64103607Y-86168170D01*
X64187868Y-86244666D01*
X64204660Y-86437830D01*
X64204698Y-86461163D01*
X64204698Y-86767715D01*
X62978491Y-86767715D01*
X62978491Y-87380819D01*
X61752284Y-87380819D01*
X61752284Y-88607025D01*
X61445733Y-88607025D01*
X61240272Y-88620584D01*
X61156011Y-88697080D01*
X61139219Y-88890244D01*
X61139181Y-88913577D01*
X61152740Y-89119038D01*
X61229236Y-89203299D01*
X61422400Y-89220091D01*
X61445733Y-89220129D01*
X61651193Y-89233687D01*
X61735454Y-89310183D01*
X61752246Y-89503348D01*
X61752284Y-89526681D01*
X61752284Y-89833232D01*
X60526078Y-89833232D01*
X60526078Y-89526681D01*
X60512519Y-89321220D01*
X60436023Y-89236959D01*
X60242859Y-89220167D01*
X60219526Y-89220129D01*
X60014065Y-89206570D01*
X59929804Y-89130074D01*
X59913012Y-88936910D01*
X59912974Y-88913577D01*
X59899416Y-88708117D01*
X59822920Y-88623856D01*
X59629756Y-88607064D01*
X59606422Y-88607025D01*
X59400962Y-88593467D01*
X59316701Y-88516971D01*
X59299909Y-88323807D01*
X59299871Y-88300474D01*
X59286312Y-88095013D01*
X59209816Y-88010752D01*
X59016652Y-87993960D01*
X58993319Y-87993922D01*
X58787858Y-88007481D01*
X58703597Y-88083977D01*
X58686805Y-88277141D01*
X58686767Y-88300474D01*
X58673209Y-88505934D01*
X58596713Y-88590195D01*
X58403549Y-88606987D01*
X58380216Y-88607025D01*
X58174755Y-88593467D01*
X58090494Y-88516971D01*
X58073702Y-88323807D01*
X58073664Y-88300474D01*
X58073664Y-87993922D01*
X56847457Y-87993922D01*
X56847457Y-87380819D01*
X58073664Y-87380819D01*
X58073664Y-87687370D01*
X58087222Y-87892831D01*
X58163718Y-87977092D01*
X58356882Y-87993884D01*
X58380216Y-87993922D01*
X58686767Y-87993922D01*
X58686767Y-86767715D01*
X59299871Y-86767715D01*
X59299871Y-87993922D01*
X59606422Y-87993922D01*
X59811883Y-88007481D01*
X59896144Y-88083977D01*
X59912936Y-88277141D01*
X59912974Y-88300474D01*
X59912974Y-88607025D01*
X61139181Y-88607025D01*
X61139181Y-87993922D01*
X59912974Y-87993922D01*
X59912974Y-87074267D01*
X61139181Y-87074267D01*
X61152740Y-87279728D01*
X61229236Y-87363989D01*
X61422400Y-87380780D01*
X61445733Y-87380819D01*
X61651193Y-87367260D01*
X61735454Y-87290764D01*
X61752246Y-87097600D01*
X61752284Y-87074267D01*
X61738726Y-86868806D01*
X61662230Y-86784545D01*
X61469066Y-86767753D01*
X61445733Y-86767715D01*
X61240272Y-86781274D01*
X61156011Y-86857770D01*
X61139219Y-87050934D01*
X61139181Y-87074267D01*
X59912974Y-87074267D01*
X59912974Y-86767715D01*
X59299871Y-86767715D01*
X59299871Y-85541508D01*
X58073664Y-85541508D01*
X58073664Y-86767715D01*
X55621250Y-86767715D01*
X55621250Y-87074267D01*
X55634809Y-87279728D01*
X55711305Y-87363989D01*
X55904469Y-87380780D01*
X55927802Y-87380819D01*
X56133262Y-87394377D01*
X56217523Y-87470873D01*
X56234315Y-87664037D01*
X56234353Y-87687370D01*
X56234353Y-87993922D01*
X54395043Y-87993922D01*
X54395043Y-86767715D01*
X53781940Y-86767715D01*
X53781940Y-87993922D01*
X53168836Y-87993922D01*
X53168836Y-85541508D01*
X54395043Y-85541508D01*
X54395043Y-85848060D01*
X54408602Y-86053521D01*
X54485098Y-86137782D01*
X54678262Y-86154574D01*
X54701595Y-86154612D01*
X54907055Y-86168170D01*
X54991316Y-86244666D01*
X55008108Y-86437830D01*
X55008147Y-86461163D01*
X55021705Y-86666624D01*
X55098201Y-86750885D01*
X55291365Y-86767677D01*
X55314698Y-86767715D01*
X55520159Y-86754157D01*
X55604420Y-86677661D01*
X55621212Y-86484497D01*
X55621250Y-86461163D01*
X55634809Y-86255703D01*
X55711305Y-86171442D01*
X55904469Y-86154650D01*
X55927802Y-86154612D01*
X56234353Y-86154612D01*
X56234353Y-85848060D01*
X56847457Y-85848060D01*
X56861015Y-86053521D01*
X56937511Y-86137782D01*
X57130675Y-86154574D01*
X57154009Y-86154612D01*
X57359469Y-86141053D01*
X57443730Y-86064557D01*
X57460522Y-85871393D01*
X57460560Y-85848060D01*
X57447002Y-85642599D01*
X57370506Y-85558338D01*
X57177342Y-85541546D01*
X57154009Y-85541508D01*
X56948548Y-85555067D01*
X56864287Y-85631563D01*
X56847495Y-85824727D01*
X56847457Y-85848060D01*
X56234353Y-85848060D01*
X56234353Y-84928405D01*
X57460560Y-84928405D01*
X57460560Y-84621853D01*
X57474119Y-84416392D01*
X57550615Y-84332131D01*
X57743779Y-84315339D01*
X57767112Y-84315301D01*
X57972573Y-84301743D01*
X58056834Y-84225247D01*
X58073626Y-84032083D01*
X58073664Y-84008750D01*
X58060105Y-83803289D01*
X57983609Y-83719028D01*
X57790445Y-83702236D01*
X57767112Y-83702198D01*
X57561651Y-83688639D01*
X57477390Y-83612143D01*
X57460598Y-83418979D01*
X57460560Y-83395646D01*
X58686767Y-83395646D01*
X58700326Y-83601107D01*
X58776822Y-83685368D01*
X58969986Y-83702160D01*
X58993319Y-83702198D01*
X59198780Y-83688639D01*
X59283041Y-83612143D01*
X59299833Y-83418979D01*
X59299871Y-83395646D01*
X59286312Y-83190185D01*
X59209816Y-83105924D01*
X59016652Y-83089133D01*
X58993319Y-83089094D01*
X58787858Y-83102653D01*
X58703597Y-83179149D01*
X58686805Y-83372313D01*
X58686767Y-83395646D01*
X57460560Y-83395646D01*
X57447002Y-83190185D01*
X57370506Y-83105924D01*
X57177342Y-83089133D01*
X57154009Y-83089094D01*
X56948548Y-83102653D01*
X56864287Y-83179149D01*
X56847495Y-83372313D01*
X56847457Y-83395646D01*
X56833898Y-83601107D01*
X56757402Y-83685368D01*
X56564238Y-83702160D01*
X56540905Y-83702198D01*
X56335444Y-83715756D01*
X56251183Y-83792252D01*
X56234392Y-83985416D01*
X56234353Y-84008750D01*
X56220795Y-84214210D01*
X56144299Y-84298471D01*
X55951135Y-84315263D01*
X55927802Y-84315301D01*
X55621250Y-84315301D01*
X55621250Y-85541508D01*
X54395043Y-85541508D01*
X53168836Y-85541508D01*
X53168836Y-84928405D01*
X53475388Y-84928405D01*
X53680849Y-84914846D01*
X53765110Y-84838350D01*
X53781902Y-84645186D01*
X53781940Y-84621853D01*
X53768381Y-84416392D01*
X53691885Y-84332131D01*
X53498721Y-84315339D01*
X53475388Y-84315301D01*
X53269927Y-84301743D01*
X53185666Y-84225247D01*
X53168874Y-84032083D01*
X53168836Y-84008750D01*
X54395043Y-84008750D01*
X54408602Y-84214210D01*
X54485098Y-84298471D01*
X54678262Y-84315263D01*
X54701595Y-84315301D01*
X54907055Y-84301743D01*
X54991316Y-84225247D01*
X55008108Y-84032083D01*
X55008147Y-84008750D01*
X55021705Y-83803289D01*
X55098201Y-83719028D01*
X55291365Y-83702236D01*
X55314698Y-83702198D01*
X55520159Y-83688639D01*
X55604420Y-83612143D01*
X55621212Y-83418979D01*
X55621250Y-83395646D01*
X55607691Y-83190185D01*
X55531195Y-83105924D01*
X55338031Y-83089133D01*
X55314698Y-83089094D01*
X55109238Y-83102653D01*
X55024977Y-83179149D01*
X55008185Y-83372313D01*
X55008147Y-83395646D01*
X54994588Y-83601107D01*
X54918092Y-83685368D01*
X54724928Y-83702160D01*
X54701595Y-83702198D01*
X54496134Y-83715756D01*
X54411873Y-83792252D01*
X54395081Y-83985416D01*
X54395043Y-84008750D01*
X53168836Y-84008750D01*
X53182395Y-83803289D01*
X53258891Y-83719028D01*
X53452055Y-83702236D01*
X53475388Y-83702198D01*
X53680849Y-83688639D01*
X53765110Y-83612143D01*
X53781902Y-83418979D01*
X53781940Y-83395646D01*
X53768381Y-83190185D01*
X53691885Y-83105924D01*
X53498721Y-83089133D01*
X53475388Y-83089094D01*
X53269927Y-83075536D01*
X53185666Y-82999040D01*
X53168874Y-82805876D01*
X53168836Y-82782543D01*
X53168836Y-82475991D01*
X54395043Y-82475991D01*
X54395043Y-82782543D01*
X54408602Y-82988003D01*
X54485098Y-83072264D01*
X54678262Y-83089056D01*
X54701595Y-83089094D01*
X54907055Y-83075536D01*
X54991316Y-82999040D01*
X55008108Y-82805876D01*
X55008147Y-82782543D01*
X55008147Y-82475991D01*
X56234353Y-82475991D01*
X56234353Y-82782543D01*
X56247912Y-82988003D01*
X56324408Y-83072264D01*
X56517572Y-83089056D01*
X56540905Y-83089094D01*
X56746366Y-83075536D01*
X56830627Y-82999040D01*
X56847419Y-82805876D01*
X56847457Y-82782543D01*
X56861015Y-82577082D01*
X56937511Y-82492821D01*
X57130675Y-82476029D01*
X57154009Y-82475991D01*
X57359469Y-82489550D01*
X57443730Y-82566046D01*
X57460522Y-82759210D01*
X57460560Y-82782543D01*
X57460560Y-83089094D01*
X58686767Y-83089094D01*
X58686767Y-82782543D01*
X58673209Y-82577082D01*
X58596713Y-82492821D01*
X58403549Y-82476029D01*
X58380216Y-82475991D01*
X58073664Y-82475991D01*
X58073664Y-81556336D01*
X58686767Y-81556336D01*
X58700326Y-81761796D01*
X58776822Y-81846057D01*
X58969986Y-81862849D01*
X58993319Y-81862888D01*
X59198780Y-81849329D01*
X59283041Y-81772833D01*
X59299833Y-81579669D01*
X59299871Y-81556336D01*
X59313429Y-81350875D01*
X59389925Y-81266614D01*
X59583089Y-81249822D01*
X59606422Y-81249784D01*
X59811883Y-81236226D01*
X59896144Y-81159730D01*
X59912936Y-80966565D01*
X59912974Y-80943232D01*
X59899416Y-80737772D01*
X59822920Y-80653511D01*
X59629756Y-80636719D01*
X59606422Y-80636681D01*
X59400962Y-80650239D01*
X59316701Y-80726735D01*
X59299909Y-80919899D01*
X59299871Y-80943232D01*
X59286312Y-81148693D01*
X59209816Y-81232954D01*
X59016652Y-81249746D01*
X58993319Y-81249784D01*
X58787858Y-81263343D01*
X58703597Y-81339839D01*
X58686805Y-81533003D01*
X58686767Y-81556336D01*
X58073664Y-81556336D01*
X58073664Y-81249784D01*
X58380216Y-81249784D01*
X58585676Y-81236226D01*
X58669937Y-81159730D01*
X58686729Y-80966565D01*
X58686767Y-80943232D01*
X58700326Y-80737772D01*
X58776822Y-80653511D01*
X58969986Y-80636719D01*
X58993319Y-80636681D01*
X59299871Y-80636681D01*
X59299871Y-79410474D01*
X58993319Y-79410474D01*
X58787858Y-79396915D01*
X58703597Y-79320419D01*
X58686805Y-79127255D01*
X58686767Y-79103922D01*
X58700326Y-78898461D01*
X58776822Y-78814200D01*
X58969986Y-78797408D01*
X58993319Y-78797370D01*
X59198780Y-78810929D01*
X59283041Y-78887425D01*
X59299833Y-79080589D01*
X59299871Y-79103922D01*
X59313429Y-79309383D01*
X59389925Y-79393644D01*
X59583089Y-79410436D01*
X59606422Y-79410474D01*
X59912974Y-79410474D01*
X59912974Y-78797370D01*
X60526078Y-78797370D01*
X60526078Y-80023577D01*
X61139181Y-80023577D01*
X61139181Y-78797370D01*
X60526078Y-78797370D01*
X59912974Y-78797370D01*
X59912974Y-78184267D01*
X58073664Y-78184267D01*
X58073664Y-77571163D01*
X60526078Y-77571163D01*
X60526078Y-77877715D01*
X60539636Y-78083176D01*
X60616132Y-78167437D01*
X60809296Y-78184229D01*
X60832629Y-78184267D01*
X61038090Y-78170708D01*
X61122351Y-78094212D01*
X61139143Y-77901048D01*
X61139181Y-77877715D01*
X61152740Y-77672254D01*
X61229236Y-77587993D01*
X61422400Y-77571202D01*
X61445733Y-77571163D01*
X61651193Y-77584722D01*
X61735454Y-77661218D01*
X61752246Y-77854382D01*
X61752284Y-77877715D01*
X61738726Y-78083176D01*
X61662230Y-78167437D01*
X61469066Y-78184229D01*
X61445733Y-78184267D01*
X61240272Y-78197825D01*
X61156011Y-78274321D01*
X61139219Y-78467485D01*
X61139181Y-78490819D01*
X61152740Y-78696279D01*
X61229236Y-78780540D01*
X61422400Y-78797332D01*
X61445733Y-78797370D01*
X61752284Y-78797370D01*
X61752284Y-80023577D01*
X62058836Y-80023577D01*
X62264297Y-80010019D01*
X62348558Y-79933523D01*
X62365350Y-79740359D01*
X62365388Y-79717025D01*
X62365388Y-79410474D01*
X63591595Y-79410474D01*
X63591595Y-80023577D01*
X62365388Y-80023577D01*
X62365388Y-80330129D01*
X62351829Y-80535590D01*
X62275333Y-80619851D01*
X62082169Y-80636643D01*
X62058836Y-80636681D01*
X61853376Y-80623122D01*
X61769115Y-80546626D01*
X61752323Y-80353462D01*
X61752284Y-80330129D01*
X61738726Y-80124668D01*
X61662230Y-80040407D01*
X61469066Y-80023615D01*
X61445733Y-80023577D01*
X61240272Y-80037136D01*
X61156011Y-80113632D01*
X61139219Y-80306796D01*
X61139181Y-80330129D01*
X61125622Y-80535590D01*
X61049126Y-80619851D01*
X60855962Y-80636643D01*
X60832629Y-80636681D01*
X60627169Y-80650239D01*
X60542908Y-80726735D01*
X60526116Y-80919899D01*
X60526078Y-80943232D01*
X60539636Y-81148693D01*
X60616132Y-81232954D01*
X60809296Y-81249746D01*
X60832629Y-81249784D01*
X61038090Y-81263343D01*
X61122351Y-81339839D01*
X61139143Y-81533003D01*
X61139181Y-81556336D01*
X61152740Y-81761796D01*
X61229236Y-81846057D01*
X61422400Y-81862849D01*
X61445733Y-81862888D01*
X61651193Y-81849329D01*
X61735454Y-81772833D01*
X61752246Y-81579669D01*
X61752284Y-81556336D01*
X61765843Y-81350875D01*
X61842339Y-81266614D01*
X62035503Y-81249822D01*
X62058836Y-81249784D01*
X62264297Y-81263343D01*
X62348558Y-81339839D01*
X62365350Y-81533003D01*
X62365388Y-81556336D01*
X62351829Y-81761796D01*
X62275333Y-81846057D01*
X62082169Y-81862849D01*
X62058836Y-81862888D01*
X61853376Y-81876446D01*
X61769115Y-81952942D01*
X61752323Y-82146106D01*
X61752284Y-82169439D01*
X61752284Y-82475991D01*
X62978491Y-82475991D01*
X62978491Y-83702198D01*
G37*
X62978491Y-83702198D02*
X63285043Y-83702198D01*
X63490504Y-83715756D01*
X63574765Y-83792252D01*
X63591557Y-83985416D01*
X63591595Y-84008750D01*
X63591595Y-84315301D01*
X62365388Y-84315301D01*
X62365388Y-83702198D01*
X61139181Y-83702198D01*
X61139181Y-84008750D01*
X61125622Y-84214210D01*
X61049126Y-84298471D01*
X60855962Y-84315263D01*
X60832629Y-84315301D01*
X60627169Y-84301743D01*
X60542908Y-84225247D01*
X60526116Y-84032083D01*
X60526078Y-84008750D01*
X60539636Y-83803289D01*
X60616132Y-83719028D01*
X60809296Y-83702236D01*
X60832629Y-83702198D01*
X61038090Y-83688639D01*
X61122351Y-83612143D01*
X61139143Y-83418979D01*
X61139181Y-83395646D01*
X61125622Y-83190185D01*
X61049126Y-83105924D01*
X60855962Y-83089133D01*
X60832629Y-83089094D01*
X60526078Y-83089094D01*
X60526078Y-82782543D01*
X61139181Y-82782543D01*
X61152740Y-82988003D01*
X61229236Y-83072264D01*
X61422400Y-83089056D01*
X61445733Y-83089094D01*
X61651193Y-83075536D01*
X61735454Y-82999040D01*
X61752246Y-82805876D01*
X61752284Y-82782543D01*
X61738726Y-82577082D01*
X61662230Y-82492821D01*
X61469066Y-82476029D01*
X61445733Y-82475991D01*
X61240272Y-82489550D01*
X61156011Y-82566046D01*
X61139219Y-82759210D01*
X61139181Y-82782543D01*
X60526078Y-82782543D01*
X60526078Y-81249784D01*
X60219526Y-81249784D01*
X60014065Y-81263343D01*
X59929804Y-81339839D01*
X59913012Y-81533003D01*
X59912974Y-81556336D01*
X59899416Y-81761796D01*
X59822920Y-81846057D01*
X59629756Y-81862849D01*
X59606422Y-81862888D01*
X59299871Y-81862888D01*
X59299871Y-83089094D01*
X59606422Y-83089094D01*
X59811883Y-83102653D01*
X59896144Y-83179149D01*
X59912936Y-83372313D01*
X59912974Y-83395646D01*
X59899416Y-83601107D01*
X59822920Y-83685368D01*
X59629756Y-83702160D01*
X59606422Y-83702198D01*
X59400962Y-83715756D01*
X59316701Y-83792252D01*
X59299909Y-83985416D01*
X59299871Y-84008750D01*
X59299871Y-84315301D01*
X58073664Y-84315301D01*
X58073664Y-84928405D01*
X59912974Y-84928405D01*
X59912974Y-86767715D01*
X61139181Y-86767715D01*
X61139181Y-86461163D01*
X61125622Y-86255703D01*
X61049126Y-86171442D01*
X60855962Y-86154650D01*
X60832629Y-86154612D01*
X60526078Y-86154612D01*
X60526078Y-84928405D01*
X60832629Y-84928405D01*
X61038090Y-84941963D01*
X61122351Y-85018459D01*
X61139143Y-85211623D01*
X61139181Y-85234957D01*
X61152740Y-85440417D01*
X61229236Y-85524678D01*
X61422400Y-85541470D01*
X61445733Y-85541508D01*
X61752284Y-85541508D01*
X61752284Y-86767715D01*
X62365388Y-86767715D01*
X62365388Y-84928405D01*
X63591595Y-84928405D01*
X63591595Y-86154612D01*
X63898147Y-86154612D01*
X64103607Y-86168170D01*
X64187868Y-86244666D01*
X64204660Y-86437830D01*
X64204698Y-86461163D01*
X64204698Y-86767715D01*
X62978491Y-86767715D01*
X62978491Y-87380819D01*
X61752284Y-87380819D01*
X61752284Y-88607025D01*
X61445733Y-88607025D01*
X61240272Y-88620584D01*
X61156011Y-88697080D01*
X61139219Y-88890244D01*
X61139181Y-88913577D01*
X61152740Y-89119038D01*
X61229236Y-89203299D01*
X61422400Y-89220091D01*
X61445733Y-89220129D01*
X61651193Y-89233687D01*
X61735454Y-89310183D01*
X61752246Y-89503348D01*
X61752284Y-89526681D01*
X61752284Y-89833232D01*
X60526078Y-89833232D01*
X60526078Y-89526681D01*
X60512519Y-89321220D01*
X60436023Y-89236959D01*
X60242859Y-89220167D01*
X60219526Y-89220129D01*
X60014065Y-89206570D01*
X59929804Y-89130074D01*
X59913012Y-88936910D01*
X59912974Y-88913577D01*
X59899416Y-88708117D01*
X59822920Y-88623856D01*
X59629756Y-88607064D01*
X59606422Y-88607025D01*
X59400962Y-88593467D01*
X59316701Y-88516971D01*
X59299909Y-88323807D01*
X59299871Y-88300474D01*
X59286312Y-88095013D01*
X59209816Y-88010752D01*
X59016652Y-87993960D01*
X58993319Y-87993922D01*
X58787858Y-88007481D01*
X58703597Y-88083977D01*
X58686805Y-88277141D01*
X58686767Y-88300474D01*
X58673209Y-88505934D01*
X58596713Y-88590195D01*
X58403549Y-88606987D01*
X58380216Y-88607025D01*
X58174755Y-88593467D01*
X58090494Y-88516971D01*
X58073702Y-88323807D01*
X58073664Y-88300474D01*
X58073664Y-87993922D01*
X56847457Y-87993922D01*
X56847457Y-87380819D01*
X58073664Y-87380819D01*
X58073664Y-87687370D01*
X58087222Y-87892831D01*
X58163718Y-87977092D01*
X58356882Y-87993884D01*
X58380216Y-87993922D01*
X58686767Y-87993922D01*
X58686767Y-86767715D01*
X59299871Y-86767715D01*
X59299871Y-87993922D01*
X59606422Y-87993922D01*
X59811883Y-88007481D01*
X59896144Y-88083977D01*
X59912936Y-88277141D01*
X59912974Y-88300474D01*
X59912974Y-88607025D01*
X61139181Y-88607025D01*
X61139181Y-87993922D01*
X59912974Y-87993922D01*
X59912974Y-87074267D01*
X61139181Y-87074267D01*
X61152740Y-87279728D01*
X61229236Y-87363989D01*
X61422400Y-87380780D01*
X61445733Y-87380819D01*
X61651193Y-87367260D01*
X61735454Y-87290764D01*
X61752246Y-87097600D01*
X61752284Y-87074267D01*
X61738726Y-86868806D01*
X61662230Y-86784545D01*
X61469066Y-86767753D01*
X61445733Y-86767715D01*
X61240272Y-86781274D01*
X61156011Y-86857770D01*
X61139219Y-87050934D01*
X61139181Y-87074267D01*
X59912974Y-87074267D01*
X59912974Y-86767715D01*
X59299871Y-86767715D01*
X59299871Y-85541508D01*
X58073664Y-85541508D01*
X58073664Y-86767715D01*
X55621250Y-86767715D01*
X55621250Y-87074267D01*
X55634809Y-87279728D01*
X55711305Y-87363989D01*
X55904469Y-87380780D01*
X55927802Y-87380819D01*
X56133262Y-87394377D01*
X56217523Y-87470873D01*
X56234315Y-87664037D01*
X56234353Y-87687370D01*
X56234353Y-87993922D01*
X54395043Y-87993922D01*
X54395043Y-86767715D01*
X53781940Y-86767715D01*
X53781940Y-87993922D01*
X53168836Y-87993922D01*
X53168836Y-85541508D01*
X54395043Y-85541508D01*
X54395043Y-85848060D01*
X54408602Y-86053521D01*
X54485098Y-86137782D01*
X54678262Y-86154574D01*
X54701595Y-86154612D01*
X54907055Y-86168170D01*
X54991316Y-86244666D01*
X55008108Y-86437830D01*
X55008147Y-86461163D01*
X55021705Y-86666624D01*
X55098201Y-86750885D01*
X55291365Y-86767677D01*
X55314698Y-86767715D01*
X55520159Y-86754157D01*
X55604420Y-86677661D01*
X55621212Y-86484497D01*
X55621250Y-86461163D01*
X55634809Y-86255703D01*
X55711305Y-86171442D01*
X55904469Y-86154650D01*
X55927802Y-86154612D01*
X56234353Y-86154612D01*
X56234353Y-85848060D01*
X56847457Y-85848060D01*
X56861015Y-86053521D01*
X56937511Y-86137782D01*
X57130675Y-86154574D01*
X57154009Y-86154612D01*
X57359469Y-86141053D01*
X57443730Y-86064557D01*
X57460522Y-85871393D01*
X57460560Y-85848060D01*
X57447002Y-85642599D01*
X57370506Y-85558338D01*
X57177342Y-85541546D01*
X57154009Y-85541508D01*
X56948548Y-85555067D01*
X56864287Y-85631563D01*
X56847495Y-85824727D01*
X56847457Y-85848060D01*
X56234353Y-85848060D01*
X56234353Y-84928405D01*
X57460560Y-84928405D01*
X57460560Y-84621853D01*
X57474119Y-84416392D01*
X57550615Y-84332131D01*
X57743779Y-84315339D01*
X57767112Y-84315301D01*
X57972573Y-84301743D01*
X58056834Y-84225247D01*
X58073626Y-84032083D01*
X58073664Y-84008750D01*
X58060105Y-83803289D01*
X57983609Y-83719028D01*
X57790445Y-83702236D01*
X57767112Y-83702198D01*
X57561651Y-83688639D01*
X57477390Y-83612143D01*
X57460598Y-83418979D01*
X57460560Y-83395646D01*
X58686767Y-83395646D01*
X58700326Y-83601107D01*
X58776822Y-83685368D01*
X58969986Y-83702160D01*
X58993319Y-83702198D01*
X59198780Y-83688639D01*
X59283041Y-83612143D01*
X59299833Y-83418979D01*
X59299871Y-83395646D01*
X59286312Y-83190185D01*
X59209816Y-83105924D01*
X59016652Y-83089133D01*
X58993319Y-83089094D01*
X58787858Y-83102653D01*
X58703597Y-83179149D01*
X58686805Y-83372313D01*
X58686767Y-83395646D01*
X57460560Y-83395646D01*
X57447002Y-83190185D01*
X57370506Y-83105924D01*
X57177342Y-83089133D01*
X57154009Y-83089094D01*
X56948548Y-83102653D01*
X56864287Y-83179149D01*
X56847495Y-83372313D01*
X56847457Y-83395646D01*
X56833898Y-83601107D01*
X56757402Y-83685368D01*
X56564238Y-83702160D01*
X56540905Y-83702198D01*
X56335444Y-83715756D01*
X56251183Y-83792252D01*
X56234392Y-83985416D01*
X56234353Y-84008750D01*
X56220795Y-84214210D01*
X56144299Y-84298471D01*
X55951135Y-84315263D01*
X55927802Y-84315301D01*
X55621250Y-84315301D01*
X55621250Y-85541508D01*
X54395043Y-85541508D01*
X53168836Y-85541508D01*
X53168836Y-84928405D01*
X53475388Y-84928405D01*
X53680849Y-84914846D01*
X53765110Y-84838350D01*
X53781902Y-84645186D01*
X53781940Y-84621853D01*
X53768381Y-84416392D01*
X53691885Y-84332131D01*
X53498721Y-84315339D01*
X53475388Y-84315301D01*
X53269927Y-84301743D01*
X53185666Y-84225247D01*
X53168874Y-84032083D01*
X53168836Y-84008750D01*
X54395043Y-84008750D01*
X54408602Y-84214210D01*
X54485098Y-84298471D01*
X54678262Y-84315263D01*
X54701595Y-84315301D01*
X54907055Y-84301743D01*
X54991316Y-84225247D01*
X55008108Y-84032083D01*
X55008147Y-84008750D01*
X55021705Y-83803289D01*
X55098201Y-83719028D01*
X55291365Y-83702236D01*
X55314698Y-83702198D01*
X55520159Y-83688639D01*
X55604420Y-83612143D01*
X55621212Y-83418979D01*
X55621250Y-83395646D01*
X55607691Y-83190185D01*
X55531195Y-83105924D01*
X55338031Y-83089133D01*
X55314698Y-83089094D01*
X55109238Y-83102653D01*
X55024977Y-83179149D01*
X55008185Y-83372313D01*
X55008147Y-83395646D01*
X54994588Y-83601107D01*
X54918092Y-83685368D01*
X54724928Y-83702160D01*
X54701595Y-83702198D01*
X54496134Y-83715756D01*
X54411873Y-83792252D01*
X54395081Y-83985416D01*
X54395043Y-84008750D01*
X53168836Y-84008750D01*
X53182395Y-83803289D01*
X53258891Y-83719028D01*
X53452055Y-83702236D01*
X53475388Y-83702198D01*
X53680849Y-83688639D01*
X53765110Y-83612143D01*
X53781902Y-83418979D01*
X53781940Y-83395646D01*
X53768381Y-83190185D01*
X53691885Y-83105924D01*
X53498721Y-83089133D01*
X53475388Y-83089094D01*
X53269927Y-83075536D01*
X53185666Y-82999040D01*
X53168874Y-82805876D01*
X53168836Y-82782543D01*
X53168836Y-82475991D01*
X54395043Y-82475991D01*
X54395043Y-82782543D01*
X54408602Y-82988003D01*
X54485098Y-83072264D01*
X54678262Y-83089056D01*
X54701595Y-83089094D01*
X54907055Y-83075536D01*
X54991316Y-82999040D01*
X55008108Y-82805876D01*
X55008147Y-82782543D01*
X55008147Y-82475991D01*
X56234353Y-82475991D01*
X56234353Y-82782543D01*
X56247912Y-82988003D01*
X56324408Y-83072264D01*
X56517572Y-83089056D01*
X56540905Y-83089094D01*
X56746366Y-83075536D01*
X56830627Y-82999040D01*
X56847419Y-82805876D01*
X56847457Y-82782543D01*
X56861015Y-82577082D01*
X56937511Y-82492821D01*
X57130675Y-82476029D01*
X57154009Y-82475991D01*
X57359469Y-82489550D01*
X57443730Y-82566046D01*
X57460522Y-82759210D01*
X57460560Y-82782543D01*
X57460560Y-83089094D01*
X58686767Y-83089094D01*
X58686767Y-82782543D01*
X58673209Y-82577082D01*
X58596713Y-82492821D01*
X58403549Y-82476029D01*
X58380216Y-82475991D01*
X58073664Y-82475991D01*
X58073664Y-81556336D01*
X58686767Y-81556336D01*
X58700326Y-81761796D01*
X58776822Y-81846057D01*
X58969986Y-81862849D01*
X58993319Y-81862888D01*
X59198780Y-81849329D01*
X59283041Y-81772833D01*
X59299833Y-81579669D01*
X59299871Y-81556336D01*
X59313429Y-81350875D01*
X59389925Y-81266614D01*
X59583089Y-81249822D01*
X59606422Y-81249784D01*
X59811883Y-81236226D01*
X59896144Y-81159730D01*
X59912936Y-80966565D01*
X59912974Y-80943232D01*
X59899416Y-80737772D01*
X59822920Y-80653511D01*
X59629756Y-80636719D01*
X59606422Y-80636681D01*
X59400962Y-80650239D01*
X59316701Y-80726735D01*
X59299909Y-80919899D01*
X59299871Y-80943232D01*
X59286312Y-81148693D01*
X59209816Y-81232954D01*
X59016652Y-81249746D01*
X58993319Y-81249784D01*
X58787858Y-81263343D01*
X58703597Y-81339839D01*
X58686805Y-81533003D01*
X58686767Y-81556336D01*
X58073664Y-81556336D01*
X58073664Y-81249784D01*
X58380216Y-81249784D01*
X58585676Y-81236226D01*
X58669937Y-81159730D01*
X58686729Y-80966565D01*
X58686767Y-80943232D01*
X58700326Y-80737772D01*
X58776822Y-80653511D01*
X58969986Y-80636719D01*
X58993319Y-80636681D01*
X59299871Y-80636681D01*
X59299871Y-79410474D01*
X58993319Y-79410474D01*
X58787858Y-79396915D01*
X58703597Y-79320419D01*
X58686805Y-79127255D01*
X58686767Y-79103922D01*
X58700326Y-78898461D01*
X58776822Y-78814200D01*
X58969986Y-78797408D01*
X58993319Y-78797370D01*
X59198780Y-78810929D01*
X59283041Y-78887425D01*
X59299833Y-79080589D01*
X59299871Y-79103922D01*
X59313429Y-79309383D01*
X59389925Y-79393644D01*
X59583089Y-79410436D01*
X59606422Y-79410474D01*
X59912974Y-79410474D01*
X59912974Y-78797370D01*
X60526078Y-78797370D01*
X60526078Y-80023577D01*
X61139181Y-80023577D01*
X61139181Y-78797370D01*
X60526078Y-78797370D01*
X59912974Y-78797370D01*
X59912974Y-78184267D01*
X58073664Y-78184267D01*
X58073664Y-77571163D01*
X60526078Y-77571163D01*
X60526078Y-77877715D01*
X60539636Y-78083176D01*
X60616132Y-78167437D01*
X60809296Y-78184229D01*
X60832629Y-78184267D01*
X61038090Y-78170708D01*
X61122351Y-78094212D01*
X61139143Y-77901048D01*
X61139181Y-77877715D01*
X61152740Y-77672254D01*
X61229236Y-77587993D01*
X61422400Y-77571202D01*
X61445733Y-77571163D01*
X61651193Y-77584722D01*
X61735454Y-77661218D01*
X61752246Y-77854382D01*
X61752284Y-77877715D01*
X61738726Y-78083176D01*
X61662230Y-78167437D01*
X61469066Y-78184229D01*
X61445733Y-78184267D01*
X61240272Y-78197825D01*
X61156011Y-78274321D01*
X61139219Y-78467485D01*
X61139181Y-78490819D01*
X61152740Y-78696279D01*
X61229236Y-78780540D01*
X61422400Y-78797332D01*
X61445733Y-78797370D01*
X61752284Y-78797370D01*
X61752284Y-80023577D01*
X62058836Y-80023577D01*
X62264297Y-80010019D01*
X62348558Y-79933523D01*
X62365350Y-79740359D01*
X62365388Y-79717025D01*
X62365388Y-79410474D01*
X63591595Y-79410474D01*
X63591595Y-80023577D01*
X62365388Y-80023577D01*
X62365388Y-80330129D01*
X62351829Y-80535590D01*
X62275333Y-80619851D01*
X62082169Y-80636643D01*
X62058836Y-80636681D01*
X61853376Y-80623122D01*
X61769115Y-80546626D01*
X61752323Y-80353462D01*
X61752284Y-80330129D01*
X61738726Y-80124668D01*
X61662230Y-80040407D01*
X61469066Y-80023615D01*
X61445733Y-80023577D01*
X61240272Y-80037136D01*
X61156011Y-80113632D01*
X61139219Y-80306796D01*
X61139181Y-80330129D01*
X61125622Y-80535590D01*
X61049126Y-80619851D01*
X60855962Y-80636643D01*
X60832629Y-80636681D01*
X60627169Y-80650239D01*
X60542908Y-80726735D01*
X60526116Y-80919899D01*
X60526078Y-80943232D01*
X60539636Y-81148693D01*
X60616132Y-81232954D01*
X60809296Y-81249746D01*
X60832629Y-81249784D01*
X61038090Y-81263343D01*
X61122351Y-81339839D01*
X61139143Y-81533003D01*
X61139181Y-81556336D01*
X61152740Y-81761796D01*
X61229236Y-81846057D01*
X61422400Y-81862849D01*
X61445733Y-81862888D01*
X61651193Y-81849329D01*
X61735454Y-81772833D01*
X61752246Y-81579669D01*
X61752284Y-81556336D01*
X61765843Y-81350875D01*
X61842339Y-81266614D01*
X62035503Y-81249822D01*
X62058836Y-81249784D01*
X62264297Y-81263343D01*
X62348558Y-81339839D01*
X62365350Y-81533003D01*
X62365388Y-81556336D01*
X62351829Y-81761796D01*
X62275333Y-81846057D01*
X62082169Y-81862849D01*
X62058836Y-81862888D01*
X61853376Y-81876446D01*
X61769115Y-81952942D01*
X61752323Y-82146106D01*
X61752284Y-82169439D01*
X61752284Y-82475991D01*
X62978491Y-82475991D01*
X62978491Y-83702198D01*
G36*
X65430905Y-91672543D02*
G01*
X65430905Y-91059439D01*
X67270216Y-91059439D01*
X67270216Y-90446336D01*
X68496422Y-90446336D01*
X68496422Y-92898750D01*
X68189871Y-92898750D01*
X67984410Y-92885191D01*
X67900149Y-92808695D01*
X67883357Y-92615531D01*
X67883319Y-92592198D01*
X67883319Y-92285646D01*
X66657112Y-92285646D01*
X66657112Y-92592198D01*
X66643554Y-92797659D01*
X66567058Y-92881920D01*
X66373893Y-92898711D01*
X66350560Y-92898750D01*
X66145100Y-92885191D01*
X66060839Y-92808695D01*
X66044047Y-92615531D01*
X66044009Y-92592198D01*
X66044009Y-92285646D01*
X64817802Y-92285646D01*
X64817802Y-92898750D01*
X62365388Y-92898750D01*
X62365388Y-92592198D01*
X62351829Y-92386737D01*
X62275333Y-92302476D01*
X62082169Y-92285684D01*
X62058836Y-92285646D01*
X61853376Y-92272088D01*
X61769115Y-92195592D01*
X61752323Y-92002428D01*
X61752284Y-91979094D01*
X61765843Y-91773634D01*
X61842339Y-91689373D01*
X62035503Y-91672581D01*
X62058836Y-91672543D01*
X62264297Y-91686101D01*
X62348558Y-91762597D01*
X62365350Y-91955761D01*
X62365388Y-91979094D01*
X62365388Y-92285646D01*
X64204698Y-92285646D01*
X64204698Y-91979094D01*
X66044009Y-91979094D01*
X66057567Y-92184555D01*
X66134063Y-92268816D01*
X66327227Y-92285608D01*
X66350560Y-92285646D01*
X66556021Y-92272088D01*
X66640282Y-92195592D01*
X66657074Y-92002428D01*
X66657112Y-91979094D01*
X66643554Y-91773634D01*
X66567058Y-91689373D01*
X66373893Y-91672581D01*
X66350560Y-91672543D01*
X66145100Y-91686101D01*
X66060839Y-91762597D01*
X66044047Y-91955761D01*
X66044009Y-91979094D01*
X64204698Y-91979094D01*
X64204698Y-91672543D01*
X65430905Y-91672543D01*
G37*
X65430905Y-91672543D02*
X65430905Y-91059439D01*
X67270216Y-91059439D01*
X67270216Y-90446336D01*
X68496422Y-90446336D01*
X68496422Y-92898750D01*
X68189871Y-92898750D01*
X67984410Y-92885191D01*
X67900149Y-92808695D01*
X67883357Y-92615531D01*
X67883319Y-92592198D01*
X67883319Y-92285646D01*
X66657112Y-92285646D01*
X66657112Y-92592198D01*
X66643554Y-92797659D01*
X66567058Y-92881920D01*
X66373893Y-92898711D01*
X66350560Y-92898750D01*
X66145100Y-92885191D01*
X66060839Y-92808695D01*
X66044047Y-92615531D01*
X66044009Y-92592198D01*
X66044009Y-92285646D01*
X64817802Y-92285646D01*
X64817802Y-92898750D01*
X62365388Y-92898750D01*
X62365388Y-92592198D01*
X62351829Y-92386737D01*
X62275333Y-92302476D01*
X62082169Y-92285684D01*
X62058836Y-92285646D01*
X61853376Y-92272088D01*
X61769115Y-92195592D01*
X61752323Y-92002428D01*
X61752284Y-91979094D01*
X61765843Y-91773634D01*
X61842339Y-91689373D01*
X62035503Y-91672581D01*
X62058836Y-91672543D01*
X62264297Y-91686101D01*
X62348558Y-91762597D01*
X62365350Y-91955761D01*
X62365388Y-91979094D01*
X62365388Y-92285646D01*
X64204698Y-92285646D01*
X64204698Y-91979094D01*
X66044009Y-91979094D01*
X66057567Y-92184555D01*
X66134063Y-92268816D01*
X66327227Y-92285608D01*
X66350560Y-92285646D01*
X66556021Y-92272088D01*
X66640282Y-92195592D01*
X66657074Y-92002428D01*
X66657112Y-91979094D01*
X66643554Y-91773634D01*
X66567058Y-91689373D01*
X66373893Y-91672581D01*
X66350560Y-91672543D01*
X66145100Y-91686101D01*
X66060839Y-91762597D01*
X66044047Y-91955761D01*
X66044009Y-91979094D01*
X64204698Y-91979094D01*
X64204698Y-91672543D01*
X65430905Y-91672543D01*
G36*
X62978491Y-80636681D02*
G01*
X63591595Y-80636681D01*
X63591595Y-82475991D01*
X62978491Y-82475991D01*
X62978491Y-80636681D01*
G37*
X62978491Y-80636681D02*
X63591595Y-80636681D01*
X63591595Y-82475991D01*
X62978491Y-82475991D01*
X62978491Y-80636681D01*
G36*
X62365388Y-91059439D02*
G01*
X61139181Y-91059439D01*
X61139181Y-90446336D01*
X62365388Y-90446336D01*
X62365388Y-91059439D01*
G37*
X62365388Y-91059439D02*
X61139181Y-91059439D01*
X61139181Y-90446336D01*
X62365388Y-90446336D01*
X62365388Y-91059439D01*
G36*
X60526078Y-91672543D02*
G01*
X61139181Y-91672543D01*
X61139181Y-92898750D01*
X60832629Y-92898750D01*
X60627169Y-92885191D01*
X60542908Y-92808695D01*
X60526116Y-92615531D01*
X60526078Y-92592198D01*
X60512519Y-92386737D01*
X60436023Y-92302476D01*
X60242859Y-92285684D01*
X60219526Y-92285646D01*
X60014065Y-92299205D01*
X59929804Y-92375701D01*
X59913012Y-92568865D01*
X59912974Y-92592198D01*
X59912974Y-92898750D01*
X58073664Y-92898750D01*
X58073664Y-91672543D01*
X58380216Y-91672543D01*
X58585676Y-91686101D01*
X58669937Y-91762597D01*
X58686729Y-91955761D01*
X58686767Y-91979094D01*
X58686767Y-92285646D01*
X59912974Y-92285646D01*
X59912974Y-91979094D01*
X59899416Y-91773634D01*
X59822920Y-91689373D01*
X59629756Y-91672581D01*
X59606422Y-91672543D01*
X59400962Y-91658984D01*
X59316701Y-91582488D01*
X59299909Y-91389324D01*
X59299871Y-91365991D01*
X59313429Y-91160530D01*
X59389925Y-91076269D01*
X59583089Y-91059477D01*
X59606422Y-91059439D01*
X59811883Y-91045881D01*
X59896144Y-90969385D01*
X59912936Y-90776221D01*
X59912974Y-90752888D01*
X59926533Y-90547427D01*
X60003029Y-90463166D01*
X60196193Y-90446374D01*
X60219526Y-90446336D01*
X60526078Y-90446336D01*
X60526078Y-91672543D01*
G37*
X60526078Y-91672543D02*
X61139181Y-91672543D01*
X61139181Y-92898750D01*
X60832629Y-92898750D01*
X60627169Y-92885191D01*
X60542908Y-92808695D01*
X60526116Y-92615531D01*
X60526078Y-92592198D01*
X60512519Y-92386737D01*
X60436023Y-92302476D01*
X60242859Y-92285684D01*
X60219526Y-92285646D01*
X60014065Y-92299205D01*
X59929804Y-92375701D01*
X59913012Y-92568865D01*
X59912974Y-92592198D01*
X59912974Y-92898750D01*
X58073664Y-92898750D01*
X58073664Y-91672543D01*
X58380216Y-91672543D01*
X58585676Y-91686101D01*
X58669937Y-91762597D01*
X58686729Y-91955761D01*
X58686767Y-91979094D01*
X58686767Y-92285646D01*
X59912974Y-92285646D01*
X59912974Y-91979094D01*
X59899416Y-91773634D01*
X59822920Y-91689373D01*
X59629756Y-91672581D01*
X59606422Y-91672543D01*
X59400962Y-91658984D01*
X59316701Y-91582488D01*
X59299909Y-91389324D01*
X59299871Y-91365991D01*
X59313429Y-91160530D01*
X59389925Y-91076269D01*
X59583089Y-91059477D01*
X59606422Y-91059439D01*
X59811883Y-91045881D01*
X59896144Y-90969385D01*
X59912936Y-90776221D01*
X59912974Y-90752888D01*
X59926533Y-90547427D01*
X60003029Y-90463166D01*
X60196193Y-90446374D01*
X60219526Y-90446336D01*
X60526078Y-90446336D01*
X60526078Y-91672543D01*
G36*
X57460560Y-92898750D02*
G01*
X53168836Y-92898750D01*
X53168836Y-89220129D01*
X53781940Y-89220129D01*
X53781940Y-92285646D01*
X56847457Y-92285646D01*
X56847457Y-89220129D01*
X53781940Y-89220129D01*
X53168836Y-89220129D01*
X53168836Y-88607025D01*
X57460560Y-88607025D01*
X57460560Y-92898750D01*
G37*
X57460560Y-92898750D02*
X53168836Y-92898750D01*
X53168836Y-89220129D01*
X53781940Y-89220129D01*
X53781940Y-92285646D01*
X56847457Y-92285646D01*
X56847457Y-89220129D01*
X53781940Y-89220129D01*
X53168836Y-89220129D01*
X53168836Y-88607025D01*
X57460560Y-88607025D01*
X57460560Y-92898750D01*
G36*
X179457867Y-81956998D02*
G01*
X179514186Y-81983110D01*
X179520313Y-82027786D01*
X179481653Y-82093028D01*
X179429329Y-82153631D01*
X179386055Y-82209038D01*
X179308862Y-82317000D01*
X179202948Y-82469674D01*
X179073511Y-82659215D01*
X178925752Y-82877779D01*
X178764867Y-83117524D01*
X178596056Y-83370606D01*
X178424517Y-83629180D01*
X178255448Y-83885403D01*
X178094049Y-84131431D01*
X177945518Y-84359421D01*
X177815054Y-84561529D01*
X177707855Y-84729912D01*
X177629119Y-84856724D01*
X177584045Y-84934124D01*
X177577080Y-84948335D01*
X177561895Y-85002211D01*
X177549918Y-85088429D01*
X177540857Y-85214049D01*
X177534420Y-85386131D01*
X177530314Y-85611734D01*
X177528247Y-85897917D01*
X177527857Y-86136692D01*
X177527857Y-87208286D01*
X176848850Y-87208286D01*
X176824343Y-86945214D01*
X176817477Y-86818473D01*
X176814335Y-86638202D01*
X176814924Y-86423348D01*
X176819253Y-86192858D01*
X176823943Y-86047143D01*
X176832066Y-85799604D01*
X176834673Y-85609917D01*
X176831161Y-85463526D01*
X176820927Y-85345879D01*
X176803366Y-85242421D01*
X176787839Y-85176286D01*
X176688023Y-84873990D01*
X176537529Y-84556309D01*
X176332026Y-84214864D01*
X176169195Y-83979388D01*
X176085392Y-83860749D01*
X175972236Y-83696758D01*
X175837102Y-83498452D01*
X175687364Y-83276867D01*
X175530395Y-83043038D01*
X175373569Y-82808001D01*
X175224260Y-82582792D01*
X175089841Y-82378446D01*
X174977688Y-82206000D01*
X174895172Y-82076488D01*
X174865660Y-82028500D01*
X174869510Y-82008870D01*
X174914570Y-81995494D01*
X175009559Y-81987431D01*
X175163194Y-81983742D01*
X175285073Y-81983235D01*
X175731714Y-81983328D01*
X176436583Y-83109887D01*
X176597903Y-83367135D01*
X176747450Y-83604489D01*
X176880802Y-83815020D01*
X176993540Y-83991796D01*
X177081244Y-84127887D01*
X177139493Y-84216364D01*
X177163868Y-84250295D01*
X177163967Y-84250361D01*
X177188071Y-84224167D01*
X177246942Y-84143510D01*
X177336116Y-84014980D01*
X177451133Y-83845172D01*
X177587531Y-83640676D01*
X177740849Y-83408087D01*
X177906625Y-83153996D01*
X177923011Y-83128745D01*
X178659542Y-81993215D01*
X178933746Y-81970036D01*
X179173049Y-81952462D01*
X179345955Y-81947449D01*
X179457867Y-81956998D01*
G37*
X179457867Y-81956998D02*
X179514186Y-81983110D01*
X179520313Y-82027786D01*
X179481653Y-82093028D01*
X179429329Y-82153631D01*
X179386055Y-82209038D01*
X179308862Y-82317000D01*
X179202948Y-82469674D01*
X179073511Y-82659215D01*
X178925752Y-82877779D01*
X178764867Y-83117524D01*
X178596056Y-83370606D01*
X178424517Y-83629180D01*
X178255448Y-83885403D01*
X178094049Y-84131431D01*
X177945518Y-84359421D01*
X177815054Y-84561529D01*
X177707855Y-84729912D01*
X177629119Y-84856724D01*
X177584045Y-84934124D01*
X177577080Y-84948335D01*
X177561895Y-85002211D01*
X177549918Y-85088429D01*
X177540857Y-85214049D01*
X177534420Y-85386131D01*
X177530314Y-85611734D01*
X177528247Y-85897917D01*
X177527857Y-86136692D01*
X177527857Y-87208286D01*
X176848850Y-87208286D01*
X176824343Y-86945214D01*
X176817477Y-86818473D01*
X176814335Y-86638202D01*
X176814924Y-86423348D01*
X176819253Y-86192858D01*
X176823943Y-86047143D01*
X176832066Y-85799604D01*
X176834673Y-85609917D01*
X176831161Y-85463526D01*
X176820927Y-85345879D01*
X176803366Y-85242421D01*
X176787839Y-85176286D01*
X176688023Y-84873990D01*
X176537529Y-84556309D01*
X176332026Y-84214864D01*
X176169195Y-83979388D01*
X176085392Y-83860749D01*
X175972236Y-83696758D01*
X175837102Y-83498452D01*
X175687364Y-83276867D01*
X175530395Y-83043038D01*
X175373569Y-82808001D01*
X175224260Y-82582792D01*
X175089841Y-82378446D01*
X174977688Y-82206000D01*
X174895172Y-82076488D01*
X174865660Y-82028500D01*
X174869510Y-82008870D01*
X174914570Y-81995494D01*
X175009559Y-81987431D01*
X175163194Y-81983742D01*
X175285073Y-81983235D01*
X175731714Y-81983328D01*
X176436583Y-83109887D01*
X176597903Y-83367135D01*
X176747450Y-83604489D01*
X176880802Y-83815020D01*
X176993540Y-83991796D01*
X177081244Y-84127887D01*
X177139493Y-84216364D01*
X177163868Y-84250295D01*
X177163967Y-84250361D01*
X177188071Y-84224167D01*
X177246942Y-84143510D01*
X177336116Y-84014980D01*
X177451133Y-83845172D01*
X177587531Y-83640676D01*
X177740849Y-83408087D01*
X177906625Y-83153996D01*
X177923011Y-83128745D01*
X178659542Y-81993215D01*
X178933746Y-81970036D01*
X179173049Y-81952462D01*
X179345955Y-81947449D01*
X179457867Y-81956998D01*
G36*
X173899286Y-82600000D02*
G01*
X172230143Y-82600000D01*
X172230143Y-87208286D01*
X171504428Y-87208286D01*
X171504428Y-82636286D01*
X169835286Y-82636286D01*
X169835286Y-81983143D01*
X173899286Y-81983143D01*
X173899286Y-82600000D01*
G37*
X173899286Y-82600000D02*
X172230143Y-82600000D01*
X172230143Y-87208286D01*
X171504428Y-87208286D01*
X171504428Y-82636286D01*
X169835286Y-82636286D01*
X169835286Y-81983143D01*
X173899286Y-81983143D01*
X173899286Y-82600000D01*
G36*
X168819286Y-87208286D02*
G01*
X168129857Y-87208286D01*
X168129857Y-81983143D01*
X168819286Y-81983143D01*
X168819286Y-87208286D01*
G37*
X168819286Y-87208286D02*
X168129857Y-87208286D01*
X168129857Y-81983143D01*
X168819286Y-81983143D01*
X168819286Y-87208286D01*
G36*
X159956500Y-81964326D02*
G01*
X160318716Y-81968394D01*
X160617653Y-81975018D01*
X160862589Y-81985331D01*
X161062801Y-82000467D01*
X161227569Y-82021558D01*
X161366169Y-82049737D01*
X161487880Y-82086137D01*
X161601981Y-82131891D01*
X161695356Y-82176669D01*
X161857269Y-82282641D01*
X162020396Y-82429052D01*
X162159513Y-82591085D01*
X162230540Y-82703271D01*
X162302519Y-82887310D01*
X162355665Y-83110907D01*
X162384151Y-83342225D01*
X162383269Y-83537910D01*
X162321836Y-83828513D01*
X162195951Y-84097512D01*
X162012370Y-84337298D01*
X161777851Y-84540261D01*
X161499151Y-84698791D01*
X161280928Y-84779386D01*
X161188017Y-84814965D01*
X161133641Y-84851571D01*
X161127690Y-84864529D01*
X161146640Y-84903246D01*
X161200176Y-84996215D01*
X161284016Y-85136406D01*
X161393874Y-85316788D01*
X161525468Y-85530331D01*
X161674512Y-85770004D01*
X161836724Y-86028777D01*
X161848284Y-86047143D01*
X162567902Y-87190143D01*
X162167027Y-87200467D01*
X162001242Y-87203340D01*
X161861203Y-87203163D01*
X161763497Y-87200120D01*
X161726591Y-87195610D01*
X161699874Y-87161786D01*
X161641218Y-87072181D01*
X161554938Y-86933882D01*
X161445350Y-86753973D01*
X161316769Y-86539541D01*
X161173512Y-86297672D01*
X161019893Y-86035452D01*
X161017941Y-86032100D01*
X160348851Y-84883772D01*
X159948568Y-84893957D01*
X159548286Y-84904143D01*
X159538705Y-86056214D01*
X159529123Y-87208286D01*
X158877000Y-87208286D01*
X158877000Y-84305429D01*
X159566428Y-84305429D01*
X160047214Y-84304308D01*
X160257819Y-84301034D01*
X160471397Y-84292967D01*
X160662384Y-84281339D01*
X160800143Y-84268047D01*
X161079838Y-84209369D01*
X161299254Y-84112031D01*
X161460924Y-83973726D01*
X161567380Y-83792145D01*
X161621154Y-83564979D01*
X161625694Y-83515492D01*
X161625104Y-83278738D01*
X161582599Y-83087668D01*
X161493967Y-82925957D01*
X161463746Y-82887773D01*
X161358301Y-82785797D01*
X161227570Y-82705803D01*
X161063097Y-82645783D01*
X160856430Y-82603727D01*
X160599113Y-82577624D01*
X160282692Y-82565466D01*
X160101643Y-82563988D01*
X159566428Y-82563714D01*
X159566428Y-84305429D01*
X158877000Y-84305429D01*
X158877000Y-81955711D01*
X159956500Y-81964326D01*
G37*
X159956500Y-81964326D02*
X160318716Y-81968394D01*
X160617653Y-81975018D01*
X160862589Y-81985331D01*
X161062801Y-82000467D01*
X161227569Y-82021558D01*
X161366169Y-82049737D01*
X161487880Y-82086137D01*
X161601981Y-82131891D01*
X161695356Y-82176669D01*
X161857269Y-82282641D01*
X162020396Y-82429052D01*
X162159513Y-82591085D01*
X162230540Y-82703271D01*
X162302519Y-82887310D01*
X162355665Y-83110907D01*
X162384151Y-83342225D01*
X162383269Y-83537910D01*
X162321836Y-83828513D01*
X162195951Y-84097512D01*
X162012370Y-84337298D01*
X161777851Y-84540261D01*
X161499151Y-84698791D01*
X161280928Y-84779386D01*
X161188017Y-84814965D01*
X161133641Y-84851571D01*
X161127690Y-84864529D01*
X161146640Y-84903246D01*
X161200176Y-84996215D01*
X161284016Y-85136406D01*
X161393874Y-85316788D01*
X161525468Y-85530331D01*
X161674512Y-85770004D01*
X161836724Y-86028777D01*
X161848284Y-86047143D01*
X162567902Y-87190143D01*
X162167027Y-87200467D01*
X162001242Y-87203340D01*
X161861203Y-87203163D01*
X161763497Y-87200120D01*
X161726591Y-87195610D01*
X161699874Y-87161786D01*
X161641218Y-87072181D01*
X161554938Y-86933882D01*
X161445350Y-86753973D01*
X161316769Y-86539541D01*
X161173512Y-86297672D01*
X161019893Y-86035452D01*
X161017941Y-86032100D01*
X160348851Y-84883772D01*
X159948568Y-84893957D01*
X159548286Y-84904143D01*
X159538705Y-86056214D01*
X159529123Y-87208286D01*
X158877000Y-87208286D01*
X158877000Y-84305429D01*
X159566428Y-84305429D01*
X160047214Y-84304308D01*
X160257819Y-84301034D01*
X160471397Y-84292967D01*
X160662384Y-84281339D01*
X160800143Y-84268047D01*
X161079838Y-84209369D01*
X161299254Y-84112031D01*
X161460924Y-83973726D01*
X161567380Y-83792145D01*
X161621154Y-83564979D01*
X161625694Y-83515492D01*
X161625104Y-83278738D01*
X161582599Y-83087668D01*
X161493967Y-82925957D01*
X161463746Y-82887773D01*
X161358301Y-82785797D01*
X161227570Y-82705803D01*
X161063097Y-82645783D01*
X160856430Y-82603727D01*
X160599113Y-82577624D01*
X160282692Y-82565466D01*
X160101643Y-82563988D01*
X159566428Y-82563714D01*
X159566428Y-84305429D01*
X158877000Y-84305429D01*
X158877000Y-81955711D01*
X159956500Y-81964326D01*
G36*
X157353000Y-82599106D02*
G01*
X156019500Y-82608624D01*
X154686000Y-82618143D01*
X154676221Y-83407357D01*
X154666442Y-84196572D01*
X157171571Y-84196572D01*
X157171571Y-84849714D01*
X154667857Y-84849714D01*
X154667857Y-86555143D01*
X157498143Y-86555143D01*
X157498143Y-87208286D01*
X153978429Y-87208286D01*
X153978429Y-81983143D01*
X157353000Y-81983143D01*
X157353000Y-82599106D01*
G37*
X157353000Y-82599106D02*
X156019500Y-82608624D01*
X154686000Y-82618143D01*
X154676221Y-83407357D01*
X154666442Y-84196572D01*
X157171571Y-84196572D01*
X157171571Y-84849714D01*
X154667857Y-84849714D01*
X154667857Y-86555143D01*
X157498143Y-86555143D01*
X157498143Y-87208286D01*
X153978429Y-87208286D01*
X153978429Y-81983143D01*
X157353000Y-81983143D01*
X157353000Y-82599106D01*
G36*
X149000113Y-82173643D02*
G01*
X149025597Y-82243019D01*
X149073369Y-82373687D01*
X149140909Y-82558739D01*
X149225701Y-82791267D01*
X149325226Y-83064363D01*
X149436966Y-83371118D01*
X149558403Y-83704623D01*
X149687020Y-84057972D01*
X149770466Y-84287286D01*
X149899997Y-84642959D01*
X150022186Y-84977839D01*
X150134775Y-85285781D01*
X150235506Y-85560639D01*
X150322121Y-85796269D01*
X150392362Y-85986526D01*
X150443972Y-86125264D01*
X150474693Y-86206338D01*
X150482603Y-86225548D01*
X150512716Y-86222951D01*
X150528235Y-86186891D01*
X150567362Y-86088371D01*
X150628027Y-85932809D01*
X150708158Y-85725620D01*
X150805683Y-85472221D01*
X150918532Y-85178028D01*
X151044634Y-84848459D01*
X151181917Y-84488930D01*
X151328310Y-84104857D01*
X151481742Y-83701657D01*
X151640143Y-83284746D01*
X151801440Y-82859541D01*
X151963562Y-82431459D01*
X152061066Y-82173643D01*
X152133071Y-81983143D01*
X152511464Y-81983143D01*
X152667291Y-81983953D01*
X152791945Y-81986142D01*
X152870384Y-81989349D01*
X152889836Y-81992214D01*
X152876774Y-82026543D01*
X152838957Y-82123141D01*
X152778433Y-82276840D01*
X152697246Y-82482467D01*
X152597444Y-82734853D01*
X152481073Y-83028825D01*
X152350178Y-83359214D01*
X152206806Y-83720847D01*
X152053003Y-84108555D01*
X151890815Y-84517167D01*
X151859627Y-84595714D01*
X150829439Y-87190143D01*
X150489862Y-87200029D01*
X150150286Y-87209916D01*
X149161927Y-84660029D01*
X149002786Y-84249387D01*
X148850993Y-83857562D01*
X148708631Y-83489946D01*
X148577788Y-83151930D01*
X148460547Y-82848906D01*
X148358995Y-82586266D01*
X148275217Y-82369402D01*
X148211298Y-82203705D01*
X148169324Y-82094566D01*
X148151380Y-82047379D01*
X148151116Y-82046643D01*
X148147132Y-82018878D01*
X148166373Y-82000602D01*
X148220455Y-81989862D01*
X148320996Y-81984706D01*
X148479611Y-81983184D01*
X148529082Y-81983143D01*
X148929500Y-81983143D01*
X149000113Y-82173643D01*
G37*
X149000113Y-82173643D02*
X149025597Y-82243019D01*
X149073369Y-82373687D01*
X149140909Y-82558739D01*
X149225701Y-82791267D01*
X149325226Y-83064363D01*
X149436966Y-83371118D01*
X149558403Y-83704623D01*
X149687020Y-84057972D01*
X149770466Y-84287286D01*
X149899997Y-84642959D01*
X150022186Y-84977839D01*
X150134775Y-85285781D01*
X150235506Y-85560639D01*
X150322121Y-85796269D01*
X150392362Y-85986526D01*
X150443972Y-86125264D01*
X150474693Y-86206338D01*
X150482603Y-86225548D01*
X150512716Y-86222951D01*
X150528235Y-86186891D01*
X150567362Y-86088371D01*
X150628027Y-85932809D01*
X150708158Y-85725620D01*
X150805683Y-85472221D01*
X150918532Y-85178028D01*
X151044634Y-84848459D01*
X151181917Y-84488930D01*
X151328310Y-84104857D01*
X151481742Y-83701657D01*
X151640143Y-83284746D01*
X151801440Y-82859541D01*
X151963562Y-82431459D01*
X152061066Y-82173643D01*
X152133071Y-81983143D01*
X152511464Y-81983143D01*
X152667291Y-81983953D01*
X152791945Y-81986142D01*
X152870384Y-81989349D01*
X152889836Y-81992214D01*
X152876774Y-82026543D01*
X152838957Y-82123141D01*
X152778433Y-82276840D01*
X152697246Y-82482467D01*
X152597444Y-82734853D01*
X152481073Y-83028825D01*
X152350178Y-83359214D01*
X152206806Y-83720847D01*
X152053003Y-84108555D01*
X151890815Y-84517167D01*
X151859627Y-84595714D01*
X150829439Y-87190143D01*
X150489862Y-87200029D01*
X150150286Y-87209916D01*
X149161927Y-84660029D01*
X149002786Y-84249387D01*
X148850993Y-83857562D01*
X148708631Y-83489946D01*
X148577788Y-83151930D01*
X148460547Y-82848906D01*
X148358995Y-82586266D01*
X148275217Y-82369402D01*
X148211298Y-82203705D01*
X148169324Y-82094566D01*
X148151380Y-82047379D01*
X148151116Y-82046643D01*
X148147132Y-82018878D01*
X148166373Y-82000602D01*
X148220455Y-81989862D01*
X148320996Y-81984706D01*
X148479611Y-81983184D01*
X148529082Y-81983143D01*
X148929500Y-81983143D01*
X149000113Y-82173643D01*
G36*
X147047857Y-87208286D02*
G01*
X146358429Y-87208286D01*
X146358429Y-81983143D01*
X147047857Y-81983143D01*
X147047857Y-87208286D01*
G37*
X147047857Y-87208286D02*
X146358429Y-87208286D01*
X146358429Y-81983143D01*
X147047857Y-81983143D01*
X147047857Y-87208286D01*
G36*
X144379039Y-81970619D02*
G01*
X144431123Y-81974543D01*
X144616714Y-81992376D01*
X144616714Y-87210519D01*
X144175712Y-87200331D01*
X143734709Y-87190143D01*
X140788571Y-82884921D01*
X140779214Y-85046603D01*
X140769858Y-87208286D01*
X140081000Y-87208286D01*
X140081000Y-81983143D01*
X140543643Y-81984268D01*
X141006286Y-81985392D01*
X142457714Y-84134196D01*
X143909143Y-86283000D01*
X143918500Y-84137758D01*
X143927857Y-81992517D01*
X144086694Y-81974613D01*
X144223884Y-81967399D01*
X144379039Y-81970619D01*
G37*
X144379039Y-81970619D02*
X144431123Y-81974543D01*
X144616714Y-81992376D01*
X144616714Y-87210519D01*
X144175712Y-87200331D01*
X143734709Y-87190143D01*
X140788571Y-82884921D01*
X140779214Y-85046603D01*
X140769858Y-87208286D01*
X140081000Y-87208286D01*
X140081000Y-81983143D01*
X140543643Y-81984268D01*
X141006286Y-81985392D01*
X142457714Y-84134196D01*
X143909143Y-86283000D01*
X143918500Y-84137758D01*
X143927857Y-81992517D01*
X144086694Y-81974613D01*
X144223884Y-81967399D01*
X144379039Y-81970619D01*
G36*
X97862562Y-81983936D02*
G01*
X98123847Y-81988293D01*
X98393411Y-81995176D01*
X98659172Y-82004240D01*
X98909048Y-82015141D01*
X99130956Y-82027536D01*
X99312815Y-82041080D01*
X99442542Y-82055430D01*
X99495428Y-82065646D01*
X99802248Y-82183691D01*
X100053324Y-82348101D01*
X100249632Y-82559976D01*
X100392149Y-82820417D01*
X100481850Y-83130524D01*
X100492184Y-83189942D01*
X100510211Y-83461729D01*
X100483089Y-83732385D01*
X100413873Y-83972496D01*
X100409877Y-83981973D01*
X100268332Y-84223345D01*
X100065719Y-84438163D01*
X99810990Y-84618953D01*
X99513095Y-84758241D01*
X99456722Y-84777949D01*
X99318839Y-84830828D01*
X99252640Y-84873877D01*
X99248780Y-84898116D01*
X99273433Y-84937685D01*
X99332097Y-85031595D01*
X99420283Y-85172668D01*
X99533503Y-85353729D01*
X99667270Y-85567598D01*
X99817095Y-85807100D01*
X99974754Y-86059086D01*
X100134764Y-86315214D01*
X100281913Y-86551537D01*
X100411915Y-86761111D01*
X100520484Y-86936991D01*
X100603331Y-87072232D01*
X100656170Y-87159889D01*
X100674714Y-87193014D01*
X100640790Y-87198965D01*
X100548461Y-87203831D01*
X100411889Y-87207107D01*
X100247875Y-87208286D01*
X99821035Y-87208286D01*
X99155308Y-86065286D01*
X98489580Y-84922286D01*
X97663000Y-84922286D01*
X97663000Y-87208286D01*
X96973571Y-87208286D01*
X96973571Y-84311991D01*
X97663000Y-84311991D01*
X98379643Y-84297074D01*
X98648726Y-84290125D01*
X98856171Y-84281278D01*
X99012907Y-84269571D01*
X99129862Y-84254044D01*
X99217964Y-84233738D01*
X99259057Y-84219811D01*
X99469316Y-84103688D01*
X99627033Y-83939827D01*
X99727614Y-83734965D01*
X99766469Y-83495838D01*
X99766774Y-83475067D01*
X99741307Y-83214846D01*
X99661929Y-83002717D01*
X99527660Y-82837127D01*
X99337521Y-82716519D01*
X99271982Y-82689805D01*
X99190924Y-82665580D01*
X99089117Y-82646829D01*
X98955268Y-82632527D01*
X98778087Y-82621652D01*
X98546281Y-82613178D01*
X98379643Y-82608899D01*
X97663000Y-82592428D01*
X97663000Y-84311991D01*
X96973571Y-84311991D01*
X96973571Y-82023875D01*
X97141860Y-81998639D01*
X97249206Y-81989455D01*
X97413159Y-81984173D01*
X97621639Y-81982447D01*
X97862562Y-81983936D01*
G37*
X97862562Y-81983936D02*
X98123847Y-81988293D01*
X98393411Y-81995176D01*
X98659172Y-82004240D01*
X98909048Y-82015141D01*
X99130956Y-82027536D01*
X99312815Y-82041080D01*
X99442542Y-82055430D01*
X99495428Y-82065646D01*
X99802248Y-82183691D01*
X100053324Y-82348101D01*
X100249632Y-82559976D01*
X100392149Y-82820417D01*
X100481850Y-83130524D01*
X100492184Y-83189942D01*
X100510211Y-83461729D01*
X100483089Y-83732385D01*
X100413873Y-83972496D01*
X100409877Y-83981973D01*
X100268332Y-84223345D01*
X100065719Y-84438163D01*
X99810990Y-84618953D01*
X99513095Y-84758241D01*
X99456722Y-84777949D01*
X99318839Y-84830828D01*
X99252640Y-84873877D01*
X99248780Y-84898116D01*
X99273433Y-84937685D01*
X99332097Y-85031595D01*
X99420283Y-85172668D01*
X99533503Y-85353729D01*
X99667270Y-85567598D01*
X99817095Y-85807100D01*
X99974754Y-86059086D01*
X100134764Y-86315214D01*
X100281913Y-86551537D01*
X100411915Y-86761111D01*
X100520484Y-86936991D01*
X100603331Y-87072232D01*
X100656170Y-87159889D01*
X100674714Y-87193014D01*
X100640790Y-87198965D01*
X100548461Y-87203831D01*
X100411889Y-87207107D01*
X100247875Y-87208286D01*
X99821035Y-87208286D01*
X99155308Y-86065286D01*
X98489580Y-84922286D01*
X97663000Y-84922286D01*
X97663000Y-87208286D01*
X96973571Y-87208286D01*
X96973571Y-84311991D01*
X97663000Y-84311991D01*
X98379643Y-84297074D01*
X98648726Y-84290125D01*
X98856171Y-84281278D01*
X99012907Y-84269571D01*
X99129862Y-84254044D01*
X99217964Y-84233738D01*
X99259057Y-84219811D01*
X99469316Y-84103688D01*
X99627033Y-83939827D01*
X99727614Y-83734965D01*
X99766469Y-83495838D01*
X99766774Y-83475067D01*
X99741307Y-83214846D01*
X99661929Y-83002717D01*
X99527660Y-82837127D01*
X99337521Y-82716519D01*
X99271982Y-82689805D01*
X99190924Y-82665580D01*
X99089117Y-82646829D01*
X98955268Y-82632527D01*
X98778087Y-82621652D01*
X98546281Y-82613178D01*
X98379643Y-82608899D01*
X97663000Y-82592428D01*
X97663000Y-84311991D01*
X96973571Y-84311991D01*
X96973571Y-82023875D01*
X97141860Y-81998639D01*
X97249206Y-81989455D01*
X97413159Y-81984173D01*
X97621639Y-81982447D01*
X97862562Y-81983936D01*
G36*
X88727643Y-81992291D02*
G01*
X89056316Y-81997282D01*
X89321547Y-82002544D01*
X89532465Y-82008653D01*
X89698200Y-82016187D01*
X89827880Y-82025722D01*
X89930635Y-82037835D01*
X90015594Y-82053103D01*
X90091884Y-82072103D01*
X90120029Y-82080280D01*
X90423402Y-82198150D01*
X90667241Y-82354514D01*
X90855546Y-82554079D01*
X90992316Y-82801555D01*
X91081548Y-83101650D01*
X91105229Y-83240336D01*
X91120765Y-83579052D01*
X91071063Y-83889607D01*
X90959532Y-84167389D01*
X90789577Y-84407784D01*
X90564607Y-84606181D01*
X90288028Y-84757967D01*
X89963248Y-84858530D01*
X89900896Y-84870663D01*
X89751842Y-84889625D01*
X89545612Y-84904813D01*
X89297541Y-84915420D01*
X89022962Y-84920638D01*
X88945357Y-84921020D01*
X88265000Y-84922286D01*
X88265000Y-87208286D01*
X87575571Y-87208286D01*
X87575571Y-84305429D01*
X88265000Y-84305429D01*
X88880071Y-84305429D01*
X89100636Y-84303019D01*
X89311000Y-84296364D01*
X89493910Y-84286324D01*
X89632115Y-84273759D01*
X89687428Y-84265154D01*
X89936420Y-84186531D01*
X90129548Y-84065389D01*
X90251144Y-83930201D01*
X90305601Y-83839951D01*
X90338482Y-83747014D01*
X90356511Y-83625957D01*
X90364290Y-83502317D01*
X90367431Y-83340374D01*
X90356534Y-83222889D01*
X90327459Y-83122431D01*
X90296394Y-83052320D01*
X90216047Y-82919840D01*
X90111894Y-82814163D01*
X89976204Y-82732803D01*
X89801245Y-82673277D01*
X89579289Y-82633098D01*
X89302603Y-82609782D01*
X88963457Y-82600845D01*
X88890929Y-82600567D01*
X88265000Y-82600000D01*
X88265000Y-84305429D01*
X87575571Y-84305429D01*
X87575571Y-81976289D01*
X88727643Y-81992291D01*
G37*
X88727643Y-81992291D02*
X89056316Y-81997282D01*
X89321547Y-82002544D01*
X89532465Y-82008653D01*
X89698200Y-82016187D01*
X89827880Y-82025722D01*
X89930635Y-82037835D01*
X90015594Y-82053103D01*
X90091884Y-82072103D01*
X90120029Y-82080280D01*
X90423402Y-82198150D01*
X90667241Y-82354514D01*
X90855546Y-82554079D01*
X90992316Y-82801555D01*
X91081548Y-83101650D01*
X91105229Y-83240336D01*
X91120765Y-83579052D01*
X91071063Y-83889607D01*
X90959532Y-84167389D01*
X90789577Y-84407784D01*
X90564607Y-84606181D01*
X90288028Y-84757967D01*
X89963248Y-84858530D01*
X89900896Y-84870663D01*
X89751842Y-84889625D01*
X89545612Y-84904813D01*
X89297541Y-84915420D01*
X89022962Y-84920638D01*
X88945357Y-84921020D01*
X88265000Y-84922286D01*
X88265000Y-87208286D01*
X87575571Y-87208286D01*
X87575571Y-84305429D01*
X88265000Y-84305429D01*
X88880071Y-84305429D01*
X89100636Y-84303019D01*
X89311000Y-84296364D01*
X89493910Y-84286324D01*
X89632115Y-84273759D01*
X89687428Y-84265154D01*
X89936420Y-84186531D01*
X90129548Y-84065389D01*
X90251144Y-83930201D01*
X90305601Y-83839951D01*
X90338482Y-83747014D01*
X90356511Y-83625957D01*
X90364290Y-83502317D01*
X90367431Y-83340374D01*
X90356534Y-83222889D01*
X90327459Y-83122431D01*
X90296394Y-83052320D01*
X90216047Y-82919840D01*
X90111894Y-82814163D01*
X89976204Y-82732803D01*
X89801245Y-82673277D01*
X89579289Y-82633098D01*
X89302603Y-82609782D01*
X88963457Y-82600845D01*
X88890929Y-82600567D01*
X88265000Y-82600000D01*
X88265000Y-84305429D01*
X87575571Y-84305429D01*
X87575571Y-81976289D01*
X88727643Y-81992291D01*
G36*
X84309857Y-86591429D02*
G01*
X86741000Y-86591429D01*
X86741000Y-87208286D01*
X83620428Y-87208286D01*
X83620428Y-82019429D01*
X84309857Y-82019429D01*
X84309857Y-86591429D01*
G37*
X84309857Y-86591429D02*
X86741000Y-86591429D01*
X86741000Y-87208286D01*
X83620428Y-87208286D01*
X83620428Y-82019429D01*
X84309857Y-82019429D01*
X84309857Y-86591429D01*
G36*
X80257416Y-81990965D02*
G01*
X80578632Y-82001286D01*
X81675194Y-84541286D01*
X81850746Y-84948021D01*
X82018232Y-85336265D01*
X82175382Y-85700739D01*
X82319924Y-86036165D01*
X82449584Y-86337265D01*
X82562091Y-86598758D01*
X82655174Y-86815368D01*
X82726559Y-86981815D01*
X82773975Y-87092820D01*
X82795150Y-87143105D01*
X82795811Y-87144786D01*
X82800566Y-87172345D01*
X82782261Y-87190530D01*
X82729402Y-87201228D01*
X82630494Y-87206327D01*
X82474043Y-87207713D01*
X82412790Y-87207686D01*
X82005714Y-87207086D01*
X81749851Y-86581757D01*
X81493988Y-85956429D01*
X80221464Y-85946898D01*
X78948940Y-85937368D01*
X78795390Y-86309755D01*
X78718202Y-86496941D01*
X78637369Y-86692946D01*
X78565149Y-86868051D01*
X78533320Y-86945214D01*
X78424799Y-87208286D01*
X78025160Y-87208286D01*
X77850645Y-87207364D01*
X77737089Y-87203294D01*
X77672886Y-87194119D01*
X77646434Y-87177881D01*
X77646128Y-87152622D01*
X77648734Y-87144786D01*
X77666853Y-87102187D01*
X77712127Y-86998501D01*
X77782246Y-86838959D01*
X77874897Y-86628793D01*
X77987767Y-86373234D01*
X78118544Y-86077514D01*
X78264915Y-85746864D01*
X78424569Y-85386516D01*
X78470872Y-85282084D01*
X79229857Y-85282084D01*
X79258851Y-85295140D01*
X79347652Y-85305444D01*
X79498988Y-85313105D01*
X79715590Y-85318230D01*
X80000186Y-85320927D01*
X80228201Y-85321429D01*
X81226545Y-85321429D01*
X81178657Y-85203500D01*
X80978518Y-84712231D01*
X80799847Y-84276946D01*
X80643293Y-83899168D01*
X80509503Y-83580420D01*
X80399127Y-83322226D01*
X80312813Y-83126108D01*
X80251209Y-82993590D01*
X80214964Y-82926195D01*
X80205491Y-82917804D01*
X80185066Y-82957824D01*
X80141423Y-83055550D01*
X80078474Y-83201504D01*
X80000127Y-83386212D01*
X79910295Y-83600196D01*
X79812887Y-83833979D01*
X79711814Y-84078087D01*
X79610986Y-84323041D01*
X79514314Y-84559367D01*
X79425708Y-84777587D01*
X79349079Y-84968225D01*
X79288337Y-85121805D01*
X79247392Y-85228850D01*
X79230156Y-85279884D01*
X79229857Y-85282084D01*
X78470872Y-85282084D01*
X78595192Y-85001700D01*
X78774473Y-84597650D01*
X78804074Y-84530965D01*
X79936200Y-81980643D01*
X80257416Y-81990965D01*
G37*
X80257416Y-81990965D02*
X80578632Y-82001286D01*
X81675194Y-84541286D01*
X81850746Y-84948021D01*
X82018232Y-85336265D01*
X82175382Y-85700739D01*
X82319924Y-86036165D01*
X82449584Y-86337265D01*
X82562091Y-86598758D01*
X82655174Y-86815368D01*
X82726559Y-86981815D01*
X82773975Y-87092820D01*
X82795150Y-87143105D01*
X82795811Y-87144786D01*
X82800566Y-87172345D01*
X82782261Y-87190530D01*
X82729402Y-87201228D01*
X82630494Y-87206327D01*
X82474043Y-87207713D01*
X82412790Y-87207686D01*
X82005714Y-87207086D01*
X81749851Y-86581757D01*
X81493988Y-85956429D01*
X80221464Y-85946898D01*
X78948940Y-85937368D01*
X78795390Y-86309755D01*
X78718202Y-86496941D01*
X78637369Y-86692946D01*
X78565149Y-86868051D01*
X78533320Y-86945214D01*
X78424799Y-87208286D01*
X78025160Y-87208286D01*
X77850645Y-87207364D01*
X77737089Y-87203294D01*
X77672886Y-87194119D01*
X77646434Y-87177881D01*
X77646128Y-87152622D01*
X77648734Y-87144786D01*
X77666853Y-87102187D01*
X77712127Y-86998501D01*
X77782246Y-86838959D01*
X77874897Y-86628793D01*
X77987767Y-86373234D01*
X78118544Y-86077514D01*
X78264915Y-85746864D01*
X78424569Y-85386516D01*
X78470872Y-85282084D01*
X79229857Y-85282084D01*
X79258851Y-85295140D01*
X79347652Y-85305444D01*
X79498988Y-85313105D01*
X79715590Y-85318230D01*
X80000186Y-85320927D01*
X80228201Y-85321429D01*
X81226545Y-85321429D01*
X81178657Y-85203500D01*
X80978518Y-84712231D01*
X80799847Y-84276946D01*
X80643293Y-83899168D01*
X80509503Y-83580420D01*
X80399127Y-83322226D01*
X80312813Y-83126108D01*
X80251209Y-82993590D01*
X80214964Y-82926195D01*
X80205491Y-82917804D01*
X80185066Y-82957824D01*
X80141423Y-83055550D01*
X80078474Y-83201504D01*
X80000127Y-83386212D01*
X79910295Y-83600196D01*
X79812887Y-83833979D01*
X79711814Y-84078087D01*
X79610986Y-84323041D01*
X79514314Y-84559367D01*
X79425708Y-84777587D01*
X79349079Y-84968225D01*
X79288337Y-85121805D01*
X79247392Y-85228850D01*
X79230156Y-85279884D01*
X79229857Y-85282084D01*
X78470872Y-85282084D01*
X78595192Y-85001700D01*
X78774473Y-84597650D01*
X78804074Y-84530965D01*
X79936200Y-81980643D01*
X80257416Y-81990965D01*
G36*
X76948340Y-84595441D02*
G01*
X75909714Y-87207739D01*
X75220286Y-87207299D01*
X74231779Y-84658721D01*
X74072584Y-84248204D01*
X73920744Y-83856502D01*
X73778345Y-83489009D01*
X73647476Y-83151116D01*
X73530222Y-82848217D01*
X73428670Y-82585702D01*
X73344907Y-82368966D01*
X73281020Y-82203400D01*
X73239096Y-82094396D01*
X73221220Y-82047348D01*
X73220968Y-82046643D01*
X73217053Y-82018841D01*
X73236396Y-82000555D01*
X73290634Y-81989823D01*
X73391403Y-81984686D01*
X73550339Y-81983181D01*
X73597807Y-81983143D01*
X73775801Y-81984520D01*
X73894317Y-81989953D01*
X73966416Y-82001397D01*
X74005161Y-82020806D01*
X74022287Y-82046643D01*
X74037687Y-82088067D01*
X74075431Y-82190759D01*
X74132996Y-82347811D01*
X74207857Y-82552312D01*
X74297492Y-82797354D01*
X74399376Y-83076028D01*
X74510985Y-83381423D01*
X74629796Y-83706631D01*
X74753285Y-84044743D01*
X74878928Y-84388849D01*
X75004201Y-84732040D01*
X75126581Y-85067407D01*
X75243544Y-85388041D01*
X75352565Y-85687031D01*
X75451122Y-85957470D01*
X75536691Y-86192448D01*
X75549468Y-86227555D01*
X75572396Y-86261003D01*
X75598446Y-86233167D01*
X75616206Y-86191552D01*
X75657269Y-86087982D01*
X75719353Y-85928414D01*
X75800174Y-85718804D01*
X75897449Y-85465109D01*
X76008894Y-85173285D01*
X76132226Y-84849289D01*
X76265163Y-84499076D01*
X76405419Y-84128604D01*
X76421994Y-84084762D01*
X77216000Y-81984156D01*
X77601483Y-81983649D01*
X77986965Y-81983143D01*
X76948340Y-84595441D01*
G37*
X76948340Y-84595441D02*
X75909714Y-87207739D01*
X75220286Y-87207299D01*
X74231779Y-84658721D01*
X74072584Y-84248204D01*
X73920744Y-83856502D01*
X73778345Y-83489009D01*
X73647476Y-83151116D01*
X73530222Y-82848217D01*
X73428670Y-82585702D01*
X73344907Y-82368966D01*
X73281020Y-82203400D01*
X73239096Y-82094396D01*
X73221220Y-82047348D01*
X73220968Y-82046643D01*
X73217053Y-82018841D01*
X73236396Y-82000555D01*
X73290634Y-81989823D01*
X73391403Y-81984686D01*
X73550339Y-81983181D01*
X73597807Y-81983143D01*
X73775801Y-81984520D01*
X73894317Y-81989953D01*
X73966416Y-82001397D01*
X74005161Y-82020806D01*
X74022287Y-82046643D01*
X74037687Y-82088067D01*
X74075431Y-82190759D01*
X74132996Y-82347811D01*
X74207857Y-82552312D01*
X74297492Y-82797354D01*
X74399376Y-83076028D01*
X74510985Y-83381423D01*
X74629796Y-83706631D01*
X74753285Y-84044743D01*
X74878928Y-84388849D01*
X75004201Y-84732040D01*
X75126581Y-85067407D01*
X75243544Y-85388041D01*
X75352565Y-85687031D01*
X75451122Y-85957470D01*
X75536691Y-86192448D01*
X75549468Y-86227555D01*
X75572396Y-86261003D01*
X75598446Y-86233167D01*
X75616206Y-86191552D01*
X75657269Y-86087982D01*
X75719353Y-85928414D01*
X75800174Y-85718804D01*
X75897449Y-85465109D01*
X76008894Y-85173285D01*
X76132226Y-84849289D01*
X76265163Y-84499076D01*
X76405419Y-84128604D01*
X76421994Y-84084762D01*
X77216000Y-81984156D01*
X77601483Y-81983649D01*
X77986965Y-81983143D01*
X76948340Y-84595441D01*
G36*
X107968143Y-87244571D02*
G01*
X107278714Y-87244571D01*
X107278714Y-81983143D01*
X107968143Y-81983143D01*
X107968143Y-87244571D01*
G37*
X107968143Y-87244571D02*
X107278714Y-87244571D01*
X107278714Y-81983143D01*
X107968143Y-81983143D01*
X107968143Y-87244571D01*
G36*
X105334354Y-84585689D02*
G01*
X105511390Y-84996640D01*
X105680188Y-85388324D01*
X105838538Y-85755623D01*
X105984232Y-86093418D01*
X106115059Y-86396592D01*
X106228811Y-86660025D01*
X106323278Y-86878601D01*
X106396249Y-87047201D01*
X106445517Y-87160706D01*
X106468871Y-87213999D01*
X106470424Y-87217357D01*
X106442449Y-87228102D01*
X106355691Y-87236814D01*
X106223930Y-87242554D01*
X106074356Y-87244399D01*
X105664000Y-87244227D01*
X105396126Y-86590797D01*
X105128252Y-85937368D01*
X103855807Y-85946898D01*
X102583362Y-85956429D01*
X102322703Y-86591429D01*
X102062045Y-87226429D01*
X101658665Y-87236688D01*
X101497647Y-87238408D01*
X101367524Y-87235272D01*
X101282758Y-87227933D01*
X101257166Y-87218546D01*
X101271878Y-87181692D01*
X101313912Y-87083650D01*
X101381026Y-86929508D01*
X101470974Y-86724353D01*
X101581513Y-86473272D01*
X101710398Y-86181353D01*
X101855387Y-85853683D01*
X102014234Y-85495349D01*
X102111342Y-85276643D01*
X102864766Y-85276643D01*
X102876264Y-85291281D01*
X102910050Y-85302340D01*
X102973816Y-85310319D01*
X103075255Y-85315714D01*
X103222060Y-85319022D01*
X103421924Y-85320741D01*
X103682538Y-85321369D01*
X103850064Y-85321429D01*
X104146565Y-85321175D01*
X104378233Y-85320083D01*
X104552807Y-85317656D01*
X104678024Y-85313395D01*
X104761624Y-85306804D01*
X104811343Y-85297386D01*
X104834921Y-85284643D01*
X104840095Y-85268077D01*
X104838121Y-85257929D01*
X104818220Y-85202433D01*
X104775118Y-85091866D01*
X104712725Y-84935699D01*
X104634950Y-84743404D01*
X104545706Y-84524451D01*
X104448901Y-84288314D01*
X104348445Y-84044463D01*
X104248249Y-83802371D01*
X104152223Y-83571508D01*
X104064278Y-83361347D01*
X103988322Y-83181358D01*
X103928267Y-83041015D01*
X103888023Y-82949787D01*
X103871891Y-82917416D01*
X103854185Y-82944771D01*
X103812532Y-83030282D01*
X103750747Y-83165056D01*
X103672646Y-83340196D01*
X103582045Y-83546809D01*
X103482759Y-83776000D01*
X103378603Y-84018873D01*
X103273394Y-84266536D01*
X103170946Y-84510092D01*
X103075076Y-84740648D01*
X102989600Y-84949308D01*
X102918332Y-85127178D01*
X102867864Y-85257929D01*
X102864766Y-85276643D01*
X102111342Y-85276643D01*
X102184696Y-85111439D01*
X102364528Y-84707041D01*
X102414081Y-84595714D01*
X103569114Y-82001286D01*
X103890843Y-81991260D01*
X104212571Y-81981234D01*
X105334354Y-84585689D01*
G37*
X105334354Y-84585689D02*
X105511390Y-84996640D01*
X105680188Y-85388324D01*
X105838538Y-85755623D01*
X105984232Y-86093418D01*
X106115059Y-86396592D01*
X106228811Y-86660025D01*
X106323278Y-86878601D01*
X106396249Y-87047201D01*
X106445517Y-87160706D01*
X106468871Y-87213999D01*
X106470424Y-87217357D01*
X106442449Y-87228102D01*
X106355691Y-87236814D01*
X106223930Y-87242554D01*
X106074356Y-87244399D01*
X105664000Y-87244227D01*
X105396126Y-86590797D01*
X105128252Y-85937368D01*
X103855807Y-85946898D01*
X102583362Y-85956429D01*
X102322703Y-86591429D01*
X102062045Y-87226429D01*
X101658665Y-87236688D01*
X101497647Y-87238408D01*
X101367524Y-87235272D01*
X101282758Y-87227933D01*
X101257166Y-87218546D01*
X101271878Y-87181692D01*
X101313912Y-87083650D01*
X101381026Y-86929508D01*
X101470974Y-86724353D01*
X101581513Y-86473272D01*
X101710398Y-86181353D01*
X101855387Y-85853683D01*
X102014234Y-85495349D01*
X102111342Y-85276643D01*
X102864766Y-85276643D01*
X102876264Y-85291281D01*
X102910050Y-85302340D01*
X102973816Y-85310319D01*
X103075255Y-85315714D01*
X103222060Y-85319022D01*
X103421924Y-85320741D01*
X103682538Y-85321369D01*
X103850064Y-85321429D01*
X104146565Y-85321175D01*
X104378233Y-85320083D01*
X104552807Y-85317656D01*
X104678024Y-85313395D01*
X104761624Y-85306804D01*
X104811343Y-85297386D01*
X104834921Y-85284643D01*
X104840095Y-85268077D01*
X104838121Y-85257929D01*
X104818220Y-85202433D01*
X104775118Y-85091866D01*
X104712725Y-84935699D01*
X104634950Y-84743404D01*
X104545706Y-84524451D01*
X104448901Y-84288314D01*
X104348445Y-84044463D01*
X104248249Y-83802371D01*
X104152223Y-83571508D01*
X104064278Y-83361347D01*
X103988322Y-83181358D01*
X103928267Y-83041015D01*
X103888023Y-82949787D01*
X103871891Y-82917416D01*
X103854185Y-82944771D01*
X103812532Y-83030282D01*
X103750747Y-83165056D01*
X103672646Y-83340196D01*
X103582045Y-83546809D01*
X103482759Y-83776000D01*
X103378603Y-84018873D01*
X103273394Y-84266536D01*
X103170946Y-84510092D01*
X103075076Y-84740648D01*
X102989600Y-84949308D01*
X102918332Y-85127178D01*
X102867864Y-85257929D01*
X102864766Y-85276643D01*
X102111342Y-85276643D01*
X102184696Y-85111439D01*
X102364528Y-84707041D01*
X102414081Y-84595714D01*
X103569114Y-82001286D01*
X103890843Y-81991260D01*
X104212571Y-81981234D01*
X105334354Y-84585689D01*
G36*
X95029147Y-84585572D02*
G01*
X95206171Y-84996536D01*
X95374960Y-85388233D01*
X95533303Y-85755544D01*
X95678993Y-86093351D01*
X95809818Y-86396536D01*
X95923570Y-86659982D01*
X96018040Y-86878568D01*
X96091018Y-87047178D01*
X96140294Y-87160694D01*
X96163660Y-87213996D01*
X96165217Y-87217357D01*
X96137268Y-87228102D01*
X96050534Y-87236814D01*
X95918790Y-87242554D01*
X95769213Y-87244399D01*
X95358857Y-87244227D01*
X95090983Y-86590797D01*
X94823109Y-85937368D01*
X93549111Y-85946898D01*
X92275113Y-85956429D01*
X91766571Y-87207441D01*
X91359135Y-87207863D01*
X90951699Y-87208286D01*
X90987960Y-87126643D01*
X91008221Y-87081023D01*
X91055578Y-86974392D01*
X91127673Y-86812062D01*
X91222144Y-86599349D01*
X91336632Y-86341563D01*
X91468778Y-86044020D01*
X91616221Y-85712033D01*
X91776602Y-85350913D01*
X91809586Y-85276643D01*
X92559624Y-85276643D01*
X92571122Y-85291281D01*
X92604907Y-85302340D01*
X92668673Y-85310319D01*
X92770112Y-85315714D01*
X92916917Y-85319022D01*
X93116781Y-85320741D01*
X93377395Y-85321369D01*
X93544921Y-85321429D01*
X93841424Y-85321175D01*
X94073095Y-85320083D01*
X94247673Y-85317655D01*
X94372897Y-85313394D01*
X94456506Y-85306802D01*
X94506238Y-85297382D01*
X94529833Y-85284637D01*
X94535030Y-85268070D01*
X94533072Y-85257929D01*
X94513393Y-85203135D01*
X94470460Y-85093154D01*
X94408187Y-84937461D01*
X94330487Y-84745528D01*
X94241272Y-84526829D01*
X94144457Y-84290836D01*
X94043954Y-84047024D01*
X93943677Y-83804865D01*
X93847539Y-83573833D01*
X93759453Y-83363401D01*
X93683332Y-83183043D01*
X93623090Y-83042232D01*
X93582639Y-82950441D01*
X93566254Y-82917416D01*
X93548637Y-82944774D01*
X93507071Y-83030283D01*
X93445374Y-83165043D01*
X93367361Y-83340153D01*
X93276848Y-83546714D01*
X93177651Y-83775826D01*
X93073586Y-84018588D01*
X92968469Y-84266101D01*
X92866117Y-84509464D01*
X92770344Y-84739778D01*
X92684968Y-84948143D01*
X92613803Y-85125659D01*
X92562721Y-85257929D01*
X92559624Y-85276643D01*
X91809586Y-85276643D01*
X91947561Y-84965976D01*
X92126739Y-84562535D01*
X92144233Y-84523143D01*
X93264246Y-82001286D01*
X93907428Y-81981000D01*
X95029147Y-84585572D01*
G37*
X95029147Y-84585572D02*
X95206171Y-84996536D01*
X95374960Y-85388233D01*
X95533303Y-85755544D01*
X95678993Y-86093351D01*
X95809818Y-86396536D01*
X95923570Y-86659982D01*
X96018040Y-86878568D01*
X96091018Y-87047178D01*
X96140294Y-87160694D01*
X96163660Y-87213996D01*
X96165217Y-87217357D01*
X96137268Y-87228102D01*
X96050534Y-87236814D01*
X95918790Y-87242554D01*
X95769213Y-87244399D01*
X95358857Y-87244227D01*
X95090983Y-86590797D01*
X94823109Y-85937368D01*
X93549111Y-85946898D01*
X92275113Y-85956429D01*
X91766571Y-87207441D01*
X91359135Y-87207863D01*
X90951699Y-87208286D01*
X90987960Y-87126643D01*
X91008221Y-87081023D01*
X91055578Y-86974392D01*
X91127673Y-86812062D01*
X91222144Y-86599349D01*
X91336632Y-86341563D01*
X91468778Y-86044020D01*
X91616221Y-85712033D01*
X91776602Y-85350913D01*
X91809586Y-85276643D01*
X92559624Y-85276643D01*
X92571122Y-85291281D01*
X92604907Y-85302340D01*
X92668673Y-85310319D01*
X92770112Y-85315714D01*
X92916917Y-85319022D01*
X93116781Y-85320741D01*
X93377395Y-85321369D01*
X93544921Y-85321429D01*
X93841424Y-85321175D01*
X94073095Y-85320083D01*
X94247673Y-85317655D01*
X94372897Y-85313394D01*
X94456506Y-85306802D01*
X94506238Y-85297382D01*
X94529833Y-85284637D01*
X94535030Y-85268070D01*
X94533072Y-85257929D01*
X94513393Y-85203135D01*
X94470460Y-85093154D01*
X94408187Y-84937461D01*
X94330487Y-84745528D01*
X94241272Y-84526829D01*
X94144457Y-84290836D01*
X94043954Y-84047024D01*
X93943677Y-83804865D01*
X93847539Y-83573833D01*
X93759453Y-83363401D01*
X93683332Y-83183043D01*
X93623090Y-83042232D01*
X93582639Y-82950441D01*
X93566254Y-82917416D01*
X93548637Y-82944774D01*
X93507071Y-83030283D01*
X93445374Y-83165043D01*
X93367361Y-83340153D01*
X93276848Y-83546714D01*
X93177651Y-83775826D01*
X93073586Y-84018588D01*
X92968469Y-84266101D01*
X92866117Y-84509464D01*
X92770344Y-84739778D01*
X92684968Y-84948143D01*
X92613803Y-85125659D01*
X92562721Y-85257929D01*
X92559624Y-85276643D01*
X91809586Y-85276643D01*
X91947561Y-84965976D01*
X92126739Y-84562535D01*
X92144233Y-84523143D01*
X93264246Y-82001286D01*
X93907428Y-81981000D01*
X95029147Y-84585572D01*
G36*
X165547343Y-81833209D02*
G01*
X165897631Y-81889078D01*
X166221812Y-81997719D01*
X166508634Y-82156745D01*
X166665636Y-82282234D01*
X166827725Y-82431643D01*
X166564606Y-82672322D01*
X166301486Y-82913001D01*
X166076859Y-82742982D01*
X165864067Y-82607264D01*
X165648137Y-82526695D01*
X165407445Y-82495153D01*
X165214138Y-82498872D01*
X164970646Y-82535673D01*
X164745814Y-82609025D01*
X164561343Y-82711048D01*
X164506022Y-82755987D01*
X164390607Y-82906890D01*
X164315438Y-83097806D01*
X164285357Y-83305403D01*
X164305202Y-83506345D01*
X164332816Y-83591048D01*
X164420848Y-83734743D01*
X164554682Y-83875853D01*
X164710724Y-83990573D01*
X164750407Y-84012324D01*
X164831711Y-84047399D01*
X164966008Y-84098529D01*
X165137117Y-84159827D01*
X165328856Y-84225404D01*
X165408428Y-84251752D01*
X165613017Y-84321304D01*
X165812100Y-84393386D01*
X165986466Y-84460749D01*
X166116900Y-84516143D01*
X166146259Y-84530174D01*
X166420761Y-84700510D01*
X166631675Y-84905470D01*
X166779845Y-85146283D01*
X166866115Y-85424180D01*
X166888694Y-85612251D01*
X166876280Y-85963010D01*
X166798535Y-86285042D01*
X166657872Y-86574102D01*
X166456701Y-86825946D01*
X166197435Y-87036328D01*
X166022319Y-87137212D01*
X165749305Y-87243399D01*
X165432903Y-87313845D01*
X165094053Y-87346407D01*
X164753691Y-87338943D01*
X164465000Y-87296583D01*
X164296176Y-87249640D01*
X164114801Y-87183679D01*
X164011428Y-87137694D01*
X163884418Y-87065588D01*
X163749437Y-86974150D01*
X163620635Y-86874943D01*
X163512164Y-86779530D01*
X163438176Y-86699472D01*
X163412714Y-86648514D01*
X163438936Y-86606355D01*
X163509289Y-86531471D01*
X163611304Y-86436559D01*
X163674034Y-86382404D01*
X163935354Y-86162437D01*
X164111560Y-86320861D01*
X164374790Y-86513748D01*
X164657110Y-86636859D01*
X164956998Y-86689757D01*
X165272930Y-86672005D01*
X165309942Y-86665467D01*
X165586795Y-86586319D01*
X165810287Y-86465018D01*
X165977215Y-86304563D01*
X166084376Y-86107955D01*
X166127259Y-85900041D01*
X166131304Y-85734797D01*
X166113116Y-85595027D01*
X166066247Y-85475038D01*
X165984247Y-85369140D01*
X165860668Y-85271640D01*
X165689060Y-85176849D01*
X165462975Y-85079074D01*
X165175962Y-84972625D01*
X165012083Y-84915898D01*
X164712246Y-84808653D01*
X164471165Y-84709778D01*
X164276556Y-84612833D01*
X164116130Y-84511379D01*
X163977602Y-84398976D01*
X163919162Y-84343136D01*
X163736120Y-84110788D01*
X163609132Y-83842597D01*
X163540107Y-83551038D01*
X163530949Y-83248586D01*
X163583568Y-82947715D01*
X163670725Y-82717987D01*
X163814450Y-82495727D01*
X164016924Y-82291373D01*
X164264791Y-82114607D01*
X164544695Y-81975117D01*
X164813453Y-81889334D01*
X165182200Y-81832499D01*
X165547343Y-81833209D01*
G37*
X165547343Y-81833209D02*
X165897631Y-81889078D01*
X166221812Y-81997719D01*
X166508634Y-82156745D01*
X166665636Y-82282234D01*
X166827725Y-82431643D01*
X166564606Y-82672322D01*
X166301486Y-82913001D01*
X166076859Y-82742982D01*
X165864067Y-82607264D01*
X165648137Y-82526695D01*
X165407445Y-82495153D01*
X165214138Y-82498872D01*
X164970646Y-82535673D01*
X164745814Y-82609025D01*
X164561343Y-82711048D01*
X164506022Y-82755987D01*
X164390607Y-82906890D01*
X164315438Y-83097806D01*
X164285357Y-83305403D01*
X164305202Y-83506345D01*
X164332816Y-83591048D01*
X164420848Y-83734743D01*
X164554682Y-83875853D01*
X164710724Y-83990573D01*
X164750407Y-84012324D01*
X164831711Y-84047399D01*
X164966008Y-84098529D01*
X165137117Y-84159827D01*
X165328856Y-84225404D01*
X165408428Y-84251752D01*
X165613017Y-84321304D01*
X165812100Y-84393386D01*
X165986466Y-84460749D01*
X166116900Y-84516143D01*
X166146259Y-84530174D01*
X166420761Y-84700510D01*
X166631675Y-84905470D01*
X166779845Y-85146283D01*
X166866115Y-85424180D01*
X166888694Y-85612251D01*
X166876280Y-85963010D01*
X166798535Y-86285042D01*
X166657872Y-86574102D01*
X166456701Y-86825946D01*
X166197435Y-87036328D01*
X166022319Y-87137212D01*
X165749305Y-87243399D01*
X165432903Y-87313845D01*
X165094053Y-87346407D01*
X164753691Y-87338943D01*
X164465000Y-87296583D01*
X164296176Y-87249640D01*
X164114801Y-87183679D01*
X164011428Y-87137694D01*
X163884418Y-87065588D01*
X163749437Y-86974150D01*
X163620635Y-86874943D01*
X163512164Y-86779530D01*
X163438176Y-86699472D01*
X163412714Y-86648514D01*
X163438936Y-86606355D01*
X163509289Y-86531471D01*
X163611304Y-86436559D01*
X163674034Y-86382404D01*
X163935354Y-86162437D01*
X164111560Y-86320861D01*
X164374790Y-86513748D01*
X164657110Y-86636859D01*
X164956998Y-86689757D01*
X165272930Y-86672005D01*
X165309942Y-86665467D01*
X165586795Y-86586319D01*
X165810287Y-86465018D01*
X165977215Y-86304563D01*
X166084376Y-86107955D01*
X166127259Y-85900041D01*
X166131304Y-85734797D01*
X166113116Y-85595027D01*
X166066247Y-85475038D01*
X165984247Y-85369140D01*
X165860668Y-85271640D01*
X165689060Y-85176849D01*
X165462975Y-85079074D01*
X165175962Y-84972625D01*
X165012083Y-84915898D01*
X164712246Y-84808653D01*
X164471165Y-84709778D01*
X164276556Y-84612833D01*
X164116130Y-84511379D01*
X163977602Y-84398976D01*
X163919162Y-84343136D01*
X163736120Y-84110788D01*
X163609132Y-83842597D01*
X163540107Y-83551038D01*
X163530949Y-83248586D01*
X163583568Y-82947715D01*
X163670725Y-82717987D01*
X163814450Y-82495727D01*
X164016924Y-82291373D01*
X164264791Y-82114607D01*
X164544695Y-81975117D01*
X164813453Y-81889334D01*
X165182200Y-81832499D01*
X165547343Y-81833209D01*
G36*
X135002120Y-83587424D02*
G01*
X135003151Y-83933389D01*
X135005642Y-84266247D01*
X135009417Y-84576970D01*
X135014303Y-84856528D01*
X135020126Y-85095896D01*
X135026713Y-85286044D01*
X135033888Y-85417944D01*
X135038300Y-85464583D01*
X135111446Y-85796020D01*
X135237057Y-86079663D01*
X135412389Y-86312853D01*
X135634697Y-86492928D01*
X135901238Y-86617228D01*
X136209267Y-86683092D01*
X136302944Y-86690721D01*
X136571656Y-86688639D01*
X136795805Y-86644994D01*
X136994849Y-86552386D01*
X137188251Y-86403421D01*
X137272591Y-86322154D01*
X137362167Y-86227614D01*
X137438964Y-86134764D01*
X137503964Y-86037383D01*
X137558149Y-85929246D01*
X137602501Y-85804133D01*
X137638001Y-85655821D01*
X137665633Y-85478086D01*
X137686377Y-85264708D01*
X137701216Y-85009462D01*
X137711132Y-84706128D01*
X137717107Y-84348482D01*
X137720123Y-83930302D01*
X137721134Y-83479929D01*
X137722428Y-81983143D01*
X138419426Y-81983143D01*
X138401901Y-83824643D01*
X138397535Y-84252034D01*
X138393080Y-84613293D01*
X138388297Y-84914859D01*
X138382946Y-85163172D01*
X138376788Y-85364670D01*
X138369581Y-85525793D01*
X138361087Y-85652980D01*
X138351066Y-85752670D01*
X138339277Y-85831303D01*
X138325480Y-85895318D01*
X138324638Y-85898623D01*
X138201712Y-86239145D01*
X138021628Y-86541576D01*
X137791243Y-86802006D01*
X137517416Y-87016526D01*
X137207006Y-87181225D01*
X136866871Y-87292194D01*
X136503869Y-87345523D01*
X136124860Y-87337303D01*
X135871857Y-87296820D01*
X135556006Y-87198242D01*
X135251550Y-87046315D01*
X134983015Y-86854105D01*
X134902937Y-86780605D01*
X134713839Y-86572573D01*
X134569337Y-86357723D01*
X134451661Y-86108008D01*
X134414349Y-86009472D01*
X134395612Y-85956536D01*
X134379867Y-85906015D01*
X134366856Y-85851375D01*
X134356317Y-85786084D01*
X134347990Y-85703607D01*
X134341614Y-85597411D01*
X134336929Y-85460963D01*
X134333673Y-85287728D01*
X134331587Y-85071174D01*
X134330410Y-84804766D01*
X134329881Y-84481972D01*
X134329739Y-84096257D01*
X134329732Y-83888143D01*
X134329714Y-82001286D01*
X135001000Y-81980420D01*
X135002120Y-83587424D01*
G37*
X135002120Y-83587424D02*
X135003151Y-83933389D01*
X135005642Y-84266247D01*
X135009417Y-84576970D01*
X135014303Y-84856528D01*
X135020126Y-85095896D01*
X135026713Y-85286044D01*
X135033888Y-85417944D01*
X135038300Y-85464583D01*
X135111446Y-85796020D01*
X135237057Y-86079663D01*
X135412389Y-86312853D01*
X135634697Y-86492928D01*
X135901238Y-86617228D01*
X136209267Y-86683092D01*
X136302944Y-86690721D01*
X136571656Y-86688639D01*
X136795805Y-86644994D01*
X136994849Y-86552386D01*
X137188251Y-86403421D01*
X137272591Y-86322154D01*
X137362167Y-86227614D01*
X137438964Y-86134764D01*
X137503964Y-86037383D01*
X137558149Y-85929246D01*
X137602501Y-85804133D01*
X137638001Y-85655821D01*
X137665633Y-85478086D01*
X137686377Y-85264708D01*
X137701216Y-85009462D01*
X137711132Y-84706128D01*
X137717107Y-84348482D01*
X137720123Y-83930302D01*
X137721134Y-83479929D01*
X137722428Y-81983143D01*
X138419426Y-81983143D01*
X138401901Y-83824643D01*
X138397535Y-84252034D01*
X138393080Y-84613293D01*
X138388297Y-84914859D01*
X138382946Y-85163172D01*
X138376788Y-85364670D01*
X138369581Y-85525793D01*
X138361087Y-85652980D01*
X138351066Y-85752670D01*
X138339277Y-85831303D01*
X138325480Y-85895318D01*
X138324638Y-85898623D01*
X138201712Y-86239145D01*
X138021628Y-86541576D01*
X137791243Y-86802006D01*
X137517416Y-87016526D01*
X137207006Y-87181225D01*
X136866871Y-87292194D01*
X136503869Y-87345523D01*
X136124860Y-87337303D01*
X135871857Y-87296820D01*
X135556006Y-87198242D01*
X135251550Y-87046315D01*
X134983015Y-86854105D01*
X134902937Y-86780605D01*
X134713839Y-86572573D01*
X134569337Y-86357723D01*
X134451661Y-86108008D01*
X134414349Y-86009472D01*
X134395612Y-85956536D01*
X134379867Y-85906015D01*
X134366856Y-85851375D01*
X134356317Y-85786084D01*
X134347990Y-85703607D01*
X134341614Y-85597411D01*
X134336929Y-85460963D01*
X134333673Y-85287728D01*
X134331587Y-85071174D01*
X134330410Y-84804766D01*
X134329881Y-84481972D01*
X134329739Y-84096257D01*
X134329732Y-83888143D01*
X134329714Y-82001286D01*
X135001000Y-81980420D01*
X135002120Y-83587424D01*
G36*
X116168820Y-81865066D02*
G01*
X116482898Y-81893714D01*
X116729037Y-81942554D01*
X117151394Y-82092043D01*
X117534340Y-82300779D01*
X117873640Y-82564532D01*
X118165057Y-82879073D01*
X118404357Y-83240171D01*
X118587305Y-83643598D01*
X118659115Y-83870000D01*
X118694643Y-84055548D01*
X118717130Y-84290172D01*
X118726586Y-84551838D01*
X118723018Y-84818515D01*
X118706436Y-85068172D01*
X118676848Y-85278775D01*
X118658531Y-85357714D01*
X118505090Y-85785300D01*
X118294204Y-86169510D01*
X118028650Y-86507458D01*
X117711209Y-86796260D01*
X117344659Y-87033029D01*
X116931780Y-87214881D01*
X116840000Y-87245647D01*
X116638627Y-87292611D01*
X116388199Y-87325292D01*
X116110931Y-87343097D01*
X115829038Y-87345430D01*
X115564734Y-87331695D01*
X115340233Y-87301298D01*
X115278553Y-87287479D01*
X114855543Y-87143873D01*
X114470211Y-86940283D01*
X114127268Y-86681340D01*
X113831426Y-86371675D01*
X113587398Y-86015919D01*
X113399894Y-85618703D01*
X113315202Y-85357714D01*
X113279814Y-85172195D01*
X113257422Y-84937682D01*
X113248016Y-84676175D01*
X113248850Y-84613857D01*
X113991571Y-84613857D01*
X114016026Y-85005098D01*
X114091905Y-85351274D01*
X114222982Y-85662056D01*
X114413030Y-85947113D01*
X114587278Y-86140637D01*
X114846311Y-86365523D01*
X115116380Y-86528830D01*
X115415330Y-86641232D01*
X115431799Y-86645829D01*
X115589251Y-86674386D01*
X115793065Y-86690824D01*
X116018043Y-86695102D01*
X116238988Y-86687181D01*
X116430703Y-86667021D01*
X116526819Y-86647571D01*
X116822285Y-86544582D01*
X117083979Y-86397388D01*
X117332779Y-86193691D01*
X117387294Y-86140637D01*
X117621846Y-85868049D01*
X117794729Y-85576656D01*
X117909714Y-85256786D01*
X117970575Y-84898770D01*
X117983000Y-84613857D01*
X117957036Y-84217901D01*
X117876873Y-83864726D01*
X117739108Y-83545282D01*
X117540336Y-83250517D01*
X117417268Y-83109838D01*
X117146175Y-82866653D01*
X116850888Y-82688860D01*
X116525203Y-82573869D01*
X116162917Y-82519093D01*
X115987286Y-82513399D01*
X115606608Y-82542065D01*
X115265310Y-82629788D01*
X114957186Y-82779155D01*
X114676032Y-82992755D01*
X114557303Y-83109838D01*
X114326814Y-83395672D01*
X114159031Y-83701669D01*
X114050550Y-84036881D01*
X113997966Y-84410357D01*
X113991571Y-84613857D01*
X113248850Y-84613857D01*
X113251583Y-84409674D01*
X113268111Y-84160175D01*
X113297586Y-83949680D01*
X113316040Y-83870000D01*
X113469427Y-83442793D01*
X113680266Y-83057650D01*
X113944876Y-82718251D01*
X114259571Y-82428275D01*
X114620671Y-82191401D01*
X115024490Y-82011308D01*
X115245534Y-81942554D01*
X115522664Y-81889486D01*
X115839584Y-81863657D01*
X116168820Y-81865066D01*
G37*
X116168820Y-81865066D02*
X116482898Y-81893714D01*
X116729037Y-81942554D01*
X117151394Y-82092043D01*
X117534340Y-82300779D01*
X117873640Y-82564532D01*
X118165057Y-82879073D01*
X118404357Y-83240171D01*
X118587305Y-83643598D01*
X118659115Y-83870000D01*
X118694643Y-84055548D01*
X118717130Y-84290172D01*
X118726586Y-84551838D01*
X118723018Y-84818515D01*
X118706436Y-85068172D01*
X118676848Y-85278775D01*
X118658531Y-85357714D01*
X118505090Y-85785300D01*
X118294204Y-86169510D01*
X118028650Y-86507458D01*
X117711209Y-86796260D01*
X117344659Y-87033029D01*
X116931780Y-87214881D01*
X116840000Y-87245647D01*
X116638627Y-87292611D01*
X116388199Y-87325292D01*
X116110931Y-87343097D01*
X115829038Y-87345430D01*
X115564734Y-87331695D01*
X115340233Y-87301298D01*
X115278553Y-87287479D01*
X114855543Y-87143873D01*
X114470211Y-86940283D01*
X114127268Y-86681340D01*
X113831426Y-86371675D01*
X113587398Y-86015919D01*
X113399894Y-85618703D01*
X113315202Y-85357714D01*
X113279814Y-85172195D01*
X113257422Y-84937682D01*
X113248016Y-84676175D01*
X113248850Y-84613857D01*
X113991571Y-84613857D01*
X114016026Y-85005098D01*
X114091905Y-85351274D01*
X114222982Y-85662056D01*
X114413030Y-85947113D01*
X114587278Y-86140637D01*
X114846311Y-86365523D01*
X115116380Y-86528830D01*
X115415330Y-86641232D01*
X115431799Y-86645829D01*
X115589251Y-86674386D01*
X115793065Y-86690824D01*
X116018043Y-86695102D01*
X116238988Y-86687181D01*
X116430703Y-86667021D01*
X116526819Y-86647571D01*
X116822285Y-86544582D01*
X117083979Y-86397388D01*
X117332779Y-86193691D01*
X117387294Y-86140637D01*
X117621846Y-85868049D01*
X117794729Y-85576656D01*
X117909714Y-85256786D01*
X117970575Y-84898770D01*
X117983000Y-84613857D01*
X117957036Y-84217901D01*
X117876873Y-83864726D01*
X117739108Y-83545282D01*
X117540336Y-83250517D01*
X117417268Y-83109838D01*
X117146175Y-82866653D01*
X116850888Y-82688860D01*
X116525203Y-82573869D01*
X116162917Y-82519093D01*
X115987286Y-82513399D01*
X115606608Y-82542065D01*
X115265310Y-82629788D01*
X114957186Y-82779155D01*
X114676032Y-82992755D01*
X114557303Y-83109838D01*
X114326814Y-83395672D01*
X114159031Y-83701669D01*
X114050550Y-84036881D01*
X113997966Y-84410357D01*
X113991571Y-84613857D01*
X113248850Y-84613857D01*
X113251583Y-84409674D01*
X113268111Y-84160175D01*
X113297586Y-83949680D01*
X113316040Y-83870000D01*
X113469427Y-83442793D01*
X113680266Y-83057650D01*
X113944876Y-82718251D01*
X114259571Y-82428275D01*
X114620671Y-82191401D01*
X115024490Y-82011308D01*
X115245534Y-81942554D01*
X115522664Y-81889486D01*
X115839584Y-81863657D01*
X116168820Y-81865066D01*
G36*
X111293105Y-81880891D02*
G01*
X111609065Y-81938590D01*
X111885703Y-82037851D01*
X112135417Y-82182454D01*
X112240786Y-82262090D01*
X112326552Y-82338944D01*
X112382534Y-82403119D01*
X112394980Y-82430072D01*
X112369734Y-82469238D01*
X112303752Y-82541494D01*
X112211640Y-82632989D01*
X112108002Y-82729867D01*
X112007446Y-82818275D01*
X111924576Y-82884359D01*
X111894990Y-82904311D01*
X111837270Y-82899037D01*
X111747195Y-82841869D01*
X111715217Y-82815122D01*
X111526223Y-82682965D01*
X111301112Y-82576716D01*
X111075657Y-82512864D01*
X111050974Y-82508934D01*
X110879068Y-82503548D01*
X110675410Y-82525515D01*
X110472937Y-82569299D01*
X110304588Y-82629363D01*
X110288966Y-82637032D01*
X110104281Y-82767424D01*
X109969361Y-82936917D01*
X109887022Y-83132291D01*
X109860079Y-83340324D01*
X109891348Y-83547795D01*
X109983644Y-83741483D01*
X110038629Y-83812534D01*
X110092397Y-83869056D01*
X110152376Y-83918931D01*
X110228252Y-83966755D01*
X110329712Y-84017125D01*
X110466441Y-84074637D01*
X110648126Y-84143889D01*
X110884453Y-84229477D01*
X111014993Y-84275887D01*
X111340543Y-84396544D01*
X111604567Y-84508216D01*
X111816421Y-84617491D01*
X111985458Y-84730955D01*
X112121034Y-84855195D01*
X112232505Y-84996798D01*
X112329224Y-85162351D01*
X112358913Y-85222140D01*
X112460585Y-85512543D01*
X112490034Y-85809879D01*
X112447258Y-86114187D01*
X112332256Y-86425506D01*
X112315338Y-86459901D01*
X112142903Y-86723707D01*
X111915678Y-86947395D01*
X111641550Y-87127430D01*
X111328408Y-87260273D01*
X110984137Y-87342387D01*
X110616628Y-87370234D01*
X110324591Y-87352687D01*
X109996499Y-87288020D01*
X109680310Y-87177153D01*
X109393564Y-87028102D01*
X109153799Y-86848882D01*
X109093000Y-86789752D01*
X108966000Y-86657446D01*
X109165571Y-86476959D01*
X109307142Y-86349608D01*
X109407375Y-86266489D01*
X109479443Y-86223924D01*
X109536514Y-86218233D01*
X109591760Y-86245736D01*
X109658351Y-86302753D01*
X109688725Y-86330799D01*
X109858018Y-86463402D01*
X110051966Y-86578843D01*
X110241113Y-86660474D01*
X110304777Y-86678968D01*
X110393863Y-86691697D01*
X110526875Y-86700797D01*
X110675189Y-86704317D01*
X110676748Y-86704318D01*
X110855027Y-86696545D01*
X111000386Y-86668058D01*
X111151310Y-86611100D01*
X111161236Y-86606673D01*
X111368102Y-86485504D01*
X111538851Y-86329454D01*
X111663380Y-86151423D01*
X111731590Y-85964310D01*
X111741452Y-85865714D01*
X111714541Y-85710603D01*
X111642802Y-85543589D01*
X111539729Y-85395957D01*
X111538007Y-85394042D01*
X111470164Y-85328864D01*
X111383451Y-85266422D01*
X111268836Y-85202408D01*
X111117288Y-85132514D01*
X110919775Y-85052429D01*
X110667266Y-84957846D01*
X110488713Y-84893455D01*
X110160384Y-84767969D01*
X109894591Y-84646158D01*
X109682027Y-84521449D01*
X109513382Y-84387268D01*
X109379350Y-84237041D01*
X109270623Y-84064194D01*
X109245773Y-84015598D01*
X109203371Y-83923546D01*
X109175235Y-83840374D01*
X109158478Y-83747441D01*
X109150217Y-83626104D01*
X109147565Y-83457722D01*
X109147429Y-83380143D01*
X109148935Y-83187658D01*
X109155210Y-83049503D01*
X109168884Y-82947465D01*
X109192586Y-82863334D01*
X109228949Y-82778898D01*
X109236539Y-82763286D01*
X109342823Y-82594851D01*
X109493433Y-82417394D01*
X109666915Y-82252545D01*
X109841815Y-82121937D01*
X109912925Y-82081279D01*
X110151971Y-81974925D01*
X110384279Y-81906462D01*
X110635356Y-81870339D01*
X110925429Y-81860974D01*
X111293105Y-81880891D01*
G37*
X111293105Y-81880891D02*
X111609065Y-81938590D01*
X111885703Y-82037851D01*
X112135417Y-82182454D01*
X112240786Y-82262090D01*
X112326552Y-82338944D01*
X112382534Y-82403119D01*
X112394980Y-82430072D01*
X112369734Y-82469238D01*
X112303752Y-82541494D01*
X112211640Y-82632989D01*
X112108002Y-82729867D01*
X112007446Y-82818275D01*
X111924576Y-82884359D01*
X111894990Y-82904311D01*
X111837270Y-82899037D01*
X111747195Y-82841869D01*
X111715217Y-82815122D01*
X111526223Y-82682965D01*
X111301112Y-82576716D01*
X111075657Y-82512864D01*
X111050974Y-82508934D01*
X110879068Y-82503548D01*
X110675410Y-82525515D01*
X110472937Y-82569299D01*
X110304588Y-82629363D01*
X110288966Y-82637032D01*
X110104281Y-82767424D01*
X109969361Y-82936917D01*
X109887022Y-83132291D01*
X109860079Y-83340324D01*
X109891348Y-83547795D01*
X109983644Y-83741483D01*
X110038629Y-83812534D01*
X110092397Y-83869056D01*
X110152376Y-83918931D01*
X110228252Y-83966755D01*
X110329712Y-84017125D01*
X110466441Y-84074637D01*
X110648126Y-84143889D01*
X110884453Y-84229477D01*
X111014993Y-84275887D01*
X111340543Y-84396544D01*
X111604567Y-84508216D01*
X111816421Y-84617491D01*
X111985458Y-84730955D01*
X112121034Y-84855195D01*
X112232505Y-84996798D01*
X112329224Y-85162351D01*
X112358913Y-85222140D01*
X112460585Y-85512543D01*
X112490034Y-85809879D01*
X112447258Y-86114187D01*
X112332256Y-86425506D01*
X112315338Y-86459901D01*
X112142903Y-86723707D01*
X111915678Y-86947395D01*
X111641550Y-87127430D01*
X111328408Y-87260273D01*
X110984137Y-87342387D01*
X110616628Y-87370234D01*
X110324591Y-87352687D01*
X109996499Y-87288020D01*
X109680310Y-87177153D01*
X109393564Y-87028102D01*
X109153799Y-86848882D01*
X109093000Y-86789752D01*
X108966000Y-86657446D01*
X109165571Y-86476959D01*
X109307142Y-86349608D01*
X109407375Y-86266489D01*
X109479443Y-86223924D01*
X109536514Y-86218233D01*
X109591760Y-86245736D01*
X109658351Y-86302753D01*
X109688725Y-86330799D01*
X109858018Y-86463402D01*
X110051966Y-86578843D01*
X110241113Y-86660474D01*
X110304777Y-86678968D01*
X110393863Y-86691697D01*
X110526875Y-86700797D01*
X110675189Y-86704317D01*
X110676748Y-86704318D01*
X110855027Y-86696545D01*
X111000386Y-86668058D01*
X111151310Y-86611100D01*
X111161236Y-86606673D01*
X111368102Y-86485504D01*
X111538851Y-86329454D01*
X111663380Y-86151423D01*
X111731590Y-85964310D01*
X111741452Y-85865714D01*
X111714541Y-85710603D01*
X111642802Y-85543589D01*
X111539729Y-85395957D01*
X111538007Y-85394042D01*
X111470164Y-85328864D01*
X111383451Y-85266422D01*
X111268836Y-85202408D01*
X111117288Y-85132514D01*
X110919775Y-85052429D01*
X110667266Y-84957846D01*
X110488713Y-84893455D01*
X110160384Y-84767969D01*
X109894591Y-84646158D01*
X109682027Y-84521449D01*
X109513382Y-84387268D01*
X109379350Y-84237041D01*
X109270623Y-84064194D01*
X109245773Y-84015598D01*
X109203371Y-83923546D01*
X109175235Y-83840374D01*
X109158478Y-83747441D01*
X109150217Y-83626104D01*
X109147565Y-83457722D01*
X109147429Y-83380143D01*
X109148935Y-83187658D01*
X109155210Y-83049503D01*
X109168884Y-82947465D01*
X109192586Y-82863334D01*
X109228949Y-82778898D01*
X109236539Y-82763286D01*
X109342823Y-82594851D01*
X109493433Y-82417394D01*
X109666915Y-82252545D01*
X109841815Y-82121937D01*
X109912925Y-82081279D01*
X110151971Y-81974925D01*
X110384279Y-81906462D01*
X110635356Y-81870339D01*
X110925429Y-81860974D01*
X111293105Y-81880891D01*
G36*
X121493643Y-78115006D02*
G01*
X121642563Y-78153633D01*
X121851459Y-78198307D01*
X122108177Y-78247107D01*
X122400560Y-78298109D01*
X122716453Y-78349392D01*
X123043700Y-78399034D01*
X123370146Y-78445111D01*
X123683634Y-78485702D01*
X123972010Y-78518884D01*
X124169714Y-78538213D01*
X124356574Y-78557132D01*
X124518800Y-78578203D01*
X124641974Y-78599208D01*
X124711683Y-78617928D01*
X124720220Y-78622956D01*
X124745159Y-78666600D01*
X124790764Y-78764521D01*
X124851539Y-78903307D01*
X124921991Y-79069544D01*
X124996623Y-79249817D01*
X125069939Y-79430714D01*
X125136444Y-79598821D01*
X125190643Y-79740723D01*
X125227040Y-79843008D01*
X125240143Y-79892013D01*
X125222327Y-79933392D01*
X125173221Y-80025108D01*
X125099335Y-80155549D01*
X125007181Y-80313103D01*
X124954674Y-80401106D01*
X124584877Y-81051523D01*
X124277566Y-81667471D01*
X124032113Y-82250309D01*
X123848376Y-82799715D01*
X123800625Y-82962810D01*
X123759230Y-83098578D01*
X123728631Y-83192833D01*
X123713281Y-83231375D01*
X123696941Y-83201970D01*
X123656250Y-83111896D01*
X123593999Y-82967786D01*
X123512978Y-82776277D01*
X123415980Y-82544002D01*
X123305794Y-82277598D01*
X123185211Y-81983698D01*
X123083750Y-81734752D01*
X122909486Y-81305998D01*
X122760465Y-80939635D01*
X122634611Y-80630817D01*
X122529850Y-80374702D01*
X122444107Y-80166447D01*
X122375307Y-80001206D01*
X122321375Y-79874136D01*
X122280236Y-79780395D01*
X122249815Y-79715137D01*
X122228038Y-79673520D01*
X122212829Y-79650699D01*
X122202113Y-79641831D01*
X122193817Y-79642072D01*
X122188547Y-79644936D01*
X122182506Y-79684216D01*
X122176902Y-79790907D01*
X122171805Y-79959850D01*
X122167287Y-80185886D01*
X122163419Y-80463856D01*
X122160271Y-80788600D01*
X122157914Y-81154960D01*
X122156420Y-81557776D01*
X122155860Y-81991890D01*
X122155857Y-82023372D01*
X122156000Y-82499782D01*
X122156514Y-82908996D01*
X122157529Y-83256386D01*
X122159173Y-83547329D01*
X122161575Y-83787197D01*
X122164865Y-83981366D01*
X122169172Y-84135208D01*
X122174623Y-84254100D01*
X122181349Y-84343414D01*
X122189479Y-84408525D01*
X122199141Y-84454808D01*
X122210464Y-84487636D01*
X122215244Y-84497731D01*
X122306783Y-84659379D01*
X122437313Y-84865594D01*
X122598972Y-85105524D01*
X122783897Y-85368317D01*
X122984226Y-85643119D01*
X123192095Y-85919080D01*
X123399641Y-86185346D01*
X123599003Y-86431066D01*
X123717719Y-86571433D01*
X123876608Y-86749784D01*
X124059243Y-86944957D01*
X124258565Y-87150310D01*
X124467513Y-87359201D01*
X124679029Y-87564986D01*
X124886052Y-87761023D01*
X125081524Y-87940670D01*
X125258384Y-88097283D01*
X125409574Y-88224220D01*
X125528033Y-88314839D01*
X125606703Y-88362495D01*
X125627190Y-88368153D01*
X125677206Y-88398222D01*
X125686155Y-88414786D01*
X125710384Y-88441947D01*
X125750864Y-88414786D01*
X125756458Y-88406362D01*
X127308428Y-88406362D01*
X127317034Y-88465056D01*
X127328734Y-88478286D01*
X127363060Y-88456420D01*
X127440844Y-88397065D01*
X127550126Y-88309585D01*
X127664377Y-88215504D01*
X128222141Y-87731281D01*
X128728315Y-87248722D01*
X129196286Y-86752932D01*
X129639441Y-86229016D01*
X130071168Y-85662076D01*
X130458091Y-85107088D01*
X130882571Y-84475463D01*
X130892374Y-82022803D01*
X130894156Y-81535729D01*
X130895272Y-81116588D01*
X130895643Y-80760748D01*
X130895191Y-80463571D01*
X130893835Y-80220424D01*
X130891498Y-80026671D01*
X130888100Y-79877678D01*
X130883563Y-79768809D01*
X130877808Y-79695430D01*
X130870755Y-79652905D01*
X130862325Y-79636601D01*
X130852441Y-79641881D01*
X130851847Y-79642714D01*
X130830222Y-79687699D01*
X130783763Y-79794747D01*
X130714438Y-79958986D01*
X130624217Y-80175545D01*
X130515070Y-80439553D01*
X130388967Y-80746137D01*
X130247878Y-81090427D01*
X130093772Y-81467551D01*
X129928619Y-81872638D01*
X129754388Y-82300816D01*
X129573050Y-82747213D01*
X129386573Y-83206958D01*
X129196929Y-83675179D01*
X129006086Y-84147006D01*
X128816013Y-84617565D01*
X128628682Y-85081987D01*
X128446061Y-85535400D01*
X128270121Y-85972931D01*
X128102830Y-86389710D01*
X127946159Y-86780864D01*
X127802077Y-87141524D01*
X127672554Y-87466816D01*
X127559560Y-87751869D01*
X127465065Y-87991813D01*
X127391037Y-88181775D01*
X127339448Y-88316884D01*
X127312266Y-88392268D01*
X127308428Y-88406362D01*
X125756458Y-88406362D01*
X125775490Y-88377704D01*
X125764471Y-88369357D01*
X125738034Y-88337689D01*
X125722461Y-88261514D01*
X125722379Y-88260364D01*
X125699288Y-88162384D01*
X125650076Y-88043491D01*
X125625447Y-87997364D01*
X125501047Y-87720845D01*
X125437041Y-87419936D01*
X125429777Y-87102995D01*
X125453484Y-86878061D01*
X125502858Y-86643349D01*
X125580604Y-86393203D01*
X125689429Y-86121970D01*
X125832039Y-85823995D01*
X126011142Y-85493624D01*
X126229443Y-85125202D01*
X126489649Y-84713074D01*
X126794466Y-84251587D01*
X126794861Y-84251000D01*
X127080013Y-83824273D01*
X127326778Y-83449002D01*
X127539361Y-83117881D01*
X127721968Y-82823608D01*
X127878802Y-82558879D01*
X128014069Y-82316391D01*
X128131974Y-82088839D01*
X128236723Y-81868921D01*
X128332518Y-81649333D01*
X128423567Y-81422771D01*
X128424364Y-81420714D01*
X128598565Y-80933495D01*
X128727960Y-80481227D01*
X128816350Y-80044976D01*
X128867540Y-79605808D01*
X128885333Y-79144790D01*
X128885403Y-79125654D01*
X128886857Y-78536021D01*
X128995714Y-78535893D01*
X129087018Y-78529819D01*
X129237424Y-78512993D01*
X129434572Y-78487301D01*
X129666103Y-78454631D01*
X129919655Y-78416870D01*
X130182870Y-78375907D01*
X130443388Y-78333628D01*
X130688848Y-78291921D01*
X130906890Y-78252673D01*
X131085155Y-78217772D01*
X131101838Y-78214272D01*
X131280346Y-78178084D01*
X131432280Y-78150261D01*
X131544179Y-78133041D01*
X131602584Y-78128665D01*
X131607588Y-78130112D01*
X131610379Y-78168381D01*
X131613028Y-78274004D01*
X131615504Y-78441765D01*
X131617780Y-78666446D01*
X131619825Y-78942831D01*
X131621610Y-79265703D01*
X131623107Y-79629845D01*
X131624285Y-80030040D01*
X131625115Y-80461071D01*
X131625569Y-80917721D01*
X131625632Y-81345119D01*
X131625906Y-81905843D01*
X131626614Y-82399117D01*
X131627141Y-82830055D01*
X131626872Y-83203772D01*
X131625189Y-83525381D01*
X131621478Y-83799997D01*
X131615123Y-84032733D01*
X131605507Y-84228704D01*
X131592015Y-84393024D01*
X131574031Y-84530806D01*
X131550939Y-84647166D01*
X131522124Y-84747216D01*
X131486970Y-84836072D01*
X131444861Y-84918846D01*
X131395180Y-85000654D01*
X131337313Y-85086609D01*
X131270643Y-85181826D01*
X131194555Y-85291417D01*
X131140836Y-85371154D01*
X130565751Y-86185370D01*
X129956330Y-86946913D01*
X129316154Y-87652017D01*
X128648806Y-88296915D01*
X127957868Y-88877839D01*
X127449381Y-89253273D01*
X127283600Y-89366338D01*
X127109836Y-89480721D01*
X126939748Y-89589213D01*
X126784997Y-89684604D01*
X126657243Y-89759683D01*
X126568148Y-89807239D01*
X126531820Y-89820644D01*
X126487199Y-89802232D01*
X126394835Y-89752214D01*
X126268078Y-89678158D01*
X126120277Y-89587632D01*
X126115545Y-89584670D01*
X125367996Y-89075160D01*
X124645085Y-88498913D01*
X123949383Y-87858330D01*
X123283465Y-87155810D01*
X122649902Y-86393753D01*
X122536655Y-86246714D01*
X122415848Y-86083060D01*
X122275555Y-85885071D01*
X122124672Y-85666101D01*
X121972092Y-85439501D01*
X121826710Y-85218626D01*
X121697419Y-85016829D01*
X121593114Y-84847462D01*
X121524006Y-84726381D01*
X121430143Y-84548620D01*
X121430143Y-81322150D01*
X121430199Y-80764243D01*
X121430427Y-80274516D01*
X121430914Y-79848575D01*
X121431745Y-79482029D01*
X121433009Y-79170486D01*
X121434792Y-78909555D01*
X121437181Y-78694841D01*
X121440263Y-78521955D01*
X121444125Y-78386502D01*
X121448854Y-78284092D01*
X121454537Y-78210332D01*
X121461261Y-78160831D01*
X121469113Y-78131195D01*
X121478180Y-78117033D01*
X121488548Y-78113953D01*
X121493643Y-78115006D01*
G37*
X121493643Y-78115006D02*
X121642563Y-78153633D01*
X121851459Y-78198307D01*
X122108177Y-78247107D01*
X122400560Y-78298109D01*
X122716453Y-78349392D01*
X123043700Y-78399034D01*
X123370146Y-78445111D01*
X123683634Y-78485702D01*
X123972010Y-78518884D01*
X124169714Y-78538213D01*
X124356574Y-78557132D01*
X124518800Y-78578203D01*
X124641974Y-78599208D01*
X124711683Y-78617928D01*
X124720220Y-78622956D01*
X124745159Y-78666600D01*
X124790764Y-78764521D01*
X124851539Y-78903307D01*
X124921991Y-79069544D01*
X124996623Y-79249817D01*
X125069939Y-79430714D01*
X125136444Y-79598821D01*
X125190643Y-79740723D01*
X125227040Y-79843008D01*
X125240143Y-79892013D01*
X125222327Y-79933392D01*
X125173221Y-80025108D01*
X125099335Y-80155549D01*
X125007181Y-80313103D01*
X124954674Y-80401106D01*
X124584877Y-81051523D01*
X124277566Y-81667471D01*
X124032113Y-82250309D01*
X123848376Y-82799715D01*
X123800625Y-82962810D01*
X123759230Y-83098578D01*
X123728631Y-83192833D01*
X123713281Y-83231375D01*
X123696941Y-83201970D01*
X123656250Y-83111896D01*
X123593999Y-82967786D01*
X123512978Y-82776277D01*
X123415980Y-82544002D01*
X123305794Y-82277598D01*
X123185211Y-81983698D01*
X123083750Y-81734752D01*
X122909486Y-81305998D01*
X122760465Y-80939635D01*
X122634611Y-80630817D01*
X122529850Y-80374702D01*
X122444107Y-80166447D01*
X122375307Y-80001206D01*
X122321375Y-79874136D01*
X122280236Y-79780395D01*
X122249815Y-79715137D01*
X122228038Y-79673520D01*
X122212829Y-79650699D01*
X122202113Y-79641831D01*
X122193817Y-79642072D01*
X122188547Y-79644936D01*
X122182506Y-79684216D01*
X122176902Y-79790907D01*
X122171805Y-79959850D01*
X122167287Y-80185886D01*
X122163419Y-80463856D01*
X122160271Y-80788600D01*
X122157914Y-81154960D01*
X122156420Y-81557776D01*
X122155860Y-81991890D01*
X122155857Y-82023372D01*
X122156000Y-82499782D01*
X122156514Y-82908996D01*
X122157529Y-83256386D01*
X122159173Y-83547329D01*
X122161575Y-83787197D01*
X122164865Y-83981366D01*
X122169172Y-84135208D01*
X122174623Y-84254100D01*
X122181349Y-84343414D01*
X122189479Y-84408525D01*
X122199141Y-84454808D01*
X122210464Y-84487636D01*
X122215244Y-84497731D01*
X122306783Y-84659379D01*
X122437313Y-84865594D01*
X122598972Y-85105524D01*
X122783897Y-85368317D01*
X122984226Y-85643119D01*
X123192095Y-85919080D01*
X123399641Y-86185346D01*
X123599003Y-86431066D01*
X123717719Y-86571433D01*
X123876608Y-86749784D01*
X124059243Y-86944957D01*
X124258565Y-87150310D01*
X124467513Y-87359201D01*
X124679029Y-87564986D01*
X124886052Y-87761023D01*
X125081524Y-87940670D01*
X125258384Y-88097283D01*
X125409574Y-88224220D01*
X125528033Y-88314839D01*
X125606703Y-88362495D01*
X125627190Y-88368153D01*
X125677206Y-88398222D01*
X125686155Y-88414786D01*
X125710384Y-88441947D01*
X125750864Y-88414786D01*
X125756458Y-88406362D01*
X127308428Y-88406362D01*
X127317034Y-88465056D01*
X127328734Y-88478286D01*
X127363060Y-88456420D01*
X127440844Y-88397065D01*
X127550126Y-88309585D01*
X127664377Y-88215504D01*
X128222141Y-87731281D01*
X128728315Y-87248722D01*
X129196286Y-86752932D01*
X129639441Y-86229016D01*
X130071168Y-85662076D01*
X130458091Y-85107088D01*
X130882571Y-84475463D01*
X130892374Y-82022803D01*
X130894156Y-81535729D01*
X130895272Y-81116588D01*
X130895643Y-80760748D01*
X130895191Y-80463571D01*
X130893835Y-80220424D01*
X130891498Y-80026671D01*
X130888100Y-79877678D01*
X130883563Y-79768809D01*
X130877808Y-79695430D01*
X130870755Y-79652905D01*
X130862325Y-79636601D01*
X130852441Y-79641881D01*
X130851847Y-79642714D01*
X130830222Y-79687699D01*
X130783763Y-79794747D01*
X130714438Y-79958986D01*
X130624217Y-80175545D01*
X130515070Y-80439553D01*
X130388967Y-80746137D01*
X130247878Y-81090427D01*
X130093772Y-81467551D01*
X129928619Y-81872638D01*
X129754388Y-82300816D01*
X129573050Y-82747213D01*
X129386573Y-83206958D01*
X129196929Y-83675179D01*
X129006086Y-84147006D01*
X128816013Y-84617565D01*
X128628682Y-85081987D01*
X128446061Y-85535400D01*
X128270121Y-85972931D01*
X128102830Y-86389710D01*
X127946159Y-86780864D01*
X127802077Y-87141524D01*
X127672554Y-87466816D01*
X127559560Y-87751869D01*
X127465065Y-87991813D01*
X127391037Y-88181775D01*
X127339448Y-88316884D01*
X127312266Y-88392268D01*
X127308428Y-88406362D01*
X125756458Y-88406362D01*
X125775490Y-88377704D01*
X125764471Y-88369357D01*
X125738034Y-88337689D01*
X125722461Y-88261514D01*
X125722379Y-88260364D01*
X125699288Y-88162384D01*
X125650076Y-88043491D01*
X125625447Y-87997364D01*
X125501047Y-87720845D01*
X125437041Y-87419936D01*
X125429777Y-87102995D01*
X125453484Y-86878061D01*
X125502858Y-86643349D01*
X125580604Y-86393203D01*
X125689429Y-86121970D01*
X125832039Y-85823995D01*
X126011142Y-85493624D01*
X126229443Y-85125202D01*
X126489649Y-84713074D01*
X126794466Y-84251587D01*
X126794861Y-84251000D01*
X127080013Y-83824273D01*
X127326778Y-83449002D01*
X127539361Y-83117881D01*
X127721968Y-82823608D01*
X127878802Y-82558879D01*
X128014069Y-82316391D01*
X128131974Y-82088839D01*
X128236723Y-81868921D01*
X128332518Y-81649333D01*
X128423567Y-81422771D01*
X128424364Y-81420714D01*
X128598565Y-80933495D01*
X128727960Y-80481227D01*
X128816350Y-80044976D01*
X128867540Y-79605808D01*
X128885333Y-79144790D01*
X128885403Y-79125654D01*
X128886857Y-78536021D01*
X128995714Y-78535893D01*
X129087018Y-78529819D01*
X129237424Y-78512993D01*
X129434572Y-78487301D01*
X129666103Y-78454631D01*
X129919655Y-78416870D01*
X130182870Y-78375907D01*
X130443388Y-78333628D01*
X130688848Y-78291921D01*
X130906890Y-78252673D01*
X131085155Y-78217772D01*
X131101838Y-78214272D01*
X131280346Y-78178084D01*
X131432280Y-78150261D01*
X131544179Y-78133041D01*
X131602584Y-78128665D01*
X131607588Y-78130112D01*
X131610379Y-78168381D01*
X131613028Y-78274004D01*
X131615504Y-78441765D01*
X131617780Y-78666446D01*
X131619825Y-78942831D01*
X131621610Y-79265703D01*
X131623107Y-79629845D01*
X131624285Y-80030040D01*
X131625115Y-80461071D01*
X131625569Y-80917721D01*
X131625632Y-81345119D01*
X131625906Y-81905843D01*
X131626614Y-82399117D01*
X131627141Y-82830055D01*
X131626872Y-83203772D01*
X131625189Y-83525381D01*
X131621478Y-83799997D01*
X131615123Y-84032733D01*
X131605507Y-84228704D01*
X131592015Y-84393024D01*
X131574031Y-84530806D01*
X131550939Y-84647166D01*
X131522124Y-84747216D01*
X131486970Y-84836072D01*
X131444861Y-84918846D01*
X131395180Y-85000654D01*
X131337313Y-85086609D01*
X131270643Y-85181826D01*
X131194555Y-85291417D01*
X131140836Y-85371154D01*
X130565751Y-86185370D01*
X129956330Y-86946913D01*
X129316154Y-87652017D01*
X128648806Y-88296915D01*
X127957868Y-88877839D01*
X127449381Y-89253273D01*
X127283600Y-89366338D01*
X127109836Y-89480721D01*
X126939748Y-89589213D01*
X126784997Y-89684604D01*
X126657243Y-89759683D01*
X126568148Y-89807239D01*
X126531820Y-89820644D01*
X126487199Y-89802232D01*
X126394835Y-89752214D01*
X126268078Y-89678158D01*
X126120277Y-89587632D01*
X126115545Y-89584670D01*
X125367996Y-89075160D01*
X124645085Y-88498913D01*
X123949383Y-87858330D01*
X123283465Y-87155810D01*
X122649902Y-86393753D01*
X122536655Y-86246714D01*
X122415848Y-86083060D01*
X122275555Y-85885071D01*
X122124672Y-85666101D01*
X121972092Y-85439501D01*
X121826710Y-85218626D01*
X121697419Y-85016829D01*
X121593114Y-84847462D01*
X121524006Y-84726381D01*
X121430143Y-84548620D01*
X121430143Y-81322150D01*
X121430199Y-80764243D01*
X121430427Y-80274516D01*
X121430914Y-79848575D01*
X121431745Y-79482029D01*
X121433009Y-79170486D01*
X121434792Y-78909555D01*
X121437181Y-78694841D01*
X121440263Y-78521955D01*
X121444125Y-78386502D01*
X121448854Y-78284092D01*
X121454537Y-78210332D01*
X121461261Y-78160831D01*
X121469113Y-78131195D01*
X121478180Y-78117033D01*
X121488548Y-78113953D01*
X121493643Y-78115006D01*
M02*
