G04 #@! TF.GenerationSoftware,KiCad,Pcbnew,(5.1.5)-3*
G04 #@! TF.CreationDate,2021-08-16T12:48:35-05:00*
G04 #@! TF.ProjectId,Valpo-PCB-Ruler,56616c70-6f2d-4504-9342-2d52756c6572,rev?*
G04 #@! TF.SameCoordinates,Original*
G04 #@! TF.FileFunction,Soldermask,Top*
G04 #@! TF.FilePolarity,Negative*
%FSLAX46Y46*%
G04 Gerber Fmt 4.6, Leading zero omitted, Abs format (unit mm)*
G04 Created by KiCad (PCBNEW (5.1.5)-3) date 2021-08-16 12:48:35*
%MOMM*%
%LPD*%
G04 APERTURE LIST*
%ADD10C,0.200000*%
%ADD11C,0.100000*%
%ADD12C,0.010000*%
G04 APERTURE END LIST*
D10*
X121920000Y-89693750D02*
X86360000Y-89693750D01*
X165735000Y-89662000D02*
X131445000Y-89662000D01*
X200025000Y-73025000D02*
X180975000Y-73025000D01*
X174625000Y-73025000D02*
X155575000Y-73025000D01*
X149225000Y-73025000D02*
X130175000Y-73025000D01*
X123825000Y-73025000D02*
X104775000Y-73025000D01*
X98425000Y-73025000D02*
X79375000Y-73025000D01*
X73025000Y-73025000D02*
X53975000Y-73025000D01*
X195580000Y-101600000D02*
X195580000Y-100330000D01*
X193040000Y-101600000D02*
X193040000Y-100330000D01*
X187960000Y-101600000D02*
X187960000Y-100330000D01*
X198120000Y-101600000D02*
X198120000Y-100330000D01*
X190500000Y-101600000D02*
X190500000Y-99568000D01*
X185420000Y-101600000D02*
X185420000Y-100330000D01*
X200660000Y-101600000D02*
X200660000Y-100330000D01*
X182880000Y-101600000D02*
X182880000Y-100330000D01*
X180340000Y-101600000D02*
X180340000Y-100330000D01*
X170180000Y-101600000D02*
X170180000Y-100330000D01*
X177800000Y-101600000D02*
X177800000Y-99060000D01*
X167640000Y-101600000D02*
X167640000Y-100330000D01*
X162560000Y-101600000D02*
X162560000Y-100330000D01*
X172720000Y-101600000D02*
X172720000Y-100330000D01*
X165100000Y-101600000D02*
X165100000Y-99568000D01*
X160020000Y-101600000D02*
X160020000Y-100330000D01*
X175260000Y-101600000D02*
X175260000Y-100330000D01*
X157480000Y-101600000D02*
X157480000Y-100330000D01*
X154940000Y-101600000D02*
X154940000Y-100330000D01*
X144780000Y-101600000D02*
X144780000Y-100330000D01*
X152400000Y-101600000D02*
X152400000Y-99060000D01*
X142240000Y-101600000D02*
X142240000Y-100330000D01*
X137160000Y-101600000D02*
X137160000Y-100330000D01*
X147320000Y-101600000D02*
X147320000Y-100330000D01*
X139700000Y-101600000D02*
X139700000Y-99568000D01*
X134620000Y-101600000D02*
X134620000Y-100330000D01*
X149860000Y-101600000D02*
X149860000Y-100330000D01*
X132080000Y-101600000D02*
X132080000Y-100330000D01*
X129540000Y-101600000D02*
X129540000Y-100330000D01*
X119380000Y-101600000D02*
X119380000Y-100330000D01*
X127000000Y-101600000D02*
X127000000Y-99060000D01*
X116840000Y-101600000D02*
X116840000Y-100330000D01*
X111760000Y-101600000D02*
X111760000Y-100330000D01*
X121920000Y-101600000D02*
X121920000Y-100330000D01*
X114300000Y-101600000D02*
X114300000Y-99568000D01*
X109220000Y-101600000D02*
X109220000Y-100330000D01*
X124460000Y-101600000D02*
X124460000Y-100330000D01*
X106680000Y-101600000D02*
X106680000Y-100330000D01*
X104140000Y-101600000D02*
X104140000Y-100330000D01*
X93980000Y-101600000D02*
X93980000Y-100330000D01*
X101600000Y-101600000D02*
X101600000Y-99060000D01*
X91440000Y-101600000D02*
X91440000Y-100330000D01*
X86360000Y-101600000D02*
X86360000Y-100330000D01*
X96520000Y-101600000D02*
X96520000Y-100330000D01*
X88900000Y-101600000D02*
X88900000Y-99568000D01*
X83820000Y-101600000D02*
X83820000Y-100330000D01*
X99060000Y-101600000D02*
X99060000Y-100330000D01*
X81280000Y-101600000D02*
X81280000Y-100330000D01*
X78740000Y-101600000D02*
X78740000Y-100330000D01*
X76200000Y-101600000D02*
X76200000Y-99060000D01*
X73660000Y-101600000D02*
X73660000Y-100330000D01*
X71120000Y-101600000D02*
X71120000Y-100330000D01*
X68580000Y-101600000D02*
X68580000Y-100330000D01*
X66040000Y-101600000D02*
X66040000Y-100330000D01*
X63500000Y-101600000D02*
X63500000Y-99568000D01*
X60960000Y-101600000D02*
X60960000Y-100330000D01*
X58420000Y-101600000D02*
X58420000Y-100330000D01*
X55880000Y-101600000D02*
X55880000Y-100330000D01*
X53340000Y-101600000D02*
X53340000Y-100330000D01*
X187325000Y-66675000D02*
X187325000Y-63500000D01*
X201612500Y-65087500D02*
X201612500Y-63500000D01*
X180975000Y-66675000D02*
X180975000Y-63500000D01*
X196850000Y-68262500D02*
X196850000Y-63500000D01*
X195262500Y-65087500D02*
X195262500Y-63500000D01*
X193675000Y-66675000D02*
X193675000Y-63500000D01*
X200025000Y-66675000D02*
X200025000Y-63500000D01*
X188912500Y-65087500D02*
X188912500Y-63500000D01*
X192087500Y-65087500D02*
X192087500Y-63500000D01*
X198437500Y-65087500D02*
X198437500Y-63500000D01*
X190500000Y-69850000D02*
X190500000Y-63500000D01*
X184150000Y-68262500D02*
X184150000Y-63500000D01*
X185737500Y-65087500D02*
X185737500Y-63500000D01*
X179387500Y-65087500D02*
X179387500Y-63500000D01*
X182562500Y-65087500D02*
X182562500Y-63500000D01*
X161925000Y-66675000D02*
X161925000Y-63500000D01*
X176212500Y-65087500D02*
X176212500Y-63500000D01*
X155575000Y-66675000D02*
X155575000Y-63500000D01*
X171450000Y-68262500D02*
X171450000Y-63500000D01*
X169862500Y-65087500D02*
X169862500Y-63500000D01*
X177800000Y-69850000D02*
X177800000Y-63500000D01*
X168275000Y-66675000D02*
X168275000Y-63500000D01*
X174625000Y-66675000D02*
X174625000Y-63500000D01*
X163512500Y-65087500D02*
X163512500Y-63500000D01*
X166687500Y-65087500D02*
X166687500Y-63500000D01*
X173037500Y-65087500D02*
X173037500Y-63500000D01*
X165100000Y-69850000D02*
X165100000Y-63500000D01*
X158750000Y-68262500D02*
X158750000Y-63500000D01*
X160337500Y-65087500D02*
X160337500Y-63500000D01*
X153987500Y-65087500D02*
X153987500Y-63500000D01*
X157162500Y-65087500D02*
X157162500Y-63500000D01*
X136525000Y-66675000D02*
X136525000Y-63500000D01*
X150812500Y-65087500D02*
X150812500Y-63500000D01*
X130175000Y-66675000D02*
X130175000Y-63500000D01*
X146050000Y-68262500D02*
X146050000Y-63500000D01*
X144462500Y-65087500D02*
X144462500Y-63500000D01*
X152400000Y-69850000D02*
X152400000Y-63500000D01*
X142875000Y-66675000D02*
X142875000Y-63500000D01*
X149225000Y-66675000D02*
X149225000Y-63500000D01*
X138112500Y-65087500D02*
X138112500Y-63500000D01*
X141287500Y-65087500D02*
X141287500Y-63500000D01*
X147637500Y-65087500D02*
X147637500Y-63500000D01*
X139700000Y-69850000D02*
X139700000Y-63500000D01*
X133350000Y-68262500D02*
X133350000Y-63500000D01*
X134937500Y-65087500D02*
X134937500Y-63500000D01*
X128587500Y-65087500D02*
X128587500Y-63500000D01*
X131762500Y-65087500D02*
X131762500Y-63500000D01*
X111125000Y-66675000D02*
X111125000Y-63500000D01*
X125412500Y-65087500D02*
X125412500Y-63500000D01*
X104775000Y-66675000D02*
X104775000Y-63500000D01*
X120650000Y-68262500D02*
X120650000Y-63500000D01*
X119062500Y-65087500D02*
X119062500Y-63500000D01*
X127000000Y-69850000D02*
X127000000Y-63500000D01*
X117475000Y-66675000D02*
X117475000Y-63500000D01*
X123825000Y-66675000D02*
X123825000Y-63500000D01*
X112712500Y-65087500D02*
X112712500Y-63500000D01*
X115887500Y-65087500D02*
X115887500Y-63500000D01*
X122237500Y-65087500D02*
X122237500Y-63500000D01*
X114300000Y-69850000D02*
X114300000Y-63500000D01*
X107950000Y-68262500D02*
X107950000Y-63500000D01*
X109537500Y-65087500D02*
X109537500Y-63500000D01*
X103187500Y-65087500D02*
X103187500Y-63500000D01*
X106362500Y-65087500D02*
X106362500Y-63500000D01*
X92075000Y-66675000D02*
X92075000Y-63500000D01*
X98425000Y-66675000D02*
X98425000Y-63500000D01*
X100012500Y-65087500D02*
X100012500Y-63500000D01*
X100806250Y-64293750D02*
X100806250Y-63500000D01*
X101600000Y-69850000D02*
X101600000Y-63500000D01*
X97631250Y-64293750D02*
X97631250Y-63500000D01*
X92868750Y-64293750D02*
X92868750Y-63500000D01*
X89693750Y-64293750D02*
X89693750Y-63500000D01*
X96043750Y-64293750D02*
X96043750Y-63500000D01*
X93662500Y-65087500D02*
X93662500Y-63500000D01*
X99218750Y-64293750D02*
X99218750Y-63500000D01*
X90487500Y-65087500D02*
X90487500Y-63500000D01*
X94456250Y-64293750D02*
X94456250Y-63500000D01*
X91281250Y-64293750D02*
X91281250Y-63500000D01*
X95250000Y-68262500D02*
X95250000Y-63500000D01*
X96837500Y-65087500D02*
X96837500Y-63500000D01*
X79375000Y-66675000D02*
X79375000Y-63500000D01*
X85725000Y-66675000D02*
X85725000Y-63500000D01*
X87312500Y-65087500D02*
X87312500Y-63500000D01*
X88106250Y-64293750D02*
X88106250Y-63500000D01*
X88900000Y-69850000D02*
X88900000Y-63500000D01*
X84931250Y-64293750D02*
X84931250Y-63500000D01*
X80168750Y-64293750D02*
X80168750Y-63500000D01*
X76993750Y-64293750D02*
X76993750Y-63500000D01*
X83343750Y-64293750D02*
X83343750Y-63500000D01*
X80962500Y-65087500D02*
X80962500Y-63500000D01*
X86518750Y-64293750D02*
X86518750Y-63500000D01*
X77787500Y-65087500D02*
X77787500Y-63500000D01*
X81756250Y-64293750D02*
X81756250Y-63500000D01*
X78581250Y-64293750D02*
X78581250Y-63500000D01*
X82550000Y-68262500D02*
X82550000Y-63500000D01*
X84137500Y-65087500D02*
X84137500Y-63500000D01*
X66675000Y-66675000D02*
X66675000Y-63500000D01*
X73025000Y-66675000D02*
X73025000Y-63500000D01*
X74612500Y-65087500D02*
X74612500Y-63500000D01*
X75406250Y-64293750D02*
X75406250Y-63500000D01*
X76200000Y-69850000D02*
X76200000Y-63500000D01*
X72231250Y-64293750D02*
X72231250Y-63500000D01*
X67468750Y-64293750D02*
X67468750Y-63500000D01*
X64293750Y-64293750D02*
X64293750Y-63500000D01*
X70643750Y-64293750D02*
X70643750Y-63500000D01*
X68262500Y-65087500D02*
X68262500Y-63500000D01*
X73818750Y-64293750D02*
X73818750Y-63500000D01*
X65087500Y-65087500D02*
X65087500Y-63500000D01*
X69056250Y-64293750D02*
X69056250Y-63500000D01*
X65881250Y-64293750D02*
X65881250Y-63500000D01*
X69850000Y-68262500D02*
X69850000Y-63500000D01*
X71437500Y-65087500D02*
X71437500Y-63500000D01*
X61912500Y-65087500D02*
X61912500Y-63500000D01*
X58737500Y-65087500D02*
X58737500Y-63500000D01*
X55562500Y-65087500D02*
X55562500Y-63500000D01*
X62706250Y-64293750D02*
X62706250Y-63500000D01*
X61118750Y-64293750D02*
X61118750Y-63500000D01*
X59531250Y-64293750D02*
X59531250Y-63500000D01*
X57943750Y-64293750D02*
X57943750Y-63500000D01*
X56356250Y-64293750D02*
X56356250Y-63500000D01*
X54768750Y-64293750D02*
X54768750Y-63500000D01*
X53181250Y-64293750D02*
X53181250Y-63500000D01*
X63500000Y-69056250D02*
X63500000Y-63500000D01*
X52387500Y-65087500D02*
X52387500Y-63500000D01*
X57150000Y-68262500D02*
X57150000Y-63500000D01*
X53975000Y-66675000D02*
X53975000Y-63500000D01*
X60325000Y-66675000D02*
X60325000Y-63500000D01*
X51593750Y-64293750D02*
X51593750Y-63500000D01*
X52070008Y-76517498D02*
X52070008Y-93979998D01*
X69532508Y-76517498D02*
X52070008Y-76517498D01*
X69532508Y-93979998D02*
X69532508Y-76517498D01*
X52070008Y-93979998D02*
X69532508Y-93979998D01*
D11*
G36*
X188299729Y-85215414D02*
G01*
X183537229Y-85215414D01*
X183537229Y-84910614D01*
X188299729Y-84910614D01*
X188299729Y-85215414D01*
G37*
G36*
X188299729Y-88466614D02*
G01*
X183537229Y-88466614D01*
X183537229Y-88009414D01*
X188299729Y-88009414D01*
X188299729Y-88466614D01*
G37*
G36*
X188299729Y-83602514D02*
G01*
X183537229Y-83602514D01*
X183537229Y-83348514D01*
X188299729Y-83348514D01*
X188299729Y-83602514D01*
G37*
G36*
X188299729Y-81989614D02*
G01*
X183537229Y-81989614D01*
X183537229Y-81786414D01*
X188299729Y-81786414D01*
X188299729Y-81989614D01*
G37*
G36*
X188299729Y-80376714D02*
G01*
X183537229Y-80376714D01*
X183537229Y-80224314D01*
X188299729Y-80224314D01*
X188299729Y-80376714D01*
G37*
G36*
X188299729Y-91717814D02*
G01*
X183537229Y-91717814D01*
X183537229Y-91108214D01*
X188299729Y-91108214D01*
X188299729Y-91717814D01*
G37*
G36*
X188299729Y-93381514D02*
G01*
X183537229Y-93381514D01*
X183537229Y-92619514D01*
X188299729Y-92619514D01*
X188299729Y-93381514D01*
G37*
G36*
X188299729Y-90079514D02*
G01*
X183537229Y-90079514D01*
X183537229Y-89571514D01*
X188299729Y-89571514D01*
X188299729Y-90079514D01*
G37*
G36*
X188299729Y-86853714D02*
G01*
X183537229Y-86853714D01*
X183537229Y-86447314D01*
X188299729Y-86447314D01*
X188299729Y-86853714D01*
G37*
G36*
X188299729Y-95096014D02*
G01*
X183537229Y-95096014D01*
X183537229Y-94080014D01*
X188299729Y-94080014D01*
X188299729Y-95096014D01*
G37*
D12*
G36*
X67270216Y-80636681D02*
G01*
X65430905Y-80636681D01*
X65430905Y-78797370D01*
X67270216Y-78797370D01*
X67270216Y-80636681D01*
G37*
X67270216Y-80636681D02*
X65430905Y-80636681D01*
X65430905Y-78797370D01*
X67270216Y-78797370D01*
X67270216Y-80636681D01*
G36*
X56234353Y-80636681D02*
G01*
X54395043Y-80636681D01*
X54395043Y-78797370D01*
X56234353Y-78797370D01*
X56234353Y-80636681D01*
G37*
X56234353Y-80636681D02*
X54395043Y-80636681D01*
X54395043Y-78797370D01*
X56234353Y-78797370D01*
X56234353Y-80636681D01*
G36*
X56234353Y-91672543D02*
G01*
X54395043Y-91672543D01*
X54395043Y-89833232D01*
X56234353Y-89833232D01*
X56234353Y-91672543D01*
G37*
X56234353Y-91672543D02*
X54395043Y-91672543D01*
X54395043Y-89833232D01*
X56234353Y-89833232D01*
X56234353Y-91672543D01*
G36*
X166420800Y-92024200D02*
G01*
X166402262Y-92117847D01*
X166326239Y-92149746D01*
X166281100Y-92151483D01*
X166084611Y-92172018D01*
X165900117Y-92224942D01*
X165761163Y-92298397D01*
X165710197Y-92353283D01*
X165696448Y-92430592D01*
X165684629Y-92604114D01*
X165674870Y-92868476D01*
X165667301Y-93218306D01*
X165662051Y-93648232D01*
X165659250Y-94152882D01*
X165658800Y-94480973D01*
X165658800Y-96512625D01*
X165791364Y-96616901D01*
X165923257Y-96687040D01*
X166099737Y-96741215D01*
X166172364Y-96754133D01*
X166322215Y-96780019D01*
X166396156Y-96816108D01*
X166419724Y-96878166D01*
X166420800Y-96907544D01*
X166420800Y-97028000D01*
X164134800Y-97028000D01*
X164134800Y-96901000D01*
X164144093Y-96823048D01*
X164190009Y-96785841D01*
X164299600Y-96774567D01*
X164366739Y-96774000D01*
X164601294Y-96748254D01*
X164778782Y-96676387D01*
X164857922Y-96601295D01*
X164866046Y-96539843D01*
X164873599Y-96387856D01*
X164880381Y-96156396D01*
X164886193Y-95856527D01*
X164890837Y-95499313D01*
X164894114Y-95095817D01*
X164895824Y-94657103D01*
X164896022Y-94483173D01*
X164895947Y-93968799D01*
X164895037Y-93546540D01*
X164892902Y-93206914D01*
X164889150Y-92940438D01*
X164883391Y-92737628D01*
X164875234Y-92589001D01*
X164864289Y-92485074D01*
X164850164Y-92416364D01*
X164832470Y-92373387D01*
X164810816Y-92346660D01*
X164807900Y-92344066D01*
X164664411Y-92257927D01*
X164473088Y-92187819D01*
X164287663Y-92152459D01*
X164254219Y-92151200D01*
X164162755Y-92128261D01*
X164135075Y-92040945D01*
X164134800Y-92024200D01*
X164134800Y-91897200D01*
X166420800Y-91897200D01*
X166420800Y-92024200D01*
G37*
X166420800Y-92024200D02*
X166402262Y-92117847D01*
X166326239Y-92149746D01*
X166281100Y-92151483D01*
X166084611Y-92172018D01*
X165900117Y-92224942D01*
X165761163Y-92298397D01*
X165710197Y-92353283D01*
X165696448Y-92430592D01*
X165684629Y-92604114D01*
X165674870Y-92868476D01*
X165667301Y-93218306D01*
X165662051Y-93648232D01*
X165659250Y-94152882D01*
X165658800Y-94480973D01*
X165658800Y-96512625D01*
X165791364Y-96616901D01*
X165923257Y-96687040D01*
X166099737Y-96741215D01*
X166172364Y-96754133D01*
X166322215Y-96780019D01*
X166396156Y-96816108D01*
X166419724Y-96878166D01*
X166420800Y-96907544D01*
X166420800Y-97028000D01*
X164134800Y-97028000D01*
X164134800Y-96901000D01*
X164144093Y-96823048D01*
X164190009Y-96785841D01*
X164299600Y-96774567D01*
X164366739Y-96774000D01*
X164601294Y-96748254D01*
X164778782Y-96676387D01*
X164857922Y-96601295D01*
X164866046Y-96539843D01*
X164873599Y-96387856D01*
X164880381Y-96156396D01*
X164886193Y-95856527D01*
X164890837Y-95499313D01*
X164894114Y-95095817D01*
X164895824Y-94657103D01*
X164896022Y-94483173D01*
X164895947Y-93968799D01*
X164895037Y-93546540D01*
X164892902Y-93206914D01*
X164889150Y-92940438D01*
X164883391Y-92737628D01*
X164875234Y-92589001D01*
X164864289Y-92485074D01*
X164850164Y-92416364D01*
X164832470Y-92373387D01*
X164810816Y-92346660D01*
X164807900Y-92344066D01*
X164664411Y-92257927D01*
X164473088Y-92187819D01*
X164287663Y-92152459D01*
X164254219Y-92151200D01*
X164162755Y-92128261D01*
X164135075Y-92040945D01*
X164134800Y-92024200D01*
X164134800Y-91897200D01*
X166420800Y-91897200D01*
X166420800Y-92024200D01*
G36*
X160134300Y-91898768D02*
G01*
X160666432Y-91902655D01*
X161108741Y-91914166D01*
X161472853Y-91935393D01*
X161770394Y-91968426D01*
X162012989Y-92015358D01*
X162212265Y-92078278D01*
X162379848Y-92159277D01*
X162527363Y-92260448D01*
X162628035Y-92347288D01*
X162795188Y-92539287D01*
X162893108Y-92752988D01*
X162934210Y-93019312D01*
X162937360Y-93117689D01*
X162927528Y-93349848D01*
X162884335Y-93536235D01*
X162811077Y-93701889D01*
X162643131Y-93936169D01*
X162403195Y-94148738D01*
X162120871Y-94316579D01*
X161922814Y-94392528D01*
X161776772Y-94449551D01*
X161717428Y-94506263D01*
X161718594Y-94523365D01*
X161758941Y-94589049D01*
X161851161Y-94720366D01*
X161984384Y-94903037D01*
X162147738Y-95122782D01*
X162330354Y-95365323D01*
X162521361Y-95616382D01*
X162709887Y-95861679D01*
X162885063Y-96086937D01*
X163036017Y-96277876D01*
X163151878Y-96420217D01*
X163221777Y-96499683D01*
X163227164Y-96504875D01*
X163397076Y-96624372D01*
X163603911Y-96719641D01*
X163800539Y-96770441D01*
X163853768Y-96774000D01*
X163951268Y-96794372D01*
X163981734Y-96875061D01*
X163982400Y-96901000D01*
X163982400Y-97028000D01*
X162636200Y-97024820D01*
X162183479Y-96344167D01*
X161992855Y-96062359D01*
X161785652Y-95763967D01*
X161583838Y-95480162D01*
X161409382Y-95242113D01*
X161370070Y-95190056D01*
X161009380Y-94716600D01*
X160717890Y-94701364D01*
X160426400Y-94686129D01*
X160427177Y-95615764D01*
X160429440Y-95915622D01*
X160435254Y-96181959D01*
X160443933Y-96397473D01*
X160454794Y-96544862D01*
X160466311Y-96605721D01*
X160561340Y-96681271D01*
X160720842Y-96740908D01*
X160907744Y-96772077D01*
X160963107Y-96774000D01*
X161081911Y-96783918D01*
X161129940Y-96828254D01*
X161137600Y-96901000D01*
X161137600Y-97028000D01*
X158953200Y-97028000D01*
X158953200Y-96907463D01*
X158963987Y-96835480D01*
X159013101Y-96794768D01*
X159125671Y-96771417D01*
X159216670Y-96761610D01*
X159323200Y-96752062D01*
X159411367Y-96739816D01*
X159482904Y-96715951D01*
X159539544Y-96671544D01*
X159583021Y-96597672D01*
X159615069Y-96485413D01*
X159637420Y-96325843D01*
X159651808Y-96110041D01*
X159659967Y-95829084D01*
X159663630Y-95474050D01*
X159664531Y-95036015D01*
X159664402Y-94506057D01*
X159664400Y-94456972D01*
X159664424Y-94396207D01*
X160426400Y-94396207D01*
X160904758Y-94378603D01*
X161136993Y-94367291D01*
X161297239Y-94348954D01*
X161415104Y-94316290D01*
X161520196Y-94261998D01*
X161603258Y-94206344D01*
X161836710Y-93997571D01*
X161987673Y-93750279D01*
X162063653Y-93448790D01*
X162076391Y-93218000D01*
X162058254Y-92925974D01*
X161997994Y-92704069D01*
X161884164Y-92525547D01*
X161713294Y-92369726D01*
X161622791Y-92306027D01*
X161534427Y-92263755D01*
X161423548Y-92237568D01*
X161265500Y-92222130D01*
X161035628Y-92212101D01*
X160976641Y-92210205D01*
X160426400Y-92193010D01*
X160426400Y-94396207D01*
X159664424Y-94396207D01*
X159664614Y-93923620D01*
X159664057Y-93482813D01*
X159660925Y-93125498D01*
X159653414Y-92842624D01*
X159639721Y-92625141D01*
X159618044Y-92463997D01*
X159586580Y-92350141D01*
X159543524Y-92274523D01*
X159487075Y-92228090D01*
X159415429Y-92201792D01*
X159326782Y-92186578D01*
X159219333Y-92173397D01*
X159209217Y-92172072D01*
X159056605Y-92146190D01*
X158980188Y-92111229D01*
X158954750Y-92051979D01*
X158953200Y-92017655D01*
X158953200Y-91897200D01*
X160134300Y-91898768D01*
G37*
X160134300Y-91898768D02*
X160666432Y-91902655D01*
X161108741Y-91914166D01*
X161472853Y-91935393D01*
X161770394Y-91968426D01*
X162012989Y-92015358D01*
X162212265Y-92078278D01*
X162379848Y-92159277D01*
X162527363Y-92260448D01*
X162628035Y-92347288D01*
X162795188Y-92539287D01*
X162893108Y-92752988D01*
X162934210Y-93019312D01*
X162937360Y-93117689D01*
X162927528Y-93349848D01*
X162884335Y-93536235D01*
X162811077Y-93701889D01*
X162643131Y-93936169D01*
X162403195Y-94148738D01*
X162120871Y-94316579D01*
X161922814Y-94392528D01*
X161776772Y-94449551D01*
X161717428Y-94506263D01*
X161718594Y-94523365D01*
X161758941Y-94589049D01*
X161851161Y-94720366D01*
X161984384Y-94903037D01*
X162147738Y-95122782D01*
X162330354Y-95365323D01*
X162521361Y-95616382D01*
X162709887Y-95861679D01*
X162885063Y-96086937D01*
X163036017Y-96277876D01*
X163151878Y-96420217D01*
X163221777Y-96499683D01*
X163227164Y-96504875D01*
X163397076Y-96624372D01*
X163603911Y-96719641D01*
X163800539Y-96770441D01*
X163853768Y-96774000D01*
X163951268Y-96794372D01*
X163981734Y-96875061D01*
X163982400Y-96901000D01*
X163982400Y-97028000D01*
X162636200Y-97024820D01*
X162183479Y-96344167D01*
X161992855Y-96062359D01*
X161785652Y-95763967D01*
X161583838Y-95480162D01*
X161409382Y-95242113D01*
X161370070Y-95190056D01*
X161009380Y-94716600D01*
X160717890Y-94701364D01*
X160426400Y-94686129D01*
X160427177Y-95615764D01*
X160429440Y-95915622D01*
X160435254Y-96181959D01*
X160443933Y-96397473D01*
X160454794Y-96544862D01*
X160466311Y-96605721D01*
X160561340Y-96681271D01*
X160720842Y-96740908D01*
X160907744Y-96772077D01*
X160963107Y-96774000D01*
X161081911Y-96783918D01*
X161129940Y-96828254D01*
X161137600Y-96901000D01*
X161137600Y-97028000D01*
X158953200Y-97028000D01*
X158953200Y-96907463D01*
X158963987Y-96835480D01*
X159013101Y-96794768D01*
X159125671Y-96771417D01*
X159216670Y-96761610D01*
X159323200Y-96752062D01*
X159411367Y-96739816D01*
X159482904Y-96715951D01*
X159539544Y-96671544D01*
X159583021Y-96597672D01*
X159615069Y-96485413D01*
X159637420Y-96325843D01*
X159651808Y-96110041D01*
X159659967Y-95829084D01*
X159663630Y-95474050D01*
X159664531Y-95036015D01*
X159664402Y-94506057D01*
X159664400Y-94456972D01*
X159664424Y-94396207D01*
X160426400Y-94396207D01*
X160904758Y-94378603D01*
X161136993Y-94367291D01*
X161297239Y-94348954D01*
X161415104Y-94316290D01*
X161520196Y-94261998D01*
X161603258Y-94206344D01*
X161836710Y-93997571D01*
X161987673Y-93750279D01*
X162063653Y-93448790D01*
X162076391Y-93218000D01*
X162058254Y-92925974D01*
X161997994Y-92704069D01*
X161884164Y-92525547D01*
X161713294Y-92369726D01*
X161622791Y-92306027D01*
X161534427Y-92263755D01*
X161423548Y-92237568D01*
X161265500Y-92222130D01*
X161035628Y-92212101D01*
X160976641Y-92210205D01*
X160426400Y-92193010D01*
X160426400Y-94396207D01*
X159664424Y-94396207D01*
X159664614Y-93923620D01*
X159664057Y-93482813D01*
X159660925Y-93125498D01*
X159653414Y-92842624D01*
X159639721Y-92625141D01*
X159618044Y-92463997D01*
X159586580Y-92350141D01*
X159543524Y-92274523D01*
X159487075Y-92228090D01*
X159415429Y-92201792D01*
X159326782Y-92186578D01*
X159219333Y-92173397D01*
X159209217Y-92172072D01*
X159056605Y-92146190D01*
X158980188Y-92111229D01*
X158954750Y-92051979D01*
X158953200Y-92017655D01*
X158953200Y-91897200D01*
X160134300Y-91898768D01*
G36*
X158038800Y-92506800D02*
G01*
X158038153Y-92763637D01*
X158034036Y-92935806D01*
X158023182Y-93040236D01*
X158002327Y-93093857D01*
X157968203Y-93113601D01*
X157921208Y-93116400D01*
X157821510Y-93083382D01*
X157736208Y-92972245D01*
X157713615Y-92927662D01*
X157584188Y-92702892D01*
X157425969Y-92496412D01*
X157263462Y-92337688D01*
X157172242Y-92276670D01*
X157077986Y-92244138D01*
X156932429Y-92221759D01*
X156720789Y-92208284D01*
X156428283Y-92202464D01*
X156288722Y-92201999D01*
X155549600Y-92202000D01*
X155549600Y-94234000D01*
X156061507Y-94234000D01*
X156295648Y-94232590D01*
X156452191Y-94224852D01*
X156555132Y-94205519D01*
X156628466Y-94169326D01*
X156696192Y-94111008D01*
X156717324Y-94090090D01*
X156823256Y-93946413D01*
X156907816Y-93768046D01*
X156922418Y-93721790D01*
X156963408Y-93571988D01*
X156994520Y-93459210D01*
X157001607Y-93433900D01*
X157060342Y-93381959D01*
X157122805Y-93370400D01*
X157157851Y-93374100D01*
X157183908Y-93393934D01*
X157202306Y-93443001D01*
X157214377Y-93534400D01*
X157221450Y-93681230D01*
X157224856Y-93896591D01*
X157225925Y-94193581D01*
X157226000Y-94386400D01*
X157225624Y-94731443D01*
X157223609Y-94987986D01*
X157218625Y-95169127D01*
X157209342Y-95287967D01*
X157194429Y-95357604D01*
X157172555Y-95391138D01*
X157142390Y-95401667D01*
X157122805Y-95402400D01*
X157030718Y-95375319D01*
X157001607Y-95338900D01*
X156977921Y-95253571D01*
X156939506Y-95113585D01*
X156922418Y-95051009D01*
X156850114Y-94874616D01*
X156746398Y-94714885D01*
X156717324Y-94682709D01*
X156646885Y-94617282D01*
X156577526Y-94575450D01*
X156485253Y-94551946D01*
X156346068Y-94541504D01*
X156135975Y-94538860D01*
X156061507Y-94538800D01*
X155549600Y-94538800D01*
X155549600Y-95506309D01*
X155549944Y-95842253D01*
X155552133Y-96091794D01*
X155557903Y-96270129D01*
X155568988Y-96392453D01*
X155587123Y-96473964D01*
X155614043Y-96529857D01*
X155651483Y-96575330D01*
X155674290Y-96598509D01*
X155728599Y-96648258D01*
X155787270Y-96682634D01*
X155869055Y-96704463D01*
X155992703Y-96716571D01*
X156176965Y-96721783D01*
X156440593Y-96722925D01*
X156499790Y-96722916D01*
X156774501Y-96719004D01*
X157028897Y-96708501D01*
X157237456Y-96692924D01*
X157374655Y-96673791D01*
X157390115Y-96670000D01*
X157541292Y-96594744D01*
X157690409Y-96448825D01*
X157844527Y-96223244D01*
X158010707Y-95909003D01*
X158046743Y-95833161D01*
X158142898Y-95646144D01*
X158220824Y-95541543D01*
X158292002Y-95504614D01*
X158303140Y-95504000D01*
X158347138Y-95508962D01*
X158374847Y-95535443D01*
X158388377Y-95600834D01*
X158389838Y-95722526D01*
X158381340Y-95917909D01*
X158372469Y-96075500D01*
X158356385Y-96327838D01*
X158338800Y-96562067D01*
X158322129Y-96747901D01*
X158311651Y-96837500D01*
X158283869Y-97028000D01*
X154076400Y-97028000D01*
X154076400Y-96908075D01*
X154087613Y-96836440D01*
X154137826Y-96794696D01*
X154251901Y-96768765D01*
X154343100Y-96757043D01*
X154449820Y-96745363D01*
X154537966Y-96731491D01*
X154609308Y-96706385D01*
X154665619Y-96660998D01*
X154708671Y-96586286D01*
X154740234Y-96473206D01*
X154762083Y-96312711D01*
X154775987Y-96095757D01*
X154783719Y-95813301D01*
X154787050Y-95456296D01*
X154787753Y-95015698D01*
X154787600Y-94488000D01*
X154787782Y-93958916D01*
X154787132Y-93522144D01*
X154783854Y-93168397D01*
X154776152Y-92888391D01*
X154762231Y-92672841D01*
X154740296Y-92512462D01*
X154708549Y-92397969D01*
X154665196Y-92320077D01*
X154608442Y-92269502D01*
X154536489Y-92236958D01*
X154447544Y-92213161D01*
X154343100Y-92189597D01*
X154185246Y-92145976D01*
X154104567Y-92100340D01*
X154077553Y-92037050D01*
X154076400Y-92012178D01*
X154076400Y-91897200D01*
X158038800Y-91897200D01*
X158038800Y-92506800D01*
G37*
X158038800Y-92506800D02*
X158038153Y-92763637D01*
X158034036Y-92935806D01*
X158023182Y-93040236D01*
X158002327Y-93093857D01*
X157968203Y-93113601D01*
X157921208Y-93116400D01*
X157821510Y-93083382D01*
X157736208Y-92972245D01*
X157713615Y-92927662D01*
X157584188Y-92702892D01*
X157425969Y-92496412D01*
X157263462Y-92337688D01*
X157172242Y-92276670D01*
X157077986Y-92244138D01*
X156932429Y-92221759D01*
X156720789Y-92208284D01*
X156428283Y-92202464D01*
X156288722Y-92201999D01*
X155549600Y-92202000D01*
X155549600Y-94234000D01*
X156061507Y-94234000D01*
X156295648Y-94232590D01*
X156452191Y-94224852D01*
X156555132Y-94205519D01*
X156628466Y-94169326D01*
X156696192Y-94111008D01*
X156717324Y-94090090D01*
X156823256Y-93946413D01*
X156907816Y-93768046D01*
X156922418Y-93721790D01*
X156963408Y-93571988D01*
X156994520Y-93459210D01*
X157001607Y-93433900D01*
X157060342Y-93381959D01*
X157122805Y-93370400D01*
X157157851Y-93374100D01*
X157183908Y-93393934D01*
X157202306Y-93443001D01*
X157214377Y-93534400D01*
X157221450Y-93681230D01*
X157224856Y-93896591D01*
X157225925Y-94193581D01*
X157226000Y-94386400D01*
X157225624Y-94731443D01*
X157223609Y-94987986D01*
X157218625Y-95169127D01*
X157209342Y-95287967D01*
X157194429Y-95357604D01*
X157172555Y-95391138D01*
X157142390Y-95401667D01*
X157122805Y-95402400D01*
X157030718Y-95375319D01*
X157001607Y-95338900D01*
X156977921Y-95253571D01*
X156939506Y-95113585D01*
X156922418Y-95051009D01*
X156850114Y-94874616D01*
X156746398Y-94714885D01*
X156717324Y-94682709D01*
X156646885Y-94617282D01*
X156577526Y-94575450D01*
X156485253Y-94551946D01*
X156346068Y-94541504D01*
X156135975Y-94538860D01*
X156061507Y-94538800D01*
X155549600Y-94538800D01*
X155549600Y-95506309D01*
X155549944Y-95842253D01*
X155552133Y-96091794D01*
X155557903Y-96270129D01*
X155568988Y-96392453D01*
X155587123Y-96473964D01*
X155614043Y-96529857D01*
X155651483Y-96575330D01*
X155674290Y-96598509D01*
X155728599Y-96648258D01*
X155787270Y-96682634D01*
X155869055Y-96704463D01*
X155992703Y-96716571D01*
X156176965Y-96721783D01*
X156440593Y-96722925D01*
X156499790Y-96722916D01*
X156774501Y-96719004D01*
X157028897Y-96708501D01*
X157237456Y-96692924D01*
X157374655Y-96673791D01*
X157390115Y-96670000D01*
X157541292Y-96594744D01*
X157690409Y-96448825D01*
X157844527Y-96223244D01*
X158010707Y-95909003D01*
X158046743Y-95833161D01*
X158142898Y-95646144D01*
X158220824Y-95541543D01*
X158292002Y-95504614D01*
X158303140Y-95504000D01*
X158347138Y-95508962D01*
X158374847Y-95535443D01*
X158388377Y-95600834D01*
X158389838Y-95722526D01*
X158381340Y-95917909D01*
X158372469Y-96075500D01*
X158356385Y-96327838D01*
X158338800Y-96562067D01*
X158322129Y-96747901D01*
X158311651Y-96837500D01*
X158283869Y-97028000D01*
X154076400Y-97028000D01*
X154076400Y-96908075D01*
X154087613Y-96836440D01*
X154137826Y-96794696D01*
X154251901Y-96768765D01*
X154343100Y-96757043D01*
X154449820Y-96745363D01*
X154537966Y-96731491D01*
X154609308Y-96706385D01*
X154665619Y-96660998D01*
X154708671Y-96586286D01*
X154740234Y-96473206D01*
X154762083Y-96312711D01*
X154775987Y-96095757D01*
X154783719Y-95813301D01*
X154787050Y-95456296D01*
X154787753Y-95015698D01*
X154787600Y-94488000D01*
X154787782Y-93958916D01*
X154787132Y-93522144D01*
X154783854Y-93168397D01*
X154776152Y-92888391D01*
X154762231Y-92672841D01*
X154740296Y-92512462D01*
X154708549Y-92397969D01*
X154665196Y-92320077D01*
X154608442Y-92269502D01*
X154536489Y-92236958D01*
X154447544Y-92213161D01*
X154343100Y-92189597D01*
X154185246Y-92145976D01*
X154104567Y-92100340D01*
X154077553Y-92037050D01*
X154076400Y-92012178D01*
X154076400Y-91897200D01*
X158038800Y-91897200D01*
X158038800Y-92506800D01*
G36*
X153162000Y-92506800D02*
G01*
X153161353Y-92763637D01*
X153157236Y-92935806D01*
X153146382Y-93040236D01*
X153125527Y-93093857D01*
X153091403Y-93113601D01*
X153044408Y-93116400D01*
X152944710Y-93083382D01*
X152859408Y-92972245D01*
X152836815Y-92927662D01*
X152707388Y-92702892D01*
X152549169Y-92496412D01*
X152386662Y-92337688D01*
X152295442Y-92276670D01*
X152201186Y-92244138D01*
X152055629Y-92221759D01*
X151843989Y-92208284D01*
X151551483Y-92202464D01*
X151411922Y-92201999D01*
X150672800Y-92202000D01*
X150672800Y-94234000D01*
X151184707Y-94234000D01*
X151418848Y-94232590D01*
X151575391Y-94224852D01*
X151678332Y-94205519D01*
X151751666Y-94169326D01*
X151819392Y-94111008D01*
X151840524Y-94090090D01*
X151946456Y-93946413D01*
X152031016Y-93768046D01*
X152045618Y-93721790D01*
X152086608Y-93571988D01*
X152117720Y-93459210D01*
X152124807Y-93433900D01*
X152183542Y-93381959D01*
X152246005Y-93370400D01*
X152281051Y-93374100D01*
X152307108Y-93393934D01*
X152325506Y-93443001D01*
X152337577Y-93534400D01*
X152344650Y-93681230D01*
X152348056Y-93896591D01*
X152349125Y-94193581D01*
X152349200Y-94386400D01*
X152348824Y-94731443D01*
X152346809Y-94987986D01*
X152341825Y-95169127D01*
X152332542Y-95287967D01*
X152317629Y-95357604D01*
X152295755Y-95391138D01*
X152265590Y-95401667D01*
X152246005Y-95402400D01*
X152153918Y-95375319D01*
X152124807Y-95338900D01*
X152101121Y-95253571D01*
X152062706Y-95113585D01*
X152045618Y-95051009D01*
X151973314Y-94874616D01*
X151869598Y-94714885D01*
X151840524Y-94682709D01*
X151770085Y-94617282D01*
X151700726Y-94575450D01*
X151608453Y-94551946D01*
X151469268Y-94541504D01*
X151259175Y-94538860D01*
X151184707Y-94538800D01*
X150672800Y-94538800D01*
X150672800Y-95506309D01*
X150673144Y-95842253D01*
X150675333Y-96091794D01*
X150681103Y-96270129D01*
X150692188Y-96392453D01*
X150710323Y-96473964D01*
X150737243Y-96529857D01*
X150774683Y-96575330D01*
X150797490Y-96598509D01*
X150851799Y-96648258D01*
X150910470Y-96682634D01*
X150992255Y-96704463D01*
X151115903Y-96716571D01*
X151300165Y-96721783D01*
X151563793Y-96722925D01*
X151622990Y-96722916D01*
X151897701Y-96719004D01*
X152152097Y-96708501D01*
X152360656Y-96692924D01*
X152497855Y-96673791D01*
X152513315Y-96670000D01*
X152664492Y-96594744D01*
X152813609Y-96448825D01*
X152967727Y-96223244D01*
X153133907Y-95909003D01*
X153169943Y-95833161D01*
X153266098Y-95646144D01*
X153344024Y-95541543D01*
X153415202Y-95504614D01*
X153426340Y-95504000D01*
X153470338Y-95508962D01*
X153498047Y-95535443D01*
X153511577Y-95600834D01*
X153513038Y-95722526D01*
X153504540Y-95917909D01*
X153495669Y-96075500D01*
X153479585Y-96327838D01*
X153462000Y-96562067D01*
X153445329Y-96747901D01*
X153434851Y-96837500D01*
X153407069Y-97028000D01*
X149199600Y-97028000D01*
X149199600Y-96908075D01*
X149210813Y-96836440D01*
X149261026Y-96794696D01*
X149375101Y-96768765D01*
X149466300Y-96757043D01*
X149573020Y-96745363D01*
X149661166Y-96731491D01*
X149732508Y-96706385D01*
X149788819Y-96660998D01*
X149831871Y-96586286D01*
X149863434Y-96473206D01*
X149885283Y-96312711D01*
X149899187Y-96095757D01*
X149906919Y-95813301D01*
X149910250Y-95456296D01*
X149910953Y-95015698D01*
X149910800Y-94488000D01*
X149910982Y-93958916D01*
X149910332Y-93522144D01*
X149907054Y-93168397D01*
X149899352Y-92888391D01*
X149885431Y-92672841D01*
X149863496Y-92512462D01*
X149831749Y-92397969D01*
X149788396Y-92320077D01*
X149731642Y-92269502D01*
X149659689Y-92236958D01*
X149570744Y-92213161D01*
X149466300Y-92189597D01*
X149308446Y-92145976D01*
X149227767Y-92100340D01*
X149200753Y-92037050D01*
X149199600Y-92012178D01*
X149199600Y-91897200D01*
X153162000Y-91897200D01*
X153162000Y-92506800D01*
G37*
X153162000Y-92506800D02*
X153161353Y-92763637D01*
X153157236Y-92935806D01*
X153146382Y-93040236D01*
X153125527Y-93093857D01*
X153091403Y-93113601D01*
X153044408Y-93116400D01*
X152944710Y-93083382D01*
X152859408Y-92972245D01*
X152836815Y-92927662D01*
X152707388Y-92702892D01*
X152549169Y-92496412D01*
X152386662Y-92337688D01*
X152295442Y-92276670D01*
X152201186Y-92244138D01*
X152055629Y-92221759D01*
X151843989Y-92208284D01*
X151551483Y-92202464D01*
X151411922Y-92201999D01*
X150672800Y-92202000D01*
X150672800Y-94234000D01*
X151184707Y-94234000D01*
X151418848Y-94232590D01*
X151575391Y-94224852D01*
X151678332Y-94205519D01*
X151751666Y-94169326D01*
X151819392Y-94111008D01*
X151840524Y-94090090D01*
X151946456Y-93946413D01*
X152031016Y-93768046D01*
X152045618Y-93721790D01*
X152086608Y-93571988D01*
X152117720Y-93459210D01*
X152124807Y-93433900D01*
X152183542Y-93381959D01*
X152246005Y-93370400D01*
X152281051Y-93374100D01*
X152307108Y-93393934D01*
X152325506Y-93443001D01*
X152337577Y-93534400D01*
X152344650Y-93681230D01*
X152348056Y-93896591D01*
X152349125Y-94193581D01*
X152349200Y-94386400D01*
X152348824Y-94731443D01*
X152346809Y-94987986D01*
X152341825Y-95169127D01*
X152332542Y-95287967D01*
X152317629Y-95357604D01*
X152295755Y-95391138D01*
X152265590Y-95401667D01*
X152246005Y-95402400D01*
X152153918Y-95375319D01*
X152124807Y-95338900D01*
X152101121Y-95253571D01*
X152062706Y-95113585D01*
X152045618Y-95051009D01*
X151973314Y-94874616D01*
X151869598Y-94714885D01*
X151840524Y-94682709D01*
X151770085Y-94617282D01*
X151700726Y-94575450D01*
X151608453Y-94551946D01*
X151469268Y-94541504D01*
X151259175Y-94538860D01*
X151184707Y-94538800D01*
X150672800Y-94538800D01*
X150672800Y-95506309D01*
X150673144Y-95842253D01*
X150675333Y-96091794D01*
X150681103Y-96270129D01*
X150692188Y-96392453D01*
X150710323Y-96473964D01*
X150737243Y-96529857D01*
X150774683Y-96575330D01*
X150797490Y-96598509D01*
X150851799Y-96648258D01*
X150910470Y-96682634D01*
X150992255Y-96704463D01*
X151115903Y-96716571D01*
X151300165Y-96721783D01*
X151563793Y-96722925D01*
X151622990Y-96722916D01*
X151897701Y-96719004D01*
X152152097Y-96708501D01*
X152360656Y-96692924D01*
X152497855Y-96673791D01*
X152513315Y-96670000D01*
X152664492Y-96594744D01*
X152813609Y-96448825D01*
X152967727Y-96223244D01*
X153133907Y-95909003D01*
X153169943Y-95833161D01*
X153266098Y-95646144D01*
X153344024Y-95541543D01*
X153415202Y-95504614D01*
X153426340Y-95504000D01*
X153470338Y-95508962D01*
X153498047Y-95535443D01*
X153511577Y-95600834D01*
X153513038Y-95722526D01*
X153504540Y-95917909D01*
X153495669Y-96075500D01*
X153479585Y-96327838D01*
X153462000Y-96562067D01*
X153445329Y-96747901D01*
X153434851Y-96837500D01*
X153407069Y-97028000D01*
X149199600Y-97028000D01*
X149199600Y-96908075D01*
X149210813Y-96836440D01*
X149261026Y-96794696D01*
X149375101Y-96768765D01*
X149466300Y-96757043D01*
X149573020Y-96745363D01*
X149661166Y-96731491D01*
X149732508Y-96706385D01*
X149788819Y-96660998D01*
X149831871Y-96586286D01*
X149863434Y-96473206D01*
X149885283Y-96312711D01*
X149899187Y-96095757D01*
X149906919Y-95813301D01*
X149910250Y-95456296D01*
X149910953Y-95015698D01*
X149910800Y-94488000D01*
X149910982Y-93958916D01*
X149910332Y-93522144D01*
X149907054Y-93168397D01*
X149899352Y-92888391D01*
X149885431Y-92672841D01*
X149863496Y-92512462D01*
X149831749Y-92397969D01*
X149788396Y-92320077D01*
X149731642Y-92269502D01*
X149659689Y-92236958D01*
X149570744Y-92213161D01*
X149466300Y-92189597D01*
X149308446Y-92145976D01*
X149227767Y-92100340D01*
X149200753Y-92037050D01*
X149199600Y-92012178D01*
X149199600Y-91897200D01*
X153162000Y-91897200D01*
X153162000Y-92506800D01*
G36*
X142798800Y-92024200D02*
G01*
X142780262Y-92117847D01*
X142704239Y-92149746D01*
X142659100Y-92151483D01*
X142462611Y-92172018D01*
X142278117Y-92224942D01*
X142139163Y-92298397D01*
X142088197Y-92353283D01*
X142074448Y-92430592D01*
X142062629Y-92604114D01*
X142052870Y-92868476D01*
X142045301Y-93218306D01*
X142040051Y-93648232D01*
X142037250Y-94152882D01*
X142036800Y-94480973D01*
X142036800Y-96512625D01*
X142169364Y-96616901D01*
X142301257Y-96687040D01*
X142477737Y-96741215D01*
X142550364Y-96754133D01*
X142700215Y-96780019D01*
X142774156Y-96816108D01*
X142797724Y-96878166D01*
X142798800Y-96907544D01*
X142798800Y-97028000D01*
X140512800Y-97028000D01*
X140512800Y-96901000D01*
X140522093Y-96823048D01*
X140568009Y-96785841D01*
X140677600Y-96774567D01*
X140744739Y-96774000D01*
X140979294Y-96748254D01*
X141156782Y-96676387D01*
X141235922Y-96601295D01*
X141244046Y-96539843D01*
X141251599Y-96387856D01*
X141258381Y-96156396D01*
X141264193Y-95856527D01*
X141268837Y-95499313D01*
X141272114Y-95095817D01*
X141273824Y-94657103D01*
X141274022Y-94483173D01*
X141273947Y-93968799D01*
X141273037Y-93546540D01*
X141270902Y-93206914D01*
X141267150Y-92940438D01*
X141261391Y-92737628D01*
X141253234Y-92589001D01*
X141242289Y-92485074D01*
X141228164Y-92416364D01*
X141210470Y-92373387D01*
X141188816Y-92346660D01*
X141185900Y-92344066D01*
X141042411Y-92257927D01*
X140851088Y-92187819D01*
X140665663Y-92152459D01*
X140632219Y-92151200D01*
X140540755Y-92128261D01*
X140513075Y-92040945D01*
X140512800Y-92024200D01*
X140512800Y-91897200D01*
X142798800Y-91897200D01*
X142798800Y-92024200D01*
G37*
X142798800Y-92024200D02*
X142780262Y-92117847D01*
X142704239Y-92149746D01*
X142659100Y-92151483D01*
X142462611Y-92172018D01*
X142278117Y-92224942D01*
X142139163Y-92298397D01*
X142088197Y-92353283D01*
X142074448Y-92430592D01*
X142062629Y-92604114D01*
X142052870Y-92868476D01*
X142045301Y-93218306D01*
X142040051Y-93648232D01*
X142037250Y-94152882D01*
X142036800Y-94480973D01*
X142036800Y-96512625D01*
X142169364Y-96616901D01*
X142301257Y-96687040D01*
X142477737Y-96741215D01*
X142550364Y-96754133D01*
X142700215Y-96780019D01*
X142774156Y-96816108D01*
X142797724Y-96878166D01*
X142798800Y-96907544D01*
X142798800Y-97028000D01*
X140512800Y-97028000D01*
X140512800Y-96901000D01*
X140522093Y-96823048D01*
X140568009Y-96785841D01*
X140677600Y-96774567D01*
X140744739Y-96774000D01*
X140979294Y-96748254D01*
X141156782Y-96676387D01*
X141235922Y-96601295D01*
X141244046Y-96539843D01*
X141251599Y-96387856D01*
X141258381Y-96156396D01*
X141264193Y-95856527D01*
X141268837Y-95499313D01*
X141272114Y-95095817D01*
X141273824Y-94657103D01*
X141274022Y-94483173D01*
X141273947Y-93968799D01*
X141273037Y-93546540D01*
X141270902Y-93206914D01*
X141267150Y-92940438D01*
X141261391Y-92737628D01*
X141253234Y-92589001D01*
X141242289Y-92485074D01*
X141228164Y-92416364D01*
X141210470Y-92373387D01*
X141188816Y-92346660D01*
X141185900Y-92344066D01*
X141042411Y-92257927D01*
X140851088Y-92187819D01*
X140665663Y-92152459D01*
X140632219Y-92151200D01*
X140540755Y-92128261D01*
X140513075Y-92040945D01*
X140512800Y-92024200D01*
X140512800Y-91897200D01*
X142798800Y-91897200D01*
X142798800Y-92024200D01*
G36*
X128574800Y-92506800D02*
G01*
X128574153Y-92763637D01*
X128570036Y-92935806D01*
X128559182Y-93040236D01*
X128538327Y-93093857D01*
X128504203Y-93113601D01*
X128457208Y-93116400D01*
X128357510Y-93083382D01*
X128272208Y-92972245D01*
X128249615Y-92927662D01*
X128120188Y-92702892D01*
X127961969Y-92496412D01*
X127799462Y-92337688D01*
X127708242Y-92276670D01*
X127613986Y-92244138D01*
X127468429Y-92221759D01*
X127256789Y-92208284D01*
X126964283Y-92202464D01*
X126824722Y-92201999D01*
X126085600Y-92202000D01*
X126085600Y-94234000D01*
X126597507Y-94234000D01*
X126831648Y-94232590D01*
X126988191Y-94224852D01*
X127091132Y-94205519D01*
X127164466Y-94169326D01*
X127232192Y-94111008D01*
X127253324Y-94090090D01*
X127359256Y-93946413D01*
X127443816Y-93768046D01*
X127458418Y-93721790D01*
X127499408Y-93571988D01*
X127530520Y-93459210D01*
X127537607Y-93433900D01*
X127596342Y-93381959D01*
X127658805Y-93370400D01*
X127693851Y-93374100D01*
X127719908Y-93393934D01*
X127738306Y-93443001D01*
X127750377Y-93534400D01*
X127757450Y-93681230D01*
X127760856Y-93896591D01*
X127761925Y-94193581D01*
X127762000Y-94386400D01*
X127761624Y-94731443D01*
X127759609Y-94987986D01*
X127754625Y-95169127D01*
X127745342Y-95287967D01*
X127730429Y-95357604D01*
X127708555Y-95391138D01*
X127678390Y-95401667D01*
X127658805Y-95402400D01*
X127566718Y-95375319D01*
X127537607Y-95338900D01*
X127513921Y-95253571D01*
X127475506Y-95113585D01*
X127458418Y-95051009D01*
X127386114Y-94874616D01*
X127282398Y-94714885D01*
X127253324Y-94682709D01*
X127182885Y-94617282D01*
X127113526Y-94575450D01*
X127021253Y-94551946D01*
X126882068Y-94541504D01*
X126671975Y-94538860D01*
X126597507Y-94538800D01*
X126085600Y-94538800D01*
X126085600Y-95506309D01*
X126085944Y-95842253D01*
X126088133Y-96091794D01*
X126093903Y-96270129D01*
X126104988Y-96392453D01*
X126123123Y-96473964D01*
X126150043Y-96529857D01*
X126187483Y-96575330D01*
X126210290Y-96598509D01*
X126264599Y-96648258D01*
X126323270Y-96682634D01*
X126405055Y-96704463D01*
X126528703Y-96716571D01*
X126712965Y-96721783D01*
X126976593Y-96722925D01*
X127035790Y-96722916D01*
X127310501Y-96719004D01*
X127564897Y-96708501D01*
X127773456Y-96692924D01*
X127910655Y-96673791D01*
X127926115Y-96670000D01*
X128077292Y-96594744D01*
X128226409Y-96448825D01*
X128380527Y-96223244D01*
X128546707Y-95909003D01*
X128582743Y-95833161D01*
X128678898Y-95646144D01*
X128756824Y-95541543D01*
X128828002Y-95504614D01*
X128839140Y-95504000D01*
X128883138Y-95508962D01*
X128910847Y-95535443D01*
X128924377Y-95600834D01*
X128925838Y-95722526D01*
X128917340Y-95917909D01*
X128908469Y-96075500D01*
X128892385Y-96327838D01*
X128874800Y-96562067D01*
X128858129Y-96747901D01*
X128847651Y-96837500D01*
X128819869Y-97028000D01*
X124612400Y-97028000D01*
X124612400Y-96908075D01*
X124623613Y-96836440D01*
X124673826Y-96794696D01*
X124787901Y-96768765D01*
X124879100Y-96757043D01*
X124985820Y-96745363D01*
X125073966Y-96731491D01*
X125145308Y-96706385D01*
X125201619Y-96660998D01*
X125244671Y-96586286D01*
X125276234Y-96473206D01*
X125298083Y-96312711D01*
X125311987Y-96095757D01*
X125319719Y-95813301D01*
X125323050Y-95456296D01*
X125323753Y-95015698D01*
X125323600Y-94488000D01*
X125323782Y-93958916D01*
X125323132Y-93522144D01*
X125319854Y-93168397D01*
X125312152Y-92888391D01*
X125298231Y-92672841D01*
X125276296Y-92512462D01*
X125244549Y-92397969D01*
X125201196Y-92320077D01*
X125144442Y-92269502D01*
X125072489Y-92236958D01*
X124983544Y-92213161D01*
X124879100Y-92189597D01*
X124721246Y-92145976D01*
X124640567Y-92100340D01*
X124613553Y-92037050D01*
X124612400Y-92012178D01*
X124612400Y-91897200D01*
X128574800Y-91897200D01*
X128574800Y-92506800D01*
G37*
X128574800Y-92506800D02*
X128574153Y-92763637D01*
X128570036Y-92935806D01*
X128559182Y-93040236D01*
X128538327Y-93093857D01*
X128504203Y-93113601D01*
X128457208Y-93116400D01*
X128357510Y-93083382D01*
X128272208Y-92972245D01*
X128249615Y-92927662D01*
X128120188Y-92702892D01*
X127961969Y-92496412D01*
X127799462Y-92337688D01*
X127708242Y-92276670D01*
X127613986Y-92244138D01*
X127468429Y-92221759D01*
X127256789Y-92208284D01*
X126964283Y-92202464D01*
X126824722Y-92201999D01*
X126085600Y-92202000D01*
X126085600Y-94234000D01*
X126597507Y-94234000D01*
X126831648Y-94232590D01*
X126988191Y-94224852D01*
X127091132Y-94205519D01*
X127164466Y-94169326D01*
X127232192Y-94111008D01*
X127253324Y-94090090D01*
X127359256Y-93946413D01*
X127443816Y-93768046D01*
X127458418Y-93721790D01*
X127499408Y-93571988D01*
X127530520Y-93459210D01*
X127537607Y-93433900D01*
X127596342Y-93381959D01*
X127658805Y-93370400D01*
X127693851Y-93374100D01*
X127719908Y-93393934D01*
X127738306Y-93443001D01*
X127750377Y-93534400D01*
X127757450Y-93681230D01*
X127760856Y-93896591D01*
X127761925Y-94193581D01*
X127762000Y-94386400D01*
X127761624Y-94731443D01*
X127759609Y-94987986D01*
X127754625Y-95169127D01*
X127745342Y-95287967D01*
X127730429Y-95357604D01*
X127708555Y-95391138D01*
X127678390Y-95401667D01*
X127658805Y-95402400D01*
X127566718Y-95375319D01*
X127537607Y-95338900D01*
X127513921Y-95253571D01*
X127475506Y-95113585D01*
X127458418Y-95051009D01*
X127386114Y-94874616D01*
X127282398Y-94714885D01*
X127253324Y-94682709D01*
X127182885Y-94617282D01*
X127113526Y-94575450D01*
X127021253Y-94551946D01*
X126882068Y-94541504D01*
X126671975Y-94538860D01*
X126597507Y-94538800D01*
X126085600Y-94538800D01*
X126085600Y-95506309D01*
X126085944Y-95842253D01*
X126088133Y-96091794D01*
X126093903Y-96270129D01*
X126104988Y-96392453D01*
X126123123Y-96473964D01*
X126150043Y-96529857D01*
X126187483Y-96575330D01*
X126210290Y-96598509D01*
X126264599Y-96648258D01*
X126323270Y-96682634D01*
X126405055Y-96704463D01*
X126528703Y-96716571D01*
X126712965Y-96721783D01*
X126976593Y-96722925D01*
X127035790Y-96722916D01*
X127310501Y-96719004D01*
X127564897Y-96708501D01*
X127773456Y-96692924D01*
X127910655Y-96673791D01*
X127926115Y-96670000D01*
X128077292Y-96594744D01*
X128226409Y-96448825D01*
X128380527Y-96223244D01*
X128546707Y-95909003D01*
X128582743Y-95833161D01*
X128678898Y-95646144D01*
X128756824Y-95541543D01*
X128828002Y-95504614D01*
X128839140Y-95504000D01*
X128883138Y-95508962D01*
X128910847Y-95535443D01*
X128924377Y-95600834D01*
X128925838Y-95722526D01*
X128917340Y-95917909D01*
X128908469Y-96075500D01*
X128892385Y-96327838D01*
X128874800Y-96562067D01*
X128858129Y-96747901D01*
X128847651Y-96837500D01*
X128819869Y-97028000D01*
X124612400Y-97028000D01*
X124612400Y-96908075D01*
X124623613Y-96836440D01*
X124673826Y-96794696D01*
X124787901Y-96768765D01*
X124879100Y-96757043D01*
X124985820Y-96745363D01*
X125073966Y-96731491D01*
X125145308Y-96706385D01*
X125201619Y-96660998D01*
X125244671Y-96586286D01*
X125276234Y-96473206D01*
X125298083Y-96312711D01*
X125311987Y-96095757D01*
X125319719Y-95813301D01*
X125323050Y-95456296D01*
X125323753Y-95015698D01*
X125323600Y-94488000D01*
X125323782Y-93958916D01*
X125323132Y-93522144D01*
X125319854Y-93168397D01*
X125312152Y-92888391D01*
X125298231Y-92672841D01*
X125276296Y-92512462D01*
X125244549Y-92397969D01*
X125201196Y-92320077D01*
X125144442Y-92269502D01*
X125072489Y-92236958D01*
X124983544Y-92213161D01*
X124879100Y-92189597D01*
X124721246Y-92145976D01*
X124640567Y-92100340D01*
X124613553Y-92037050D01*
X124612400Y-92012178D01*
X124612400Y-91897200D01*
X128574800Y-91897200D01*
X128574800Y-92506800D01*
G36*
X122326400Y-92532200D02*
G01*
X122325798Y-92795264D01*
X122321956Y-92973318D01*
X122311822Y-93082950D01*
X122292341Y-93140747D01*
X122260462Y-93163300D01*
X122213129Y-93167197D01*
X122209522Y-93167200D01*
X122122071Y-93141083D01*
X122042258Y-93049862D01*
X121978205Y-92931647D01*
X121815616Y-92644466D01*
X121642049Y-92422549D01*
X121470818Y-92282666D01*
X121457009Y-92275205D01*
X121363737Y-92243669D01*
X121216744Y-92221797D01*
X121002110Y-92208464D01*
X120705915Y-92202545D01*
X120550922Y-92202000D01*
X119786400Y-92202000D01*
X119786400Y-94234000D01*
X120271522Y-94234000D01*
X120593248Y-94222680D01*
X120831246Y-94182663D01*
X121001480Y-94104856D01*
X121119913Y-93980169D01*
X121202507Y-93799511D01*
X121235426Y-93685065D01*
X121287422Y-93527867D01*
X121350154Y-93449654D01*
X121404653Y-93430366D01*
X121441926Y-93427348D01*
X121469551Y-93439660D01*
X121488973Y-93480322D01*
X121501636Y-93562351D01*
X121508985Y-93698765D01*
X121512467Y-93902583D01*
X121513526Y-94186822D01*
X121513600Y-94411799D01*
X121513600Y-95409466D01*
X121401368Y-95393233D01*
X121315674Y-95351558D01*
X121262888Y-95241455D01*
X121249419Y-95184849D01*
X121181138Y-94938200D01*
X121083746Y-94760783D01*
X120941920Y-94642471D01*
X120740334Y-94573141D01*
X120463661Y-94542667D01*
X120271522Y-94538800D01*
X119786400Y-94538800D01*
X119786400Y-95529400D01*
X119787507Y-95902028D01*
X119794031Y-96185963D01*
X119810770Y-96394109D01*
X119842525Y-96539371D01*
X119894096Y-96634653D01*
X119970283Y-96692860D01*
X120075886Y-96726896D01*
X120215704Y-96749665D01*
X120241582Y-96753127D01*
X120394194Y-96779009D01*
X120470611Y-96813970D01*
X120496049Y-96873220D01*
X120497600Y-96907544D01*
X120497600Y-97028000D01*
X118313200Y-97028000D01*
X118313200Y-96901000D01*
X118323067Y-96821749D01*
X118371053Y-96784791D01*
X118484733Y-96774331D01*
X118534949Y-96774000D01*
X118771635Y-96735167D01*
X118890549Y-96668712D01*
X119024400Y-96563425D01*
X119024400Y-94515340D01*
X119024589Y-93982654D01*
X119023984Y-93542342D01*
X119020821Y-93185182D01*
X119013339Y-92901955D01*
X118999774Y-92683438D01*
X118978365Y-92520410D01*
X118947348Y-92403650D01*
X118904962Y-92323938D01*
X118849445Y-92272050D01*
X118779033Y-92238767D01*
X118691965Y-92214868D01*
X118586478Y-92191130D01*
X118579900Y-92189597D01*
X118422046Y-92145976D01*
X118341367Y-92100340D01*
X118314353Y-92037050D01*
X118313200Y-92012178D01*
X118313200Y-91897200D01*
X122326400Y-91897200D01*
X122326400Y-92532200D01*
G37*
X122326400Y-92532200D02*
X122325798Y-92795264D01*
X122321956Y-92973318D01*
X122311822Y-93082950D01*
X122292341Y-93140747D01*
X122260462Y-93163300D01*
X122213129Y-93167197D01*
X122209522Y-93167200D01*
X122122071Y-93141083D01*
X122042258Y-93049862D01*
X121978205Y-92931647D01*
X121815616Y-92644466D01*
X121642049Y-92422549D01*
X121470818Y-92282666D01*
X121457009Y-92275205D01*
X121363737Y-92243669D01*
X121216744Y-92221797D01*
X121002110Y-92208464D01*
X120705915Y-92202545D01*
X120550922Y-92202000D01*
X119786400Y-92202000D01*
X119786400Y-94234000D01*
X120271522Y-94234000D01*
X120593248Y-94222680D01*
X120831246Y-94182663D01*
X121001480Y-94104856D01*
X121119913Y-93980169D01*
X121202507Y-93799511D01*
X121235426Y-93685065D01*
X121287422Y-93527867D01*
X121350154Y-93449654D01*
X121404653Y-93430366D01*
X121441926Y-93427348D01*
X121469551Y-93439660D01*
X121488973Y-93480322D01*
X121501636Y-93562351D01*
X121508985Y-93698765D01*
X121512467Y-93902583D01*
X121513526Y-94186822D01*
X121513600Y-94411799D01*
X121513600Y-95409466D01*
X121401368Y-95393233D01*
X121315674Y-95351558D01*
X121262888Y-95241455D01*
X121249419Y-95184849D01*
X121181138Y-94938200D01*
X121083746Y-94760783D01*
X120941920Y-94642471D01*
X120740334Y-94573141D01*
X120463661Y-94542667D01*
X120271522Y-94538800D01*
X119786400Y-94538800D01*
X119786400Y-95529400D01*
X119787507Y-95902028D01*
X119794031Y-96185963D01*
X119810770Y-96394109D01*
X119842525Y-96539371D01*
X119894096Y-96634653D01*
X119970283Y-96692860D01*
X120075886Y-96726896D01*
X120215704Y-96749665D01*
X120241582Y-96753127D01*
X120394194Y-96779009D01*
X120470611Y-96813970D01*
X120496049Y-96873220D01*
X120497600Y-96907544D01*
X120497600Y-97028000D01*
X118313200Y-97028000D01*
X118313200Y-96901000D01*
X118323067Y-96821749D01*
X118371053Y-96784791D01*
X118484733Y-96774331D01*
X118534949Y-96774000D01*
X118771635Y-96735167D01*
X118890549Y-96668712D01*
X119024400Y-96563425D01*
X119024400Y-94515340D01*
X119024589Y-93982654D01*
X119023984Y-93542342D01*
X119020821Y-93185182D01*
X119013339Y-92901955D01*
X118999774Y-92683438D01*
X118978365Y-92520410D01*
X118947348Y-92403650D01*
X118904962Y-92323938D01*
X118849445Y-92272050D01*
X118779033Y-92238767D01*
X118691965Y-92214868D01*
X118586478Y-92191130D01*
X118579900Y-92189597D01*
X118422046Y-92145976D01*
X118341367Y-92100340D01*
X118314353Y-92037050D01*
X118313200Y-92012178D01*
X118313200Y-91897200D01*
X122326400Y-91897200D01*
X122326400Y-92532200D01*
G36*
X110083600Y-92506800D02*
G01*
X110082953Y-92763637D01*
X110078836Y-92935806D01*
X110067982Y-93040236D01*
X110047127Y-93093857D01*
X110013003Y-93113601D01*
X109966008Y-93116400D01*
X109866310Y-93083382D01*
X109781008Y-92972245D01*
X109758415Y-92927662D01*
X109628988Y-92702892D01*
X109470769Y-92496412D01*
X109308262Y-92337688D01*
X109217042Y-92276670D01*
X109122786Y-92244138D01*
X108977229Y-92221759D01*
X108765589Y-92208284D01*
X108473083Y-92202464D01*
X108333522Y-92201999D01*
X107594400Y-92202000D01*
X107594400Y-94234000D01*
X108106307Y-94234000D01*
X108340448Y-94232590D01*
X108496991Y-94224852D01*
X108599932Y-94205519D01*
X108673266Y-94169326D01*
X108740992Y-94111008D01*
X108762124Y-94090090D01*
X108868056Y-93946413D01*
X108952616Y-93768046D01*
X108967218Y-93721790D01*
X109008208Y-93571988D01*
X109039320Y-93459210D01*
X109046407Y-93433900D01*
X109105142Y-93381959D01*
X109167605Y-93370400D01*
X109202651Y-93374100D01*
X109228708Y-93393934D01*
X109247106Y-93443001D01*
X109259177Y-93534400D01*
X109266250Y-93681230D01*
X109269656Y-93896591D01*
X109270725Y-94193581D01*
X109270800Y-94386400D01*
X109270424Y-94731443D01*
X109268409Y-94987986D01*
X109263425Y-95169127D01*
X109254142Y-95287967D01*
X109239229Y-95357604D01*
X109217355Y-95391138D01*
X109187190Y-95401667D01*
X109167605Y-95402400D01*
X109075518Y-95375319D01*
X109046407Y-95338900D01*
X109022721Y-95253571D01*
X108984306Y-95113585D01*
X108967218Y-95051009D01*
X108894914Y-94874616D01*
X108791198Y-94714885D01*
X108762124Y-94682709D01*
X108691685Y-94617282D01*
X108622326Y-94575450D01*
X108530053Y-94551946D01*
X108390868Y-94541504D01*
X108180775Y-94538860D01*
X108106307Y-94538800D01*
X107594400Y-94538800D01*
X107594400Y-95506309D01*
X107594744Y-95842253D01*
X107596933Y-96091794D01*
X107602703Y-96270129D01*
X107613788Y-96392453D01*
X107631923Y-96473964D01*
X107658843Y-96529857D01*
X107696283Y-96575330D01*
X107719090Y-96598509D01*
X107773399Y-96648258D01*
X107832070Y-96682634D01*
X107913855Y-96704463D01*
X108037503Y-96716571D01*
X108221765Y-96721783D01*
X108485393Y-96722925D01*
X108544590Y-96722916D01*
X108819301Y-96719004D01*
X109073697Y-96708501D01*
X109282256Y-96692924D01*
X109419455Y-96673791D01*
X109434915Y-96670000D01*
X109586092Y-96594744D01*
X109735209Y-96448825D01*
X109889327Y-96223244D01*
X110055507Y-95909003D01*
X110091543Y-95833161D01*
X110187698Y-95646144D01*
X110265624Y-95541543D01*
X110336802Y-95504614D01*
X110347940Y-95504000D01*
X110391938Y-95508962D01*
X110419647Y-95535443D01*
X110433177Y-95600834D01*
X110434638Y-95722526D01*
X110426140Y-95917909D01*
X110417269Y-96075500D01*
X110401185Y-96327838D01*
X110383600Y-96562067D01*
X110366929Y-96747901D01*
X110356451Y-96837500D01*
X110328669Y-97028000D01*
X106121200Y-97028000D01*
X106121200Y-96908075D01*
X106132413Y-96836440D01*
X106182626Y-96794696D01*
X106296701Y-96768765D01*
X106387900Y-96757043D01*
X106494620Y-96745363D01*
X106582766Y-96731491D01*
X106654108Y-96706385D01*
X106710419Y-96660998D01*
X106753471Y-96586286D01*
X106785034Y-96473206D01*
X106806883Y-96312711D01*
X106820787Y-96095757D01*
X106828519Y-95813301D01*
X106831850Y-95456296D01*
X106832553Y-95015698D01*
X106832400Y-94488000D01*
X106832582Y-93958916D01*
X106831932Y-93522144D01*
X106828654Y-93168397D01*
X106820952Y-92888391D01*
X106807031Y-92672841D01*
X106785096Y-92512462D01*
X106753349Y-92397969D01*
X106709996Y-92320077D01*
X106653242Y-92269502D01*
X106581289Y-92236958D01*
X106492344Y-92213161D01*
X106387900Y-92189597D01*
X106230046Y-92145976D01*
X106149367Y-92100340D01*
X106122353Y-92037050D01*
X106121200Y-92012178D01*
X106121200Y-91897200D01*
X110083600Y-91897200D01*
X110083600Y-92506800D01*
G37*
X110083600Y-92506800D02*
X110082953Y-92763637D01*
X110078836Y-92935806D01*
X110067982Y-93040236D01*
X110047127Y-93093857D01*
X110013003Y-93113601D01*
X109966008Y-93116400D01*
X109866310Y-93083382D01*
X109781008Y-92972245D01*
X109758415Y-92927662D01*
X109628988Y-92702892D01*
X109470769Y-92496412D01*
X109308262Y-92337688D01*
X109217042Y-92276670D01*
X109122786Y-92244138D01*
X108977229Y-92221759D01*
X108765589Y-92208284D01*
X108473083Y-92202464D01*
X108333522Y-92201999D01*
X107594400Y-92202000D01*
X107594400Y-94234000D01*
X108106307Y-94234000D01*
X108340448Y-94232590D01*
X108496991Y-94224852D01*
X108599932Y-94205519D01*
X108673266Y-94169326D01*
X108740992Y-94111008D01*
X108762124Y-94090090D01*
X108868056Y-93946413D01*
X108952616Y-93768046D01*
X108967218Y-93721790D01*
X109008208Y-93571988D01*
X109039320Y-93459210D01*
X109046407Y-93433900D01*
X109105142Y-93381959D01*
X109167605Y-93370400D01*
X109202651Y-93374100D01*
X109228708Y-93393934D01*
X109247106Y-93443001D01*
X109259177Y-93534400D01*
X109266250Y-93681230D01*
X109269656Y-93896591D01*
X109270725Y-94193581D01*
X109270800Y-94386400D01*
X109270424Y-94731443D01*
X109268409Y-94987986D01*
X109263425Y-95169127D01*
X109254142Y-95287967D01*
X109239229Y-95357604D01*
X109217355Y-95391138D01*
X109187190Y-95401667D01*
X109167605Y-95402400D01*
X109075518Y-95375319D01*
X109046407Y-95338900D01*
X109022721Y-95253571D01*
X108984306Y-95113585D01*
X108967218Y-95051009D01*
X108894914Y-94874616D01*
X108791198Y-94714885D01*
X108762124Y-94682709D01*
X108691685Y-94617282D01*
X108622326Y-94575450D01*
X108530053Y-94551946D01*
X108390868Y-94541504D01*
X108180775Y-94538860D01*
X108106307Y-94538800D01*
X107594400Y-94538800D01*
X107594400Y-95506309D01*
X107594744Y-95842253D01*
X107596933Y-96091794D01*
X107602703Y-96270129D01*
X107613788Y-96392453D01*
X107631923Y-96473964D01*
X107658843Y-96529857D01*
X107696283Y-96575330D01*
X107719090Y-96598509D01*
X107773399Y-96648258D01*
X107832070Y-96682634D01*
X107913855Y-96704463D01*
X108037503Y-96716571D01*
X108221765Y-96721783D01*
X108485393Y-96722925D01*
X108544590Y-96722916D01*
X108819301Y-96719004D01*
X109073697Y-96708501D01*
X109282256Y-96692924D01*
X109419455Y-96673791D01*
X109434915Y-96670000D01*
X109586092Y-96594744D01*
X109735209Y-96448825D01*
X109889327Y-96223244D01*
X110055507Y-95909003D01*
X110091543Y-95833161D01*
X110187698Y-95646144D01*
X110265624Y-95541543D01*
X110336802Y-95504614D01*
X110347940Y-95504000D01*
X110391938Y-95508962D01*
X110419647Y-95535443D01*
X110433177Y-95600834D01*
X110434638Y-95722526D01*
X110426140Y-95917909D01*
X110417269Y-96075500D01*
X110401185Y-96327838D01*
X110383600Y-96562067D01*
X110366929Y-96747901D01*
X110356451Y-96837500D01*
X110328669Y-97028000D01*
X106121200Y-97028000D01*
X106121200Y-96908075D01*
X106132413Y-96836440D01*
X106182626Y-96794696D01*
X106296701Y-96768765D01*
X106387900Y-96757043D01*
X106494620Y-96745363D01*
X106582766Y-96731491D01*
X106654108Y-96706385D01*
X106710419Y-96660998D01*
X106753471Y-96586286D01*
X106785034Y-96473206D01*
X106806883Y-96312711D01*
X106820787Y-96095757D01*
X106828519Y-95813301D01*
X106831850Y-95456296D01*
X106832553Y-95015698D01*
X106832400Y-94488000D01*
X106832582Y-93958916D01*
X106831932Y-93522144D01*
X106828654Y-93168397D01*
X106820952Y-92888391D01*
X106807031Y-92672841D01*
X106785096Y-92512462D01*
X106753349Y-92397969D01*
X106709996Y-92320077D01*
X106653242Y-92269502D01*
X106581289Y-92236958D01*
X106492344Y-92213161D01*
X106387900Y-92189597D01*
X106230046Y-92145976D01*
X106149367Y-92100340D01*
X106122353Y-92037050D01*
X106121200Y-92012178D01*
X106121200Y-91897200D01*
X110083600Y-91897200D01*
X110083600Y-92506800D01*
G36*
X99822000Y-92506800D02*
G01*
X99821353Y-92763637D01*
X99817236Y-92935806D01*
X99806382Y-93040236D01*
X99785527Y-93093857D01*
X99751403Y-93113601D01*
X99704408Y-93116400D01*
X99604710Y-93083382D01*
X99519408Y-92972245D01*
X99496815Y-92927662D01*
X99367388Y-92702892D01*
X99209169Y-92496412D01*
X99046662Y-92337688D01*
X98955442Y-92276670D01*
X98861186Y-92244138D01*
X98715629Y-92221759D01*
X98503989Y-92208284D01*
X98211483Y-92202464D01*
X98071922Y-92201999D01*
X97332800Y-92202000D01*
X97332800Y-94234000D01*
X97844707Y-94234000D01*
X98078848Y-94232590D01*
X98235391Y-94224852D01*
X98338332Y-94205519D01*
X98411666Y-94169326D01*
X98479392Y-94111008D01*
X98500524Y-94090090D01*
X98606456Y-93946413D01*
X98691016Y-93768046D01*
X98705618Y-93721790D01*
X98746608Y-93571988D01*
X98777720Y-93459210D01*
X98784807Y-93433900D01*
X98843542Y-93381959D01*
X98906005Y-93370400D01*
X98941051Y-93374100D01*
X98967108Y-93393934D01*
X98985506Y-93443001D01*
X98997577Y-93534400D01*
X99004650Y-93681230D01*
X99008056Y-93896591D01*
X99009125Y-94193581D01*
X99009200Y-94386400D01*
X99008824Y-94731443D01*
X99006809Y-94987986D01*
X99001825Y-95169127D01*
X98992542Y-95287967D01*
X98977629Y-95357604D01*
X98955755Y-95391138D01*
X98925590Y-95401667D01*
X98906005Y-95402400D01*
X98813918Y-95375319D01*
X98784807Y-95338900D01*
X98761121Y-95253571D01*
X98722706Y-95113585D01*
X98705618Y-95051009D01*
X98633314Y-94874616D01*
X98529598Y-94714885D01*
X98500524Y-94682709D01*
X98430085Y-94617282D01*
X98360726Y-94575450D01*
X98268453Y-94551946D01*
X98129268Y-94541504D01*
X97919175Y-94538860D01*
X97844707Y-94538800D01*
X97332800Y-94538800D01*
X97332800Y-95506309D01*
X97333144Y-95842253D01*
X97335333Y-96091794D01*
X97341103Y-96270129D01*
X97352188Y-96392453D01*
X97370323Y-96473964D01*
X97397243Y-96529857D01*
X97434683Y-96575330D01*
X97457490Y-96598509D01*
X97511799Y-96648258D01*
X97570470Y-96682634D01*
X97652255Y-96704463D01*
X97775903Y-96716571D01*
X97960165Y-96721783D01*
X98223793Y-96722925D01*
X98282990Y-96722916D01*
X98557701Y-96719004D01*
X98812097Y-96708501D01*
X99020656Y-96692924D01*
X99157855Y-96673791D01*
X99173315Y-96670000D01*
X99324492Y-96594744D01*
X99473609Y-96448825D01*
X99627727Y-96223244D01*
X99793907Y-95909003D01*
X99829943Y-95833161D01*
X99926098Y-95646144D01*
X100004024Y-95541543D01*
X100075202Y-95504614D01*
X100086340Y-95504000D01*
X100130338Y-95508962D01*
X100158047Y-95535443D01*
X100171577Y-95600834D01*
X100173038Y-95722526D01*
X100164540Y-95917909D01*
X100155669Y-96075500D01*
X100139585Y-96327838D01*
X100122000Y-96562067D01*
X100105329Y-96747901D01*
X100094851Y-96837500D01*
X100067069Y-97028000D01*
X95859600Y-97028000D01*
X95859600Y-96908075D01*
X95870813Y-96836440D01*
X95921026Y-96794696D01*
X96035101Y-96768765D01*
X96126300Y-96757043D01*
X96233020Y-96745363D01*
X96321166Y-96731491D01*
X96392508Y-96706385D01*
X96448819Y-96660998D01*
X96491871Y-96586286D01*
X96523434Y-96473206D01*
X96545283Y-96312711D01*
X96559187Y-96095757D01*
X96566919Y-95813301D01*
X96570250Y-95456296D01*
X96570953Y-95015698D01*
X96570800Y-94488000D01*
X96570982Y-93958916D01*
X96570332Y-93522144D01*
X96567054Y-93168397D01*
X96559352Y-92888391D01*
X96545431Y-92672841D01*
X96523496Y-92512462D01*
X96491749Y-92397969D01*
X96448396Y-92320077D01*
X96391642Y-92269502D01*
X96319689Y-92236958D01*
X96230744Y-92213161D01*
X96126300Y-92189597D01*
X95968446Y-92145976D01*
X95887767Y-92100340D01*
X95860753Y-92037050D01*
X95859600Y-92012178D01*
X95859600Y-91897200D01*
X99822000Y-91897200D01*
X99822000Y-92506800D01*
G37*
X99822000Y-92506800D02*
X99821353Y-92763637D01*
X99817236Y-92935806D01*
X99806382Y-93040236D01*
X99785527Y-93093857D01*
X99751403Y-93113601D01*
X99704408Y-93116400D01*
X99604710Y-93083382D01*
X99519408Y-92972245D01*
X99496815Y-92927662D01*
X99367388Y-92702892D01*
X99209169Y-92496412D01*
X99046662Y-92337688D01*
X98955442Y-92276670D01*
X98861186Y-92244138D01*
X98715629Y-92221759D01*
X98503989Y-92208284D01*
X98211483Y-92202464D01*
X98071922Y-92201999D01*
X97332800Y-92202000D01*
X97332800Y-94234000D01*
X97844707Y-94234000D01*
X98078848Y-94232590D01*
X98235391Y-94224852D01*
X98338332Y-94205519D01*
X98411666Y-94169326D01*
X98479392Y-94111008D01*
X98500524Y-94090090D01*
X98606456Y-93946413D01*
X98691016Y-93768046D01*
X98705618Y-93721790D01*
X98746608Y-93571988D01*
X98777720Y-93459210D01*
X98784807Y-93433900D01*
X98843542Y-93381959D01*
X98906005Y-93370400D01*
X98941051Y-93374100D01*
X98967108Y-93393934D01*
X98985506Y-93443001D01*
X98997577Y-93534400D01*
X99004650Y-93681230D01*
X99008056Y-93896591D01*
X99009125Y-94193581D01*
X99009200Y-94386400D01*
X99008824Y-94731443D01*
X99006809Y-94987986D01*
X99001825Y-95169127D01*
X98992542Y-95287967D01*
X98977629Y-95357604D01*
X98955755Y-95391138D01*
X98925590Y-95401667D01*
X98906005Y-95402400D01*
X98813918Y-95375319D01*
X98784807Y-95338900D01*
X98761121Y-95253571D01*
X98722706Y-95113585D01*
X98705618Y-95051009D01*
X98633314Y-94874616D01*
X98529598Y-94714885D01*
X98500524Y-94682709D01*
X98430085Y-94617282D01*
X98360726Y-94575450D01*
X98268453Y-94551946D01*
X98129268Y-94541504D01*
X97919175Y-94538860D01*
X97844707Y-94538800D01*
X97332800Y-94538800D01*
X97332800Y-95506309D01*
X97333144Y-95842253D01*
X97335333Y-96091794D01*
X97341103Y-96270129D01*
X97352188Y-96392453D01*
X97370323Y-96473964D01*
X97397243Y-96529857D01*
X97434683Y-96575330D01*
X97457490Y-96598509D01*
X97511799Y-96648258D01*
X97570470Y-96682634D01*
X97652255Y-96704463D01*
X97775903Y-96716571D01*
X97960165Y-96721783D01*
X98223793Y-96722925D01*
X98282990Y-96722916D01*
X98557701Y-96719004D01*
X98812097Y-96708501D01*
X99020656Y-96692924D01*
X99157855Y-96673791D01*
X99173315Y-96670000D01*
X99324492Y-96594744D01*
X99473609Y-96448825D01*
X99627727Y-96223244D01*
X99793907Y-95909003D01*
X99829943Y-95833161D01*
X99926098Y-95646144D01*
X100004024Y-95541543D01*
X100075202Y-95504614D01*
X100086340Y-95504000D01*
X100130338Y-95508962D01*
X100158047Y-95535443D01*
X100171577Y-95600834D01*
X100173038Y-95722526D01*
X100164540Y-95917909D01*
X100155669Y-96075500D01*
X100139585Y-96327838D01*
X100122000Y-96562067D01*
X100105329Y-96747901D01*
X100094851Y-96837500D01*
X100067069Y-97028000D01*
X95859600Y-97028000D01*
X95859600Y-96908075D01*
X95870813Y-96836440D01*
X95921026Y-96794696D01*
X96035101Y-96768765D01*
X96126300Y-96757043D01*
X96233020Y-96745363D01*
X96321166Y-96731491D01*
X96392508Y-96706385D01*
X96448819Y-96660998D01*
X96491871Y-96586286D01*
X96523434Y-96473206D01*
X96545283Y-96312711D01*
X96559187Y-96095757D01*
X96566919Y-95813301D01*
X96570250Y-95456296D01*
X96570953Y-95015698D01*
X96570800Y-94488000D01*
X96570982Y-93958916D01*
X96570332Y-93522144D01*
X96567054Y-93168397D01*
X96559352Y-92888391D01*
X96545431Y-92672841D01*
X96523496Y-92512462D01*
X96491749Y-92397969D01*
X96448396Y-92320077D01*
X96391642Y-92269502D01*
X96319689Y-92236958D01*
X96230744Y-92213161D01*
X96126300Y-92189597D01*
X95968446Y-92145976D01*
X95887767Y-92100340D01*
X95860753Y-92037050D01*
X95859600Y-92012178D01*
X95859600Y-91897200D01*
X99822000Y-91897200D01*
X99822000Y-92506800D01*
G36*
X93522800Y-92017593D02*
G01*
X93509606Y-92094117D01*
X93452313Y-92135982D01*
X93324350Y-92160221D01*
X93294932Y-92163670D01*
X93122253Y-92198784D01*
X92971456Y-92254792D01*
X92939332Y-92273048D01*
X92811600Y-92356742D01*
X92811600Y-94428661D01*
X92812133Y-94958229D01*
X92813931Y-95395083D01*
X92817287Y-95748104D01*
X92822497Y-96026172D01*
X92829854Y-96238168D01*
X92839654Y-96392975D01*
X92852191Y-96499472D01*
X92867759Y-96566540D01*
X92883602Y-96599190D01*
X92926133Y-96642007D01*
X92992571Y-96671641D01*
X93101751Y-96691298D01*
X93272512Y-96704184D01*
X93523690Y-96713504D01*
X93561540Y-96714574D01*
X93909307Y-96718774D01*
X94174049Y-96706161D01*
X94373650Y-96671746D01*
X94525995Y-96610539D01*
X94648968Y-96517549D01*
X94760454Y-96387785D01*
X94767676Y-96378031D01*
X94888090Y-96199880D01*
X95019483Y-95983893D01*
X95109424Y-95821687D01*
X95224971Y-95625668D01*
X95318647Y-95523072D01*
X95370368Y-95504187D01*
X95411875Y-95510714D01*
X95437292Y-95542278D01*
X95448599Y-95616554D01*
X95447779Y-95751221D01*
X95436812Y-95963954D01*
X95431564Y-96050100D01*
X95414539Y-96301674D01*
X95395889Y-96539353D01*
X95378339Y-96729987D01*
X95368928Y-96812100D01*
X95340063Y-97028000D01*
X91338400Y-97028000D01*
X91338400Y-96907463D01*
X91349187Y-96835480D01*
X91398301Y-96794768D01*
X91510871Y-96771417D01*
X91601870Y-96761610D01*
X91709426Y-96751870D01*
X91798244Y-96739221D01*
X91870114Y-96714638D01*
X91926826Y-96669099D01*
X91970169Y-96593580D01*
X92001933Y-96479058D01*
X92023909Y-96316509D01*
X92037886Y-96096912D01*
X92045654Y-95811241D01*
X92049003Y-95450474D01*
X92049722Y-95005588D01*
X92049600Y-94504432D01*
X92048353Y-94001332D01*
X92044741Y-93552382D01*
X92038955Y-93165737D01*
X92031188Y-92849548D01*
X92021630Y-92611969D01*
X92010474Y-92461152D01*
X92000282Y-92407969D01*
X91918798Y-92329785D01*
X91776219Y-92249330D01*
X91611079Y-92184232D01*
X91461915Y-92152118D01*
X91438971Y-92151199D01*
X91359954Y-92120898D01*
X91338400Y-92024200D01*
X91338400Y-91897200D01*
X93522800Y-91897200D01*
X93522800Y-92017593D01*
G37*
X93522800Y-92017593D02*
X93509606Y-92094117D01*
X93452313Y-92135982D01*
X93324350Y-92160221D01*
X93294932Y-92163670D01*
X93122253Y-92198784D01*
X92971456Y-92254792D01*
X92939332Y-92273048D01*
X92811600Y-92356742D01*
X92811600Y-94428661D01*
X92812133Y-94958229D01*
X92813931Y-95395083D01*
X92817287Y-95748104D01*
X92822497Y-96026172D01*
X92829854Y-96238168D01*
X92839654Y-96392975D01*
X92852191Y-96499472D01*
X92867759Y-96566540D01*
X92883602Y-96599190D01*
X92926133Y-96642007D01*
X92992571Y-96671641D01*
X93101751Y-96691298D01*
X93272512Y-96704184D01*
X93523690Y-96713504D01*
X93561540Y-96714574D01*
X93909307Y-96718774D01*
X94174049Y-96706161D01*
X94373650Y-96671746D01*
X94525995Y-96610539D01*
X94648968Y-96517549D01*
X94760454Y-96387785D01*
X94767676Y-96378031D01*
X94888090Y-96199880D01*
X95019483Y-95983893D01*
X95109424Y-95821687D01*
X95224971Y-95625668D01*
X95318647Y-95523072D01*
X95370368Y-95504187D01*
X95411875Y-95510714D01*
X95437292Y-95542278D01*
X95448599Y-95616554D01*
X95447779Y-95751221D01*
X95436812Y-95963954D01*
X95431564Y-96050100D01*
X95414539Y-96301674D01*
X95395889Y-96539353D01*
X95378339Y-96729987D01*
X95368928Y-96812100D01*
X95340063Y-97028000D01*
X91338400Y-97028000D01*
X91338400Y-96907463D01*
X91349187Y-96835480D01*
X91398301Y-96794768D01*
X91510871Y-96771417D01*
X91601870Y-96761610D01*
X91709426Y-96751870D01*
X91798244Y-96739221D01*
X91870114Y-96714638D01*
X91926826Y-96669099D01*
X91970169Y-96593580D01*
X92001933Y-96479058D01*
X92023909Y-96316509D01*
X92037886Y-96096912D01*
X92045654Y-95811241D01*
X92049003Y-95450474D01*
X92049722Y-95005588D01*
X92049600Y-94504432D01*
X92048353Y-94001332D01*
X92044741Y-93552382D01*
X92038955Y-93165737D01*
X92031188Y-92849548D01*
X92021630Y-92611969D01*
X92010474Y-92461152D01*
X92000282Y-92407969D01*
X91918798Y-92329785D01*
X91776219Y-92249330D01*
X91611079Y-92184232D01*
X91461915Y-92152118D01*
X91438971Y-92151199D01*
X91359954Y-92120898D01*
X91338400Y-92024200D01*
X91338400Y-91897200D01*
X93522800Y-91897200D01*
X93522800Y-92017593D01*
G36*
X89001600Y-92017593D02*
G01*
X88988406Y-92094117D01*
X88931113Y-92135982D01*
X88803150Y-92160221D01*
X88773732Y-92163670D01*
X88601053Y-92198784D01*
X88450256Y-92254792D01*
X88418132Y-92273048D01*
X88290400Y-92356742D01*
X88290400Y-94428661D01*
X88290933Y-94958229D01*
X88292731Y-95395083D01*
X88296087Y-95748104D01*
X88301297Y-96026172D01*
X88308654Y-96238168D01*
X88318454Y-96392975D01*
X88330991Y-96499472D01*
X88346559Y-96566540D01*
X88362402Y-96599190D01*
X88404933Y-96642007D01*
X88471371Y-96671641D01*
X88580551Y-96691298D01*
X88751312Y-96704184D01*
X89002490Y-96713504D01*
X89040340Y-96714574D01*
X89388107Y-96718774D01*
X89652849Y-96706161D01*
X89852450Y-96671746D01*
X90004795Y-96610539D01*
X90127768Y-96517549D01*
X90239254Y-96387785D01*
X90246476Y-96378031D01*
X90366890Y-96199880D01*
X90498283Y-95983893D01*
X90588224Y-95821687D01*
X90703771Y-95625668D01*
X90797447Y-95523072D01*
X90849168Y-95504187D01*
X90890675Y-95510714D01*
X90916092Y-95542278D01*
X90927399Y-95616554D01*
X90926579Y-95751221D01*
X90915612Y-95963954D01*
X90910364Y-96050100D01*
X90893339Y-96301674D01*
X90874689Y-96539353D01*
X90857139Y-96729987D01*
X90847728Y-96812100D01*
X90818863Y-97028000D01*
X86817200Y-97028000D01*
X86817200Y-96907463D01*
X86827987Y-96835480D01*
X86877101Y-96794768D01*
X86989671Y-96771417D01*
X87080670Y-96761610D01*
X87188226Y-96751870D01*
X87277044Y-96739221D01*
X87348914Y-96714638D01*
X87405626Y-96669099D01*
X87448969Y-96593580D01*
X87480733Y-96479058D01*
X87502709Y-96316509D01*
X87516686Y-96096912D01*
X87524454Y-95811241D01*
X87527803Y-95450474D01*
X87528522Y-95005588D01*
X87528400Y-94504432D01*
X87527153Y-94001332D01*
X87523541Y-93552382D01*
X87517755Y-93165737D01*
X87509988Y-92849548D01*
X87500430Y-92611969D01*
X87489274Y-92461152D01*
X87479082Y-92407969D01*
X87397598Y-92329785D01*
X87255019Y-92249330D01*
X87089879Y-92184232D01*
X86940715Y-92152118D01*
X86917771Y-92151199D01*
X86838754Y-92120898D01*
X86817200Y-92024200D01*
X86817200Y-91897200D01*
X89001600Y-91897200D01*
X89001600Y-92017593D01*
G37*
X89001600Y-92017593D02*
X88988406Y-92094117D01*
X88931113Y-92135982D01*
X88803150Y-92160221D01*
X88773732Y-92163670D01*
X88601053Y-92198784D01*
X88450256Y-92254792D01*
X88418132Y-92273048D01*
X88290400Y-92356742D01*
X88290400Y-94428661D01*
X88290933Y-94958229D01*
X88292731Y-95395083D01*
X88296087Y-95748104D01*
X88301297Y-96026172D01*
X88308654Y-96238168D01*
X88318454Y-96392975D01*
X88330991Y-96499472D01*
X88346559Y-96566540D01*
X88362402Y-96599190D01*
X88404933Y-96642007D01*
X88471371Y-96671641D01*
X88580551Y-96691298D01*
X88751312Y-96704184D01*
X89002490Y-96713504D01*
X89040340Y-96714574D01*
X89388107Y-96718774D01*
X89652849Y-96706161D01*
X89852450Y-96671746D01*
X90004795Y-96610539D01*
X90127768Y-96517549D01*
X90239254Y-96387785D01*
X90246476Y-96378031D01*
X90366890Y-96199880D01*
X90498283Y-95983893D01*
X90588224Y-95821687D01*
X90703771Y-95625668D01*
X90797447Y-95523072D01*
X90849168Y-95504187D01*
X90890675Y-95510714D01*
X90916092Y-95542278D01*
X90927399Y-95616554D01*
X90926579Y-95751221D01*
X90915612Y-95963954D01*
X90910364Y-96050100D01*
X90893339Y-96301674D01*
X90874689Y-96539353D01*
X90857139Y-96729987D01*
X90847728Y-96812100D01*
X90818863Y-97028000D01*
X86817200Y-97028000D01*
X86817200Y-96907463D01*
X86827987Y-96835480D01*
X86877101Y-96794768D01*
X86989671Y-96771417D01*
X87080670Y-96761610D01*
X87188226Y-96751870D01*
X87277044Y-96739221D01*
X87348914Y-96714638D01*
X87405626Y-96669099D01*
X87448969Y-96593580D01*
X87480733Y-96479058D01*
X87502709Y-96316509D01*
X87516686Y-96096912D01*
X87524454Y-95811241D01*
X87527803Y-95450474D01*
X87528522Y-95005588D01*
X87528400Y-94504432D01*
X87527153Y-94001332D01*
X87523541Y-93552382D01*
X87517755Y-93165737D01*
X87509988Y-92849548D01*
X87500430Y-92611969D01*
X87489274Y-92461152D01*
X87479082Y-92407969D01*
X87397598Y-92329785D01*
X87255019Y-92249330D01*
X87089879Y-92184232D01*
X86940715Y-92152118D01*
X86917771Y-92151199D01*
X86838754Y-92120898D01*
X86817200Y-92024200D01*
X86817200Y-91897200D01*
X89001600Y-91897200D01*
X89001600Y-92017593D01*
G36*
X172364400Y-92017707D02*
G01*
X172348488Y-92098284D01*
X172282748Y-92143748D01*
X172155867Y-92171560D01*
X171899388Y-92235760D01*
X171726928Y-92337569D01*
X171624968Y-92486153D01*
X171605048Y-92544981D01*
X171591368Y-92647053D01*
X171579483Y-92844439D01*
X171569534Y-93130867D01*
X171561664Y-93500064D01*
X171556012Y-93945760D01*
X171552721Y-94461680D01*
X171551883Y-94907100D01*
X171551600Y-97078800D01*
X171409604Y-97078800D01*
X171373285Y-97072685D01*
X171329732Y-97050053D01*
X171273716Y-97004468D01*
X171200012Y-96929494D01*
X171103393Y-96818697D01*
X170978632Y-96665641D01*
X170820504Y-96463893D01*
X170623780Y-96207016D01*
X170383235Y-95888576D01*
X170093642Y-95502138D01*
X169749775Y-95041267D01*
X169695104Y-94967886D01*
X168122600Y-92856973D01*
X168109204Y-94479160D01*
X168106318Y-94978483D01*
X168106880Y-95384801D01*
X168111129Y-95706657D01*
X168119305Y-95952595D01*
X168131645Y-96131159D01*
X168148390Y-96250894D01*
X168160004Y-96296117D01*
X168278111Y-96498513D01*
X168474773Y-96651113D01*
X168734552Y-96742691D01*
X168786721Y-96751813D01*
X168927851Y-96780596D01*
X168993955Y-96822877D01*
X169011497Y-96896891D01*
X169011600Y-96906768D01*
X169011600Y-97028000D01*
X166928800Y-97028000D01*
X166928800Y-96913021D01*
X166944401Y-96841162D01*
X167006866Y-96791539D01*
X167139689Y-96748413D01*
X167194681Y-96734885D01*
X167392162Y-96676901D01*
X167533080Y-96600163D01*
X167629008Y-96486861D01*
X167691518Y-96319181D01*
X167732185Y-96079312D01*
X167752360Y-95876556D01*
X167765153Y-95665144D01*
X167775207Y-95374844D01*
X167782139Y-95028343D01*
X167785563Y-94648327D01*
X167785095Y-94257482D01*
X167783171Y-94056200D01*
X167777602Y-93660501D01*
X167771460Y-93352929D01*
X167763624Y-93120010D01*
X167752972Y-92948274D01*
X167738383Y-92824247D01*
X167718735Y-92734457D01*
X167692906Y-92665432D01*
X167662653Y-92608572D01*
X167482671Y-92394137D01*
X167242608Y-92237929D01*
X167021718Y-92169319D01*
X166892199Y-92137892D01*
X166836747Y-92085506D01*
X166827200Y-92017707D01*
X166827200Y-91897200D01*
X167551100Y-91900191D01*
X168275000Y-91903183D01*
X169722800Y-93859760D01*
X171170600Y-95816336D01*
X171185621Y-94377468D01*
X171188441Y-93992945D01*
X171188850Y-93631093D01*
X171187005Y-93307454D01*
X171183062Y-93037575D01*
X171177178Y-92836997D01*
X171169511Y-92721267D01*
X171168852Y-92716321D01*
X171104805Y-92501267D01*
X170975615Y-92346622D01*
X170768790Y-92240632D01*
X170619468Y-92199275D01*
X170455327Y-92157162D01*
X170368486Y-92115183D01*
X170335748Y-92058537D01*
X170332400Y-92016116D01*
X170332400Y-91897200D01*
X172364400Y-91897200D01*
X172364400Y-92017707D01*
G37*
X172364400Y-92017707D02*
X172348488Y-92098284D01*
X172282748Y-92143748D01*
X172155867Y-92171560D01*
X171899388Y-92235760D01*
X171726928Y-92337569D01*
X171624968Y-92486153D01*
X171605048Y-92544981D01*
X171591368Y-92647053D01*
X171579483Y-92844439D01*
X171569534Y-93130867D01*
X171561664Y-93500064D01*
X171556012Y-93945760D01*
X171552721Y-94461680D01*
X171551883Y-94907100D01*
X171551600Y-97078800D01*
X171409604Y-97078800D01*
X171373285Y-97072685D01*
X171329732Y-97050053D01*
X171273716Y-97004468D01*
X171200012Y-96929494D01*
X171103393Y-96818697D01*
X170978632Y-96665641D01*
X170820504Y-96463893D01*
X170623780Y-96207016D01*
X170383235Y-95888576D01*
X170093642Y-95502138D01*
X169749775Y-95041267D01*
X169695104Y-94967886D01*
X168122600Y-92856973D01*
X168109204Y-94479160D01*
X168106318Y-94978483D01*
X168106880Y-95384801D01*
X168111129Y-95706657D01*
X168119305Y-95952595D01*
X168131645Y-96131159D01*
X168148390Y-96250894D01*
X168160004Y-96296117D01*
X168278111Y-96498513D01*
X168474773Y-96651113D01*
X168734552Y-96742691D01*
X168786721Y-96751813D01*
X168927851Y-96780596D01*
X168993955Y-96822877D01*
X169011497Y-96896891D01*
X169011600Y-96906768D01*
X169011600Y-97028000D01*
X166928800Y-97028000D01*
X166928800Y-96913021D01*
X166944401Y-96841162D01*
X167006866Y-96791539D01*
X167139689Y-96748413D01*
X167194681Y-96734885D01*
X167392162Y-96676901D01*
X167533080Y-96600163D01*
X167629008Y-96486861D01*
X167691518Y-96319181D01*
X167732185Y-96079312D01*
X167752360Y-95876556D01*
X167765153Y-95665144D01*
X167775207Y-95374844D01*
X167782139Y-95028343D01*
X167785563Y-94648327D01*
X167785095Y-94257482D01*
X167783171Y-94056200D01*
X167777602Y-93660501D01*
X167771460Y-93352929D01*
X167763624Y-93120010D01*
X167752972Y-92948274D01*
X167738383Y-92824247D01*
X167718735Y-92734457D01*
X167692906Y-92665432D01*
X167662653Y-92608572D01*
X167482671Y-92394137D01*
X167242608Y-92237929D01*
X167021718Y-92169319D01*
X166892199Y-92137892D01*
X166836747Y-92085506D01*
X166827200Y-92017707D01*
X166827200Y-91897200D01*
X167551100Y-91900191D01*
X168275000Y-91903183D01*
X169722800Y-93859760D01*
X171170600Y-95816336D01*
X171185621Y-94377468D01*
X171188441Y-93992945D01*
X171188850Y-93631093D01*
X171187005Y-93307454D01*
X171183062Y-93037575D01*
X171177178Y-92836997D01*
X171169511Y-92721267D01*
X171168852Y-92716321D01*
X171104805Y-92501267D01*
X170975615Y-92346622D01*
X170768790Y-92240632D01*
X170619468Y-92199275D01*
X170455327Y-92157162D01*
X170368486Y-92115183D01*
X170335748Y-92058537D01*
X170332400Y-92016116D01*
X170332400Y-91897200D01*
X172364400Y-91897200D01*
X172364400Y-92017707D01*
G36*
X148793200Y-92017707D02*
G01*
X148777288Y-92098284D01*
X148711548Y-92143748D01*
X148584667Y-92171560D01*
X148328188Y-92235760D01*
X148155728Y-92337569D01*
X148053768Y-92486153D01*
X148033848Y-92544981D01*
X148020168Y-92647053D01*
X148008283Y-92844439D01*
X147998334Y-93130867D01*
X147990464Y-93500064D01*
X147984812Y-93945760D01*
X147981521Y-94461680D01*
X147980683Y-94907100D01*
X147980400Y-97078800D01*
X147838404Y-97078800D01*
X147802085Y-97072685D01*
X147758532Y-97050053D01*
X147702516Y-97004468D01*
X147628812Y-96929494D01*
X147532193Y-96818697D01*
X147407432Y-96665641D01*
X147249304Y-96463893D01*
X147052580Y-96207016D01*
X146812035Y-95888576D01*
X146522442Y-95502138D01*
X146178575Y-95041267D01*
X146123904Y-94967886D01*
X144551400Y-92856973D01*
X144538004Y-94479160D01*
X144535118Y-94978483D01*
X144535680Y-95384801D01*
X144539929Y-95706657D01*
X144548105Y-95952595D01*
X144560445Y-96131159D01*
X144577190Y-96250894D01*
X144588804Y-96296117D01*
X144706911Y-96498513D01*
X144903573Y-96651113D01*
X145163352Y-96742691D01*
X145215521Y-96751813D01*
X145356651Y-96780596D01*
X145422755Y-96822877D01*
X145440297Y-96896891D01*
X145440400Y-96906768D01*
X145440400Y-97028000D01*
X143357600Y-97028000D01*
X143357600Y-96913021D01*
X143373201Y-96841162D01*
X143435666Y-96791539D01*
X143568489Y-96748413D01*
X143623481Y-96734885D01*
X143820962Y-96676901D01*
X143961880Y-96600163D01*
X144057808Y-96486861D01*
X144120318Y-96319181D01*
X144160985Y-96079312D01*
X144181160Y-95876556D01*
X144193953Y-95665144D01*
X144204007Y-95374844D01*
X144210939Y-95028343D01*
X144214363Y-94648327D01*
X144213895Y-94257482D01*
X144211971Y-94056200D01*
X144206402Y-93660501D01*
X144200260Y-93352929D01*
X144192424Y-93120010D01*
X144181772Y-92948274D01*
X144167183Y-92824247D01*
X144147535Y-92734457D01*
X144121706Y-92665432D01*
X144091453Y-92608572D01*
X143911471Y-92394137D01*
X143671408Y-92237929D01*
X143450518Y-92169319D01*
X143320999Y-92137892D01*
X143265547Y-92085506D01*
X143256000Y-92017707D01*
X143256000Y-91897200D01*
X143979900Y-91900191D01*
X144703800Y-91903183D01*
X146151600Y-93859760D01*
X147599400Y-95816336D01*
X147614421Y-94377468D01*
X147617241Y-93992945D01*
X147617650Y-93631093D01*
X147615805Y-93307454D01*
X147611862Y-93037575D01*
X147605978Y-92836997D01*
X147598311Y-92721267D01*
X147597652Y-92716321D01*
X147533605Y-92501267D01*
X147404415Y-92346622D01*
X147197590Y-92240632D01*
X147048268Y-92199275D01*
X146884127Y-92157162D01*
X146797286Y-92115183D01*
X146764548Y-92058537D01*
X146761200Y-92016116D01*
X146761200Y-91897200D01*
X148793200Y-91897200D01*
X148793200Y-92017707D01*
G37*
X148793200Y-92017707D02*
X148777288Y-92098284D01*
X148711548Y-92143748D01*
X148584667Y-92171560D01*
X148328188Y-92235760D01*
X148155728Y-92337569D01*
X148053768Y-92486153D01*
X148033848Y-92544981D01*
X148020168Y-92647053D01*
X148008283Y-92844439D01*
X147998334Y-93130867D01*
X147990464Y-93500064D01*
X147984812Y-93945760D01*
X147981521Y-94461680D01*
X147980683Y-94907100D01*
X147980400Y-97078800D01*
X147838404Y-97078800D01*
X147802085Y-97072685D01*
X147758532Y-97050053D01*
X147702516Y-97004468D01*
X147628812Y-96929494D01*
X147532193Y-96818697D01*
X147407432Y-96665641D01*
X147249304Y-96463893D01*
X147052580Y-96207016D01*
X146812035Y-95888576D01*
X146522442Y-95502138D01*
X146178575Y-95041267D01*
X146123904Y-94967886D01*
X144551400Y-92856973D01*
X144538004Y-94479160D01*
X144535118Y-94978483D01*
X144535680Y-95384801D01*
X144539929Y-95706657D01*
X144548105Y-95952595D01*
X144560445Y-96131159D01*
X144577190Y-96250894D01*
X144588804Y-96296117D01*
X144706911Y-96498513D01*
X144903573Y-96651113D01*
X145163352Y-96742691D01*
X145215521Y-96751813D01*
X145356651Y-96780596D01*
X145422755Y-96822877D01*
X145440297Y-96896891D01*
X145440400Y-96906768D01*
X145440400Y-97028000D01*
X143357600Y-97028000D01*
X143357600Y-96913021D01*
X143373201Y-96841162D01*
X143435666Y-96791539D01*
X143568489Y-96748413D01*
X143623481Y-96734885D01*
X143820962Y-96676901D01*
X143961880Y-96600163D01*
X144057808Y-96486861D01*
X144120318Y-96319181D01*
X144160985Y-96079312D01*
X144181160Y-95876556D01*
X144193953Y-95665144D01*
X144204007Y-95374844D01*
X144210939Y-95028343D01*
X144214363Y-94648327D01*
X144213895Y-94257482D01*
X144211971Y-94056200D01*
X144206402Y-93660501D01*
X144200260Y-93352929D01*
X144192424Y-93120010D01*
X144181772Y-92948274D01*
X144167183Y-92824247D01*
X144147535Y-92734457D01*
X144121706Y-92665432D01*
X144091453Y-92608572D01*
X143911471Y-92394137D01*
X143671408Y-92237929D01*
X143450518Y-92169319D01*
X143320999Y-92137892D01*
X143265547Y-92085506D01*
X143256000Y-92017707D01*
X143256000Y-91897200D01*
X143979900Y-91900191D01*
X144703800Y-91903183D01*
X146151600Y-93859760D01*
X147599400Y-95816336D01*
X147614421Y-94377468D01*
X147617241Y-93992945D01*
X147617650Y-93631093D01*
X147615805Y-93307454D01*
X147611862Y-93037575D01*
X147605978Y-92836997D01*
X147598311Y-92721267D01*
X147597652Y-92716321D01*
X147533605Y-92501267D01*
X147404415Y-92346622D01*
X147197590Y-92240632D01*
X147048268Y-92199275D01*
X146884127Y-92157162D01*
X146797286Y-92115183D01*
X146764548Y-92058537D01*
X146761200Y-92016116D01*
X146761200Y-91897200D01*
X148793200Y-91897200D01*
X148793200Y-92017707D01*
G36*
X134721600Y-92017707D02*
G01*
X134705688Y-92098284D01*
X134639948Y-92143748D01*
X134513067Y-92171560D01*
X134256588Y-92235760D01*
X134084128Y-92337569D01*
X133982168Y-92486153D01*
X133962248Y-92544981D01*
X133948568Y-92647053D01*
X133936683Y-92844439D01*
X133926734Y-93130867D01*
X133918864Y-93500064D01*
X133913212Y-93945760D01*
X133909921Y-94461680D01*
X133909083Y-94907100D01*
X133908800Y-97078800D01*
X133766804Y-97078800D01*
X133730485Y-97072685D01*
X133686932Y-97050053D01*
X133630916Y-97004468D01*
X133557212Y-96929494D01*
X133460593Y-96818697D01*
X133335832Y-96665641D01*
X133177704Y-96463893D01*
X132980980Y-96207016D01*
X132740435Y-95888576D01*
X132450842Y-95502138D01*
X132106975Y-95041267D01*
X132052304Y-94967886D01*
X130479800Y-92856973D01*
X130466404Y-94479160D01*
X130463518Y-94978483D01*
X130464080Y-95384801D01*
X130468329Y-95706657D01*
X130476505Y-95952595D01*
X130488845Y-96131159D01*
X130505590Y-96250894D01*
X130517204Y-96296117D01*
X130635311Y-96498513D01*
X130831973Y-96651113D01*
X131091752Y-96742691D01*
X131143921Y-96751813D01*
X131285051Y-96780596D01*
X131351155Y-96822877D01*
X131368697Y-96896891D01*
X131368800Y-96906768D01*
X131368800Y-97028000D01*
X129286000Y-97028000D01*
X129286000Y-96913021D01*
X129301601Y-96841162D01*
X129364066Y-96791539D01*
X129496889Y-96748413D01*
X129551881Y-96734885D01*
X129749362Y-96676901D01*
X129890280Y-96600163D01*
X129986208Y-96486861D01*
X130048718Y-96319181D01*
X130089385Y-96079312D01*
X130109560Y-95876556D01*
X130122353Y-95665144D01*
X130132407Y-95374844D01*
X130139339Y-95028343D01*
X130142763Y-94648327D01*
X130142295Y-94257482D01*
X130140371Y-94056200D01*
X130134802Y-93660501D01*
X130128660Y-93352929D01*
X130120824Y-93120010D01*
X130110172Y-92948274D01*
X130095583Y-92824247D01*
X130075935Y-92734457D01*
X130050106Y-92665432D01*
X130019853Y-92608572D01*
X129839871Y-92394137D01*
X129599808Y-92237929D01*
X129378918Y-92169319D01*
X129249399Y-92137892D01*
X129193947Y-92085506D01*
X129184400Y-92017707D01*
X129184400Y-91897200D01*
X129908300Y-91900191D01*
X130632200Y-91903183D01*
X132080000Y-93859760D01*
X133527800Y-95816336D01*
X133542821Y-94377468D01*
X133545641Y-93992945D01*
X133546050Y-93631093D01*
X133544205Y-93307454D01*
X133540262Y-93037575D01*
X133534378Y-92836997D01*
X133526711Y-92721267D01*
X133526052Y-92716321D01*
X133462005Y-92501267D01*
X133332815Y-92346622D01*
X133125990Y-92240632D01*
X132976668Y-92199275D01*
X132812527Y-92157162D01*
X132725686Y-92115183D01*
X132692948Y-92058537D01*
X132689600Y-92016116D01*
X132689600Y-91897200D01*
X134721600Y-91897200D01*
X134721600Y-92017707D01*
G37*
X134721600Y-92017707D02*
X134705688Y-92098284D01*
X134639948Y-92143748D01*
X134513067Y-92171560D01*
X134256588Y-92235760D01*
X134084128Y-92337569D01*
X133982168Y-92486153D01*
X133962248Y-92544981D01*
X133948568Y-92647053D01*
X133936683Y-92844439D01*
X133926734Y-93130867D01*
X133918864Y-93500064D01*
X133913212Y-93945760D01*
X133909921Y-94461680D01*
X133909083Y-94907100D01*
X133908800Y-97078800D01*
X133766804Y-97078800D01*
X133730485Y-97072685D01*
X133686932Y-97050053D01*
X133630916Y-97004468D01*
X133557212Y-96929494D01*
X133460593Y-96818697D01*
X133335832Y-96665641D01*
X133177704Y-96463893D01*
X132980980Y-96207016D01*
X132740435Y-95888576D01*
X132450842Y-95502138D01*
X132106975Y-95041267D01*
X132052304Y-94967886D01*
X130479800Y-92856973D01*
X130466404Y-94479160D01*
X130463518Y-94978483D01*
X130464080Y-95384801D01*
X130468329Y-95706657D01*
X130476505Y-95952595D01*
X130488845Y-96131159D01*
X130505590Y-96250894D01*
X130517204Y-96296117D01*
X130635311Y-96498513D01*
X130831973Y-96651113D01*
X131091752Y-96742691D01*
X131143921Y-96751813D01*
X131285051Y-96780596D01*
X131351155Y-96822877D01*
X131368697Y-96896891D01*
X131368800Y-96906768D01*
X131368800Y-97028000D01*
X129286000Y-97028000D01*
X129286000Y-96913021D01*
X129301601Y-96841162D01*
X129364066Y-96791539D01*
X129496889Y-96748413D01*
X129551881Y-96734885D01*
X129749362Y-96676901D01*
X129890280Y-96600163D01*
X129986208Y-96486861D01*
X130048718Y-96319181D01*
X130089385Y-96079312D01*
X130109560Y-95876556D01*
X130122353Y-95665144D01*
X130132407Y-95374844D01*
X130139339Y-95028343D01*
X130142763Y-94648327D01*
X130142295Y-94257482D01*
X130140371Y-94056200D01*
X130134802Y-93660501D01*
X130128660Y-93352929D01*
X130120824Y-93120010D01*
X130110172Y-92948274D01*
X130095583Y-92824247D01*
X130075935Y-92734457D01*
X130050106Y-92665432D01*
X130019853Y-92608572D01*
X129839871Y-92394137D01*
X129599808Y-92237929D01*
X129378918Y-92169319D01*
X129249399Y-92137892D01*
X129193947Y-92085506D01*
X129184400Y-92017707D01*
X129184400Y-91897200D01*
X129908300Y-91900191D01*
X130632200Y-91903183D01*
X132080000Y-93859760D01*
X133527800Y-95816336D01*
X133542821Y-94377468D01*
X133545641Y-93992945D01*
X133546050Y-93631093D01*
X133544205Y-93307454D01*
X133540262Y-93037575D01*
X133534378Y-92836997D01*
X133526711Y-92721267D01*
X133526052Y-92716321D01*
X133462005Y-92501267D01*
X133332815Y-92346622D01*
X133125990Y-92240632D01*
X132976668Y-92199275D01*
X132812527Y-92157162D01*
X132725686Y-92115183D01*
X132692948Y-92058537D01*
X132689600Y-92016116D01*
X132689600Y-91897200D01*
X134721600Y-91897200D01*
X134721600Y-92017707D01*
G36*
X175697661Y-91848051D02*
G01*
X176117476Y-91931815D01*
X176365821Y-92023901D01*
X176545319Y-92103488D01*
X176656314Y-92139447D01*
X176722048Y-92131796D01*
X176765769Y-92080551D01*
X176793243Y-92024200D01*
X176882016Y-91919822D01*
X176962424Y-91897200D01*
X177017756Y-91905061D01*
X177053764Y-91942080D01*
X177077367Y-92028404D01*
X177095486Y-92184184D01*
X177106366Y-92316300D01*
X177122076Y-92575794D01*
X177133733Y-92877959D01*
X177139152Y-93163886D01*
X177139295Y-93205300D01*
X177138404Y-93425345D01*
X177132032Y-93563072D01*
X177115147Y-93637761D01*
X177082717Y-93668693D01*
X177029713Y-93675149D01*
X177016682Y-93675200D01*
X176939211Y-93659769D01*
X176881798Y-93598188D01*
X176826361Y-93467518D01*
X176806458Y-93408500D01*
X176637164Y-92975653D01*
X176440234Y-92636469D01*
X176209135Y-92385227D01*
X175937337Y-92216207D01*
X175618307Y-92123687D01*
X175313525Y-92100896D01*
X174947348Y-92133626D01*
X174638404Y-92237916D01*
X174362561Y-92424478D01*
X174182200Y-92603113D01*
X173969962Y-92887102D01*
X173813101Y-93211545D01*
X173707619Y-93590171D01*
X173649519Y-94036708D01*
X173634400Y-94484260D01*
X173666771Y-95030238D01*
X173765287Y-95503189D01*
X173932051Y-95908960D01*
X174169165Y-96253399D01*
X174330015Y-96418532D01*
X174585964Y-96618226D01*
X174848953Y-96745221D01*
X175146500Y-96808648D01*
X175506120Y-96817638D01*
X175529728Y-96816670D01*
X175812807Y-96792276D01*
X176032526Y-96742765D01*
X176188499Y-96679372D01*
X176431199Y-96560381D01*
X176417099Y-95872475D01*
X176410693Y-95595786D01*
X176402539Y-95402421D01*
X176389283Y-95274116D01*
X176367574Y-95192607D01*
X176334058Y-95139630D01*
X176285382Y-95096922D01*
X176273011Y-95087616D01*
X176142031Y-95024484D01*
X175956184Y-94975738D01*
X175853911Y-94960824D01*
X175689698Y-94939732D01*
X175602877Y-94911689D01*
X175569391Y-94864234D01*
X175564800Y-94811092D01*
X175564800Y-94691200D01*
X177749200Y-94691200D01*
X177749200Y-94811707D01*
X177732858Y-94893055D01*
X177665710Y-94938567D01*
X177545285Y-94964821D01*
X177399372Y-94994925D01*
X177293216Y-95041476D01*
X177220558Y-95119371D01*
X177175140Y-95243505D01*
X177150703Y-95428774D01*
X177140990Y-95690073D01*
X177139600Y-95930397D01*
X177139600Y-96661595D01*
X176822100Y-96788178D01*
X176410967Y-96925154D01*
X175970898Y-97025023D01*
X175533368Y-97083084D01*
X175129854Y-97094637D01*
X174901238Y-97075055D01*
X174429122Y-96958486D01*
X174004033Y-96758406D01*
X173632059Y-96484290D01*
X173319284Y-96145614D01*
X173071796Y-95751852D01*
X172895682Y-95312481D01*
X172797027Y-94836975D01*
X172781919Y-94334810D01*
X172843868Y-93872202D01*
X172991977Y-93402407D01*
X173223553Y-92970304D01*
X173527301Y-92589537D01*
X173891924Y-92273747D01*
X174306128Y-92036575D01*
X174394371Y-91999599D01*
X174806181Y-91881574D01*
X175250587Y-91831181D01*
X175697661Y-91848051D01*
G37*
X175697661Y-91848051D02*
X176117476Y-91931815D01*
X176365821Y-92023901D01*
X176545319Y-92103488D01*
X176656314Y-92139447D01*
X176722048Y-92131796D01*
X176765769Y-92080551D01*
X176793243Y-92024200D01*
X176882016Y-91919822D01*
X176962424Y-91897200D01*
X177017756Y-91905061D01*
X177053764Y-91942080D01*
X177077367Y-92028404D01*
X177095486Y-92184184D01*
X177106366Y-92316300D01*
X177122076Y-92575794D01*
X177133733Y-92877959D01*
X177139152Y-93163886D01*
X177139295Y-93205300D01*
X177138404Y-93425345D01*
X177132032Y-93563072D01*
X177115147Y-93637761D01*
X177082717Y-93668693D01*
X177029713Y-93675149D01*
X177016682Y-93675200D01*
X176939211Y-93659769D01*
X176881798Y-93598188D01*
X176826361Y-93467518D01*
X176806458Y-93408500D01*
X176637164Y-92975653D01*
X176440234Y-92636469D01*
X176209135Y-92385227D01*
X175937337Y-92216207D01*
X175618307Y-92123687D01*
X175313525Y-92100896D01*
X174947348Y-92133626D01*
X174638404Y-92237916D01*
X174362561Y-92424478D01*
X174182200Y-92603113D01*
X173969962Y-92887102D01*
X173813101Y-93211545D01*
X173707619Y-93590171D01*
X173649519Y-94036708D01*
X173634400Y-94484260D01*
X173666771Y-95030238D01*
X173765287Y-95503189D01*
X173932051Y-95908960D01*
X174169165Y-96253399D01*
X174330015Y-96418532D01*
X174585964Y-96618226D01*
X174848953Y-96745221D01*
X175146500Y-96808648D01*
X175506120Y-96817638D01*
X175529728Y-96816670D01*
X175812807Y-96792276D01*
X176032526Y-96742765D01*
X176188499Y-96679372D01*
X176431199Y-96560381D01*
X176417099Y-95872475D01*
X176410693Y-95595786D01*
X176402539Y-95402421D01*
X176389283Y-95274116D01*
X176367574Y-95192607D01*
X176334058Y-95139630D01*
X176285382Y-95096922D01*
X176273011Y-95087616D01*
X176142031Y-95024484D01*
X175956184Y-94975738D01*
X175853911Y-94960824D01*
X175689698Y-94939732D01*
X175602877Y-94911689D01*
X175569391Y-94864234D01*
X175564800Y-94811092D01*
X175564800Y-94691200D01*
X177749200Y-94691200D01*
X177749200Y-94811707D01*
X177732858Y-94893055D01*
X177665710Y-94938567D01*
X177545285Y-94964821D01*
X177399372Y-94994925D01*
X177293216Y-95041476D01*
X177220558Y-95119371D01*
X177175140Y-95243505D01*
X177150703Y-95428774D01*
X177140990Y-95690073D01*
X177139600Y-95930397D01*
X177139600Y-96661595D01*
X176822100Y-96788178D01*
X176410967Y-96925154D01*
X175970898Y-97025023D01*
X175533368Y-97083084D01*
X175129854Y-97094637D01*
X174901238Y-97075055D01*
X174429122Y-96958486D01*
X174004033Y-96758406D01*
X173632059Y-96484290D01*
X173319284Y-96145614D01*
X173071796Y-95751852D01*
X172895682Y-95312481D01*
X172797027Y-94836975D01*
X172781919Y-94334810D01*
X172843868Y-93872202D01*
X172991977Y-93402407D01*
X173223553Y-92970304D01*
X173527301Y-92589537D01*
X173891924Y-92273747D01*
X174306128Y-92036575D01*
X174394371Y-91999599D01*
X174806181Y-91881574D01*
X175250587Y-91831181D01*
X175697661Y-91848051D01*
G36*
X138054861Y-91848051D02*
G01*
X138474676Y-91931815D01*
X138723021Y-92023901D01*
X138902519Y-92103488D01*
X139013514Y-92139447D01*
X139079248Y-92131796D01*
X139122969Y-92080551D01*
X139150443Y-92024200D01*
X139239216Y-91919822D01*
X139319624Y-91897200D01*
X139374956Y-91905061D01*
X139410964Y-91942080D01*
X139434567Y-92028404D01*
X139452686Y-92184184D01*
X139463566Y-92316300D01*
X139479276Y-92575794D01*
X139490933Y-92877959D01*
X139496352Y-93163886D01*
X139496495Y-93205300D01*
X139495604Y-93425345D01*
X139489232Y-93563072D01*
X139472347Y-93637761D01*
X139439917Y-93668693D01*
X139386913Y-93675149D01*
X139373882Y-93675200D01*
X139296411Y-93659769D01*
X139238998Y-93598188D01*
X139183561Y-93467518D01*
X139163658Y-93408500D01*
X138994364Y-92975653D01*
X138797434Y-92636469D01*
X138566335Y-92385227D01*
X138294537Y-92216207D01*
X137975507Y-92123687D01*
X137670725Y-92100896D01*
X137304548Y-92133626D01*
X136995604Y-92237916D01*
X136719761Y-92424478D01*
X136539400Y-92603113D01*
X136327162Y-92887102D01*
X136170301Y-93211545D01*
X136064819Y-93590171D01*
X136006719Y-94036708D01*
X135991600Y-94484260D01*
X136023971Y-95030238D01*
X136122487Y-95503189D01*
X136289251Y-95908960D01*
X136526365Y-96253399D01*
X136687215Y-96418532D01*
X136943164Y-96618226D01*
X137206153Y-96745221D01*
X137503700Y-96808648D01*
X137863320Y-96817638D01*
X137886928Y-96816670D01*
X138170007Y-96792276D01*
X138389726Y-96742765D01*
X138545699Y-96679372D01*
X138788399Y-96560381D01*
X138774299Y-95872475D01*
X138767893Y-95595786D01*
X138759739Y-95402421D01*
X138746483Y-95274116D01*
X138724774Y-95192607D01*
X138691258Y-95139630D01*
X138642582Y-95096922D01*
X138630211Y-95087616D01*
X138499231Y-95024484D01*
X138313384Y-94975738D01*
X138211111Y-94960824D01*
X138046898Y-94939732D01*
X137960077Y-94911689D01*
X137926591Y-94864234D01*
X137922000Y-94811092D01*
X137922000Y-94691200D01*
X140157200Y-94691200D01*
X140157200Y-94818200D01*
X140135631Y-94915469D01*
X140053526Y-94944907D01*
X140037780Y-94945200D01*
X139861436Y-94969632D01*
X139693143Y-95032002D01*
X139572138Y-95115919D01*
X139546527Y-95150403D01*
X139528384Y-95233450D01*
X139513205Y-95396567D01*
X139502325Y-95618236D01*
X139497078Y-95876940D01*
X139496800Y-95952458D01*
X139496800Y-96661595D01*
X139179300Y-96788178D01*
X138768167Y-96925154D01*
X138328098Y-97025023D01*
X137890568Y-97083084D01*
X137487054Y-97094637D01*
X137258438Y-97075055D01*
X136786322Y-96958486D01*
X136361233Y-96758406D01*
X135989259Y-96484290D01*
X135676484Y-96145614D01*
X135428996Y-95751852D01*
X135252882Y-95312481D01*
X135154227Y-94836975D01*
X135139119Y-94334810D01*
X135201068Y-93872202D01*
X135349177Y-93402407D01*
X135580753Y-92970304D01*
X135884501Y-92589537D01*
X136249124Y-92273747D01*
X136663328Y-92036575D01*
X136751571Y-91999599D01*
X137163381Y-91881574D01*
X137607787Y-91831181D01*
X138054861Y-91848051D01*
G37*
X138054861Y-91848051D02*
X138474676Y-91931815D01*
X138723021Y-92023901D01*
X138902519Y-92103488D01*
X139013514Y-92139447D01*
X139079248Y-92131796D01*
X139122969Y-92080551D01*
X139150443Y-92024200D01*
X139239216Y-91919822D01*
X139319624Y-91897200D01*
X139374956Y-91905061D01*
X139410964Y-91942080D01*
X139434567Y-92028404D01*
X139452686Y-92184184D01*
X139463566Y-92316300D01*
X139479276Y-92575794D01*
X139490933Y-92877959D01*
X139496352Y-93163886D01*
X139496495Y-93205300D01*
X139495604Y-93425345D01*
X139489232Y-93563072D01*
X139472347Y-93637761D01*
X139439917Y-93668693D01*
X139386913Y-93675149D01*
X139373882Y-93675200D01*
X139296411Y-93659769D01*
X139238998Y-93598188D01*
X139183561Y-93467518D01*
X139163658Y-93408500D01*
X138994364Y-92975653D01*
X138797434Y-92636469D01*
X138566335Y-92385227D01*
X138294537Y-92216207D01*
X137975507Y-92123687D01*
X137670725Y-92100896D01*
X137304548Y-92133626D01*
X136995604Y-92237916D01*
X136719761Y-92424478D01*
X136539400Y-92603113D01*
X136327162Y-92887102D01*
X136170301Y-93211545D01*
X136064819Y-93590171D01*
X136006719Y-94036708D01*
X135991600Y-94484260D01*
X136023971Y-95030238D01*
X136122487Y-95503189D01*
X136289251Y-95908960D01*
X136526365Y-96253399D01*
X136687215Y-96418532D01*
X136943164Y-96618226D01*
X137206153Y-96745221D01*
X137503700Y-96808648D01*
X137863320Y-96817638D01*
X137886928Y-96816670D01*
X138170007Y-96792276D01*
X138389726Y-96742765D01*
X138545699Y-96679372D01*
X138788399Y-96560381D01*
X138774299Y-95872475D01*
X138767893Y-95595786D01*
X138759739Y-95402421D01*
X138746483Y-95274116D01*
X138724774Y-95192607D01*
X138691258Y-95139630D01*
X138642582Y-95096922D01*
X138630211Y-95087616D01*
X138499231Y-95024484D01*
X138313384Y-94975738D01*
X138211111Y-94960824D01*
X138046898Y-94939732D01*
X137960077Y-94911689D01*
X137926591Y-94864234D01*
X137922000Y-94811092D01*
X137922000Y-94691200D01*
X140157200Y-94691200D01*
X140157200Y-94818200D01*
X140135631Y-94915469D01*
X140053526Y-94944907D01*
X140037780Y-94945200D01*
X139861436Y-94969632D01*
X139693143Y-95032002D01*
X139572138Y-95115919D01*
X139546527Y-95150403D01*
X139528384Y-95233450D01*
X139513205Y-95396567D01*
X139502325Y-95618236D01*
X139497078Y-95876940D01*
X139496800Y-95952458D01*
X139496800Y-96661595D01*
X139179300Y-96788178D01*
X138768167Y-96925154D01*
X138328098Y-97025023D01*
X137890568Y-97083084D01*
X137487054Y-97094637D01*
X137258438Y-97075055D01*
X136786322Y-96958486D01*
X136361233Y-96758406D01*
X135989259Y-96484290D01*
X135676484Y-96145614D01*
X135428996Y-95751852D01*
X135252882Y-95312481D01*
X135154227Y-94836975D01*
X135139119Y-94334810D01*
X135201068Y-93872202D01*
X135349177Y-93402407D01*
X135580753Y-92970304D01*
X135884501Y-92589537D01*
X136249124Y-92273747D01*
X136663328Y-92036575D01*
X136751571Y-91999599D01*
X137163381Y-91881574D01*
X137607787Y-91831181D01*
X138054861Y-91848051D01*
G36*
X115775201Y-91898030D02*
G01*
X116235486Y-92062195D01*
X116271803Y-92079629D01*
X116673723Y-92331034D01*
X117014200Y-92655551D01*
X117288267Y-93041837D01*
X117490963Y-93478550D01*
X117617322Y-93954349D01*
X117662381Y-94457890D01*
X117621176Y-94977832D01*
X117597073Y-95107799D01*
X117453331Y-95571044D01*
X117229756Y-95988145D01*
X116937456Y-96351183D01*
X116587535Y-96652240D01*
X116191101Y-96883398D01*
X115759258Y-97036738D01*
X115303113Y-97104342D01*
X114833772Y-97078292D01*
X114833400Y-97078233D01*
X114351235Y-96952696D01*
X113919885Y-96741949D01*
X113545420Y-96451997D01*
X113233911Y-96088848D01*
X112991429Y-95658506D01*
X112824043Y-95166978D01*
X112801355Y-95067751D01*
X112737200Y-94528209D01*
X112739857Y-94488000D01*
X113590432Y-94488000D01*
X113617023Y-95041922D01*
X113698582Y-95515823D01*
X113837387Y-95916553D01*
X114035718Y-96250962D01*
X114257193Y-96492139D01*
X114414834Y-96619486D01*
X114569276Y-96720873D01*
X114673749Y-96769378D01*
X114890119Y-96808304D01*
X115151619Y-96821018D01*
X115420367Y-96808906D01*
X115658482Y-96773358D01*
X115803736Y-96727954D01*
X116097081Y-96539895D01*
X116349909Y-96263816D01*
X116557058Y-95906948D01*
X116713366Y-95476522D01*
X116723362Y-95439720D01*
X116770944Y-95180152D01*
X116799613Y-94852977D01*
X116809472Y-94490394D01*
X116800623Y-94124599D01*
X116773169Y-93787790D01*
X116727211Y-93512166D01*
X116717106Y-93472000D01*
X116561085Y-93022399D01*
X116358763Y-92662838D01*
X116109194Y-92392440D01*
X115811430Y-92210329D01*
X115464526Y-92115628D01*
X115234625Y-92100400D01*
X114907581Y-92119716D01*
X114645296Y-92184630D01*
X114417202Y-92305590D01*
X114254634Y-92435361D01*
X114006719Y-92716330D01*
X113818165Y-93062702D01*
X113687174Y-93480035D01*
X113611946Y-93973887D01*
X113590432Y-94488000D01*
X112739857Y-94488000D01*
X112772436Y-93995067D01*
X112905827Y-93478480D01*
X113030730Y-93184218D01*
X113288161Y-92767996D01*
X113610345Y-92422494D01*
X113985358Y-92151777D01*
X114401275Y-91959907D01*
X114846171Y-91850951D01*
X115308121Y-91828970D01*
X115775201Y-91898030D01*
G37*
X115775201Y-91898030D02*
X116235486Y-92062195D01*
X116271803Y-92079629D01*
X116673723Y-92331034D01*
X117014200Y-92655551D01*
X117288267Y-93041837D01*
X117490963Y-93478550D01*
X117617322Y-93954349D01*
X117662381Y-94457890D01*
X117621176Y-94977832D01*
X117597073Y-95107799D01*
X117453331Y-95571044D01*
X117229756Y-95988145D01*
X116937456Y-96351183D01*
X116587535Y-96652240D01*
X116191101Y-96883398D01*
X115759258Y-97036738D01*
X115303113Y-97104342D01*
X114833772Y-97078292D01*
X114833400Y-97078233D01*
X114351235Y-96952696D01*
X113919885Y-96741949D01*
X113545420Y-96451997D01*
X113233911Y-96088848D01*
X112991429Y-95658506D01*
X112824043Y-95166978D01*
X112801355Y-95067751D01*
X112737200Y-94528209D01*
X112739857Y-94488000D01*
X113590432Y-94488000D01*
X113617023Y-95041922D01*
X113698582Y-95515823D01*
X113837387Y-95916553D01*
X114035718Y-96250962D01*
X114257193Y-96492139D01*
X114414834Y-96619486D01*
X114569276Y-96720873D01*
X114673749Y-96769378D01*
X114890119Y-96808304D01*
X115151619Y-96821018D01*
X115420367Y-96808906D01*
X115658482Y-96773358D01*
X115803736Y-96727954D01*
X116097081Y-96539895D01*
X116349909Y-96263816D01*
X116557058Y-95906948D01*
X116713366Y-95476522D01*
X116723362Y-95439720D01*
X116770944Y-95180152D01*
X116799613Y-94852977D01*
X116809472Y-94490394D01*
X116800623Y-94124599D01*
X116773169Y-93787790D01*
X116727211Y-93512166D01*
X116717106Y-93472000D01*
X116561085Y-93022399D01*
X116358763Y-92662838D01*
X116109194Y-92392440D01*
X115811430Y-92210329D01*
X115464526Y-92115628D01*
X115234625Y-92100400D01*
X114907581Y-92119716D01*
X114645296Y-92184630D01*
X114417202Y-92305590D01*
X114254634Y-92435361D01*
X114006719Y-92716330D01*
X113818165Y-93062702D01*
X113687174Y-93480035D01*
X113611946Y-93973887D01*
X113590432Y-94488000D01*
X112739857Y-94488000D01*
X112772436Y-93995067D01*
X112905827Y-93478480D01*
X113030730Y-93184218D01*
X113288161Y-92767996D01*
X113610345Y-92422494D01*
X113985358Y-92151777D01*
X114401275Y-91959907D01*
X114846171Y-91850951D01*
X115308121Y-91828970D01*
X115775201Y-91898030D01*
G36*
X103561661Y-91848051D02*
G01*
X103981476Y-91931815D01*
X104229821Y-92023901D01*
X104409319Y-92103488D01*
X104520314Y-92139447D01*
X104586048Y-92131796D01*
X104629769Y-92080551D01*
X104657243Y-92024200D01*
X104746016Y-91919822D01*
X104826424Y-91897200D01*
X104881756Y-91905061D01*
X104917764Y-91942080D01*
X104941367Y-92028404D01*
X104959486Y-92184184D01*
X104970366Y-92316300D01*
X104986076Y-92575794D01*
X104997733Y-92877959D01*
X105003152Y-93163886D01*
X105003295Y-93205300D01*
X105002404Y-93425345D01*
X104996032Y-93563072D01*
X104979147Y-93637761D01*
X104946717Y-93668693D01*
X104893713Y-93675149D01*
X104880682Y-93675200D01*
X104803211Y-93659769D01*
X104745798Y-93598188D01*
X104690361Y-93467518D01*
X104670458Y-93408500D01*
X104501164Y-92975653D01*
X104304234Y-92636469D01*
X104073135Y-92385227D01*
X103801337Y-92216207D01*
X103482307Y-92123687D01*
X103177525Y-92100896D01*
X102811348Y-92133626D01*
X102502404Y-92237916D01*
X102226561Y-92424478D01*
X102046200Y-92603113D01*
X101833962Y-92887102D01*
X101677101Y-93211545D01*
X101571619Y-93590171D01*
X101513519Y-94036708D01*
X101498400Y-94484260D01*
X101530771Y-95030238D01*
X101629287Y-95503189D01*
X101796051Y-95908960D01*
X102033165Y-96253399D01*
X102194015Y-96418532D01*
X102449964Y-96618226D01*
X102712953Y-96745221D01*
X103010500Y-96808648D01*
X103370120Y-96817638D01*
X103393728Y-96816670D01*
X103676807Y-96792276D01*
X103896526Y-96742765D01*
X104052499Y-96679372D01*
X104295199Y-96560381D01*
X104281099Y-95872475D01*
X104274693Y-95595786D01*
X104266539Y-95402421D01*
X104253283Y-95274116D01*
X104231574Y-95192607D01*
X104198058Y-95139630D01*
X104149382Y-95096922D01*
X104137011Y-95087616D01*
X104006031Y-95024484D01*
X103820184Y-94975738D01*
X103717911Y-94960824D01*
X103553698Y-94939732D01*
X103466877Y-94911689D01*
X103433391Y-94864234D01*
X103428800Y-94811092D01*
X103428800Y-94691200D01*
X105664000Y-94691200D01*
X105664000Y-94818200D01*
X105642431Y-94915469D01*
X105560326Y-94944907D01*
X105544580Y-94945200D01*
X105368236Y-94969632D01*
X105199943Y-95032002D01*
X105078938Y-95115919D01*
X105053327Y-95150403D01*
X105035184Y-95233450D01*
X105020005Y-95396567D01*
X105009125Y-95618236D01*
X105003878Y-95876940D01*
X105003600Y-95952458D01*
X105003600Y-96661595D01*
X104686100Y-96788178D01*
X104274967Y-96925154D01*
X103834898Y-97025023D01*
X103397368Y-97083084D01*
X102993854Y-97094637D01*
X102765238Y-97075055D01*
X102293122Y-96958486D01*
X101868033Y-96758406D01*
X101496059Y-96484290D01*
X101183284Y-96145614D01*
X100935796Y-95751852D01*
X100759682Y-95312481D01*
X100661027Y-94836975D01*
X100645919Y-94334810D01*
X100707868Y-93872202D01*
X100855977Y-93402407D01*
X101087553Y-92970304D01*
X101391301Y-92589537D01*
X101755924Y-92273747D01*
X102170128Y-92036575D01*
X102258371Y-91999599D01*
X102670181Y-91881574D01*
X103114587Y-91831181D01*
X103561661Y-91848051D01*
G37*
X103561661Y-91848051D02*
X103981476Y-91931815D01*
X104229821Y-92023901D01*
X104409319Y-92103488D01*
X104520314Y-92139447D01*
X104586048Y-92131796D01*
X104629769Y-92080551D01*
X104657243Y-92024200D01*
X104746016Y-91919822D01*
X104826424Y-91897200D01*
X104881756Y-91905061D01*
X104917764Y-91942080D01*
X104941367Y-92028404D01*
X104959486Y-92184184D01*
X104970366Y-92316300D01*
X104986076Y-92575794D01*
X104997733Y-92877959D01*
X105003152Y-93163886D01*
X105003295Y-93205300D01*
X105002404Y-93425345D01*
X104996032Y-93563072D01*
X104979147Y-93637761D01*
X104946717Y-93668693D01*
X104893713Y-93675149D01*
X104880682Y-93675200D01*
X104803211Y-93659769D01*
X104745798Y-93598188D01*
X104690361Y-93467518D01*
X104670458Y-93408500D01*
X104501164Y-92975653D01*
X104304234Y-92636469D01*
X104073135Y-92385227D01*
X103801337Y-92216207D01*
X103482307Y-92123687D01*
X103177525Y-92100896D01*
X102811348Y-92133626D01*
X102502404Y-92237916D01*
X102226561Y-92424478D01*
X102046200Y-92603113D01*
X101833962Y-92887102D01*
X101677101Y-93211545D01*
X101571619Y-93590171D01*
X101513519Y-94036708D01*
X101498400Y-94484260D01*
X101530771Y-95030238D01*
X101629287Y-95503189D01*
X101796051Y-95908960D01*
X102033165Y-96253399D01*
X102194015Y-96418532D01*
X102449964Y-96618226D01*
X102712953Y-96745221D01*
X103010500Y-96808648D01*
X103370120Y-96817638D01*
X103393728Y-96816670D01*
X103676807Y-96792276D01*
X103896526Y-96742765D01*
X104052499Y-96679372D01*
X104295199Y-96560381D01*
X104281099Y-95872475D01*
X104274693Y-95595786D01*
X104266539Y-95402421D01*
X104253283Y-95274116D01*
X104231574Y-95192607D01*
X104198058Y-95139630D01*
X104149382Y-95096922D01*
X104137011Y-95087616D01*
X104006031Y-95024484D01*
X103820184Y-94975738D01*
X103717911Y-94960824D01*
X103553698Y-94939732D01*
X103466877Y-94911689D01*
X103433391Y-94864234D01*
X103428800Y-94811092D01*
X103428800Y-94691200D01*
X105664000Y-94691200D01*
X105664000Y-94818200D01*
X105642431Y-94915469D01*
X105560326Y-94944907D01*
X105544580Y-94945200D01*
X105368236Y-94969632D01*
X105199943Y-95032002D01*
X105078938Y-95115919D01*
X105053327Y-95150403D01*
X105035184Y-95233450D01*
X105020005Y-95396567D01*
X105009125Y-95618236D01*
X105003878Y-95876940D01*
X105003600Y-95952458D01*
X105003600Y-96661595D01*
X104686100Y-96788178D01*
X104274967Y-96925154D01*
X103834898Y-97025023D01*
X103397368Y-97083084D01*
X102993854Y-97094637D01*
X102765238Y-97075055D01*
X102293122Y-96958486D01*
X101868033Y-96758406D01*
X101496059Y-96484290D01*
X101183284Y-96145614D01*
X100935796Y-95751852D01*
X100759682Y-95312481D01*
X100661027Y-94836975D01*
X100645919Y-94334810D01*
X100707868Y-93872202D01*
X100855977Y-93402407D01*
X101087553Y-92970304D01*
X101391301Y-92589537D01*
X101755924Y-92273747D01*
X102170128Y-92036575D01*
X102258371Y-91999599D01*
X102670181Y-91881574D01*
X103114587Y-91831181D01*
X103561661Y-91848051D01*
G36*
X84279201Y-91898030D02*
G01*
X84739486Y-92062195D01*
X84775803Y-92079629D01*
X85177723Y-92331034D01*
X85518200Y-92655551D01*
X85792267Y-93041837D01*
X85994963Y-93478550D01*
X86121322Y-93954349D01*
X86166381Y-94457890D01*
X86125176Y-94977832D01*
X86101073Y-95107799D01*
X85957331Y-95571044D01*
X85733756Y-95988145D01*
X85441456Y-96351183D01*
X85091535Y-96652240D01*
X84695101Y-96883398D01*
X84263258Y-97036738D01*
X83807113Y-97104342D01*
X83337772Y-97078292D01*
X83337400Y-97078233D01*
X82855235Y-96952696D01*
X82423885Y-96741949D01*
X82049420Y-96451997D01*
X81737911Y-96088848D01*
X81495429Y-95658506D01*
X81328043Y-95166978D01*
X81305355Y-95067751D01*
X81241200Y-94528209D01*
X81243857Y-94488000D01*
X82094432Y-94488000D01*
X82121023Y-95041922D01*
X82202582Y-95515823D01*
X82341387Y-95916553D01*
X82539718Y-96250962D01*
X82761193Y-96492139D01*
X82918834Y-96619486D01*
X83073276Y-96720873D01*
X83177749Y-96769378D01*
X83394119Y-96808304D01*
X83655619Y-96821018D01*
X83924367Y-96808906D01*
X84162482Y-96773358D01*
X84307736Y-96727954D01*
X84601081Y-96539895D01*
X84853909Y-96263816D01*
X85061058Y-95906948D01*
X85217366Y-95476522D01*
X85227362Y-95439720D01*
X85274944Y-95180152D01*
X85303613Y-94852977D01*
X85313472Y-94490394D01*
X85304623Y-94124599D01*
X85277169Y-93787790D01*
X85231211Y-93512166D01*
X85221106Y-93472000D01*
X85065085Y-93022399D01*
X84862763Y-92662838D01*
X84613194Y-92392440D01*
X84315430Y-92210329D01*
X83968526Y-92115628D01*
X83738625Y-92100400D01*
X83411581Y-92119716D01*
X83149296Y-92184630D01*
X82921202Y-92305590D01*
X82758634Y-92435361D01*
X82510719Y-92716330D01*
X82322165Y-93062702D01*
X82191174Y-93480035D01*
X82115946Y-93973887D01*
X82094432Y-94488000D01*
X81243857Y-94488000D01*
X81276436Y-93995067D01*
X81409827Y-93478480D01*
X81534730Y-93184218D01*
X81792161Y-92767996D01*
X82114345Y-92422494D01*
X82489358Y-92151777D01*
X82905275Y-91959907D01*
X83350171Y-91850951D01*
X83812121Y-91828970D01*
X84279201Y-91898030D01*
G37*
X84279201Y-91898030D02*
X84739486Y-92062195D01*
X84775803Y-92079629D01*
X85177723Y-92331034D01*
X85518200Y-92655551D01*
X85792267Y-93041837D01*
X85994963Y-93478550D01*
X86121322Y-93954349D01*
X86166381Y-94457890D01*
X86125176Y-94977832D01*
X86101073Y-95107799D01*
X85957331Y-95571044D01*
X85733756Y-95988145D01*
X85441456Y-96351183D01*
X85091535Y-96652240D01*
X84695101Y-96883398D01*
X84263258Y-97036738D01*
X83807113Y-97104342D01*
X83337772Y-97078292D01*
X83337400Y-97078233D01*
X82855235Y-96952696D01*
X82423885Y-96741949D01*
X82049420Y-96451997D01*
X81737911Y-96088848D01*
X81495429Y-95658506D01*
X81328043Y-95166978D01*
X81305355Y-95067751D01*
X81241200Y-94528209D01*
X81243857Y-94488000D01*
X82094432Y-94488000D01*
X82121023Y-95041922D01*
X82202582Y-95515823D01*
X82341387Y-95916553D01*
X82539718Y-96250962D01*
X82761193Y-96492139D01*
X82918834Y-96619486D01*
X83073276Y-96720873D01*
X83177749Y-96769378D01*
X83394119Y-96808304D01*
X83655619Y-96821018D01*
X83924367Y-96808906D01*
X84162482Y-96773358D01*
X84307736Y-96727954D01*
X84601081Y-96539895D01*
X84853909Y-96263816D01*
X85061058Y-95906948D01*
X85217366Y-95476522D01*
X85227362Y-95439720D01*
X85274944Y-95180152D01*
X85303613Y-94852977D01*
X85313472Y-94490394D01*
X85304623Y-94124599D01*
X85277169Y-93787790D01*
X85231211Y-93512166D01*
X85221106Y-93472000D01*
X85065085Y-93022399D01*
X84862763Y-92662838D01*
X84613194Y-92392440D01*
X84315430Y-92210329D01*
X83968526Y-92115628D01*
X83738625Y-92100400D01*
X83411581Y-92119716D01*
X83149296Y-92184630D01*
X82921202Y-92305590D01*
X82758634Y-92435361D01*
X82510719Y-92716330D01*
X82322165Y-93062702D01*
X82191174Y-93480035D01*
X82115946Y-93973887D01*
X82094432Y-94488000D01*
X81243857Y-94488000D01*
X81276436Y-93995067D01*
X81409827Y-93478480D01*
X81534730Y-93184218D01*
X81792161Y-92767996D01*
X82114345Y-92422494D01*
X82489358Y-92151777D01*
X82905275Y-91959907D01*
X83350171Y-91850951D01*
X83812121Y-91828970D01*
X84279201Y-91898030D01*
G36*
X79487663Y-91897746D02*
G01*
X79859919Y-92017681D01*
X80187800Y-92150587D01*
X80280937Y-92023893D01*
X80395016Y-91925599D01*
X80496837Y-91897199D01*
X80619600Y-91897200D01*
X80619600Y-93726000D01*
X80504262Y-93726000D01*
X80440934Y-93712984D01*
X80389794Y-93660900D01*
X80338752Y-93550190D01*
X80275721Y-93361297D01*
X80272572Y-93351169D01*
X80127391Y-92974999D01*
X79945067Y-92649038D01*
X79737753Y-92392652D01*
X79595960Y-92272905D01*
X79467475Y-92194018D01*
X79340149Y-92146379D01*
X79178015Y-92120266D01*
X78984554Y-92107671D01*
X78764641Y-92102579D01*
X78605398Y-92115878D01*
X78466542Y-92154499D01*
X78311655Y-92223484D01*
X77982470Y-92439572D01*
X77717743Y-92734157D01*
X77517502Y-93107181D01*
X77381774Y-93558583D01*
X77310588Y-94088304D01*
X77298963Y-94411800D01*
X77332146Y-94947373D01*
X77436406Y-95424711D01*
X77609097Y-95838562D01*
X77847572Y-96183670D01*
X78149182Y-96454783D01*
X78401454Y-96600058D01*
X78683333Y-96688206D01*
X79012422Y-96723780D01*
X79348137Y-96705341D01*
X79617132Y-96643184D01*
X79893275Y-96502951D01*
X80153735Y-96285734D01*
X80371852Y-96015556D01*
X80438594Y-95903054D01*
X80517600Y-95756810D01*
X80575665Y-95651577D01*
X80597631Y-95614184D01*
X80646343Y-95621950D01*
X80718551Y-95654982D01*
X80826203Y-95712596D01*
X80684801Y-95972485D01*
X80417094Y-96366034D01*
X80089691Y-96680247D01*
X79711392Y-96910827D01*
X79290993Y-97053475D01*
X78837293Y-97103893D01*
X78435200Y-97071547D01*
X78234431Y-97023171D01*
X78002665Y-96945489D01*
X77837866Y-96876772D01*
X77449395Y-96642095D01*
X77122592Y-96337941D01*
X76859059Y-95976776D01*
X76660398Y-95571067D01*
X76528210Y-95133280D01*
X76464096Y-94675879D01*
X76469660Y-94211332D01*
X76546501Y-93752105D01*
X76696222Y-93310662D01*
X76920424Y-92899471D01*
X77220710Y-92530997D01*
X77272927Y-92479691D01*
X77654564Y-92182960D01*
X78078594Y-91974304D01*
X78533280Y-91855818D01*
X79006882Y-91829600D01*
X79487663Y-91897746D01*
G37*
X79487663Y-91897746D02*
X79859919Y-92017681D01*
X80187800Y-92150587D01*
X80280937Y-92023893D01*
X80395016Y-91925599D01*
X80496837Y-91897199D01*
X80619600Y-91897200D01*
X80619600Y-93726000D01*
X80504262Y-93726000D01*
X80440934Y-93712984D01*
X80389794Y-93660900D01*
X80338752Y-93550190D01*
X80275721Y-93361297D01*
X80272572Y-93351169D01*
X80127391Y-92974999D01*
X79945067Y-92649038D01*
X79737753Y-92392652D01*
X79595960Y-92272905D01*
X79467475Y-92194018D01*
X79340149Y-92146379D01*
X79178015Y-92120266D01*
X78984554Y-92107671D01*
X78764641Y-92102579D01*
X78605398Y-92115878D01*
X78466542Y-92154499D01*
X78311655Y-92223484D01*
X77982470Y-92439572D01*
X77717743Y-92734157D01*
X77517502Y-93107181D01*
X77381774Y-93558583D01*
X77310588Y-94088304D01*
X77298963Y-94411800D01*
X77332146Y-94947373D01*
X77436406Y-95424711D01*
X77609097Y-95838562D01*
X77847572Y-96183670D01*
X78149182Y-96454783D01*
X78401454Y-96600058D01*
X78683333Y-96688206D01*
X79012422Y-96723780D01*
X79348137Y-96705341D01*
X79617132Y-96643184D01*
X79893275Y-96502951D01*
X80153735Y-96285734D01*
X80371852Y-96015556D01*
X80438594Y-95903054D01*
X80517600Y-95756810D01*
X80575665Y-95651577D01*
X80597631Y-95614184D01*
X80646343Y-95621950D01*
X80718551Y-95654982D01*
X80826203Y-95712596D01*
X80684801Y-95972485D01*
X80417094Y-96366034D01*
X80089691Y-96680247D01*
X79711392Y-96910827D01*
X79290993Y-97053475D01*
X78837293Y-97103893D01*
X78435200Y-97071547D01*
X78234431Y-97023171D01*
X78002665Y-96945489D01*
X77837866Y-96876772D01*
X77449395Y-96642095D01*
X77122592Y-96337941D01*
X76859059Y-95976776D01*
X76660398Y-95571067D01*
X76528210Y-95133280D01*
X76464096Y-94675879D01*
X76469660Y-94211332D01*
X76546501Y-93752105D01*
X76696222Y-93310662D01*
X76920424Y-92899471D01*
X77220710Y-92530997D01*
X77272927Y-92479691D01*
X77654564Y-92182960D01*
X78078594Y-91974304D01*
X78533280Y-91855818D01*
X79006882Y-91829600D01*
X79487663Y-91897746D01*
G36*
X126700226Y-75474572D02*
G01*
X126757447Y-75506984D01*
X126850337Y-75587181D01*
X126970216Y-75705500D01*
X127108407Y-75852281D01*
X127256229Y-76017862D01*
X127405004Y-76192584D01*
X127546053Y-76366784D01*
X127670697Y-76530803D01*
X127747609Y-76640450D01*
X128041289Y-77139619D01*
X128266832Y-77656049D01*
X128422605Y-78185660D01*
X128474523Y-78458650D01*
X128491161Y-78627594D01*
X128499160Y-78849613D01*
X128499167Y-79105807D01*
X128491829Y-79377274D01*
X128477793Y-79645115D01*
X128457706Y-79890429D01*
X128432213Y-80094317D01*
X128415457Y-80185000D01*
X128314597Y-80570015D01*
X128175779Y-80989300D01*
X128007040Y-81420991D01*
X127816415Y-81843221D01*
X127775319Y-81926714D01*
X127710677Y-82054419D01*
X127646629Y-82176608D01*
X127579455Y-82299161D01*
X127505438Y-82427957D01*
X127420858Y-82568875D01*
X127321998Y-82727794D01*
X127205138Y-82910595D01*
X127066560Y-83123157D01*
X126902545Y-83371358D01*
X126709375Y-83661078D01*
X126483332Y-83998198D01*
X126220696Y-84388595D01*
X126180300Y-84448572D01*
X125868337Y-84931597D01*
X125599581Y-85389428D01*
X125377164Y-85816152D01*
X125204218Y-86205858D01*
X125108474Y-86471500D01*
X125061757Y-86610377D01*
X125020586Y-86718418D01*
X124991069Y-86780232D01*
X124982446Y-86789000D01*
X124950829Y-86760929D01*
X124895339Y-86688453D01*
X124847075Y-86616643D01*
X124611885Y-86198248D01*
X124433562Y-85762821D01*
X124309428Y-85300522D01*
X124236810Y-84801512D01*
X124213104Y-84285404D01*
X124213766Y-84047706D01*
X124219617Y-83860926D01*
X124232698Y-83703479D01*
X124255050Y-83553782D01*
X124288713Y-83390249D01*
X124304022Y-83323714D01*
X124364824Y-83080084D01*
X124431734Y-82847068D01*
X124508121Y-82617720D01*
X124597356Y-82385093D01*
X124702810Y-82142239D01*
X124827854Y-81882212D01*
X124975857Y-81598063D01*
X125150191Y-81282847D01*
X125354225Y-80929615D01*
X125591332Y-80531420D01*
X125864880Y-80081316D01*
X125923662Y-79985429D01*
X126175968Y-79566429D01*
X126387464Y-79196336D01*
X126561746Y-78866657D01*
X126702410Y-78568898D01*
X126813052Y-78294568D01*
X126897270Y-78035173D01*
X126958658Y-77782221D01*
X127000813Y-77527218D01*
X127014482Y-77409384D01*
X127029341Y-76925303D01*
X126975053Y-76452041D01*
X126852799Y-75996953D01*
X126744046Y-75728572D01*
X126684591Y-75597654D01*
X126653943Y-75519669D01*
X126649916Y-75481933D01*
X126670319Y-75471760D01*
X126700226Y-75474572D01*
G37*
X126700226Y-75474572D02*
X126757447Y-75506984D01*
X126850337Y-75587181D01*
X126970216Y-75705500D01*
X127108407Y-75852281D01*
X127256229Y-76017862D01*
X127405004Y-76192584D01*
X127546053Y-76366784D01*
X127670697Y-76530803D01*
X127747609Y-76640450D01*
X128041289Y-77139619D01*
X128266832Y-77656049D01*
X128422605Y-78185660D01*
X128474523Y-78458650D01*
X128491161Y-78627594D01*
X128499160Y-78849613D01*
X128499167Y-79105807D01*
X128491829Y-79377274D01*
X128477793Y-79645115D01*
X128457706Y-79890429D01*
X128432213Y-80094317D01*
X128415457Y-80185000D01*
X128314597Y-80570015D01*
X128175779Y-80989300D01*
X128007040Y-81420991D01*
X127816415Y-81843221D01*
X127775319Y-81926714D01*
X127710677Y-82054419D01*
X127646629Y-82176608D01*
X127579455Y-82299161D01*
X127505438Y-82427957D01*
X127420858Y-82568875D01*
X127321998Y-82727794D01*
X127205138Y-82910595D01*
X127066560Y-83123157D01*
X126902545Y-83371358D01*
X126709375Y-83661078D01*
X126483332Y-83998198D01*
X126220696Y-84388595D01*
X126180300Y-84448572D01*
X125868337Y-84931597D01*
X125599581Y-85389428D01*
X125377164Y-85816152D01*
X125204218Y-86205858D01*
X125108474Y-86471500D01*
X125061757Y-86610377D01*
X125020586Y-86718418D01*
X124991069Y-86780232D01*
X124982446Y-86789000D01*
X124950829Y-86760929D01*
X124895339Y-86688453D01*
X124847075Y-86616643D01*
X124611885Y-86198248D01*
X124433562Y-85762821D01*
X124309428Y-85300522D01*
X124236810Y-84801512D01*
X124213104Y-84285404D01*
X124213766Y-84047706D01*
X124219617Y-83860926D01*
X124232698Y-83703479D01*
X124255050Y-83553782D01*
X124288713Y-83390249D01*
X124304022Y-83323714D01*
X124364824Y-83080084D01*
X124431734Y-82847068D01*
X124508121Y-82617720D01*
X124597356Y-82385093D01*
X124702810Y-82142239D01*
X124827854Y-81882212D01*
X124975857Y-81598063D01*
X125150191Y-81282847D01*
X125354225Y-80929615D01*
X125591332Y-80531420D01*
X125864880Y-80081316D01*
X125923662Y-79985429D01*
X126175968Y-79566429D01*
X126387464Y-79196336D01*
X126561746Y-78866657D01*
X126702410Y-78568898D01*
X126813052Y-78294568D01*
X126897270Y-78035173D01*
X126958658Y-77782221D01*
X127000813Y-77527218D01*
X127014482Y-77409384D01*
X127029341Y-76925303D01*
X126975053Y-76452041D01*
X126852799Y-75996953D01*
X126744046Y-75728572D01*
X126684591Y-75597654D01*
X126653943Y-75519669D01*
X126649916Y-75481933D01*
X126670319Y-75471760D01*
X126700226Y-75474572D01*
M02*
