G04 #@! TF.GenerationSoftware,KiCad,Pcbnew,(5.1.5)-3*
G04 #@! TF.CreationDate,2021-08-16T12:29:15-05:00*
G04 #@! TF.ProjectId,Valpo-PCB-Ruler,56616c70-6f2d-4504-9342-2d52756c6572,rev?*
G04 #@! TF.SameCoordinates,Original*
G04 #@! TF.FileFunction,Copper,L1,Top*
G04 #@! TF.FilePolarity,Positive*
%FSLAX46Y46*%
G04 Gerber Fmt 4.6, Leading zero omitted, Abs format (unit mm)*
G04 Created by KiCad (PCBNEW (5.1.5)-3) date 2021-08-16 12:29:15*
%MOMM*%
%LPD*%
G04 APERTURE LIST*
%ADD10C,0.200000*%
%ADD11C,0.100000*%
%ADD12C,0.010000*%
%ADD13C,0.800000*%
%ADD14C,0.250000*%
G04 APERTURE END LIST*
D10*
X121920000Y-89693750D02*
X86360000Y-89693750D01*
X165735000Y-89693750D02*
X131445000Y-89693750D01*
X200025000Y-73025000D02*
X180975000Y-73025000D01*
X174625000Y-73025000D02*
X155575000Y-73025000D01*
X149225000Y-73025000D02*
X130175000Y-73025000D01*
X123825000Y-73025000D02*
X104775000Y-73025000D01*
X98425000Y-73025000D02*
X79375000Y-73025000D01*
X73025000Y-73025000D02*
X53975000Y-73025000D01*
X180340000Y-101600000D02*
X180340000Y-100330000D01*
X195580000Y-101600000D02*
X195580000Y-100330000D01*
X190500000Y-101600000D02*
X190500000Y-99568000D01*
X182880000Y-101600000D02*
X182880000Y-100330000D01*
X200660000Y-101600000D02*
X200660000Y-100330000D01*
X187960000Y-101600000D02*
X187960000Y-100330000D01*
X185420000Y-101600000D02*
X185420000Y-100330000D01*
X198120000Y-101600000D02*
X198120000Y-100330000D01*
X193040000Y-101600000D02*
X193040000Y-100330000D01*
X154940000Y-101600000D02*
X154940000Y-100330000D01*
X170180000Y-101600000D02*
X170180000Y-100330000D01*
X165100000Y-101600000D02*
X165100000Y-99568000D01*
X157480000Y-101600000D02*
X157480000Y-100330000D01*
X175260000Y-101600000D02*
X175260000Y-100330000D01*
X162560000Y-101600000D02*
X162560000Y-100330000D01*
X160020000Y-101600000D02*
X160020000Y-100330000D01*
X177800000Y-101600000D02*
X177800000Y-99060000D01*
X172720000Y-101600000D02*
X172720000Y-100330000D01*
X167640000Y-101600000D02*
X167640000Y-100330000D01*
X129540000Y-101600000D02*
X129540000Y-100330000D01*
X144780000Y-101600000D02*
X144780000Y-100330000D01*
X139700000Y-101600000D02*
X139700000Y-99568000D01*
X132080000Y-101600000D02*
X132080000Y-100330000D01*
X149860000Y-101600000D02*
X149860000Y-100330000D01*
X137160000Y-101600000D02*
X137160000Y-100330000D01*
X134620000Y-101600000D02*
X134620000Y-100330000D01*
X152400000Y-101600000D02*
X152400000Y-99060000D01*
X147320000Y-101600000D02*
X147320000Y-100330000D01*
X142240000Y-101600000D02*
X142240000Y-100330000D01*
X104140000Y-101600000D02*
X104140000Y-100330000D01*
X119380000Y-101600000D02*
X119380000Y-100330000D01*
X114300000Y-101600000D02*
X114300000Y-99568000D01*
X106680000Y-101600000D02*
X106680000Y-100330000D01*
X124460000Y-101600000D02*
X124460000Y-100330000D01*
X111760000Y-101600000D02*
X111760000Y-100330000D01*
X109220000Y-101600000D02*
X109220000Y-100330000D01*
X127000000Y-101600000D02*
X127000000Y-99060000D01*
X121920000Y-101600000D02*
X121920000Y-100330000D01*
X116840000Y-101600000D02*
X116840000Y-100330000D01*
X78740000Y-101600000D02*
X78740000Y-100330000D01*
X93980000Y-101600000D02*
X93980000Y-100330000D01*
X88900000Y-101600000D02*
X88900000Y-99568000D01*
X81280000Y-101600000D02*
X81280000Y-100330000D01*
X99060000Y-101600000D02*
X99060000Y-100330000D01*
X86360000Y-101600000D02*
X86360000Y-100330000D01*
X83820000Y-101600000D02*
X83820000Y-100330000D01*
X101600000Y-101600000D02*
X101600000Y-99060000D01*
X96520000Y-101600000D02*
X96520000Y-100330000D01*
X91440000Y-101600000D02*
X91440000Y-100330000D01*
X76200000Y-101600000D02*
X76200000Y-99060000D01*
X73660000Y-101600000D02*
X73660000Y-100330000D01*
X71120000Y-101600000D02*
X71120000Y-100330000D01*
X68580000Y-101600000D02*
X68580000Y-100330000D01*
X66040000Y-101600000D02*
X66040000Y-100330000D01*
X63500000Y-101600000D02*
X63500000Y-99568000D01*
X60960000Y-101600000D02*
X60960000Y-100330000D01*
X58420000Y-101600000D02*
X58420000Y-100330000D01*
X55880000Y-101600000D02*
X55880000Y-100330000D01*
X53340000Y-101600000D02*
X53340000Y-100330000D01*
X200025000Y-66675000D02*
X200025000Y-63500000D01*
X190500000Y-69850000D02*
X190500000Y-63500000D01*
X201612500Y-65087500D02*
X201612500Y-63500000D01*
X193675000Y-66675000D02*
X193675000Y-63500000D01*
X192087500Y-65087500D02*
X192087500Y-63500000D01*
X179387500Y-65087500D02*
X179387500Y-63500000D01*
X195262500Y-65087500D02*
X195262500Y-63500000D01*
X196850000Y-68262500D02*
X196850000Y-63500000D01*
X188912500Y-65087500D02*
X188912500Y-63500000D01*
X198437500Y-65087500D02*
X198437500Y-63500000D01*
X182562500Y-65087500D02*
X182562500Y-63500000D01*
X185737500Y-65087500D02*
X185737500Y-63500000D01*
X184150000Y-68262500D02*
X184150000Y-63500000D01*
X180975000Y-66675000D02*
X180975000Y-63500000D01*
X187325000Y-66675000D02*
X187325000Y-63500000D01*
X177800000Y-69850000D02*
X177800000Y-63500000D01*
X174625000Y-66675000D02*
X174625000Y-63500000D01*
X165100000Y-69850000D02*
X165100000Y-63500000D01*
X176212500Y-65087500D02*
X176212500Y-63500000D01*
X168275000Y-66675000D02*
X168275000Y-63500000D01*
X166687500Y-65087500D02*
X166687500Y-63500000D01*
X153987500Y-65087500D02*
X153987500Y-63500000D01*
X169862500Y-65087500D02*
X169862500Y-63500000D01*
X171450000Y-68262500D02*
X171450000Y-63500000D01*
X163512500Y-65087500D02*
X163512500Y-63500000D01*
X173037500Y-65087500D02*
X173037500Y-63500000D01*
X157162500Y-65087500D02*
X157162500Y-63500000D01*
X160337500Y-65087500D02*
X160337500Y-63500000D01*
X158750000Y-68262500D02*
X158750000Y-63500000D01*
X155575000Y-66675000D02*
X155575000Y-63500000D01*
X161925000Y-66675000D02*
X161925000Y-63500000D01*
X152400000Y-69850000D02*
X152400000Y-63500000D01*
X149225000Y-66675000D02*
X149225000Y-63500000D01*
X139700000Y-69850000D02*
X139700000Y-63500000D01*
X150812500Y-65087500D02*
X150812500Y-63500000D01*
X142875000Y-66675000D02*
X142875000Y-63500000D01*
X141287500Y-65087500D02*
X141287500Y-63500000D01*
X128587500Y-65087500D02*
X128587500Y-63500000D01*
X144462500Y-65087500D02*
X144462500Y-63500000D01*
X146050000Y-68262500D02*
X146050000Y-63500000D01*
X138112500Y-65087500D02*
X138112500Y-63500000D01*
X147637500Y-65087500D02*
X147637500Y-63500000D01*
X131762500Y-65087500D02*
X131762500Y-63500000D01*
X134937500Y-65087500D02*
X134937500Y-63500000D01*
X133350000Y-68262500D02*
X133350000Y-63500000D01*
X130175000Y-66675000D02*
X130175000Y-63500000D01*
X136525000Y-66675000D02*
X136525000Y-63500000D01*
X127000000Y-69850000D02*
X127000000Y-63500000D01*
X123825000Y-66675000D02*
X123825000Y-63500000D01*
X114300000Y-69850000D02*
X114300000Y-63500000D01*
X125412500Y-65087500D02*
X125412500Y-63500000D01*
X117475000Y-66675000D02*
X117475000Y-63500000D01*
X115887500Y-65087500D02*
X115887500Y-63500000D01*
X103187500Y-65087500D02*
X103187500Y-63500000D01*
X119062500Y-65087500D02*
X119062500Y-63500000D01*
X120650000Y-68262500D02*
X120650000Y-63500000D01*
X112712500Y-65087500D02*
X112712500Y-63500000D01*
X122237500Y-65087500D02*
X122237500Y-63500000D01*
X106362500Y-65087500D02*
X106362500Y-63500000D01*
X109537500Y-65087500D02*
X109537500Y-63500000D01*
X107950000Y-68262500D02*
X107950000Y-63500000D01*
X104775000Y-66675000D02*
X104775000Y-63500000D01*
X111125000Y-66675000D02*
X111125000Y-63500000D01*
X100012500Y-65087500D02*
X100012500Y-63500000D01*
X94456250Y-64293750D02*
X94456250Y-63500000D01*
X101600000Y-69850000D02*
X101600000Y-63500000D01*
X92868750Y-64293750D02*
X92868750Y-63500000D01*
X93662500Y-65087500D02*
X93662500Y-63500000D01*
X96837500Y-65087500D02*
X96837500Y-63500000D01*
X90487500Y-65087500D02*
X90487500Y-63500000D01*
X96043750Y-64293750D02*
X96043750Y-63500000D01*
X95250000Y-68262500D02*
X95250000Y-63500000D01*
X91281250Y-64293750D02*
X91281250Y-63500000D01*
X100806250Y-64293750D02*
X100806250Y-63500000D01*
X97631250Y-64293750D02*
X97631250Y-63500000D01*
X99218750Y-64293750D02*
X99218750Y-63500000D01*
X92075000Y-66675000D02*
X92075000Y-63500000D01*
X98425000Y-66675000D02*
X98425000Y-63500000D01*
X89693750Y-64293750D02*
X89693750Y-63500000D01*
X87312500Y-65087500D02*
X87312500Y-63500000D01*
X81756250Y-64293750D02*
X81756250Y-63500000D01*
X88900000Y-69850000D02*
X88900000Y-63500000D01*
X80168750Y-64293750D02*
X80168750Y-63500000D01*
X80962500Y-65087500D02*
X80962500Y-63500000D01*
X84137500Y-65087500D02*
X84137500Y-63500000D01*
X77787500Y-65087500D02*
X77787500Y-63500000D01*
X83343750Y-64293750D02*
X83343750Y-63500000D01*
X82550000Y-68262500D02*
X82550000Y-63500000D01*
X78581250Y-64293750D02*
X78581250Y-63500000D01*
X88106250Y-64293750D02*
X88106250Y-63500000D01*
X84931250Y-64293750D02*
X84931250Y-63500000D01*
X86518750Y-64293750D02*
X86518750Y-63500000D01*
X79375000Y-66675000D02*
X79375000Y-63500000D01*
X85725000Y-66675000D02*
X85725000Y-63500000D01*
X76993750Y-64293750D02*
X76993750Y-63500000D01*
X74612500Y-65087500D02*
X74612500Y-63500000D01*
X69056250Y-64293750D02*
X69056250Y-63500000D01*
X76200000Y-69850000D02*
X76200000Y-63500000D01*
X67468750Y-64293750D02*
X67468750Y-63500000D01*
X68262500Y-65087500D02*
X68262500Y-63500000D01*
X71437500Y-65087500D02*
X71437500Y-63500000D01*
X65087500Y-65087500D02*
X65087500Y-63500000D01*
X70643750Y-64293750D02*
X70643750Y-63500000D01*
X69850000Y-68262500D02*
X69850000Y-63500000D01*
X65881250Y-64293750D02*
X65881250Y-63500000D01*
X75406250Y-64293750D02*
X75406250Y-63500000D01*
X72231250Y-64293750D02*
X72231250Y-63500000D01*
X73818750Y-64293750D02*
X73818750Y-63500000D01*
X66675000Y-66675000D02*
X66675000Y-63500000D01*
X73025000Y-66675000D02*
X73025000Y-63500000D01*
X64293750Y-64293750D02*
X64293750Y-63500000D01*
X63500000Y-69850000D02*
X63500000Y-63500000D01*
X60325000Y-66675000D02*
X60325000Y-63500000D01*
X57150000Y-68262500D02*
X57150000Y-63500000D01*
X53975000Y-66675000D02*
X53975000Y-63500000D01*
X61912500Y-65087500D02*
X61912500Y-63500000D01*
X58737500Y-65087500D02*
X58737500Y-63500000D01*
X55562500Y-65087500D02*
X55562500Y-63500000D01*
X62706250Y-64293750D02*
X62706250Y-63500000D01*
X61118750Y-64293750D02*
X61118750Y-63500000D01*
X59531250Y-64293750D02*
X59531250Y-63500000D01*
X57943750Y-64293750D02*
X57943750Y-63500000D01*
X56356250Y-64293750D02*
X56356250Y-63500000D01*
X54768750Y-64293750D02*
X54768750Y-63500000D01*
X53181250Y-64293750D02*
X53181250Y-63500000D01*
X52387500Y-65087500D02*
X52387500Y-63500000D01*
X51593750Y-64293750D02*
X51593750Y-63500000D01*
X69532500Y-93980000D02*
X69532500Y-76517500D01*
X69532500Y-76517500D02*
X52070000Y-76517500D01*
X52070000Y-93980000D02*
X69532500Y-93980000D01*
X52070000Y-76517500D02*
X52070000Y-93980000D01*
D11*
G36*
X188299721Y-86850588D02*
G01*
X180679721Y-86850588D01*
X180679721Y-86444188D01*
X188299721Y-86444188D01*
X188299721Y-86850588D01*
G37*
G36*
X188299721Y-90076388D02*
G01*
X180679721Y-90076388D01*
X180679721Y-89568388D01*
X188299721Y-89568388D01*
X188299721Y-90076388D01*
G37*
G36*
X188299721Y-95092888D02*
G01*
X180679721Y-95092888D01*
X180679721Y-94076888D01*
X188299721Y-94076888D01*
X188299721Y-95092888D01*
G37*
G36*
X188299721Y-93378388D02*
G01*
X180679721Y-93378388D01*
X180679721Y-92616388D01*
X188299721Y-92616388D01*
X188299721Y-93378388D01*
G37*
G36*
X188299721Y-91714688D02*
G01*
X180679721Y-91714688D01*
X180679721Y-91105088D01*
X188299721Y-91105088D01*
X188299721Y-91714688D01*
G37*
G36*
X188299721Y-88463488D02*
G01*
X180679721Y-88463488D01*
X180679721Y-88006288D01*
X188299721Y-88006288D01*
X188299721Y-88463488D01*
G37*
G36*
X188299721Y-85212288D02*
G01*
X180679721Y-85212288D01*
X180679721Y-84907488D01*
X188299721Y-84907488D01*
X188299721Y-85212288D01*
G37*
G36*
X188299721Y-83599388D02*
G01*
X180679721Y-83599388D01*
X180679721Y-83345388D01*
X188299721Y-83345388D01*
X188299721Y-83599388D01*
G37*
G36*
X188299721Y-81986488D02*
G01*
X180679721Y-81986488D01*
X180679721Y-81783288D01*
X188299721Y-81783288D01*
X188299721Y-81986488D01*
G37*
G36*
X188299721Y-80373588D02*
G01*
X180679721Y-80373588D01*
X180679721Y-80221188D01*
X188299721Y-80221188D01*
X188299721Y-80373588D01*
G37*
D12*
G36*
X56234353Y-91672543D02*
G01*
X54395043Y-91672543D01*
X54395043Y-89833232D01*
X56234353Y-89833232D01*
X56234353Y-91672543D01*
G37*
X56234353Y-91672543D02*
X54395043Y-91672543D01*
X54395043Y-89833232D01*
X56234353Y-89833232D01*
X56234353Y-91672543D01*
G36*
X56234353Y-80636681D02*
G01*
X54395043Y-80636681D01*
X54395043Y-78797370D01*
X56234353Y-78797370D01*
X56234353Y-80636681D01*
G37*
X56234353Y-80636681D02*
X54395043Y-80636681D01*
X54395043Y-78797370D01*
X56234353Y-78797370D01*
X56234353Y-80636681D01*
G36*
X67270216Y-80636681D02*
G01*
X65430905Y-80636681D01*
X65430905Y-78797370D01*
X67270216Y-78797370D01*
X67270216Y-80636681D01*
G37*
X67270216Y-80636681D02*
X65430905Y-80636681D01*
X65430905Y-78797370D01*
X67270216Y-78797370D01*
X67270216Y-80636681D01*
G36*
X79503463Y-91908146D02*
G01*
X79875719Y-92028081D01*
X80203600Y-92160987D01*
X80296737Y-92034293D01*
X80410816Y-91935999D01*
X80512637Y-91907599D01*
X80635400Y-91907600D01*
X80635400Y-93736400D01*
X80520062Y-93736400D01*
X80456734Y-93723384D01*
X80405594Y-93671300D01*
X80354552Y-93560590D01*
X80291521Y-93371697D01*
X80288372Y-93361569D01*
X80143191Y-92985399D01*
X79960867Y-92659438D01*
X79753553Y-92403052D01*
X79611760Y-92283305D01*
X79483275Y-92204418D01*
X79355949Y-92156779D01*
X79193815Y-92130666D01*
X79000354Y-92118071D01*
X78780441Y-92112979D01*
X78621198Y-92126278D01*
X78482342Y-92164899D01*
X78327455Y-92233884D01*
X77998270Y-92449972D01*
X77733543Y-92744557D01*
X77533302Y-93117581D01*
X77397574Y-93568983D01*
X77326388Y-94098704D01*
X77314763Y-94422200D01*
X77347946Y-94957773D01*
X77452206Y-95435111D01*
X77624897Y-95848962D01*
X77863372Y-96194070D01*
X78164982Y-96465183D01*
X78417254Y-96610458D01*
X78699133Y-96698606D01*
X79028222Y-96734180D01*
X79363937Y-96715741D01*
X79632932Y-96653584D01*
X79909075Y-96513351D01*
X80169535Y-96296134D01*
X80387652Y-96025956D01*
X80454394Y-95913454D01*
X80533400Y-95767210D01*
X80591465Y-95661977D01*
X80613431Y-95624584D01*
X80662143Y-95632350D01*
X80734351Y-95665382D01*
X80842003Y-95722996D01*
X80700601Y-95982885D01*
X80432894Y-96376434D01*
X80105491Y-96690647D01*
X79727192Y-96921227D01*
X79306793Y-97063875D01*
X78853093Y-97114293D01*
X78451000Y-97081947D01*
X78250231Y-97033571D01*
X78018465Y-96955889D01*
X77853666Y-96887172D01*
X77465195Y-96652495D01*
X77138392Y-96348341D01*
X76874859Y-95987176D01*
X76676198Y-95581467D01*
X76544010Y-95143680D01*
X76479896Y-94686279D01*
X76485460Y-94221732D01*
X76562301Y-93762505D01*
X76712022Y-93321062D01*
X76936224Y-92909871D01*
X77236510Y-92541397D01*
X77288727Y-92490091D01*
X77670364Y-92193360D01*
X78094394Y-91984704D01*
X78549080Y-91866218D01*
X79022682Y-91840000D01*
X79503463Y-91908146D01*
G37*
X79503463Y-91908146D02*
X79875719Y-92028081D01*
X80203600Y-92160987D01*
X80296737Y-92034293D01*
X80410816Y-91935999D01*
X80512637Y-91907599D01*
X80635400Y-91907600D01*
X80635400Y-93736400D01*
X80520062Y-93736400D01*
X80456734Y-93723384D01*
X80405594Y-93671300D01*
X80354552Y-93560590D01*
X80291521Y-93371697D01*
X80288372Y-93361569D01*
X80143191Y-92985399D01*
X79960867Y-92659438D01*
X79753553Y-92403052D01*
X79611760Y-92283305D01*
X79483275Y-92204418D01*
X79355949Y-92156779D01*
X79193815Y-92130666D01*
X79000354Y-92118071D01*
X78780441Y-92112979D01*
X78621198Y-92126278D01*
X78482342Y-92164899D01*
X78327455Y-92233884D01*
X77998270Y-92449972D01*
X77733543Y-92744557D01*
X77533302Y-93117581D01*
X77397574Y-93568983D01*
X77326388Y-94098704D01*
X77314763Y-94422200D01*
X77347946Y-94957773D01*
X77452206Y-95435111D01*
X77624897Y-95848962D01*
X77863372Y-96194070D01*
X78164982Y-96465183D01*
X78417254Y-96610458D01*
X78699133Y-96698606D01*
X79028222Y-96734180D01*
X79363937Y-96715741D01*
X79632932Y-96653584D01*
X79909075Y-96513351D01*
X80169535Y-96296134D01*
X80387652Y-96025956D01*
X80454394Y-95913454D01*
X80533400Y-95767210D01*
X80591465Y-95661977D01*
X80613431Y-95624584D01*
X80662143Y-95632350D01*
X80734351Y-95665382D01*
X80842003Y-95722996D01*
X80700601Y-95982885D01*
X80432894Y-96376434D01*
X80105491Y-96690647D01*
X79727192Y-96921227D01*
X79306793Y-97063875D01*
X78853093Y-97114293D01*
X78451000Y-97081947D01*
X78250231Y-97033571D01*
X78018465Y-96955889D01*
X77853666Y-96887172D01*
X77465195Y-96652495D01*
X77138392Y-96348341D01*
X76874859Y-95987176D01*
X76676198Y-95581467D01*
X76544010Y-95143680D01*
X76479896Y-94686279D01*
X76485460Y-94221732D01*
X76562301Y-93762505D01*
X76712022Y-93321062D01*
X76936224Y-92909871D01*
X77236510Y-92541397D01*
X77288727Y-92490091D01*
X77670364Y-92193360D01*
X78094394Y-91984704D01*
X78549080Y-91866218D01*
X79022682Y-91840000D01*
X79503463Y-91908146D01*
G36*
X84295001Y-91908430D02*
G01*
X84755286Y-92072595D01*
X84791603Y-92090029D01*
X85193523Y-92341434D01*
X85534000Y-92665951D01*
X85808067Y-93052237D01*
X86010763Y-93488950D01*
X86137122Y-93964749D01*
X86182181Y-94468290D01*
X86140976Y-94988232D01*
X86116873Y-95118199D01*
X85973131Y-95581444D01*
X85749556Y-95998545D01*
X85457256Y-96361583D01*
X85107335Y-96662640D01*
X84710901Y-96893798D01*
X84279058Y-97047138D01*
X83822913Y-97114742D01*
X83353572Y-97088692D01*
X83353200Y-97088633D01*
X82871035Y-96963096D01*
X82439685Y-96752349D01*
X82065220Y-96462397D01*
X81753711Y-96099248D01*
X81511229Y-95668906D01*
X81343843Y-95177378D01*
X81321155Y-95078151D01*
X81257000Y-94538609D01*
X81259657Y-94498400D01*
X82110232Y-94498400D01*
X82136823Y-95052322D01*
X82218382Y-95526223D01*
X82357187Y-95926953D01*
X82555518Y-96261362D01*
X82776993Y-96502539D01*
X82934634Y-96629886D01*
X83089076Y-96731273D01*
X83193549Y-96779778D01*
X83409919Y-96818704D01*
X83671419Y-96831418D01*
X83940167Y-96819306D01*
X84178282Y-96783758D01*
X84323536Y-96738354D01*
X84616881Y-96550295D01*
X84869709Y-96274216D01*
X85076858Y-95917348D01*
X85233166Y-95486922D01*
X85243162Y-95450120D01*
X85290744Y-95190552D01*
X85319413Y-94863377D01*
X85329272Y-94500794D01*
X85320423Y-94134999D01*
X85292969Y-93798190D01*
X85247011Y-93522566D01*
X85236906Y-93482400D01*
X85080885Y-93032799D01*
X84878563Y-92673238D01*
X84628994Y-92402840D01*
X84331230Y-92220729D01*
X83984326Y-92126028D01*
X83754425Y-92110800D01*
X83427381Y-92130116D01*
X83165096Y-92195030D01*
X82937002Y-92315990D01*
X82774434Y-92445761D01*
X82526519Y-92726730D01*
X82337965Y-93073102D01*
X82206974Y-93490435D01*
X82131746Y-93984287D01*
X82110232Y-94498400D01*
X81259657Y-94498400D01*
X81292236Y-94005467D01*
X81425627Y-93488880D01*
X81550530Y-93194618D01*
X81807961Y-92778396D01*
X82130145Y-92432894D01*
X82505158Y-92162177D01*
X82921075Y-91970307D01*
X83365971Y-91861351D01*
X83827921Y-91839370D01*
X84295001Y-91908430D01*
G37*
X84295001Y-91908430D02*
X84755286Y-92072595D01*
X84791603Y-92090029D01*
X85193523Y-92341434D01*
X85534000Y-92665951D01*
X85808067Y-93052237D01*
X86010763Y-93488950D01*
X86137122Y-93964749D01*
X86182181Y-94468290D01*
X86140976Y-94988232D01*
X86116873Y-95118199D01*
X85973131Y-95581444D01*
X85749556Y-95998545D01*
X85457256Y-96361583D01*
X85107335Y-96662640D01*
X84710901Y-96893798D01*
X84279058Y-97047138D01*
X83822913Y-97114742D01*
X83353572Y-97088692D01*
X83353200Y-97088633D01*
X82871035Y-96963096D01*
X82439685Y-96752349D01*
X82065220Y-96462397D01*
X81753711Y-96099248D01*
X81511229Y-95668906D01*
X81343843Y-95177378D01*
X81321155Y-95078151D01*
X81257000Y-94538609D01*
X81259657Y-94498400D01*
X82110232Y-94498400D01*
X82136823Y-95052322D01*
X82218382Y-95526223D01*
X82357187Y-95926953D01*
X82555518Y-96261362D01*
X82776993Y-96502539D01*
X82934634Y-96629886D01*
X83089076Y-96731273D01*
X83193549Y-96779778D01*
X83409919Y-96818704D01*
X83671419Y-96831418D01*
X83940167Y-96819306D01*
X84178282Y-96783758D01*
X84323536Y-96738354D01*
X84616881Y-96550295D01*
X84869709Y-96274216D01*
X85076858Y-95917348D01*
X85233166Y-95486922D01*
X85243162Y-95450120D01*
X85290744Y-95190552D01*
X85319413Y-94863377D01*
X85329272Y-94500794D01*
X85320423Y-94134999D01*
X85292969Y-93798190D01*
X85247011Y-93522566D01*
X85236906Y-93482400D01*
X85080885Y-93032799D01*
X84878563Y-92673238D01*
X84628994Y-92402840D01*
X84331230Y-92220729D01*
X83984326Y-92126028D01*
X83754425Y-92110800D01*
X83427381Y-92130116D01*
X83165096Y-92195030D01*
X82937002Y-92315990D01*
X82774434Y-92445761D01*
X82526519Y-92726730D01*
X82337965Y-93073102D01*
X82206974Y-93490435D01*
X82131746Y-93984287D01*
X82110232Y-94498400D01*
X81259657Y-94498400D01*
X81292236Y-94005467D01*
X81425627Y-93488880D01*
X81550530Y-93194618D01*
X81807961Y-92778396D01*
X82130145Y-92432894D01*
X82505158Y-92162177D01*
X82921075Y-91970307D01*
X83365971Y-91861351D01*
X83827921Y-91839370D01*
X84295001Y-91908430D01*
G36*
X103577461Y-91858451D02*
G01*
X103997276Y-91942215D01*
X104245621Y-92034301D01*
X104425119Y-92113888D01*
X104536114Y-92149847D01*
X104601848Y-92142196D01*
X104645569Y-92090951D01*
X104673043Y-92034600D01*
X104761816Y-91930222D01*
X104842224Y-91907600D01*
X104897556Y-91915461D01*
X104933564Y-91952480D01*
X104957167Y-92038804D01*
X104975286Y-92194584D01*
X104986166Y-92326700D01*
X105001876Y-92586194D01*
X105013533Y-92888359D01*
X105018952Y-93174286D01*
X105019095Y-93215700D01*
X105018204Y-93435745D01*
X105011832Y-93573472D01*
X104994947Y-93648161D01*
X104962517Y-93679093D01*
X104909513Y-93685549D01*
X104896482Y-93685600D01*
X104819011Y-93670169D01*
X104761598Y-93608588D01*
X104706161Y-93477918D01*
X104686258Y-93418900D01*
X104516964Y-92986053D01*
X104320034Y-92646869D01*
X104088935Y-92395627D01*
X103817137Y-92226607D01*
X103498107Y-92134087D01*
X103193325Y-92111296D01*
X102827148Y-92144026D01*
X102518204Y-92248316D01*
X102242361Y-92434878D01*
X102062000Y-92613513D01*
X101849762Y-92897502D01*
X101692901Y-93221945D01*
X101587419Y-93600571D01*
X101529319Y-94047108D01*
X101514200Y-94494660D01*
X101546571Y-95040638D01*
X101645087Y-95513589D01*
X101811851Y-95919360D01*
X102048965Y-96263799D01*
X102209815Y-96428932D01*
X102465764Y-96628626D01*
X102728753Y-96755621D01*
X103026300Y-96819048D01*
X103385920Y-96828038D01*
X103409528Y-96827070D01*
X103692607Y-96802676D01*
X103912326Y-96753165D01*
X104068299Y-96689772D01*
X104310999Y-96570781D01*
X104296899Y-95882875D01*
X104290493Y-95606186D01*
X104282339Y-95412821D01*
X104269083Y-95284516D01*
X104247374Y-95203007D01*
X104213858Y-95150030D01*
X104165182Y-95107322D01*
X104152811Y-95098016D01*
X104021831Y-95034884D01*
X103835984Y-94986138D01*
X103733711Y-94971224D01*
X103569498Y-94950132D01*
X103482677Y-94922089D01*
X103449191Y-94874634D01*
X103444600Y-94821492D01*
X103444600Y-94701600D01*
X105679800Y-94701600D01*
X105679800Y-94828600D01*
X105658231Y-94925869D01*
X105576126Y-94955307D01*
X105560380Y-94955600D01*
X105384036Y-94980032D01*
X105215743Y-95042402D01*
X105094738Y-95126319D01*
X105069127Y-95160803D01*
X105050984Y-95243850D01*
X105035805Y-95406967D01*
X105024925Y-95628636D01*
X105019678Y-95887340D01*
X105019400Y-95962858D01*
X105019400Y-96671995D01*
X104701900Y-96798578D01*
X104290767Y-96935554D01*
X103850698Y-97035423D01*
X103413168Y-97093484D01*
X103009654Y-97105037D01*
X102781038Y-97085455D01*
X102308922Y-96968886D01*
X101883833Y-96768806D01*
X101511859Y-96494690D01*
X101199084Y-96156014D01*
X100951596Y-95762252D01*
X100775482Y-95322881D01*
X100676827Y-94847375D01*
X100661719Y-94345210D01*
X100723668Y-93882602D01*
X100871777Y-93412807D01*
X101103353Y-92980704D01*
X101407101Y-92599937D01*
X101771724Y-92284147D01*
X102185928Y-92046975D01*
X102274171Y-92009999D01*
X102685981Y-91891974D01*
X103130387Y-91841581D01*
X103577461Y-91858451D01*
G37*
X103577461Y-91858451D02*
X103997276Y-91942215D01*
X104245621Y-92034301D01*
X104425119Y-92113888D01*
X104536114Y-92149847D01*
X104601848Y-92142196D01*
X104645569Y-92090951D01*
X104673043Y-92034600D01*
X104761816Y-91930222D01*
X104842224Y-91907600D01*
X104897556Y-91915461D01*
X104933564Y-91952480D01*
X104957167Y-92038804D01*
X104975286Y-92194584D01*
X104986166Y-92326700D01*
X105001876Y-92586194D01*
X105013533Y-92888359D01*
X105018952Y-93174286D01*
X105019095Y-93215700D01*
X105018204Y-93435745D01*
X105011832Y-93573472D01*
X104994947Y-93648161D01*
X104962517Y-93679093D01*
X104909513Y-93685549D01*
X104896482Y-93685600D01*
X104819011Y-93670169D01*
X104761598Y-93608588D01*
X104706161Y-93477918D01*
X104686258Y-93418900D01*
X104516964Y-92986053D01*
X104320034Y-92646869D01*
X104088935Y-92395627D01*
X103817137Y-92226607D01*
X103498107Y-92134087D01*
X103193325Y-92111296D01*
X102827148Y-92144026D01*
X102518204Y-92248316D01*
X102242361Y-92434878D01*
X102062000Y-92613513D01*
X101849762Y-92897502D01*
X101692901Y-93221945D01*
X101587419Y-93600571D01*
X101529319Y-94047108D01*
X101514200Y-94494660D01*
X101546571Y-95040638D01*
X101645087Y-95513589D01*
X101811851Y-95919360D01*
X102048965Y-96263799D01*
X102209815Y-96428932D01*
X102465764Y-96628626D01*
X102728753Y-96755621D01*
X103026300Y-96819048D01*
X103385920Y-96828038D01*
X103409528Y-96827070D01*
X103692607Y-96802676D01*
X103912326Y-96753165D01*
X104068299Y-96689772D01*
X104310999Y-96570781D01*
X104296899Y-95882875D01*
X104290493Y-95606186D01*
X104282339Y-95412821D01*
X104269083Y-95284516D01*
X104247374Y-95203007D01*
X104213858Y-95150030D01*
X104165182Y-95107322D01*
X104152811Y-95098016D01*
X104021831Y-95034884D01*
X103835984Y-94986138D01*
X103733711Y-94971224D01*
X103569498Y-94950132D01*
X103482677Y-94922089D01*
X103449191Y-94874634D01*
X103444600Y-94821492D01*
X103444600Y-94701600D01*
X105679800Y-94701600D01*
X105679800Y-94828600D01*
X105658231Y-94925869D01*
X105576126Y-94955307D01*
X105560380Y-94955600D01*
X105384036Y-94980032D01*
X105215743Y-95042402D01*
X105094738Y-95126319D01*
X105069127Y-95160803D01*
X105050984Y-95243850D01*
X105035805Y-95406967D01*
X105024925Y-95628636D01*
X105019678Y-95887340D01*
X105019400Y-95962858D01*
X105019400Y-96671995D01*
X104701900Y-96798578D01*
X104290767Y-96935554D01*
X103850698Y-97035423D01*
X103413168Y-97093484D01*
X103009654Y-97105037D01*
X102781038Y-97085455D01*
X102308922Y-96968886D01*
X101883833Y-96768806D01*
X101511859Y-96494690D01*
X101199084Y-96156014D01*
X100951596Y-95762252D01*
X100775482Y-95322881D01*
X100676827Y-94847375D01*
X100661719Y-94345210D01*
X100723668Y-93882602D01*
X100871777Y-93412807D01*
X101103353Y-92980704D01*
X101407101Y-92599937D01*
X101771724Y-92284147D01*
X102185928Y-92046975D01*
X102274171Y-92009999D01*
X102685981Y-91891974D01*
X103130387Y-91841581D01*
X103577461Y-91858451D01*
G36*
X115791001Y-91908430D02*
G01*
X116251286Y-92072595D01*
X116287603Y-92090029D01*
X116689523Y-92341434D01*
X117030000Y-92665951D01*
X117304067Y-93052237D01*
X117506763Y-93488950D01*
X117633122Y-93964749D01*
X117678181Y-94468290D01*
X117636976Y-94988232D01*
X117612873Y-95118199D01*
X117469131Y-95581444D01*
X117245556Y-95998545D01*
X116953256Y-96361583D01*
X116603335Y-96662640D01*
X116206901Y-96893798D01*
X115775058Y-97047138D01*
X115318913Y-97114742D01*
X114849572Y-97088692D01*
X114849200Y-97088633D01*
X114367035Y-96963096D01*
X113935685Y-96752349D01*
X113561220Y-96462397D01*
X113249711Y-96099248D01*
X113007229Y-95668906D01*
X112839843Y-95177378D01*
X112817155Y-95078151D01*
X112753000Y-94538609D01*
X112755657Y-94498400D01*
X113606232Y-94498400D01*
X113632823Y-95052322D01*
X113714382Y-95526223D01*
X113853187Y-95926953D01*
X114051518Y-96261362D01*
X114272993Y-96502539D01*
X114430634Y-96629886D01*
X114585076Y-96731273D01*
X114689549Y-96779778D01*
X114905919Y-96818704D01*
X115167419Y-96831418D01*
X115436167Y-96819306D01*
X115674282Y-96783758D01*
X115819536Y-96738354D01*
X116112881Y-96550295D01*
X116365709Y-96274216D01*
X116572858Y-95917348D01*
X116729166Y-95486922D01*
X116739162Y-95450120D01*
X116786744Y-95190552D01*
X116815413Y-94863377D01*
X116825272Y-94500794D01*
X116816423Y-94134999D01*
X116788969Y-93798190D01*
X116743011Y-93522566D01*
X116732906Y-93482400D01*
X116576885Y-93032799D01*
X116374563Y-92673238D01*
X116124994Y-92402840D01*
X115827230Y-92220729D01*
X115480326Y-92126028D01*
X115250425Y-92110800D01*
X114923381Y-92130116D01*
X114661096Y-92195030D01*
X114433002Y-92315990D01*
X114270434Y-92445761D01*
X114022519Y-92726730D01*
X113833965Y-93073102D01*
X113702974Y-93490435D01*
X113627746Y-93984287D01*
X113606232Y-94498400D01*
X112755657Y-94498400D01*
X112788236Y-94005467D01*
X112921627Y-93488880D01*
X113046530Y-93194618D01*
X113303961Y-92778396D01*
X113626145Y-92432894D01*
X114001158Y-92162177D01*
X114417075Y-91970307D01*
X114861971Y-91861351D01*
X115323921Y-91839370D01*
X115791001Y-91908430D01*
G37*
X115791001Y-91908430D02*
X116251286Y-92072595D01*
X116287603Y-92090029D01*
X116689523Y-92341434D01*
X117030000Y-92665951D01*
X117304067Y-93052237D01*
X117506763Y-93488950D01*
X117633122Y-93964749D01*
X117678181Y-94468290D01*
X117636976Y-94988232D01*
X117612873Y-95118199D01*
X117469131Y-95581444D01*
X117245556Y-95998545D01*
X116953256Y-96361583D01*
X116603335Y-96662640D01*
X116206901Y-96893798D01*
X115775058Y-97047138D01*
X115318913Y-97114742D01*
X114849572Y-97088692D01*
X114849200Y-97088633D01*
X114367035Y-96963096D01*
X113935685Y-96752349D01*
X113561220Y-96462397D01*
X113249711Y-96099248D01*
X113007229Y-95668906D01*
X112839843Y-95177378D01*
X112817155Y-95078151D01*
X112753000Y-94538609D01*
X112755657Y-94498400D01*
X113606232Y-94498400D01*
X113632823Y-95052322D01*
X113714382Y-95526223D01*
X113853187Y-95926953D01*
X114051518Y-96261362D01*
X114272993Y-96502539D01*
X114430634Y-96629886D01*
X114585076Y-96731273D01*
X114689549Y-96779778D01*
X114905919Y-96818704D01*
X115167419Y-96831418D01*
X115436167Y-96819306D01*
X115674282Y-96783758D01*
X115819536Y-96738354D01*
X116112881Y-96550295D01*
X116365709Y-96274216D01*
X116572858Y-95917348D01*
X116729166Y-95486922D01*
X116739162Y-95450120D01*
X116786744Y-95190552D01*
X116815413Y-94863377D01*
X116825272Y-94500794D01*
X116816423Y-94134999D01*
X116788969Y-93798190D01*
X116743011Y-93522566D01*
X116732906Y-93482400D01*
X116576885Y-93032799D01*
X116374563Y-92673238D01*
X116124994Y-92402840D01*
X115827230Y-92220729D01*
X115480326Y-92126028D01*
X115250425Y-92110800D01*
X114923381Y-92130116D01*
X114661096Y-92195030D01*
X114433002Y-92315990D01*
X114270434Y-92445761D01*
X114022519Y-92726730D01*
X113833965Y-93073102D01*
X113702974Y-93490435D01*
X113627746Y-93984287D01*
X113606232Y-94498400D01*
X112755657Y-94498400D01*
X112788236Y-94005467D01*
X112921627Y-93488880D01*
X113046530Y-93194618D01*
X113303961Y-92778396D01*
X113626145Y-92432894D01*
X114001158Y-92162177D01*
X114417075Y-91970307D01*
X114861971Y-91861351D01*
X115323921Y-91839370D01*
X115791001Y-91908430D01*
G36*
X138070661Y-91858451D02*
G01*
X138490476Y-91942215D01*
X138738821Y-92034301D01*
X138918319Y-92113888D01*
X139029314Y-92149847D01*
X139095048Y-92142196D01*
X139138769Y-92090951D01*
X139166243Y-92034600D01*
X139255016Y-91930222D01*
X139335424Y-91907600D01*
X139390756Y-91915461D01*
X139426764Y-91952480D01*
X139450367Y-92038804D01*
X139468486Y-92194584D01*
X139479366Y-92326700D01*
X139495076Y-92586194D01*
X139506733Y-92888359D01*
X139512152Y-93174286D01*
X139512295Y-93215700D01*
X139511404Y-93435745D01*
X139505032Y-93573472D01*
X139488147Y-93648161D01*
X139455717Y-93679093D01*
X139402713Y-93685549D01*
X139389682Y-93685600D01*
X139312211Y-93670169D01*
X139254798Y-93608588D01*
X139199361Y-93477918D01*
X139179458Y-93418900D01*
X139010164Y-92986053D01*
X138813234Y-92646869D01*
X138582135Y-92395627D01*
X138310337Y-92226607D01*
X137991307Y-92134087D01*
X137686525Y-92111296D01*
X137320348Y-92144026D01*
X137011404Y-92248316D01*
X136735561Y-92434878D01*
X136555200Y-92613513D01*
X136342962Y-92897502D01*
X136186101Y-93221945D01*
X136080619Y-93600571D01*
X136022519Y-94047108D01*
X136007400Y-94494660D01*
X136039771Y-95040638D01*
X136138287Y-95513589D01*
X136305051Y-95919360D01*
X136542165Y-96263799D01*
X136703015Y-96428932D01*
X136958964Y-96628626D01*
X137221953Y-96755621D01*
X137519500Y-96819048D01*
X137879120Y-96828038D01*
X137902728Y-96827070D01*
X138185807Y-96802676D01*
X138405526Y-96753165D01*
X138561499Y-96689772D01*
X138804199Y-96570781D01*
X138790099Y-95882875D01*
X138783693Y-95606186D01*
X138775539Y-95412821D01*
X138762283Y-95284516D01*
X138740574Y-95203007D01*
X138707058Y-95150030D01*
X138658382Y-95107322D01*
X138646011Y-95098016D01*
X138515031Y-95034884D01*
X138329184Y-94986138D01*
X138226911Y-94971224D01*
X138062698Y-94950132D01*
X137975877Y-94922089D01*
X137942391Y-94874634D01*
X137937800Y-94821492D01*
X137937800Y-94701600D01*
X140173000Y-94701600D01*
X140173000Y-94828600D01*
X140151431Y-94925869D01*
X140069326Y-94955307D01*
X140053580Y-94955600D01*
X139877236Y-94980032D01*
X139708943Y-95042402D01*
X139587938Y-95126319D01*
X139562327Y-95160803D01*
X139544184Y-95243850D01*
X139529005Y-95406967D01*
X139518125Y-95628636D01*
X139512878Y-95887340D01*
X139512600Y-95962858D01*
X139512600Y-96671995D01*
X139195100Y-96798578D01*
X138783967Y-96935554D01*
X138343898Y-97035423D01*
X137906368Y-97093484D01*
X137502854Y-97105037D01*
X137274238Y-97085455D01*
X136802122Y-96968886D01*
X136377033Y-96768806D01*
X136005059Y-96494690D01*
X135692284Y-96156014D01*
X135444796Y-95762252D01*
X135268682Y-95322881D01*
X135170027Y-94847375D01*
X135154919Y-94345210D01*
X135216868Y-93882602D01*
X135364977Y-93412807D01*
X135596553Y-92980704D01*
X135900301Y-92599937D01*
X136264924Y-92284147D01*
X136679128Y-92046975D01*
X136767371Y-92009999D01*
X137179181Y-91891974D01*
X137623587Y-91841581D01*
X138070661Y-91858451D01*
G37*
X138070661Y-91858451D02*
X138490476Y-91942215D01*
X138738821Y-92034301D01*
X138918319Y-92113888D01*
X139029314Y-92149847D01*
X139095048Y-92142196D01*
X139138769Y-92090951D01*
X139166243Y-92034600D01*
X139255016Y-91930222D01*
X139335424Y-91907600D01*
X139390756Y-91915461D01*
X139426764Y-91952480D01*
X139450367Y-92038804D01*
X139468486Y-92194584D01*
X139479366Y-92326700D01*
X139495076Y-92586194D01*
X139506733Y-92888359D01*
X139512152Y-93174286D01*
X139512295Y-93215700D01*
X139511404Y-93435745D01*
X139505032Y-93573472D01*
X139488147Y-93648161D01*
X139455717Y-93679093D01*
X139402713Y-93685549D01*
X139389682Y-93685600D01*
X139312211Y-93670169D01*
X139254798Y-93608588D01*
X139199361Y-93477918D01*
X139179458Y-93418900D01*
X139010164Y-92986053D01*
X138813234Y-92646869D01*
X138582135Y-92395627D01*
X138310337Y-92226607D01*
X137991307Y-92134087D01*
X137686525Y-92111296D01*
X137320348Y-92144026D01*
X137011404Y-92248316D01*
X136735561Y-92434878D01*
X136555200Y-92613513D01*
X136342962Y-92897502D01*
X136186101Y-93221945D01*
X136080619Y-93600571D01*
X136022519Y-94047108D01*
X136007400Y-94494660D01*
X136039771Y-95040638D01*
X136138287Y-95513589D01*
X136305051Y-95919360D01*
X136542165Y-96263799D01*
X136703015Y-96428932D01*
X136958964Y-96628626D01*
X137221953Y-96755621D01*
X137519500Y-96819048D01*
X137879120Y-96828038D01*
X137902728Y-96827070D01*
X138185807Y-96802676D01*
X138405526Y-96753165D01*
X138561499Y-96689772D01*
X138804199Y-96570781D01*
X138790099Y-95882875D01*
X138783693Y-95606186D01*
X138775539Y-95412821D01*
X138762283Y-95284516D01*
X138740574Y-95203007D01*
X138707058Y-95150030D01*
X138658382Y-95107322D01*
X138646011Y-95098016D01*
X138515031Y-95034884D01*
X138329184Y-94986138D01*
X138226911Y-94971224D01*
X138062698Y-94950132D01*
X137975877Y-94922089D01*
X137942391Y-94874634D01*
X137937800Y-94821492D01*
X137937800Y-94701600D01*
X140173000Y-94701600D01*
X140173000Y-94828600D01*
X140151431Y-94925869D01*
X140069326Y-94955307D01*
X140053580Y-94955600D01*
X139877236Y-94980032D01*
X139708943Y-95042402D01*
X139587938Y-95126319D01*
X139562327Y-95160803D01*
X139544184Y-95243850D01*
X139529005Y-95406967D01*
X139518125Y-95628636D01*
X139512878Y-95887340D01*
X139512600Y-95962858D01*
X139512600Y-96671995D01*
X139195100Y-96798578D01*
X138783967Y-96935554D01*
X138343898Y-97035423D01*
X137906368Y-97093484D01*
X137502854Y-97105037D01*
X137274238Y-97085455D01*
X136802122Y-96968886D01*
X136377033Y-96768806D01*
X136005059Y-96494690D01*
X135692284Y-96156014D01*
X135444796Y-95762252D01*
X135268682Y-95322881D01*
X135170027Y-94847375D01*
X135154919Y-94345210D01*
X135216868Y-93882602D01*
X135364977Y-93412807D01*
X135596553Y-92980704D01*
X135900301Y-92599937D01*
X136264924Y-92284147D01*
X136679128Y-92046975D01*
X136767371Y-92009999D01*
X137179181Y-91891974D01*
X137623587Y-91841581D01*
X138070661Y-91858451D01*
G36*
X175713461Y-91858451D02*
G01*
X176133276Y-91942215D01*
X176381621Y-92034301D01*
X176561119Y-92113888D01*
X176672114Y-92149847D01*
X176737848Y-92142196D01*
X176781569Y-92090951D01*
X176809043Y-92034600D01*
X176897816Y-91930222D01*
X176978224Y-91907600D01*
X177033556Y-91915461D01*
X177069564Y-91952480D01*
X177093167Y-92038804D01*
X177111286Y-92194584D01*
X177122166Y-92326700D01*
X177137876Y-92586194D01*
X177149533Y-92888359D01*
X177154952Y-93174286D01*
X177155095Y-93215700D01*
X177154204Y-93435745D01*
X177147832Y-93573472D01*
X177130947Y-93648161D01*
X177098517Y-93679093D01*
X177045513Y-93685549D01*
X177032482Y-93685600D01*
X176955011Y-93670169D01*
X176897598Y-93608588D01*
X176842161Y-93477918D01*
X176822258Y-93418900D01*
X176652964Y-92986053D01*
X176456034Y-92646869D01*
X176224935Y-92395627D01*
X175953137Y-92226607D01*
X175634107Y-92134087D01*
X175329325Y-92111296D01*
X174963148Y-92144026D01*
X174654204Y-92248316D01*
X174378361Y-92434878D01*
X174198000Y-92613513D01*
X173985762Y-92897502D01*
X173828901Y-93221945D01*
X173723419Y-93600571D01*
X173665319Y-94047108D01*
X173650200Y-94494660D01*
X173682571Y-95040638D01*
X173781087Y-95513589D01*
X173947851Y-95919360D01*
X174184965Y-96263799D01*
X174345815Y-96428932D01*
X174601764Y-96628626D01*
X174864753Y-96755621D01*
X175162300Y-96819048D01*
X175521920Y-96828038D01*
X175545528Y-96827070D01*
X175828607Y-96802676D01*
X176048326Y-96753165D01*
X176204299Y-96689772D01*
X176446999Y-96570781D01*
X176432899Y-95882875D01*
X176426493Y-95606186D01*
X176418339Y-95412821D01*
X176405083Y-95284516D01*
X176383374Y-95203007D01*
X176349858Y-95150030D01*
X176301182Y-95107322D01*
X176288811Y-95098016D01*
X176157831Y-95034884D01*
X175971984Y-94986138D01*
X175869711Y-94971224D01*
X175705498Y-94950132D01*
X175618677Y-94922089D01*
X175585191Y-94874634D01*
X175580600Y-94821492D01*
X175580600Y-94701600D01*
X177765000Y-94701600D01*
X177765000Y-94822107D01*
X177748658Y-94903455D01*
X177681510Y-94948967D01*
X177561085Y-94975221D01*
X177415172Y-95005325D01*
X177309016Y-95051876D01*
X177236358Y-95129771D01*
X177190940Y-95253905D01*
X177166503Y-95439174D01*
X177156790Y-95700473D01*
X177155400Y-95940797D01*
X177155400Y-96671995D01*
X176837900Y-96798578D01*
X176426767Y-96935554D01*
X175986698Y-97035423D01*
X175549168Y-97093484D01*
X175145654Y-97105037D01*
X174917038Y-97085455D01*
X174444922Y-96968886D01*
X174019833Y-96768806D01*
X173647859Y-96494690D01*
X173335084Y-96156014D01*
X173087596Y-95762252D01*
X172911482Y-95322881D01*
X172812827Y-94847375D01*
X172797719Y-94345210D01*
X172859668Y-93882602D01*
X173007777Y-93412807D01*
X173239353Y-92980704D01*
X173543101Y-92599937D01*
X173907724Y-92284147D01*
X174321928Y-92046975D01*
X174410171Y-92009999D01*
X174821981Y-91891974D01*
X175266387Y-91841581D01*
X175713461Y-91858451D01*
G37*
X175713461Y-91858451D02*
X176133276Y-91942215D01*
X176381621Y-92034301D01*
X176561119Y-92113888D01*
X176672114Y-92149847D01*
X176737848Y-92142196D01*
X176781569Y-92090951D01*
X176809043Y-92034600D01*
X176897816Y-91930222D01*
X176978224Y-91907600D01*
X177033556Y-91915461D01*
X177069564Y-91952480D01*
X177093167Y-92038804D01*
X177111286Y-92194584D01*
X177122166Y-92326700D01*
X177137876Y-92586194D01*
X177149533Y-92888359D01*
X177154952Y-93174286D01*
X177155095Y-93215700D01*
X177154204Y-93435745D01*
X177147832Y-93573472D01*
X177130947Y-93648161D01*
X177098517Y-93679093D01*
X177045513Y-93685549D01*
X177032482Y-93685600D01*
X176955011Y-93670169D01*
X176897598Y-93608588D01*
X176842161Y-93477918D01*
X176822258Y-93418900D01*
X176652964Y-92986053D01*
X176456034Y-92646869D01*
X176224935Y-92395627D01*
X175953137Y-92226607D01*
X175634107Y-92134087D01*
X175329325Y-92111296D01*
X174963148Y-92144026D01*
X174654204Y-92248316D01*
X174378361Y-92434878D01*
X174198000Y-92613513D01*
X173985762Y-92897502D01*
X173828901Y-93221945D01*
X173723419Y-93600571D01*
X173665319Y-94047108D01*
X173650200Y-94494660D01*
X173682571Y-95040638D01*
X173781087Y-95513589D01*
X173947851Y-95919360D01*
X174184965Y-96263799D01*
X174345815Y-96428932D01*
X174601764Y-96628626D01*
X174864753Y-96755621D01*
X175162300Y-96819048D01*
X175521920Y-96828038D01*
X175545528Y-96827070D01*
X175828607Y-96802676D01*
X176048326Y-96753165D01*
X176204299Y-96689772D01*
X176446999Y-96570781D01*
X176432899Y-95882875D01*
X176426493Y-95606186D01*
X176418339Y-95412821D01*
X176405083Y-95284516D01*
X176383374Y-95203007D01*
X176349858Y-95150030D01*
X176301182Y-95107322D01*
X176288811Y-95098016D01*
X176157831Y-95034884D01*
X175971984Y-94986138D01*
X175869711Y-94971224D01*
X175705498Y-94950132D01*
X175618677Y-94922089D01*
X175585191Y-94874634D01*
X175580600Y-94821492D01*
X175580600Y-94701600D01*
X177765000Y-94701600D01*
X177765000Y-94822107D01*
X177748658Y-94903455D01*
X177681510Y-94948967D01*
X177561085Y-94975221D01*
X177415172Y-95005325D01*
X177309016Y-95051876D01*
X177236358Y-95129771D01*
X177190940Y-95253905D01*
X177166503Y-95439174D01*
X177156790Y-95700473D01*
X177155400Y-95940797D01*
X177155400Y-96671995D01*
X176837900Y-96798578D01*
X176426767Y-96935554D01*
X175986698Y-97035423D01*
X175549168Y-97093484D01*
X175145654Y-97105037D01*
X174917038Y-97085455D01*
X174444922Y-96968886D01*
X174019833Y-96768806D01*
X173647859Y-96494690D01*
X173335084Y-96156014D01*
X173087596Y-95762252D01*
X172911482Y-95322881D01*
X172812827Y-94847375D01*
X172797719Y-94345210D01*
X172859668Y-93882602D01*
X173007777Y-93412807D01*
X173239353Y-92980704D01*
X173543101Y-92599937D01*
X173907724Y-92284147D01*
X174321928Y-92046975D01*
X174410171Y-92009999D01*
X174821981Y-91891974D01*
X175266387Y-91841581D01*
X175713461Y-91858451D01*
G36*
X134737400Y-92028107D02*
G01*
X134721488Y-92108684D01*
X134655748Y-92154148D01*
X134528867Y-92181960D01*
X134272388Y-92246160D01*
X134099928Y-92347969D01*
X133997968Y-92496553D01*
X133978048Y-92555381D01*
X133964368Y-92657453D01*
X133952483Y-92854839D01*
X133942534Y-93141267D01*
X133934664Y-93510464D01*
X133929012Y-93956160D01*
X133925721Y-94472080D01*
X133924883Y-94917500D01*
X133924600Y-97089200D01*
X133782604Y-97089200D01*
X133746285Y-97083085D01*
X133702732Y-97060453D01*
X133646716Y-97014868D01*
X133573012Y-96939894D01*
X133476393Y-96829097D01*
X133351632Y-96676041D01*
X133193504Y-96474293D01*
X132996780Y-96217416D01*
X132756235Y-95898976D01*
X132466642Y-95512538D01*
X132122775Y-95051667D01*
X132068104Y-94978286D01*
X130495600Y-92867373D01*
X130482204Y-94489560D01*
X130479318Y-94988883D01*
X130479880Y-95395201D01*
X130484129Y-95717057D01*
X130492305Y-95962995D01*
X130504645Y-96141559D01*
X130521390Y-96261294D01*
X130533004Y-96306517D01*
X130651111Y-96508913D01*
X130847773Y-96661513D01*
X131107552Y-96753091D01*
X131159721Y-96762213D01*
X131300851Y-96790996D01*
X131366955Y-96833277D01*
X131384497Y-96907291D01*
X131384600Y-96917168D01*
X131384600Y-97038400D01*
X129301800Y-97038400D01*
X129301800Y-96923421D01*
X129317401Y-96851562D01*
X129379866Y-96801939D01*
X129512689Y-96758813D01*
X129567681Y-96745285D01*
X129765162Y-96687301D01*
X129906080Y-96610563D01*
X130002008Y-96497261D01*
X130064518Y-96329581D01*
X130105185Y-96089712D01*
X130125360Y-95886956D01*
X130138153Y-95675544D01*
X130148207Y-95385244D01*
X130155139Y-95038743D01*
X130158563Y-94658727D01*
X130158095Y-94267882D01*
X130156171Y-94066600D01*
X130150602Y-93670901D01*
X130144460Y-93363329D01*
X130136624Y-93130410D01*
X130125972Y-92958674D01*
X130111383Y-92834647D01*
X130091735Y-92744857D01*
X130065906Y-92675832D01*
X130035653Y-92618972D01*
X129855671Y-92404537D01*
X129615608Y-92248329D01*
X129394718Y-92179719D01*
X129265199Y-92148292D01*
X129209747Y-92095906D01*
X129200200Y-92028107D01*
X129200200Y-91907600D01*
X129924100Y-91910591D01*
X130648000Y-91913583D01*
X132095800Y-93870160D01*
X133543600Y-95826736D01*
X133558621Y-94387868D01*
X133561441Y-94003345D01*
X133561850Y-93641493D01*
X133560005Y-93317854D01*
X133556062Y-93047975D01*
X133550178Y-92847397D01*
X133542511Y-92731667D01*
X133541852Y-92726721D01*
X133477805Y-92511667D01*
X133348615Y-92357022D01*
X133141790Y-92251032D01*
X132992468Y-92209675D01*
X132828327Y-92167562D01*
X132741486Y-92125583D01*
X132708748Y-92068937D01*
X132705400Y-92026516D01*
X132705400Y-91907600D01*
X134737400Y-91907600D01*
X134737400Y-92028107D01*
G37*
X134737400Y-92028107D02*
X134721488Y-92108684D01*
X134655748Y-92154148D01*
X134528867Y-92181960D01*
X134272388Y-92246160D01*
X134099928Y-92347969D01*
X133997968Y-92496553D01*
X133978048Y-92555381D01*
X133964368Y-92657453D01*
X133952483Y-92854839D01*
X133942534Y-93141267D01*
X133934664Y-93510464D01*
X133929012Y-93956160D01*
X133925721Y-94472080D01*
X133924883Y-94917500D01*
X133924600Y-97089200D01*
X133782604Y-97089200D01*
X133746285Y-97083085D01*
X133702732Y-97060453D01*
X133646716Y-97014868D01*
X133573012Y-96939894D01*
X133476393Y-96829097D01*
X133351632Y-96676041D01*
X133193504Y-96474293D01*
X132996780Y-96217416D01*
X132756235Y-95898976D01*
X132466642Y-95512538D01*
X132122775Y-95051667D01*
X132068104Y-94978286D01*
X130495600Y-92867373D01*
X130482204Y-94489560D01*
X130479318Y-94988883D01*
X130479880Y-95395201D01*
X130484129Y-95717057D01*
X130492305Y-95962995D01*
X130504645Y-96141559D01*
X130521390Y-96261294D01*
X130533004Y-96306517D01*
X130651111Y-96508913D01*
X130847773Y-96661513D01*
X131107552Y-96753091D01*
X131159721Y-96762213D01*
X131300851Y-96790996D01*
X131366955Y-96833277D01*
X131384497Y-96907291D01*
X131384600Y-96917168D01*
X131384600Y-97038400D01*
X129301800Y-97038400D01*
X129301800Y-96923421D01*
X129317401Y-96851562D01*
X129379866Y-96801939D01*
X129512689Y-96758813D01*
X129567681Y-96745285D01*
X129765162Y-96687301D01*
X129906080Y-96610563D01*
X130002008Y-96497261D01*
X130064518Y-96329581D01*
X130105185Y-96089712D01*
X130125360Y-95886956D01*
X130138153Y-95675544D01*
X130148207Y-95385244D01*
X130155139Y-95038743D01*
X130158563Y-94658727D01*
X130158095Y-94267882D01*
X130156171Y-94066600D01*
X130150602Y-93670901D01*
X130144460Y-93363329D01*
X130136624Y-93130410D01*
X130125972Y-92958674D01*
X130111383Y-92834647D01*
X130091735Y-92744857D01*
X130065906Y-92675832D01*
X130035653Y-92618972D01*
X129855671Y-92404537D01*
X129615608Y-92248329D01*
X129394718Y-92179719D01*
X129265199Y-92148292D01*
X129209747Y-92095906D01*
X129200200Y-92028107D01*
X129200200Y-91907600D01*
X129924100Y-91910591D01*
X130648000Y-91913583D01*
X132095800Y-93870160D01*
X133543600Y-95826736D01*
X133558621Y-94387868D01*
X133561441Y-94003345D01*
X133561850Y-93641493D01*
X133560005Y-93317854D01*
X133556062Y-93047975D01*
X133550178Y-92847397D01*
X133542511Y-92731667D01*
X133541852Y-92726721D01*
X133477805Y-92511667D01*
X133348615Y-92357022D01*
X133141790Y-92251032D01*
X132992468Y-92209675D01*
X132828327Y-92167562D01*
X132741486Y-92125583D01*
X132708748Y-92068937D01*
X132705400Y-92026516D01*
X132705400Y-91907600D01*
X134737400Y-91907600D01*
X134737400Y-92028107D01*
G36*
X148809000Y-92028107D02*
G01*
X148793088Y-92108684D01*
X148727348Y-92154148D01*
X148600467Y-92181960D01*
X148343988Y-92246160D01*
X148171528Y-92347969D01*
X148069568Y-92496553D01*
X148049648Y-92555381D01*
X148035968Y-92657453D01*
X148024083Y-92854839D01*
X148014134Y-93141267D01*
X148006264Y-93510464D01*
X148000612Y-93956160D01*
X147997321Y-94472080D01*
X147996483Y-94917500D01*
X147996200Y-97089200D01*
X147854204Y-97089200D01*
X147817885Y-97083085D01*
X147774332Y-97060453D01*
X147718316Y-97014868D01*
X147644612Y-96939894D01*
X147547993Y-96829097D01*
X147423232Y-96676041D01*
X147265104Y-96474293D01*
X147068380Y-96217416D01*
X146827835Y-95898976D01*
X146538242Y-95512538D01*
X146194375Y-95051667D01*
X146139704Y-94978286D01*
X144567200Y-92867373D01*
X144553804Y-94489560D01*
X144550918Y-94988883D01*
X144551480Y-95395201D01*
X144555729Y-95717057D01*
X144563905Y-95962995D01*
X144576245Y-96141559D01*
X144592990Y-96261294D01*
X144604604Y-96306517D01*
X144722711Y-96508913D01*
X144919373Y-96661513D01*
X145179152Y-96753091D01*
X145231321Y-96762213D01*
X145372451Y-96790996D01*
X145438555Y-96833277D01*
X145456097Y-96907291D01*
X145456200Y-96917168D01*
X145456200Y-97038400D01*
X143373400Y-97038400D01*
X143373400Y-96923421D01*
X143389001Y-96851562D01*
X143451466Y-96801939D01*
X143584289Y-96758813D01*
X143639281Y-96745285D01*
X143836762Y-96687301D01*
X143977680Y-96610563D01*
X144073608Y-96497261D01*
X144136118Y-96329581D01*
X144176785Y-96089712D01*
X144196960Y-95886956D01*
X144209753Y-95675544D01*
X144219807Y-95385244D01*
X144226739Y-95038743D01*
X144230163Y-94658727D01*
X144229695Y-94267882D01*
X144227771Y-94066600D01*
X144222202Y-93670901D01*
X144216060Y-93363329D01*
X144208224Y-93130410D01*
X144197572Y-92958674D01*
X144182983Y-92834647D01*
X144163335Y-92744857D01*
X144137506Y-92675832D01*
X144107253Y-92618972D01*
X143927271Y-92404537D01*
X143687208Y-92248329D01*
X143466318Y-92179719D01*
X143336799Y-92148292D01*
X143281347Y-92095906D01*
X143271800Y-92028107D01*
X143271800Y-91907600D01*
X143995700Y-91910591D01*
X144719600Y-91913583D01*
X146167400Y-93870160D01*
X147615200Y-95826736D01*
X147630221Y-94387868D01*
X147633041Y-94003345D01*
X147633450Y-93641493D01*
X147631605Y-93317854D01*
X147627662Y-93047975D01*
X147621778Y-92847397D01*
X147614111Y-92731667D01*
X147613452Y-92726721D01*
X147549405Y-92511667D01*
X147420215Y-92357022D01*
X147213390Y-92251032D01*
X147064068Y-92209675D01*
X146899927Y-92167562D01*
X146813086Y-92125583D01*
X146780348Y-92068937D01*
X146777000Y-92026516D01*
X146777000Y-91907600D01*
X148809000Y-91907600D01*
X148809000Y-92028107D01*
G37*
X148809000Y-92028107D02*
X148793088Y-92108684D01*
X148727348Y-92154148D01*
X148600467Y-92181960D01*
X148343988Y-92246160D01*
X148171528Y-92347969D01*
X148069568Y-92496553D01*
X148049648Y-92555381D01*
X148035968Y-92657453D01*
X148024083Y-92854839D01*
X148014134Y-93141267D01*
X148006264Y-93510464D01*
X148000612Y-93956160D01*
X147997321Y-94472080D01*
X147996483Y-94917500D01*
X147996200Y-97089200D01*
X147854204Y-97089200D01*
X147817885Y-97083085D01*
X147774332Y-97060453D01*
X147718316Y-97014868D01*
X147644612Y-96939894D01*
X147547993Y-96829097D01*
X147423232Y-96676041D01*
X147265104Y-96474293D01*
X147068380Y-96217416D01*
X146827835Y-95898976D01*
X146538242Y-95512538D01*
X146194375Y-95051667D01*
X146139704Y-94978286D01*
X144567200Y-92867373D01*
X144553804Y-94489560D01*
X144550918Y-94988883D01*
X144551480Y-95395201D01*
X144555729Y-95717057D01*
X144563905Y-95962995D01*
X144576245Y-96141559D01*
X144592990Y-96261294D01*
X144604604Y-96306517D01*
X144722711Y-96508913D01*
X144919373Y-96661513D01*
X145179152Y-96753091D01*
X145231321Y-96762213D01*
X145372451Y-96790996D01*
X145438555Y-96833277D01*
X145456097Y-96907291D01*
X145456200Y-96917168D01*
X145456200Y-97038400D01*
X143373400Y-97038400D01*
X143373400Y-96923421D01*
X143389001Y-96851562D01*
X143451466Y-96801939D01*
X143584289Y-96758813D01*
X143639281Y-96745285D01*
X143836762Y-96687301D01*
X143977680Y-96610563D01*
X144073608Y-96497261D01*
X144136118Y-96329581D01*
X144176785Y-96089712D01*
X144196960Y-95886956D01*
X144209753Y-95675544D01*
X144219807Y-95385244D01*
X144226739Y-95038743D01*
X144230163Y-94658727D01*
X144229695Y-94267882D01*
X144227771Y-94066600D01*
X144222202Y-93670901D01*
X144216060Y-93363329D01*
X144208224Y-93130410D01*
X144197572Y-92958674D01*
X144182983Y-92834647D01*
X144163335Y-92744857D01*
X144137506Y-92675832D01*
X144107253Y-92618972D01*
X143927271Y-92404537D01*
X143687208Y-92248329D01*
X143466318Y-92179719D01*
X143336799Y-92148292D01*
X143281347Y-92095906D01*
X143271800Y-92028107D01*
X143271800Y-91907600D01*
X143995700Y-91910591D01*
X144719600Y-91913583D01*
X146167400Y-93870160D01*
X147615200Y-95826736D01*
X147630221Y-94387868D01*
X147633041Y-94003345D01*
X147633450Y-93641493D01*
X147631605Y-93317854D01*
X147627662Y-93047975D01*
X147621778Y-92847397D01*
X147614111Y-92731667D01*
X147613452Y-92726721D01*
X147549405Y-92511667D01*
X147420215Y-92357022D01*
X147213390Y-92251032D01*
X147064068Y-92209675D01*
X146899927Y-92167562D01*
X146813086Y-92125583D01*
X146780348Y-92068937D01*
X146777000Y-92026516D01*
X146777000Y-91907600D01*
X148809000Y-91907600D01*
X148809000Y-92028107D01*
G36*
X172380200Y-92028107D02*
G01*
X172364288Y-92108684D01*
X172298548Y-92154148D01*
X172171667Y-92181960D01*
X171915188Y-92246160D01*
X171742728Y-92347969D01*
X171640768Y-92496553D01*
X171620848Y-92555381D01*
X171607168Y-92657453D01*
X171595283Y-92854839D01*
X171585334Y-93141267D01*
X171577464Y-93510464D01*
X171571812Y-93956160D01*
X171568521Y-94472080D01*
X171567683Y-94917500D01*
X171567400Y-97089200D01*
X171425404Y-97089200D01*
X171389085Y-97083085D01*
X171345532Y-97060453D01*
X171289516Y-97014868D01*
X171215812Y-96939894D01*
X171119193Y-96829097D01*
X170994432Y-96676041D01*
X170836304Y-96474293D01*
X170639580Y-96217416D01*
X170399035Y-95898976D01*
X170109442Y-95512538D01*
X169765575Y-95051667D01*
X169710904Y-94978286D01*
X168138400Y-92867373D01*
X168125004Y-94489560D01*
X168122118Y-94988883D01*
X168122680Y-95395201D01*
X168126929Y-95717057D01*
X168135105Y-95962995D01*
X168147445Y-96141559D01*
X168164190Y-96261294D01*
X168175804Y-96306517D01*
X168293911Y-96508913D01*
X168490573Y-96661513D01*
X168750352Y-96753091D01*
X168802521Y-96762213D01*
X168943651Y-96790996D01*
X169009755Y-96833277D01*
X169027297Y-96907291D01*
X169027400Y-96917168D01*
X169027400Y-97038400D01*
X166944600Y-97038400D01*
X166944600Y-96923421D01*
X166960201Y-96851562D01*
X167022666Y-96801939D01*
X167155489Y-96758813D01*
X167210481Y-96745285D01*
X167407962Y-96687301D01*
X167548880Y-96610563D01*
X167644808Y-96497261D01*
X167707318Y-96329581D01*
X167747985Y-96089712D01*
X167768160Y-95886956D01*
X167780953Y-95675544D01*
X167791007Y-95385244D01*
X167797939Y-95038743D01*
X167801363Y-94658727D01*
X167800895Y-94267882D01*
X167798971Y-94066600D01*
X167793402Y-93670901D01*
X167787260Y-93363329D01*
X167779424Y-93130410D01*
X167768772Y-92958674D01*
X167754183Y-92834647D01*
X167734535Y-92744857D01*
X167708706Y-92675832D01*
X167678453Y-92618972D01*
X167498471Y-92404537D01*
X167258408Y-92248329D01*
X167037518Y-92179719D01*
X166907999Y-92148292D01*
X166852547Y-92095906D01*
X166843000Y-92028107D01*
X166843000Y-91907600D01*
X167566900Y-91910591D01*
X168290800Y-91913583D01*
X169738600Y-93870160D01*
X171186400Y-95826736D01*
X171201421Y-94387868D01*
X171204241Y-94003345D01*
X171204650Y-93641493D01*
X171202805Y-93317854D01*
X171198862Y-93047975D01*
X171192978Y-92847397D01*
X171185311Y-92731667D01*
X171184652Y-92726721D01*
X171120605Y-92511667D01*
X170991415Y-92357022D01*
X170784590Y-92251032D01*
X170635268Y-92209675D01*
X170471127Y-92167562D01*
X170384286Y-92125583D01*
X170351548Y-92068937D01*
X170348200Y-92026516D01*
X170348200Y-91907600D01*
X172380200Y-91907600D01*
X172380200Y-92028107D01*
G37*
X172380200Y-92028107D02*
X172364288Y-92108684D01*
X172298548Y-92154148D01*
X172171667Y-92181960D01*
X171915188Y-92246160D01*
X171742728Y-92347969D01*
X171640768Y-92496553D01*
X171620848Y-92555381D01*
X171607168Y-92657453D01*
X171595283Y-92854839D01*
X171585334Y-93141267D01*
X171577464Y-93510464D01*
X171571812Y-93956160D01*
X171568521Y-94472080D01*
X171567683Y-94917500D01*
X171567400Y-97089200D01*
X171425404Y-97089200D01*
X171389085Y-97083085D01*
X171345532Y-97060453D01*
X171289516Y-97014868D01*
X171215812Y-96939894D01*
X171119193Y-96829097D01*
X170994432Y-96676041D01*
X170836304Y-96474293D01*
X170639580Y-96217416D01*
X170399035Y-95898976D01*
X170109442Y-95512538D01*
X169765575Y-95051667D01*
X169710904Y-94978286D01*
X168138400Y-92867373D01*
X168125004Y-94489560D01*
X168122118Y-94988883D01*
X168122680Y-95395201D01*
X168126929Y-95717057D01*
X168135105Y-95962995D01*
X168147445Y-96141559D01*
X168164190Y-96261294D01*
X168175804Y-96306517D01*
X168293911Y-96508913D01*
X168490573Y-96661513D01*
X168750352Y-96753091D01*
X168802521Y-96762213D01*
X168943651Y-96790996D01*
X169009755Y-96833277D01*
X169027297Y-96907291D01*
X169027400Y-96917168D01*
X169027400Y-97038400D01*
X166944600Y-97038400D01*
X166944600Y-96923421D01*
X166960201Y-96851562D01*
X167022666Y-96801939D01*
X167155489Y-96758813D01*
X167210481Y-96745285D01*
X167407962Y-96687301D01*
X167548880Y-96610563D01*
X167644808Y-96497261D01*
X167707318Y-96329581D01*
X167747985Y-96089712D01*
X167768160Y-95886956D01*
X167780953Y-95675544D01*
X167791007Y-95385244D01*
X167797939Y-95038743D01*
X167801363Y-94658727D01*
X167800895Y-94267882D01*
X167798971Y-94066600D01*
X167793402Y-93670901D01*
X167787260Y-93363329D01*
X167779424Y-93130410D01*
X167768772Y-92958674D01*
X167754183Y-92834647D01*
X167734535Y-92744857D01*
X167708706Y-92675832D01*
X167678453Y-92618972D01*
X167498471Y-92404537D01*
X167258408Y-92248329D01*
X167037518Y-92179719D01*
X166907999Y-92148292D01*
X166852547Y-92095906D01*
X166843000Y-92028107D01*
X166843000Y-91907600D01*
X167566900Y-91910591D01*
X168290800Y-91913583D01*
X169738600Y-93870160D01*
X171186400Y-95826736D01*
X171201421Y-94387868D01*
X171204241Y-94003345D01*
X171204650Y-93641493D01*
X171202805Y-93317854D01*
X171198862Y-93047975D01*
X171192978Y-92847397D01*
X171185311Y-92731667D01*
X171184652Y-92726721D01*
X171120605Y-92511667D01*
X170991415Y-92357022D01*
X170784590Y-92251032D01*
X170635268Y-92209675D01*
X170471127Y-92167562D01*
X170384286Y-92125583D01*
X170351548Y-92068937D01*
X170348200Y-92026516D01*
X170348200Y-91907600D01*
X172380200Y-91907600D01*
X172380200Y-92028107D01*
G36*
X89017400Y-92027993D02*
G01*
X89004206Y-92104517D01*
X88946913Y-92146382D01*
X88818950Y-92170621D01*
X88789532Y-92174070D01*
X88616853Y-92209184D01*
X88466056Y-92265192D01*
X88433932Y-92283448D01*
X88306200Y-92367142D01*
X88306200Y-94439061D01*
X88306733Y-94968629D01*
X88308531Y-95405483D01*
X88311887Y-95758504D01*
X88317097Y-96036572D01*
X88324454Y-96248568D01*
X88334254Y-96403375D01*
X88346791Y-96509872D01*
X88362359Y-96576940D01*
X88378202Y-96609590D01*
X88420733Y-96652407D01*
X88487171Y-96682041D01*
X88596351Y-96701698D01*
X88767112Y-96714584D01*
X89018290Y-96723904D01*
X89056140Y-96724974D01*
X89403907Y-96729174D01*
X89668649Y-96716561D01*
X89868250Y-96682146D01*
X90020595Y-96620939D01*
X90143568Y-96527949D01*
X90255054Y-96398185D01*
X90262276Y-96388431D01*
X90382690Y-96210280D01*
X90514083Y-95994293D01*
X90604024Y-95832087D01*
X90719571Y-95636068D01*
X90813247Y-95533472D01*
X90864968Y-95514587D01*
X90906475Y-95521114D01*
X90931892Y-95552678D01*
X90943199Y-95626954D01*
X90942379Y-95761621D01*
X90931412Y-95974354D01*
X90926164Y-96060500D01*
X90909139Y-96312074D01*
X90890489Y-96549753D01*
X90872939Y-96740387D01*
X90863528Y-96822500D01*
X90834663Y-97038400D01*
X86833000Y-97038400D01*
X86833000Y-96917863D01*
X86843787Y-96845880D01*
X86892901Y-96805168D01*
X87005471Y-96781817D01*
X87096470Y-96772010D01*
X87204026Y-96762270D01*
X87292844Y-96749621D01*
X87364714Y-96725038D01*
X87421426Y-96679499D01*
X87464769Y-96603980D01*
X87496533Y-96489458D01*
X87518509Y-96326909D01*
X87532486Y-96107312D01*
X87540254Y-95821641D01*
X87543603Y-95460874D01*
X87544322Y-95015988D01*
X87544200Y-94514832D01*
X87542953Y-94011732D01*
X87539341Y-93562782D01*
X87533555Y-93176137D01*
X87525788Y-92859948D01*
X87516230Y-92622369D01*
X87505074Y-92471552D01*
X87494882Y-92418369D01*
X87413398Y-92340185D01*
X87270819Y-92259730D01*
X87105679Y-92194632D01*
X86956515Y-92162518D01*
X86933571Y-92161599D01*
X86854554Y-92131298D01*
X86833000Y-92034600D01*
X86833000Y-91907600D01*
X89017400Y-91907600D01*
X89017400Y-92027993D01*
G37*
X89017400Y-92027993D02*
X89004206Y-92104517D01*
X88946913Y-92146382D01*
X88818950Y-92170621D01*
X88789532Y-92174070D01*
X88616853Y-92209184D01*
X88466056Y-92265192D01*
X88433932Y-92283448D01*
X88306200Y-92367142D01*
X88306200Y-94439061D01*
X88306733Y-94968629D01*
X88308531Y-95405483D01*
X88311887Y-95758504D01*
X88317097Y-96036572D01*
X88324454Y-96248568D01*
X88334254Y-96403375D01*
X88346791Y-96509872D01*
X88362359Y-96576940D01*
X88378202Y-96609590D01*
X88420733Y-96652407D01*
X88487171Y-96682041D01*
X88596351Y-96701698D01*
X88767112Y-96714584D01*
X89018290Y-96723904D01*
X89056140Y-96724974D01*
X89403907Y-96729174D01*
X89668649Y-96716561D01*
X89868250Y-96682146D01*
X90020595Y-96620939D01*
X90143568Y-96527949D01*
X90255054Y-96398185D01*
X90262276Y-96388431D01*
X90382690Y-96210280D01*
X90514083Y-95994293D01*
X90604024Y-95832087D01*
X90719571Y-95636068D01*
X90813247Y-95533472D01*
X90864968Y-95514587D01*
X90906475Y-95521114D01*
X90931892Y-95552678D01*
X90943199Y-95626954D01*
X90942379Y-95761621D01*
X90931412Y-95974354D01*
X90926164Y-96060500D01*
X90909139Y-96312074D01*
X90890489Y-96549753D01*
X90872939Y-96740387D01*
X90863528Y-96822500D01*
X90834663Y-97038400D01*
X86833000Y-97038400D01*
X86833000Y-96917863D01*
X86843787Y-96845880D01*
X86892901Y-96805168D01*
X87005471Y-96781817D01*
X87096470Y-96772010D01*
X87204026Y-96762270D01*
X87292844Y-96749621D01*
X87364714Y-96725038D01*
X87421426Y-96679499D01*
X87464769Y-96603980D01*
X87496533Y-96489458D01*
X87518509Y-96326909D01*
X87532486Y-96107312D01*
X87540254Y-95821641D01*
X87543603Y-95460874D01*
X87544322Y-95015988D01*
X87544200Y-94514832D01*
X87542953Y-94011732D01*
X87539341Y-93562782D01*
X87533555Y-93176137D01*
X87525788Y-92859948D01*
X87516230Y-92622369D01*
X87505074Y-92471552D01*
X87494882Y-92418369D01*
X87413398Y-92340185D01*
X87270819Y-92259730D01*
X87105679Y-92194632D01*
X86956515Y-92162518D01*
X86933571Y-92161599D01*
X86854554Y-92131298D01*
X86833000Y-92034600D01*
X86833000Y-91907600D01*
X89017400Y-91907600D01*
X89017400Y-92027993D01*
G36*
X93538600Y-92027993D02*
G01*
X93525406Y-92104517D01*
X93468113Y-92146382D01*
X93340150Y-92170621D01*
X93310732Y-92174070D01*
X93138053Y-92209184D01*
X92987256Y-92265192D01*
X92955132Y-92283448D01*
X92827400Y-92367142D01*
X92827400Y-94439061D01*
X92827933Y-94968629D01*
X92829731Y-95405483D01*
X92833087Y-95758504D01*
X92838297Y-96036572D01*
X92845654Y-96248568D01*
X92855454Y-96403375D01*
X92867991Y-96509872D01*
X92883559Y-96576940D01*
X92899402Y-96609590D01*
X92941933Y-96652407D01*
X93008371Y-96682041D01*
X93117551Y-96701698D01*
X93288312Y-96714584D01*
X93539490Y-96723904D01*
X93577340Y-96724974D01*
X93925107Y-96729174D01*
X94189849Y-96716561D01*
X94389450Y-96682146D01*
X94541795Y-96620939D01*
X94664768Y-96527949D01*
X94776254Y-96398185D01*
X94783476Y-96388431D01*
X94903890Y-96210280D01*
X95035283Y-95994293D01*
X95125224Y-95832087D01*
X95240771Y-95636068D01*
X95334447Y-95533472D01*
X95386168Y-95514587D01*
X95427675Y-95521114D01*
X95453092Y-95552678D01*
X95464399Y-95626954D01*
X95463579Y-95761621D01*
X95452612Y-95974354D01*
X95447364Y-96060500D01*
X95430339Y-96312074D01*
X95411689Y-96549753D01*
X95394139Y-96740387D01*
X95384728Y-96822500D01*
X95355863Y-97038400D01*
X91354200Y-97038400D01*
X91354200Y-96917863D01*
X91364987Y-96845880D01*
X91414101Y-96805168D01*
X91526671Y-96781817D01*
X91617670Y-96772010D01*
X91725226Y-96762270D01*
X91814044Y-96749621D01*
X91885914Y-96725038D01*
X91942626Y-96679499D01*
X91985969Y-96603980D01*
X92017733Y-96489458D01*
X92039709Y-96326909D01*
X92053686Y-96107312D01*
X92061454Y-95821641D01*
X92064803Y-95460874D01*
X92065522Y-95015988D01*
X92065400Y-94514832D01*
X92064153Y-94011732D01*
X92060541Y-93562782D01*
X92054755Y-93176137D01*
X92046988Y-92859948D01*
X92037430Y-92622369D01*
X92026274Y-92471552D01*
X92016082Y-92418369D01*
X91934598Y-92340185D01*
X91792019Y-92259730D01*
X91626879Y-92194632D01*
X91477715Y-92162518D01*
X91454771Y-92161599D01*
X91375754Y-92131298D01*
X91354200Y-92034600D01*
X91354200Y-91907600D01*
X93538600Y-91907600D01*
X93538600Y-92027993D01*
G37*
X93538600Y-92027993D02*
X93525406Y-92104517D01*
X93468113Y-92146382D01*
X93340150Y-92170621D01*
X93310732Y-92174070D01*
X93138053Y-92209184D01*
X92987256Y-92265192D01*
X92955132Y-92283448D01*
X92827400Y-92367142D01*
X92827400Y-94439061D01*
X92827933Y-94968629D01*
X92829731Y-95405483D01*
X92833087Y-95758504D01*
X92838297Y-96036572D01*
X92845654Y-96248568D01*
X92855454Y-96403375D01*
X92867991Y-96509872D01*
X92883559Y-96576940D01*
X92899402Y-96609590D01*
X92941933Y-96652407D01*
X93008371Y-96682041D01*
X93117551Y-96701698D01*
X93288312Y-96714584D01*
X93539490Y-96723904D01*
X93577340Y-96724974D01*
X93925107Y-96729174D01*
X94189849Y-96716561D01*
X94389450Y-96682146D01*
X94541795Y-96620939D01*
X94664768Y-96527949D01*
X94776254Y-96398185D01*
X94783476Y-96388431D01*
X94903890Y-96210280D01*
X95035283Y-95994293D01*
X95125224Y-95832087D01*
X95240771Y-95636068D01*
X95334447Y-95533472D01*
X95386168Y-95514587D01*
X95427675Y-95521114D01*
X95453092Y-95552678D01*
X95464399Y-95626954D01*
X95463579Y-95761621D01*
X95452612Y-95974354D01*
X95447364Y-96060500D01*
X95430339Y-96312074D01*
X95411689Y-96549753D01*
X95394139Y-96740387D01*
X95384728Y-96822500D01*
X95355863Y-97038400D01*
X91354200Y-97038400D01*
X91354200Y-96917863D01*
X91364987Y-96845880D01*
X91414101Y-96805168D01*
X91526671Y-96781817D01*
X91617670Y-96772010D01*
X91725226Y-96762270D01*
X91814044Y-96749621D01*
X91885914Y-96725038D01*
X91942626Y-96679499D01*
X91985969Y-96603980D01*
X92017733Y-96489458D01*
X92039709Y-96326909D01*
X92053686Y-96107312D01*
X92061454Y-95821641D01*
X92064803Y-95460874D01*
X92065522Y-95015988D01*
X92065400Y-94514832D01*
X92064153Y-94011732D01*
X92060541Y-93562782D01*
X92054755Y-93176137D01*
X92046988Y-92859948D01*
X92037430Y-92622369D01*
X92026274Y-92471552D01*
X92016082Y-92418369D01*
X91934598Y-92340185D01*
X91792019Y-92259730D01*
X91626879Y-92194632D01*
X91477715Y-92162518D01*
X91454771Y-92161599D01*
X91375754Y-92131298D01*
X91354200Y-92034600D01*
X91354200Y-91907600D01*
X93538600Y-91907600D01*
X93538600Y-92027993D01*
G36*
X99837800Y-92517200D02*
G01*
X99837153Y-92774037D01*
X99833036Y-92946206D01*
X99822182Y-93050636D01*
X99801327Y-93104257D01*
X99767203Y-93124001D01*
X99720208Y-93126800D01*
X99620510Y-93093782D01*
X99535208Y-92982645D01*
X99512615Y-92938062D01*
X99383188Y-92713292D01*
X99224969Y-92506812D01*
X99062462Y-92348088D01*
X98971242Y-92287070D01*
X98876986Y-92254538D01*
X98731429Y-92232159D01*
X98519789Y-92218684D01*
X98227283Y-92212864D01*
X98087722Y-92212399D01*
X97348600Y-92212400D01*
X97348600Y-94244400D01*
X97860507Y-94244400D01*
X98094648Y-94242990D01*
X98251191Y-94235252D01*
X98354132Y-94215919D01*
X98427466Y-94179726D01*
X98495192Y-94121408D01*
X98516324Y-94100490D01*
X98622256Y-93956813D01*
X98706816Y-93778446D01*
X98721418Y-93732190D01*
X98762408Y-93582388D01*
X98793520Y-93469610D01*
X98800607Y-93444300D01*
X98859342Y-93392359D01*
X98921805Y-93380800D01*
X98956851Y-93384500D01*
X98982908Y-93404334D01*
X99001306Y-93453401D01*
X99013377Y-93544800D01*
X99020450Y-93691630D01*
X99023856Y-93906991D01*
X99024925Y-94203981D01*
X99025000Y-94396800D01*
X99024624Y-94741843D01*
X99022609Y-94998386D01*
X99017625Y-95179527D01*
X99008342Y-95298367D01*
X98993429Y-95368004D01*
X98971555Y-95401538D01*
X98941390Y-95412067D01*
X98921805Y-95412800D01*
X98829718Y-95385719D01*
X98800607Y-95349300D01*
X98776921Y-95263971D01*
X98738506Y-95123985D01*
X98721418Y-95061409D01*
X98649114Y-94885016D01*
X98545398Y-94725285D01*
X98516324Y-94693109D01*
X98445885Y-94627682D01*
X98376526Y-94585850D01*
X98284253Y-94562346D01*
X98145068Y-94551904D01*
X97934975Y-94549260D01*
X97860507Y-94549200D01*
X97348600Y-94549200D01*
X97348600Y-95516709D01*
X97348944Y-95852653D01*
X97351133Y-96102194D01*
X97356903Y-96280529D01*
X97367988Y-96402853D01*
X97386123Y-96484364D01*
X97413043Y-96540257D01*
X97450483Y-96585730D01*
X97473290Y-96608909D01*
X97527599Y-96658658D01*
X97586270Y-96693034D01*
X97668055Y-96714863D01*
X97791703Y-96726971D01*
X97975965Y-96732183D01*
X98239593Y-96733325D01*
X98298790Y-96733316D01*
X98573501Y-96729404D01*
X98827897Y-96718901D01*
X99036456Y-96703324D01*
X99173655Y-96684191D01*
X99189115Y-96680400D01*
X99340292Y-96605144D01*
X99489409Y-96459225D01*
X99643527Y-96233644D01*
X99809707Y-95919403D01*
X99845743Y-95843561D01*
X99941898Y-95656544D01*
X100019824Y-95551943D01*
X100091002Y-95515014D01*
X100102140Y-95514400D01*
X100146138Y-95519362D01*
X100173847Y-95545843D01*
X100187377Y-95611234D01*
X100188838Y-95732926D01*
X100180340Y-95928309D01*
X100171469Y-96085900D01*
X100155385Y-96338238D01*
X100137800Y-96572467D01*
X100121129Y-96758301D01*
X100110651Y-96847900D01*
X100082869Y-97038400D01*
X95875400Y-97038400D01*
X95875400Y-96918475D01*
X95886613Y-96846840D01*
X95936826Y-96805096D01*
X96050901Y-96779165D01*
X96142100Y-96767443D01*
X96248820Y-96755763D01*
X96336966Y-96741891D01*
X96408308Y-96716785D01*
X96464619Y-96671398D01*
X96507671Y-96596686D01*
X96539234Y-96483606D01*
X96561083Y-96323111D01*
X96574987Y-96106157D01*
X96582719Y-95823701D01*
X96586050Y-95466696D01*
X96586753Y-95026098D01*
X96586600Y-94498400D01*
X96586782Y-93969316D01*
X96586132Y-93532544D01*
X96582854Y-93178797D01*
X96575152Y-92898791D01*
X96561231Y-92683241D01*
X96539296Y-92522862D01*
X96507549Y-92408369D01*
X96464196Y-92330477D01*
X96407442Y-92279902D01*
X96335489Y-92247358D01*
X96246544Y-92223561D01*
X96142100Y-92199997D01*
X95984246Y-92156376D01*
X95903567Y-92110740D01*
X95876553Y-92047450D01*
X95875400Y-92022578D01*
X95875400Y-91907600D01*
X99837800Y-91907600D01*
X99837800Y-92517200D01*
G37*
X99837800Y-92517200D02*
X99837153Y-92774037D01*
X99833036Y-92946206D01*
X99822182Y-93050636D01*
X99801327Y-93104257D01*
X99767203Y-93124001D01*
X99720208Y-93126800D01*
X99620510Y-93093782D01*
X99535208Y-92982645D01*
X99512615Y-92938062D01*
X99383188Y-92713292D01*
X99224969Y-92506812D01*
X99062462Y-92348088D01*
X98971242Y-92287070D01*
X98876986Y-92254538D01*
X98731429Y-92232159D01*
X98519789Y-92218684D01*
X98227283Y-92212864D01*
X98087722Y-92212399D01*
X97348600Y-92212400D01*
X97348600Y-94244400D01*
X97860507Y-94244400D01*
X98094648Y-94242990D01*
X98251191Y-94235252D01*
X98354132Y-94215919D01*
X98427466Y-94179726D01*
X98495192Y-94121408D01*
X98516324Y-94100490D01*
X98622256Y-93956813D01*
X98706816Y-93778446D01*
X98721418Y-93732190D01*
X98762408Y-93582388D01*
X98793520Y-93469610D01*
X98800607Y-93444300D01*
X98859342Y-93392359D01*
X98921805Y-93380800D01*
X98956851Y-93384500D01*
X98982908Y-93404334D01*
X99001306Y-93453401D01*
X99013377Y-93544800D01*
X99020450Y-93691630D01*
X99023856Y-93906991D01*
X99024925Y-94203981D01*
X99025000Y-94396800D01*
X99024624Y-94741843D01*
X99022609Y-94998386D01*
X99017625Y-95179527D01*
X99008342Y-95298367D01*
X98993429Y-95368004D01*
X98971555Y-95401538D01*
X98941390Y-95412067D01*
X98921805Y-95412800D01*
X98829718Y-95385719D01*
X98800607Y-95349300D01*
X98776921Y-95263971D01*
X98738506Y-95123985D01*
X98721418Y-95061409D01*
X98649114Y-94885016D01*
X98545398Y-94725285D01*
X98516324Y-94693109D01*
X98445885Y-94627682D01*
X98376526Y-94585850D01*
X98284253Y-94562346D01*
X98145068Y-94551904D01*
X97934975Y-94549260D01*
X97860507Y-94549200D01*
X97348600Y-94549200D01*
X97348600Y-95516709D01*
X97348944Y-95852653D01*
X97351133Y-96102194D01*
X97356903Y-96280529D01*
X97367988Y-96402853D01*
X97386123Y-96484364D01*
X97413043Y-96540257D01*
X97450483Y-96585730D01*
X97473290Y-96608909D01*
X97527599Y-96658658D01*
X97586270Y-96693034D01*
X97668055Y-96714863D01*
X97791703Y-96726971D01*
X97975965Y-96732183D01*
X98239593Y-96733325D01*
X98298790Y-96733316D01*
X98573501Y-96729404D01*
X98827897Y-96718901D01*
X99036456Y-96703324D01*
X99173655Y-96684191D01*
X99189115Y-96680400D01*
X99340292Y-96605144D01*
X99489409Y-96459225D01*
X99643527Y-96233644D01*
X99809707Y-95919403D01*
X99845743Y-95843561D01*
X99941898Y-95656544D01*
X100019824Y-95551943D01*
X100091002Y-95515014D01*
X100102140Y-95514400D01*
X100146138Y-95519362D01*
X100173847Y-95545843D01*
X100187377Y-95611234D01*
X100188838Y-95732926D01*
X100180340Y-95928309D01*
X100171469Y-96085900D01*
X100155385Y-96338238D01*
X100137800Y-96572467D01*
X100121129Y-96758301D01*
X100110651Y-96847900D01*
X100082869Y-97038400D01*
X95875400Y-97038400D01*
X95875400Y-96918475D01*
X95886613Y-96846840D01*
X95936826Y-96805096D01*
X96050901Y-96779165D01*
X96142100Y-96767443D01*
X96248820Y-96755763D01*
X96336966Y-96741891D01*
X96408308Y-96716785D01*
X96464619Y-96671398D01*
X96507671Y-96596686D01*
X96539234Y-96483606D01*
X96561083Y-96323111D01*
X96574987Y-96106157D01*
X96582719Y-95823701D01*
X96586050Y-95466696D01*
X96586753Y-95026098D01*
X96586600Y-94498400D01*
X96586782Y-93969316D01*
X96586132Y-93532544D01*
X96582854Y-93178797D01*
X96575152Y-92898791D01*
X96561231Y-92683241D01*
X96539296Y-92522862D01*
X96507549Y-92408369D01*
X96464196Y-92330477D01*
X96407442Y-92279902D01*
X96335489Y-92247358D01*
X96246544Y-92223561D01*
X96142100Y-92199997D01*
X95984246Y-92156376D01*
X95903567Y-92110740D01*
X95876553Y-92047450D01*
X95875400Y-92022578D01*
X95875400Y-91907600D01*
X99837800Y-91907600D01*
X99837800Y-92517200D01*
G36*
X110099400Y-92517200D02*
G01*
X110098753Y-92774037D01*
X110094636Y-92946206D01*
X110083782Y-93050636D01*
X110062927Y-93104257D01*
X110028803Y-93124001D01*
X109981808Y-93126800D01*
X109882110Y-93093782D01*
X109796808Y-92982645D01*
X109774215Y-92938062D01*
X109644788Y-92713292D01*
X109486569Y-92506812D01*
X109324062Y-92348088D01*
X109232842Y-92287070D01*
X109138586Y-92254538D01*
X108993029Y-92232159D01*
X108781389Y-92218684D01*
X108488883Y-92212864D01*
X108349322Y-92212399D01*
X107610200Y-92212400D01*
X107610200Y-94244400D01*
X108122107Y-94244400D01*
X108356248Y-94242990D01*
X108512791Y-94235252D01*
X108615732Y-94215919D01*
X108689066Y-94179726D01*
X108756792Y-94121408D01*
X108777924Y-94100490D01*
X108883856Y-93956813D01*
X108968416Y-93778446D01*
X108983018Y-93732190D01*
X109024008Y-93582388D01*
X109055120Y-93469610D01*
X109062207Y-93444300D01*
X109120942Y-93392359D01*
X109183405Y-93380800D01*
X109218451Y-93384500D01*
X109244508Y-93404334D01*
X109262906Y-93453401D01*
X109274977Y-93544800D01*
X109282050Y-93691630D01*
X109285456Y-93906991D01*
X109286525Y-94203981D01*
X109286600Y-94396800D01*
X109286224Y-94741843D01*
X109284209Y-94998386D01*
X109279225Y-95179527D01*
X109269942Y-95298367D01*
X109255029Y-95368004D01*
X109233155Y-95401538D01*
X109202990Y-95412067D01*
X109183405Y-95412800D01*
X109091318Y-95385719D01*
X109062207Y-95349300D01*
X109038521Y-95263971D01*
X109000106Y-95123985D01*
X108983018Y-95061409D01*
X108910714Y-94885016D01*
X108806998Y-94725285D01*
X108777924Y-94693109D01*
X108707485Y-94627682D01*
X108638126Y-94585850D01*
X108545853Y-94562346D01*
X108406668Y-94551904D01*
X108196575Y-94549260D01*
X108122107Y-94549200D01*
X107610200Y-94549200D01*
X107610200Y-95516709D01*
X107610544Y-95852653D01*
X107612733Y-96102194D01*
X107618503Y-96280529D01*
X107629588Y-96402853D01*
X107647723Y-96484364D01*
X107674643Y-96540257D01*
X107712083Y-96585730D01*
X107734890Y-96608909D01*
X107789199Y-96658658D01*
X107847870Y-96693034D01*
X107929655Y-96714863D01*
X108053303Y-96726971D01*
X108237565Y-96732183D01*
X108501193Y-96733325D01*
X108560390Y-96733316D01*
X108835101Y-96729404D01*
X109089497Y-96718901D01*
X109298056Y-96703324D01*
X109435255Y-96684191D01*
X109450715Y-96680400D01*
X109601892Y-96605144D01*
X109751009Y-96459225D01*
X109905127Y-96233644D01*
X110071307Y-95919403D01*
X110107343Y-95843561D01*
X110203498Y-95656544D01*
X110281424Y-95551943D01*
X110352602Y-95515014D01*
X110363740Y-95514400D01*
X110407738Y-95519362D01*
X110435447Y-95545843D01*
X110448977Y-95611234D01*
X110450438Y-95732926D01*
X110441940Y-95928309D01*
X110433069Y-96085900D01*
X110416985Y-96338238D01*
X110399400Y-96572467D01*
X110382729Y-96758301D01*
X110372251Y-96847900D01*
X110344469Y-97038400D01*
X106137000Y-97038400D01*
X106137000Y-96918475D01*
X106148213Y-96846840D01*
X106198426Y-96805096D01*
X106312501Y-96779165D01*
X106403700Y-96767443D01*
X106510420Y-96755763D01*
X106598566Y-96741891D01*
X106669908Y-96716785D01*
X106726219Y-96671398D01*
X106769271Y-96596686D01*
X106800834Y-96483606D01*
X106822683Y-96323111D01*
X106836587Y-96106157D01*
X106844319Y-95823701D01*
X106847650Y-95466696D01*
X106848353Y-95026098D01*
X106848200Y-94498400D01*
X106848382Y-93969316D01*
X106847732Y-93532544D01*
X106844454Y-93178797D01*
X106836752Y-92898791D01*
X106822831Y-92683241D01*
X106800896Y-92522862D01*
X106769149Y-92408369D01*
X106725796Y-92330477D01*
X106669042Y-92279902D01*
X106597089Y-92247358D01*
X106508144Y-92223561D01*
X106403700Y-92199997D01*
X106245846Y-92156376D01*
X106165167Y-92110740D01*
X106138153Y-92047450D01*
X106137000Y-92022578D01*
X106137000Y-91907600D01*
X110099400Y-91907600D01*
X110099400Y-92517200D01*
G37*
X110099400Y-92517200D02*
X110098753Y-92774037D01*
X110094636Y-92946206D01*
X110083782Y-93050636D01*
X110062927Y-93104257D01*
X110028803Y-93124001D01*
X109981808Y-93126800D01*
X109882110Y-93093782D01*
X109796808Y-92982645D01*
X109774215Y-92938062D01*
X109644788Y-92713292D01*
X109486569Y-92506812D01*
X109324062Y-92348088D01*
X109232842Y-92287070D01*
X109138586Y-92254538D01*
X108993029Y-92232159D01*
X108781389Y-92218684D01*
X108488883Y-92212864D01*
X108349322Y-92212399D01*
X107610200Y-92212400D01*
X107610200Y-94244400D01*
X108122107Y-94244400D01*
X108356248Y-94242990D01*
X108512791Y-94235252D01*
X108615732Y-94215919D01*
X108689066Y-94179726D01*
X108756792Y-94121408D01*
X108777924Y-94100490D01*
X108883856Y-93956813D01*
X108968416Y-93778446D01*
X108983018Y-93732190D01*
X109024008Y-93582388D01*
X109055120Y-93469610D01*
X109062207Y-93444300D01*
X109120942Y-93392359D01*
X109183405Y-93380800D01*
X109218451Y-93384500D01*
X109244508Y-93404334D01*
X109262906Y-93453401D01*
X109274977Y-93544800D01*
X109282050Y-93691630D01*
X109285456Y-93906991D01*
X109286525Y-94203981D01*
X109286600Y-94396800D01*
X109286224Y-94741843D01*
X109284209Y-94998386D01*
X109279225Y-95179527D01*
X109269942Y-95298367D01*
X109255029Y-95368004D01*
X109233155Y-95401538D01*
X109202990Y-95412067D01*
X109183405Y-95412800D01*
X109091318Y-95385719D01*
X109062207Y-95349300D01*
X109038521Y-95263971D01*
X109000106Y-95123985D01*
X108983018Y-95061409D01*
X108910714Y-94885016D01*
X108806998Y-94725285D01*
X108777924Y-94693109D01*
X108707485Y-94627682D01*
X108638126Y-94585850D01*
X108545853Y-94562346D01*
X108406668Y-94551904D01*
X108196575Y-94549260D01*
X108122107Y-94549200D01*
X107610200Y-94549200D01*
X107610200Y-95516709D01*
X107610544Y-95852653D01*
X107612733Y-96102194D01*
X107618503Y-96280529D01*
X107629588Y-96402853D01*
X107647723Y-96484364D01*
X107674643Y-96540257D01*
X107712083Y-96585730D01*
X107734890Y-96608909D01*
X107789199Y-96658658D01*
X107847870Y-96693034D01*
X107929655Y-96714863D01*
X108053303Y-96726971D01*
X108237565Y-96732183D01*
X108501193Y-96733325D01*
X108560390Y-96733316D01*
X108835101Y-96729404D01*
X109089497Y-96718901D01*
X109298056Y-96703324D01*
X109435255Y-96684191D01*
X109450715Y-96680400D01*
X109601892Y-96605144D01*
X109751009Y-96459225D01*
X109905127Y-96233644D01*
X110071307Y-95919403D01*
X110107343Y-95843561D01*
X110203498Y-95656544D01*
X110281424Y-95551943D01*
X110352602Y-95515014D01*
X110363740Y-95514400D01*
X110407738Y-95519362D01*
X110435447Y-95545843D01*
X110448977Y-95611234D01*
X110450438Y-95732926D01*
X110441940Y-95928309D01*
X110433069Y-96085900D01*
X110416985Y-96338238D01*
X110399400Y-96572467D01*
X110382729Y-96758301D01*
X110372251Y-96847900D01*
X110344469Y-97038400D01*
X106137000Y-97038400D01*
X106137000Y-96918475D01*
X106148213Y-96846840D01*
X106198426Y-96805096D01*
X106312501Y-96779165D01*
X106403700Y-96767443D01*
X106510420Y-96755763D01*
X106598566Y-96741891D01*
X106669908Y-96716785D01*
X106726219Y-96671398D01*
X106769271Y-96596686D01*
X106800834Y-96483606D01*
X106822683Y-96323111D01*
X106836587Y-96106157D01*
X106844319Y-95823701D01*
X106847650Y-95466696D01*
X106848353Y-95026098D01*
X106848200Y-94498400D01*
X106848382Y-93969316D01*
X106847732Y-93532544D01*
X106844454Y-93178797D01*
X106836752Y-92898791D01*
X106822831Y-92683241D01*
X106800896Y-92522862D01*
X106769149Y-92408369D01*
X106725796Y-92330477D01*
X106669042Y-92279902D01*
X106597089Y-92247358D01*
X106508144Y-92223561D01*
X106403700Y-92199997D01*
X106245846Y-92156376D01*
X106165167Y-92110740D01*
X106138153Y-92047450D01*
X106137000Y-92022578D01*
X106137000Y-91907600D01*
X110099400Y-91907600D01*
X110099400Y-92517200D01*
G36*
X122342200Y-92542600D02*
G01*
X122341598Y-92805664D01*
X122337756Y-92983718D01*
X122327622Y-93093350D01*
X122308141Y-93151147D01*
X122276262Y-93173700D01*
X122228929Y-93177597D01*
X122225322Y-93177600D01*
X122137871Y-93151483D01*
X122058058Y-93060262D01*
X121994005Y-92942047D01*
X121831416Y-92654866D01*
X121657849Y-92432949D01*
X121486618Y-92293066D01*
X121472809Y-92285605D01*
X121379537Y-92254069D01*
X121232544Y-92232197D01*
X121017910Y-92218864D01*
X120721715Y-92212945D01*
X120566722Y-92212400D01*
X119802200Y-92212400D01*
X119802200Y-94244400D01*
X120287322Y-94244400D01*
X120609048Y-94233080D01*
X120847046Y-94193063D01*
X121017280Y-94115256D01*
X121135713Y-93990569D01*
X121218307Y-93809911D01*
X121251226Y-93695465D01*
X121303222Y-93538267D01*
X121365954Y-93460054D01*
X121420453Y-93440766D01*
X121457726Y-93437748D01*
X121485351Y-93450060D01*
X121504773Y-93490722D01*
X121517436Y-93572751D01*
X121524785Y-93709165D01*
X121528267Y-93912983D01*
X121529326Y-94197222D01*
X121529400Y-94422199D01*
X121529400Y-95419866D01*
X121417168Y-95403633D01*
X121331474Y-95361958D01*
X121278688Y-95251855D01*
X121265219Y-95195249D01*
X121196938Y-94948600D01*
X121099546Y-94771183D01*
X120957720Y-94652871D01*
X120756134Y-94583541D01*
X120479461Y-94553067D01*
X120287322Y-94549200D01*
X119802200Y-94549200D01*
X119802200Y-95539800D01*
X119803307Y-95912428D01*
X119809831Y-96196363D01*
X119826570Y-96404509D01*
X119858325Y-96549771D01*
X119909896Y-96645053D01*
X119986083Y-96703260D01*
X120091686Y-96737296D01*
X120231504Y-96760065D01*
X120257382Y-96763527D01*
X120409994Y-96789409D01*
X120486411Y-96824370D01*
X120511849Y-96883620D01*
X120513400Y-96917944D01*
X120513400Y-97038400D01*
X118329000Y-97038400D01*
X118329000Y-96911400D01*
X118338867Y-96832149D01*
X118386853Y-96795191D01*
X118500533Y-96784731D01*
X118550749Y-96784400D01*
X118787435Y-96745567D01*
X118906349Y-96679112D01*
X119040200Y-96573825D01*
X119040200Y-94525740D01*
X119040389Y-93993054D01*
X119039784Y-93552742D01*
X119036621Y-93195582D01*
X119029139Y-92912355D01*
X119015574Y-92693838D01*
X118994165Y-92530810D01*
X118963148Y-92414050D01*
X118920762Y-92334338D01*
X118865245Y-92282450D01*
X118794833Y-92249167D01*
X118707765Y-92225268D01*
X118602278Y-92201530D01*
X118595700Y-92199997D01*
X118437846Y-92156376D01*
X118357167Y-92110740D01*
X118330153Y-92047450D01*
X118329000Y-92022578D01*
X118329000Y-91907600D01*
X122342200Y-91907600D01*
X122342200Y-92542600D01*
G37*
X122342200Y-92542600D02*
X122341598Y-92805664D01*
X122337756Y-92983718D01*
X122327622Y-93093350D01*
X122308141Y-93151147D01*
X122276262Y-93173700D01*
X122228929Y-93177597D01*
X122225322Y-93177600D01*
X122137871Y-93151483D01*
X122058058Y-93060262D01*
X121994005Y-92942047D01*
X121831416Y-92654866D01*
X121657849Y-92432949D01*
X121486618Y-92293066D01*
X121472809Y-92285605D01*
X121379537Y-92254069D01*
X121232544Y-92232197D01*
X121017910Y-92218864D01*
X120721715Y-92212945D01*
X120566722Y-92212400D01*
X119802200Y-92212400D01*
X119802200Y-94244400D01*
X120287322Y-94244400D01*
X120609048Y-94233080D01*
X120847046Y-94193063D01*
X121017280Y-94115256D01*
X121135713Y-93990569D01*
X121218307Y-93809911D01*
X121251226Y-93695465D01*
X121303222Y-93538267D01*
X121365954Y-93460054D01*
X121420453Y-93440766D01*
X121457726Y-93437748D01*
X121485351Y-93450060D01*
X121504773Y-93490722D01*
X121517436Y-93572751D01*
X121524785Y-93709165D01*
X121528267Y-93912983D01*
X121529326Y-94197222D01*
X121529400Y-94422199D01*
X121529400Y-95419866D01*
X121417168Y-95403633D01*
X121331474Y-95361958D01*
X121278688Y-95251855D01*
X121265219Y-95195249D01*
X121196938Y-94948600D01*
X121099546Y-94771183D01*
X120957720Y-94652871D01*
X120756134Y-94583541D01*
X120479461Y-94553067D01*
X120287322Y-94549200D01*
X119802200Y-94549200D01*
X119802200Y-95539800D01*
X119803307Y-95912428D01*
X119809831Y-96196363D01*
X119826570Y-96404509D01*
X119858325Y-96549771D01*
X119909896Y-96645053D01*
X119986083Y-96703260D01*
X120091686Y-96737296D01*
X120231504Y-96760065D01*
X120257382Y-96763527D01*
X120409994Y-96789409D01*
X120486411Y-96824370D01*
X120511849Y-96883620D01*
X120513400Y-96917944D01*
X120513400Y-97038400D01*
X118329000Y-97038400D01*
X118329000Y-96911400D01*
X118338867Y-96832149D01*
X118386853Y-96795191D01*
X118500533Y-96784731D01*
X118550749Y-96784400D01*
X118787435Y-96745567D01*
X118906349Y-96679112D01*
X119040200Y-96573825D01*
X119040200Y-94525740D01*
X119040389Y-93993054D01*
X119039784Y-93552742D01*
X119036621Y-93195582D01*
X119029139Y-92912355D01*
X119015574Y-92693838D01*
X118994165Y-92530810D01*
X118963148Y-92414050D01*
X118920762Y-92334338D01*
X118865245Y-92282450D01*
X118794833Y-92249167D01*
X118707765Y-92225268D01*
X118602278Y-92201530D01*
X118595700Y-92199997D01*
X118437846Y-92156376D01*
X118357167Y-92110740D01*
X118330153Y-92047450D01*
X118329000Y-92022578D01*
X118329000Y-91907600D01*
X122342200Y-91907600D01*
X122342200Y-92542600D01*
G36*
X128590600Y-92517200D02*
G01*
X128589953Y-92774037D01*
X128585836Y-92946206D01*
X128574982Y-93050636D01*
X128554127Y-93104257D01*
X128520003Y-93124001D01*
X128473008Y-93126800D01*
X128373310Y-93093782D01*
X128288008Y-92982645D01*
X128265415Y-92938062D01*
X128135988Y-92713292D01*
X127977769Y-92506812D01*
X127815262Y-92348088D01*
X127724042Y-92287070D01*
X127629786Y-92254538D01*
X127484229Y-92232159D01*
X127272589Y-92218684D01*
X126980083Y-92212864D01*
X126840522Y-92212399D01*
X126101400Y-92212400D01*
X126101400Y-94244400D01*
X126613307Y-94244400D01*
X126847448Y-94242990D01*
X127003991Y-94235252D01*
X127106932Y-94215919D01*
X127180266Y-94179726D01*
X127247992Y-94121408D01*
X127269124Y-94100490D01*
X127375056Y-93956813D01*
X127459616Y-93778446D01*
X127474218Y-93732190D01*
X127515208Y-93582388D01*
X127546320Y-93469610D01*
X127553407Y-93444300D01*
X127612142Y-93392359D01*
X127674605Y-93380800D01*
X127709651Y-93384500D01*
X127735708Y-93404334D01*
X127754106Y-93453401D01*
X127766177Y-93544800D01*
X127773250Y-93691630D01*
X127776656Y-93906991D01*
X127777725Y-94203981D01*
X127777800Y-94396800D01*
X127777424Y-94741843D01*
X127775409Y-94998386D01*
X127770425Y-95179527D01*
X127761142Y-95298367D01*
X127746229Y-95368004D01*
X127724355Y-95401538D01*
X127694190Y-95412067D01*
X127674605Y-95412800D01*
X127582518Y-95385719D01*
X127553407Y-95349300D01*
X127529721Y-95263971D01*
X127491306Y-95123985D01*
X127474218Y-95061409D01*
X127401914Y-94885016D01*
X127298198Y-94725285D01*
X127269124Y-94693109D01*
X127198685Y-94627682D01*
X127129326Y-94585850D01*
X127037053Y-94562346D01*
X126897868Y-94551904D01*
X126687775Y-94549260D01*
X126613307Y-94549200D01*
X126101400Y-94549200D01*
X126101400Y-95516709D01*
X126101744Y-95852653D01*
X126103933Y-96102194D01*
X126109703Y-96280529D01*
X126120788Y-96402853D01*
X126138923Y-96484364D01*
X126165843Y-96540257D01*
X126203283Y-96585730D01*
X126226090Y-96608909D01*
X126280399Y-96658658D01*
X126339070Y-96693034D01*
X126420855Y-96714863D01*
X126544503Y-96726971D01*
X126728765Y-96732183D01*
X126992393Y-96733325D01*
X127051590Y-96733316D01*
X127326301Y-96729404D01*
X127580697Y-96718901D01*
X127789256Y-96703324D01*
X127926455Y-96684191D01*
X127941915Y-96680400D01*
X128093092Y-96605144D01*
X128242209Y-96459225D01*
X128396327Y-96233644D01*
X128562507Y-95919403D01*
X128598543Y-95843561D01*
X128694698Y-95656544D01*
X128772624Y-95551943D01*
X128843802Y-95515014D01*
X128854940Y-95514400D01*
X128898938Y-95519362D01*
X128926647Y-95545843D01*
X128940177Y-95611234D01*
X128941638Y-95732926D01*
X128933140Y-95928309D01*
X128924269Y-96085900D01*
X128908185Y-96338238D01*
X128890600Y-96572467D01*
X128873929Y-96758301D01*
X128863451Y-96847900D01*
X128835669Y-97038400D01*
X124628200Y-97038400D01*
X124628200Y-96918475D01*
X124639413Y-96846840D01*
X124689626Y-96805096D01*
X124803701Y-96779165D01*
X124894900Y-96767443D01*
X125001620Y-96755763D01*
X125089766Y-96741891D01*
X125161108Y-96716785D01*
X125217419Y-96671398D01*
X125260471Y-96596686D01*
X125292034Y-96483606D01*
X125313883Y-96323111D01*
X125327787Y-96106157D01*
X125335519Y-95823701D01*
X125338850Y-95466696D01*
X125339553Y-95026098D01*
X125339400Y-94498400D01*
X125339582Y-93969316D01*
X125338932Y-93532544D01*
X125335654Y-93178797D01*
X125327952Y-92898791D01*
X125314031Y-92683241D01*
X125292096Y-92522862D01*
X125260349Y-92408369D01*
X125216996Y-92330477D01*
X125160242Y-92279902D01*
X125088289Y-92247358D01*
X124999344Y-92223561D01*
X124894900Y-92199997D01*
X124737046Y-92156376D01*
X124656367Y-92110740D01*
X124629353Y-92047450D01*
X124628200Y-92022578D01*
X124628200Y-91907600D01*
X128590600Y-91907600D01*
X128590600Y-92517200D01*
G37*
X128590600Y-92517200D02*
X128589953Y-92774037D01*
X128585836Y-92946206D01*
X128574982Y-93050636D01*
X128554127Y-93104257D01*
X128520003Y-93124001D01*
X128473008Y-93126800D01*
X128373310Y-93093782D01*
X128288008Y-92982645D01*
X128265415Y-92938062D01*
X128135988Y-92713292D01*
X127977769Y-92506812D01*
X127815262Y-92348088D01*
X127724042Y-92287070D01*
X127629786Y-92254538D01*
X127484229Y-92232159D01*
X127272589Y-92218684D01*
X126980083Y-92212864D01*
X126840522Y-92212399D01*
X126101400Y-92212400D01*
X126101400Y-94244400D01*
X126613307Y-94244400D01*
X126847448Y-94242990D01*
X127003991Y-94235252D01*
X127106932Y-94215919D01*
X127180266Y-94179726D01*
X127247992Y-94121408D01*
X127269124Y-94100490D01*
X127375056Y-93956813D01*
X127459616Y-93778446D01*
X127474218Y-93732190D01*
X127515208Y-93582388D01*
X127546320Y-93469610D01*
X127553407Y-93444300D01*
X127612142Y-93392359D01*
X127674605Y-93380800D01*
X127709651Y-93384500D01*
X127735708Y-93404334D01*
X127754106Y-93453401D01*
X127766177Y-93544800D01*
X127773250Y-93691630D01*
X127776656Y-93906991D01*
X127777725Y-94203981D01*
X127777800Y-94396800D01*
X127777424Y-94741843D01*
X127775409Y-94998386D01*
X127770425Y-95179527D01*
X127761142Y-95298367D01*
X127746229Y-95368004D01*
X127724355Y-95401538D01*
X127694190Y-95412067D01*
X127674605Y-95412800D01*
X127582518Y-95385719D01*
X127553407Y-95349300D01*
X127529721Y-95263971D01*
X127491306Y-95123985D01*
X127474218Y-95061409D01*
X127401914Y-94885016D01*
X127298198Y-94725285D01*
X127269124Y-94693109D01*
X127198685Y-94627682D01*
X127129326Y-94585850D01*
X127037053Y-94562346D01*
X126897868Y-94551904D01*
X126687775Y-94549260D01*
X126613307Y-94549200D01*
X126101400Y-94549200D01*
X126101400Y-95516709D01*
X126101744Y-95852653D01*
X126103933Y-96102194D01*
X126109703Y-96280529D01*
X126120788Y-96402853D01*
X126138923Y-96484364D01*
X126165843Y-96540257D01*
X126203283Y-96585730D01*
X126226090Y-96608909D01*
X126280399Y-96658658D01*
X126339070Y-96693034D01*
X126420855Y-96714863D01*
X126544503Y-96726971D01*
X126728765Y-96732183D01*
X126992393Y-96733325D01*
X127051590Y-96733316D01*
X127326301Y-96729404D01*
X127580697Y-96718901D01*
X127789256Y-96703324D01*
X127926455Y-96684191D01*
X127941915Y-96680400D01*
X128093092Y-96605144D01*
X128242209Y-96459225D01*
X128396327Y-96233644D01*
X128562507Y-95919403D01*
X128598543Y-95843561D01*
X128694698Y-95656544D01*
X128772624Y-95551943D01*
X128843802Y-95515014D01*
X128854940Y-95514400D01*
X128898938Y-95519362D01*
X128926647Y-95545843D01*
X128940177Y-95611234D01*
X128941638Y-95732926D01*
X128933140Y-95928309D01*
X128924269Y-96085900D01*
X128908185Y-96338238D01*
X128890600Y-96572467D01*
X128873929Y-96758301D01*
X128863451Y-96847900D01*
X128835669Y-97038400D01*
X124628200Y-97038400D01*
X124628200Y-96918475D01*
X124639413Y-96846840D01*
X124689626Y-96805096D01*
X124803701Y-96779165D01*
X124894900Y-96767443D01*
X125001620Y-96755763D01*
X125089766Y-96741891D01*
X125161108Y-96716785D01*
X125217419Y-96671398D01*
X125260471Y-96596686D01*
X125292034Y-96483606D01*
X125313883Y-96323111D01*
X125327787Y-96106157D01*
X125335519Y-95823701D01*
X125338850Y-95466696D01*
X125339553Y-95026098D01*
X125339400Y-94498400D01*
X125339582Y-93969316D01*
X125338932Y-93532544D01*
X125335654Y-93178797D01*
X125327952Y-92898791D01*
X125314031Y-92683241D01*
X125292096Y-92522862D01*
X125260349Y-92408369D01*
X125216996Y-92330477D01*
X125160242Y-92279902D01*
X125088289Y-92247358D01*
X124999344Y-92223561D01*
X124894900Y-92199997D01*
X124737046Y-92156376D01*
X124656367Y-92110740D01*
X124629353Y-92047450D01*
X124628200Y-92022578D01*
X124628200Y-91907600D01*
X128590600Y-91907600D01*
X128590600Y-92517200D01*
G36*
X142814600Y-92034600D02*
G01*
X142796062Y-92128247D01*
X142720039Y-92160146D01*
X142674900Y-92161883D01*
X142478411Y-92182418D01*
X142293917Y-92235342D01*
X142154963Y-92308797D01*
X142103997Y-92363683D01*
X142090248Y-92440992D01*
X142078429Y-92614514D01*
X142068670Y-92878876D01*
X142061101Y-93228706D01*
X142055851Y-93658632D01*
X142053050Y-94163282D01*
X142052600Y-94491373D01*
X142052600Y-96523025D01*
X142185164Y-96627301D01*
X142317057Y-96697440D01*
X142493537Y-96751615D01*
X142566164Y-96764533D01*
X142716015Y-96790419D01*
X142789956Y-96826508D01*
X142813524Y-96888566D01*
X142814600Y-96917944D01*
X142814600Y-97038400D01*
X140528600Y-97038400D01*
X140528600Y-96911400D01*
X140537893Y-96833448D01*
X140583809Y-96796241D01*
X140693400Y-96784967D01*
X140760539Y-96784400D01*
X140995094Y-96758654D01*
X141172582Y-96686787D01*
X141251722Y-96611695D01*
X141259846Y-96550243D01*
X141267399Y-96398256D01*
X141274181Y-96166796D01*
X141279993Y-95866927D01*
X141284637Y-95509713D01*
X141287914Y-95106217D01*
X141289624Y-94667503D01*
X141289822Y-94493573D01*
X141289747Y-93979199D01*
X141288837Y-93556940D01*
X141286702Y-93217314D01*
X141282950Y-92950838D01*
X141277191Y-92748028D01*
X141269034Y-92599401D01*
X141258089Y-92495474D01*
X141243964Y-92426764D01*
X141226270Y-92383787D01*
X141204616Y-92357060D01*
X141201700Y-92354466D01*
X141058211Y-92268327D01*
X140866888Y-92198219D01*
X140681463Y-92162859D01*
X140648019Y-92161600D01*
X140556555Y-92138661D01*
X140528875Y-92051345D01*
X140528600Y-92034600D01*
X140528600Y-91907600D01*
X142814600Y-91907600D01*
X142814600Y-92034600D01*
G37*
X142814600Y-92034600D02*
X142796062Y-92128247D01*
X142720039Y-92160146D01*
X142674900Y-92161883D01*
X142478411Y-92182418D01*
X142293917Y-92235342D01*
X142154963Y-92308797D01*
X142103997Y-92363683D01*
X142090248Y-92440992D01*
X142078429Y-92614514D01*
X142068670Y-92878876D01*
X142061101Y-93228706D01*
X142055851Y-93658632D01*
X142053050Y-94163282D01*
X142052600Y-94491373D01*
X142052600Y-96523025D01*
X142185164Y-96627301D01*
X142317057Y-96697440D01*
X142493537Y-96751615D01*
X142566164Y-96764533D01*
X142716015Y-96790419D01*
X142789956Y-96826508D01*
X142813524Y-96888566D01*
X142814600Y-96917944D01*
X142814600Y-97038400D01*
X140528600Y-97038400D01*
X140528600Y-96911400D01*
X140537893Y-96833448D01*
X140583809Y-96796241D01*
X140693400Y-96784967D01*
X140760539Y-96784400D01*
X140995094Y-96758654D01*
X141172582Y-96686787D01*
X141251722Y-96611695D01*
X141259846Y-96550243D01*
X141267399Y-96398256D01*
X141274181Y-96166796D01*
X141279993Y-95866927D01*
X141284637Y-95509713D01*
X141287914Y-95106217D01*
X141289624Y-94667503D01*
X141289822Y-94493573D01*
X141289747Y-93979199D01*
X141288837Y-93556940D01*
X141286702Y-93217314D01*
X141282950Y-92950838D01*
X141277191Y-92748028D01*
X141269034Y-92599401D01*
X141258089Y-92495474D01*
X141243964Y-92426764D01*
X141226270Y-92383787D01*
X141204616Y-92357060D01*
X141201700Y-92354466D01*
X141058211Y-92268327D01*
X140866888Y-92198219D01*
X140681463Y-92162859D01*
X140648019Y-92161600D01*
X140556555Y-92138661D01*
X140528875Y-92051345D01*
X140528600Y-92034600D01*
X140528600Y-91907600D01*
X142814600Y-91907600D01*
X142814600Y-92034600D01*
G36*
X153177800Y-92517200D02*
G01*
X153177153Y-92774037D01*
X153173036Y-92946206D01*
X153162182Y-93050636D01*
X153141327Y-93104257D01*
X153107203Y-93124001D01*
X153060208Y-93126800D01*
X152960510Y-93093782D01*
X152875208Y-92982645D01*
X152852615Y-92938062D01*
X152723188Y-92713292D01*
X152564969Y-92506812D01*
X152402462Y-92348088D01*
X152311242Y-92287070D01*
X152216986Y-92254538D01*
X152071429Y-92232159D01*
X151859789Y-92218684D01*
X151567283Y-92212864D01*
X151427722Y-92212399D01*
X150688600Y-92212400D01*
X150688600Y-94244400D01*
X151200507Y-94244400D01*
X151434648Y-94242990D01*
X151591191Y-94235252D01*
X151694132Y-94215919D01*
X151767466Y-94179726D01*
X151835192Y-94121408D01*
X151856324Y-94100490D01*
X151962256Y-93956813D01*
X152046816Y-93778446D01*
X152061418Y-93732190D01*
X152102408Y-93582388D01*
X152133520Y-93469610D01*
X152140607Y-93444300D01*
X152199342Y-93392359D01*
X152261805Y-93380800D01*
X152296851Y-93384500D01*
X152322908Y-93404334D01*
X152341306Y-93453401D01*
X152353377Y-93544800D01*
X152360450Y-93691630D01*
X152363856Y-93906991D01*
X152364925Y-94203981D01*
X152365000Y-94396800D01*
X152364624Y-94741843D01*
X152362609Y-94998386D01*
X152357625Y-95179527D01*
X152348342Y-95298367D01*
X152333429Y-95368004D01*
X152311555Y-95401538D01*
X152281390Y-95412067D01*
X152261805Y-95412800D01*
X152169718Y-95385719D01*
X152140607Y-95349300D01*
X152116921Y-95263971D01*
X152078506Y-95123985D01*
X152061418Y-95061409D01*
X151989114Y-94885016D01*
X151885398Y-94725285D01*
X151856324Y-94693109D01*
X151785885Y-94627682D01*
X151716526Y-94585850D01*
X151624253Y-94562346D01*
X151485068Y-94551904D01*
X151274975Y-94549260D01*
X151200507Y-94549200D01*
X150688600Y-94549200D01*
X150688600Y-95516709D01*
X150688944Y-95852653D01*
X150691133Y-96102194D01*
X150696903Y-96280529D01*
X150707988Y-96402853D01*
X150726123Y-96484364D01*
X150753043Y-96540257D01*
X150790483Y-96585730D01*
X150813290Y-96608909D01*
X150867599Y-96658658D01*
X150926270Y-96693034D01*
X151008055Y-96714863D01*
X151131703Y-96726971D01*
X151315965Y-96732183D01*
X151579593Y-96733325D01*
X151638790Y-96733316D01*
X151913501Y-96729404D01*
X152167897Y-96718901D01*
X152376456Y-96703324D01*
X152513655Y-96684191D01*
X152529115Y-96680400D01*
X152680292Y-96605144D01*
X152829409Y-96459225D01*
X152983527Y-96233644D01*
X153149707Y-95919403D01*
X153185743Y-95843561D01*
X153281898Y-95656544D01*
X153359824Y-95551943D01*
X153431002Y-95515014D01*
X153442140Y-95514400D01*
X153486138Y-95519362D01*
X153513847Y-95545843D01*
X153527377Y-95611234D01*
X153528838Y-95732926D01*
X153520340Y-95928309D01*
X153511469Y-96085900D01*
X153495385Y-96338238D01*
X153477800Y-96572467D01*
X153461129Y-96758301D01*
X153450651Y-96847900D01*
X153422869Y-97038400D01*
X149215400Y-97038400D01*
X149215400Y-96918475D01*
X149226613Y-96846840D01*
X149276826Y-96805096D01*
X149390901Y-96779165D01*
X149482100Y-96767443D01*
X149588820Y-96755763D01*
X149676966Y-96741891D01*
X149748308Y-96716785D01*
X149804619Y-96671398D01*
X149847671Y-96596686D01*
X149879234Y-96483606D01*
X149901083Y-96323111D01*
X149914987Y-96106157D01*
X149922719Y-95823701D01*
X149926050Y-95466696D01*
X149926753Y-95026098D01*
X149926600Y-94498400D01*
X149926782Y-93969316D01*
X149926132Y-93532544D01*
X149922854Y-93178797D01*
X149915152Y-92898791D01*
X149901231Y-92683241D01*
X149879296Y-92522862D01*
X149847549Y-92408369D01*
X149804196Y-92330477D01*
X149747442Y-92279902D01*
X149675489Y-92247358D01*
X149586544Y-92223561D01*
X149482100Y-92199997D01*
X149324246Y-92156376D01*
X149243567Y-92110740D01*
X149216553Y-92047450D01*
X149215400Y-92022578D01*
X149215400Y-91907600D01*
X153177800Y-91907600D01*
X153177800Y-92517200D01*
G37*
X153177800Y-92517200D02*
X153177153Y-92774037D01*
X153173036Y-92946206D01*
X153162182Y-93050636D01*
X153141327Y-93104257D01*
X153107203Y-93124001D01*
X153060208Y-93126800D01*
X152960510Y-93093782D01*
X152875208Y-92982645D01*
X152852615Y-92938062D01*
X152723188Y-92713292D01*
X152564969Y-92506812D01*
X152402462Y-92348088D01*
X152311242Y-92287070D01*
X152216986Y-92254538D01*
X152071429Y-92232159D01*
X151859789Y-92218684D01*
X151567283Y-92212864D01*
X151427722Y-92212399D01*
X150688600Y-92212400D01*
X150688600Y-94244400D01*
X151200507Y-94244400D01*
X151434648Y-94242990D01*
X151591191Y-94235252D01*
X151694132Y-94215919D01*
X151767466Y-94179726D01*
X151835192Y-94121408D01*
X151856324Y-94100490D01*
X151962256Y-93956813D01*
X152046816Y-93778446D01*
X152061418Y-93732190D01*
X152102408Y-93582388D01*
X152133520Y-93469610D01*
X152140607Y-93444300D01*
X152199342Y-93392359D01*
X152261805Y-93380800D01*
X152296851Y-93384500D01*
X152322908Y-93404334D01*
X152341306Y-93453401D01*
X152353377Y-93544800D01*
X152360450Y-93691630D01*
X152363856Y-93906991D01*
X152364925Y-94203981D01*
X152365000Y-94396800D01*
X152364624Y-94741843D01*
X152362609Y-94998386D01*
X152357625Y-95179527D01*
X152348342Y-95298367D01*
X152333429Y-95368004D01*
X152311555Y-95401538D01*
X152281390Y-95412067D01*
X152261805Y-95412800D01*
X152169718Y-95385719D01*
X152140607Y-95349300D01*
X152116921Y-95263971D01*
X152078506Y-95123985D01*
X152061418Y-95061409D01*
X151989114Y-94885016D01*
X151885398Y-94725285D01*
X151856324Y-94693109D01*
X151785885Y-94627682D01*
X151716526Y-94585850D01*
X151624253Y-94562346D01*
X151485068Y-94551904D01*
X151274975Y-94549260D01*
X151200507Y-94549200D01*
X150688600Y-94549200D01*
X150688600Y-95516709D01*
X150688944Y-95852653D01*
X150691133Y-96102194D01*
X150696903Y-96280529D01*
X150707988Y-96402853D01*
X150726123Y-96484364D01*
X150753043Y-96540257D01*
X150790483Y-96585730D01*
X150813290Y-96608909D01*
X150867599Y-96658658D01*
X150926270Y-96693034D01*
X151008055Y-96714863D01*
X151131703Y-96726971D01*
X151315965Y-96732183D01*
X151579593Y-96733325D01*
X151638790Y-96733316D01*
X151913501Y-96729404D01*
X152167897Y-96718901D01*
X152376456Y-96703324D01*
X152513655Y-96684191D01*
X152529115Y-96680400D01*
X152680292Y-96605144D01*
X152829409Y-96459225D01*
X152983527Y-96233644D01*
X153149707Y-95919403D01*
X153185743Y-95843561D01*
X153281898Y-95656544D01*
X153359824Y-95551943D01*
X153431002Y-95515014D01*
X153442140Y-95514400D01*
X153486138Y-95519362D01*
X153513847Y-95545843D01*
X153527377Y-95611234D01*
X153528838Y-95732926D01*
X153520340Y-95928309D01*
X153511469Y-96085900D01*
X153495385Y-96338238D01*
X153477800Y-96572467D01*
X153461129Y-96758301D01*
X153450651Y-96847900D01*
X153422869Y-97038400D01*
X149215400Y-97038400D01*
X149215400Y-96918475D01*
X149226613Y-96846840D01*
X149276826Y-96805096D01*
X149390901Y-96779165D01*
X149482100Y-96767443D01*
X149588820Y-96755763D01*
X149676966Y-96741891D01*
X149748308Y-96716785D01*
X149804619Y-96671398D01*
X149847671Y-96596686D01*
X149879234Y-96483606D01*
X149901083Y-96323111D01*
X149914987Y-96106157D01*
X149922719Y-95823701D01*
X149926050Y-95466696D01*
X149926753Y-95026098D01*
X149926600Y-94498400D01*
X149926782Y-93969316D01*
X149926132Y-93532544D01*
X149922854Y-93178797D01*
X149915152Y-92898791D01*
X149901231Y-92683241D01*
X149879296Y-92522862D01*
X149847549Y-92408369D01*
X149804196Y-92330477D01*
X149747442Y-92279902D01*
X149675489Y-92247358D01*
X149586544Y-92223561D01*
X149482100Y-92199997D01*
X149324246Y-92156376D01*
X149243567Y-92110740D01*
X149216553Y-92047450D01*
X149215400Y-92022578D01*
X149215400Y-91907600D01*
X153177800Y-91907600D01*
X153177800Y-92517200D01*
G36*
X158054600Y-92517200D02*
G01*
X158053953Y-92774037D01*
X158049836Y-92946206D01*
X158038982Y-93050636D01*
X158018127Y-93104257D01*
X157984003Y-93124001D01*
X157937008Y-93126800D01*
X157837310Y-93093782D01*
X157752008Y-92982645D01*
X157729415Y-92938062D01*
X157599988Y-92713292D01*
X157441769Y-92506812D01*
X157279262Y-92348088D01*
X157188042Y-92287070D01*
X157093786Y-92254538D01*
X156948229Y-92232159D01*
X156736589Y-92218684D01*
X156444083Y-92212864D01*
X156304522Y-92212399D01*
X155565400Y-92212400D01*
X155565400Y-94244400D01*
X156077307Y-94244400D01*
X156311448Y-94242990D01*
X156467991Y-94235252D01*
X156570932Y-94215919D01*
X156644266Y-94179726D01*
X156711992Y-94121408D01*
X156733124Y-94100490D01*
X156839056Y-93956813D01*
X156923616Y-93778446D01*
X156938218Y-93732190D01*
X156979208Y-93582388D01*
X157010320Y-93469610D01*
X157017407Y-93444300D01*
X157076142Y-93392359D01*
X157138605Y-93380800D01*
X157173651Y-93384500D01*
X157199708Y-93404334D01*
X157218106Y-93453401D01*
X157230177Y-93544800D01*
X157237250Y-93691630D01*
X157240656Y-93906991D01*
X157241725Y-94203981D01*
X157241800Y-94396800D01*
X157241424Y-94741843D01*
X157239409Y-94998386D01*
X157234425Y-95179527D01*
X157225142Y-95298367D01*
X157210229Y-95368004D01*
X157188355Y-95401538D01*
X157158190Y-95412067D01*
X157138605Y-95412800D01*
X157046518Y-95385719D01*
X157017407Y-95349300D01*
X156993721Y-95263971D01*
X156955306Y-95123985D01*
X156938218Y-95061409D01*
X156865914Y-94885016D01*
X156762198Y-94725285D01*
X156733124Y-94693109D01*
X156662685Y-94627682D01*
X156593326Y-94585850D01*
X156501053Y-94562346D01*
X156361868Y-94551904D01*
X156151775Y-94549260D01*
X156077307Y-94549200D01*
X155565400Y-94549200D01*
X155565400Y-95516709D01*
X155565744Y-95852653D01*
X155567933Y-96102194D01*
X155573703Y-96280529D01*
X155584788Y-96402853D01*
X155602923Y-96484364D01*
X155629843Y-96540257D01*
X155667283Y-96585730D01*
X155690090Y-96608909D01*
X155744399Y-96658658D01*
X155803070Y-96693034D01*
X155884855Y-96714863D01*
X156008503Y-96726971D01*
X156192765Y-96732183D01*
X156456393Y-96733325D01*
X156515590Y-96733316D01*
X156790301Y-96729404D01*
X157044697Y-96718901D01*
X157253256Y-96703324D01*
X157390455Y-96684191D01*
X157405915Y-96680400D01*
X157557092Y-96605144D01*
X157706209Y-96459225D01*
X157860327Y-96233644D01*
X158026507Y-95919403D01*
X158062543Y-95843561D01*
X158158698Y-95656544D01*
X158236624Y-95551943D01*
X158307802Y-95515014D01*
X158318940Y-95514400D01*
X158362938Y-95519362D01*
X158390647Y-95545843D01*
X158404177Y-95611234D01*
X158405638Y-95732926D01*
X158397140Y-95928309D01*
X158388269Y-96085900D01*
X158372185Y-96338238D01*
X158354600Y-96572467D01*
X158337929Y-96758301D01*
X158327451Y-96847900D01*
X158299669Y-97038400D01*
X154092200Y-97038400D01*
X154092200Y-96918475D01*
X154103413Y-96846840D01*
X154153626Y-96805096D01*
X154267701Y-96779165D01*
X154358900Y-96767443D01*
X154465620Y-96755763D01*
X154553766Y-96741891D01*
X154625108Y-96716785D01*
X154681419Y-96671398D01*
X154724471Y-96596686D01*
X154756034Y-96483606D01*
X154777883Y-96323111D01*
X154791787Y-96106157D01*
X154799519Y-95823701D01*
X154802850Y-95466696D01*
X154803553Y-95026098D01*
X154803400Y-94498400D01*
X154803582Y-93969316D01*
X154802932Y-93532544D01*
X154799654Y-93178797D01*
X154791952Y-92898791D01*
X154778031Y-92683241D01*
X154756096Y-92522862D01*
X154724349Y-92408369D01*
X154680996Y-92330477D01*
X154624242Y-92279902D01*
X154552289Y-92247358D01*
X154463344Y-92223561D01*
X154358900Y-92199997D01*
X154201046Y-92156376D01*
X154120367Y-92110740D01*
X154093353Y-92047450D01*
X154092200Y-92022578D01*
X154092200Y-91907600D01*
X158054600Y-91907600D01*
X158054600Y-92517200D01*
G37*
X158054600Y-92517200D02*
X158053953Y-92774037D01*
X158049836Y-92946206D01*
X158038982Y-93050636D01*
X158018127Y-93104257D01*
X157984003Y-93124001D01*
X157937008Y-93126800D01*
X157837310Y-93093782D01*
X157752008Y-92982645D01*
X157729415Y-92938062D01*
X157599988Y-92713292D01*
X157441769Y-92506812D01*
X157279262Y-92348088D01*
X157188042Y-92287070D01*
X157093786Y-92254538D01*
X156948229Y-92232159D01*
X156736589Y-92218684D01*
X156444083Y-92212864D01*
X156304522Y-92212399D01*
X155565400Y-92212400D01*
X155565400Y-94244400D01*
X156077307Y-94244400D01*
X156311448Y-94242990D01*
X156467991Y-94235252D01*
X156570932Y-94215919D01*
X156644266Y-94179726D01*
X156711992Y-94121408D01*
X156733124Y-94100490D01*
X156839056Y-93956813D01*
X156923616Y-93778446D01*
X156938218Y-93732190D01*
X156979208Y-93582388D01*
X157010320Y-93469610D01*
X157017407Y-93444300D01*
X157076142Y-93392359D01*
X157138605Y-93380800D01*
X157173651Y-93384500D01*
X157199708Y-93404334D01*
X157218106Y-93453401D01*
X157230177Y-93544800D01*
X157237250Y-93691630D01*
X157240656Y-93906991D01*
X157241725Y-94203981D01*
X157241800Y-94396800D01*
X157241424Y-94741843D01*
X157239409Y-94998386D01*
X157234425Y-95179527D01*
X157225142Y-95298367D01*
X157210229Y-95368004D01*
X157188355Y-95401538D01*
X157158190Y-95412067D01*
X157138605Y-95412800D01*
X157046518Y-95385719D01*
X157017407Y-95349300D01*
X156993721Y-95263971D01*
X156955306Y-95123985D01*
X156938218Y-95061409D01*
X156865914Y-94885016D01*
X156762198Y-94725285D01*
X156733124Y-94693109D01*
X156662685Y-94627682D01*
X156593326Y-94585850D01*
X156501053Y-94562346D01*
X156361868Y-94551904D01*
X156151775Y-94549260D01*
X156077307Y-94549200D01*
X155565400Y-94549200D01*
X155565400Y-95516709D01*
X155565744Y-95852653D01*
X155567933Y-96102194D01*
X155573703Y-96280529D01*
X155584788Y-96402853D01*
X155602923Y-96484364D01*
X155629843Y-96540257D01*
X155667283Y-96585730D01*
X155690090Y-96608909D01*
X155744399Y-96658658D01*
X155803070Y-96693034D01*
X155884855Y-96714863D01*
X156008503Y-96726971D01*
X156192765Y-96732183D01*
X156456393Y-96733325D01*
X156515590Y-96733316D01*
X156790301Y-96729404D01*
X157044697Y-96718901D01*
X157253256Y-96703324D01*
X157390455Y-96684191D01*
X157405915Y-96680400D01*
X157557092Y-96605144D01*
X157706209Y-96459225D01*
X157860327Y-96233644D01*
X158026507Y-95919403D01*
X158062543Y-95843561D01*
X158158698Y-95656544D01*
X158236624Y-95551943D01*
X158307802Y-95515014D01*
X158318940Y-95514400D01*
X158362938Y-95519362D01*
X158390647Y-95545843D01*
X158404177Y-95611234D01*
X158405638Y-95732926D01*
X158397140Y-95928309D01*
X158388269Y-96085900D01*
X158372185Y-96338238D01*
X158354600Y-96572467D01*
X158337929Y-96758301D01*
X158327451Y-96847900D01*
X158299669Y-97038400D01*
X154092200Y-97038400D01*
X154092200Y-96918475D01*
X154103413Y-96846840D01*
X154153626Y-96805096D01*
X154267701Y-96779165D01*
X154358900Y-96767443D01*
X154465620Y-96755763D01*
X154553766Y-96741891D01*
X154625108Y-96716785D01*
X154681419Y-96671398D01*
X154724471Y-96596686D01*
X154756034Y-96483606D01*
X154777883Y-96323111D01*
X154791787Y-96106157D01*
X154799519Y-95823701D01*
X154802850Y-95466696D01*
X154803553Y-95026098D01*
X154803400Y-94498400D01*
X154803582Y-93969316D01*
X154802932Y-93532544D01*
X154799654Y-93178797D01*
X154791952Y-92898791D01*
X154778031Y-92683241D01*
X154756096Y-92522862D01*
X154724349Y-92408369D01*
X154680996Y-92330477D01*
X154624242Y-92279902D01*
X154552289Y-92247358D01*
X154463344Y-92223561D01*
X154358900Y-92199997D01*
X154201046Y-92156376D01*
X154120367Y-92110740D01*
X154093353Y-92047450D01*
X154092200Y-92022578D01*
X154092200Y-91907600D01*
X158054600Y-91907600D01*
X158054600Y-92517200D01*
G36*
X160150100Y-91909168D02*
G01*
X160682232Y-91913055D01*
X161124541Y-91924566D01*
X161488653Y-91945793D01*
X161786194Y-91978826D01*
X162028789Y-92025758D01*
X162228065Y-92088678D01*
X162395648Y-92169677D01*
X162543163Y-92270848D01*
X162643835Y-92357688D01*
X162810988Y-92549687D01*
X162908908Y-92763388D01*
X162950010Y-93029712D01*
X162953160Y-93128089D01*
X162943328Y-93360248D01*
X162900135Y-93546635D01*
X162826877Y-93712289D01*
X162658931Y-93946569D01*
X162418995Y-94159138D01*
X162136671Y-94326979D01*
X161938614Y-94402928D01*
X161792572Y-94459951D01*
X161733228Y-94516663D01*
X161734394Y-94533765D01*
X161774741Y-94599449D01*
X161866961Y-94730766D01*
X162000184Y-94913437D01*
X162163538Y-95133182D01*
X162346154Y-95375723D01*
X162537161Y-95626782D01*
X162725687Y-95872079D01*
X162900863Y-96097337D01*
X163051817Y-96288276D01*
X163167678Y-96430617D01*
X163237577Y-96510083D01*
X163242964Y-96515275D01*
X163412876Y-96634772D01*
X163619711Y-96730041D01*
X163816339Y-96780841D01*
X163869568Y-96784400D01*
X163967068Y-96804772D01*
X163997534Y-96885461D01*
X163998200Y-96911400D01*
X163998200Y-97038400D01*
X162652000Y-97035220D01*
X162199279Y-96354567D01*
X162008655Y-96072759D01*
X161801452Y-95774367D01*
X161599638Y-95490562D01*
X161425182Y-95252513D01*
X161385870Y-95200456D01*
X161025180Y-94727000D01*
X160733690Y-94711764D01*
X160442200Y-94696529D01*
X160442977Y-95626164D01*
X160445240Y-95926022D01*
X160451054Y-96192359D01*
X160459733Y-96407873D01*
X160470594Y-96555262D01*
X160482111Y-96616121D01*
X160577140Y-96691671D01*
X160736642Y-96751308D01*
X160923544Y-96782477D01*
X160978907Y-96784400D01*
X161097711Y-96794318D01*
X161145740Y-96838654D01*
X161153400Y-96911400D01*
X161153400Y-97038400D01*
X158969000Y-97038400D01*
X158969000Y-96917863D01*
X158979787Y-96845880D01*
X159028901Y-96805168D01*
X159141471Y-96781817D01*
X159232470Y-96772010D01*
X159339000Y-96762462D01*
X159427167Y-96750216D01*
X159498704Y-96726351D01*
X159555344Y-96681944D01*
X159598821Y-96608072D01*
X159630869Y-96495813D01*
X159653220Y-96336243D01*
X159667608Y-96120441D01*
X159675767Y-95839484D01*
X159679430Y-95484450D01*
X159680331Y-95046415D01*
X159680202Y-94516457D01*
X159680200Y-94467372D01*
X159680224Y-94406607D01*
X160442200Y-94406607D01*
X160920558Y-94389003D01*
X161152793Y-94377691D01*
X161313039Y-94359354D01*
X161430904Y-94326690D01*
X161535996Y-94272398D01*
X161619058Y-94216744D01*
X161852510Y-94007971D01*
X162003473Y-93760679D01*
X162079453Y-93459190D01*
X162092191Y-93228400D01*
X162074054Y-92936374D01*
X162013794Y-92714469D01*
X161899964Y-92535947D01*
X161729094Y-92380126D01*
X161638591Y-92316427D01*
X161550227Y-92274155D01*
X161439348Y-92247968D01*
X161281300Y-92232530D01*
X161051428Y-92222501D01*
X160992441Y-92220605D01*
X160442200Y-92203410D01*
X160442200Y-94406607D01*
X159680224Y-94406607D01*
X159680414Y-93934020D01*
X159679857Y-93493213D01*
X159676725Y-93135898D01*
X159669214Y-92853024D01*
X159655521Y-92635541D01*
X159633844Y-92474397D01*
X159602380Y-92360541D01*
X159559324Y-92284923D01*
X159502875Y-92238490D01*
X159431229Y-92212192D01*
X159342582Y-92196978D01*
X159235133Y-92183797D01*
X159225017Y-92182472D01*
X159072405Y-92156590D01*
X158995988Y-92121629D01*
X158970550Y-92062379D01*
X158969000Y-92028055D01*
X158969000Y-91907600D01*
X160150100Y-91909168D01*
G37*
X160150100Y-91909168D02*
X160682232Y-91913055D01*
X161124541Y-91924566D01*
X161488653Y-91945793D01*
X161786194Y-91978826D01*
X162028789Y-92025758D01*
X162228065Y-92088678D01*
X162395648Y-92169677D01*
X162543163Y-92270848D01*
X162643835Y-92357688D01*
X162810988Y-92549687D01*
X162908908Y-92763388D01*
X162950010Y-93029712D01*
X162953160Y-93128089D01*
X162943328Y-93360248D01*
X162900135Y-93546635D01*
X162826877Y-93712289D01*
X162658931Y-93946569D01*
X162418995Y-94159138D01*
X162136671Y-94326979D01*
X161938614Y-94402928D01*
X161792572Y-94459951D01*
X161733228Y-94516663D01*
X161734394Y-94533765D01*
X161774741Y-94599449D01*
X161866961Y-94730766D01*
X162000184Y-94913437D01*
X162163538Y-95133182D01*
X162346154Y-95375723D01*
X162537161Y-95626782D01*
X162725687Y-95872079D01*
X162900863Y-96097337D01*
X163051817Y-96288276D01*
X163167678Y-96430617D01*
X163237577Y-96510083D01*
X163242964Y-96515275D01*
X163412876Y-96634772D01*
X163619711Y-96730041D01*
X163816339Y-96780841D01*
X163869568Y-96784400D01*
X163967068Y-96804772D01*
X163997534Y-96885461D01*
X163998200Y-96911400D01*
X163998200Y-97038400D01*
X162652000Y-97035220D01*
X162199279Y-96354567D01*
X162008655Y-96072759D01*
X161801452Y-95774367D01*
X161599638Y-95490562D01*
X161425182Y-95252513D01*
X161385870Y-95200456D01*
X161025180Y-94727000D01*
X160733690Y-94711764D01*
X160442200Y-94696529D01*
X160442977Y-95626164D01*
X160445240Y-95926022D01*
X160451054Y-96192359D01*
X160459733Y-96407873D01*
X160470594Y-96555262D01*
X160482111Y-96616121D01*
X160577140Y-96691671D01*
X160736642Y-96751308D01*
X160923544Y-96782477D01*
X160978907Y-96784400D01*
X161097711Y-96794318D01*
X161145740Y-96838654D01*
X161153400Y-96911400D01*
X161153400Y-97038400D01*
X158969000Y-97038400D01*
X158969000Y-96917863D01*
X158979787Y-96845880D01*
X159028901Y-96805168D01*
X159141471Y-96781817D01*
X159232470Y-96772010D01*
X159339000Y-96762462D01*
X159427167Y-96750216D01*
X159498704Y-96726351D01*
X159555344Y-96681944D01*
X159598821Y-96608072D01*
X159630869Y-96495813D01*
X159653220Y-96336243D01*
X159667608Y-96120441D01*
X159675767Y-95839484D01*
X159679430Y-95484450D01*
X159680331Y-95046415D01*
X159680202Y-94516457D01*
X159680200Y-94467372D01*
X159680224Y-94406607D01*
X160442200Y-94406607D01*
X160920558Y-94389003D01*
X161152793Y-94377691D01*
X161313039Y-94359354D01*
X161430904Y-94326690D01*
X161535996Y-94272398D01*
X161619058Y-94216744D01*
X161852510Y-94007971D01*
X162003473Y-93760679D01*
X162079453Y-93459190D01*
X162092191Y-93228400D01*
X162074054Y-92936374D01*
X162013794Y-92714469D01*
X161899964Y-92535947D01*
X161729094Y-92380126D01*
X161638591Y-92316427D01*
X161550227Y-92274155D01*
X161439348Y-92247968D01*
X161281300Y-92232530D01*
X161051428Y-92222501D01*
X160992441Y-92220605D01*
X160442200Y-92203410D01*
X160442200Y-94406607D01*
X159680224Y-94406607D01*
X159680414Y-93934020D01*
X159679857Y-93493213D01*
X159676725Y-93135898D01*
X159669214Y-92853024D01*
X159655521Y-92635541D01*
X159633844Y-92474397D01*
X159602380Y-92360541D01*
X159559324Y-92284923D01*
X159502875Y-92238490D01*
X159431229Y-92212192D01*
X159342582Y-92196978D01*
X159235133Y-92183797D01*
X159225017Y-92182472D01*
X159072405Y-92156590D01*
X158995988Y-92121629D01*
X158970550Y-92062379D01*
X158969000Y-92028055D01*
X158969000Y-91907600D01*
X160150100Y-91909168D01*
G36*
X166436600Y-92034600D02*
G01*
X166418062Y-92128247D01*
X166342039Y-92160146D01*
X166296900Y-92161883D01*
X166100411Y-92182418D01*
X165915917Y-92235342D01*
X165776963Y-92308797D01*
X165725997Y-92363683D01*
X165712248Y-92440992D01*
X165700429Y-92614514D01*
X165690670Y-92878876D01*
X165683101Y-93228706D01*
X165677851Y-93658632D01*
X165675050Y-94163282D01*
X165674600Y-94491373D01*
X165674600Y-96523025D01*
X165807164Y-96627301D01*
X165939057Y-96697440D01*
X166115537Y-96751615D01*
X166188164Y-96764533D01*
X166338015Y-96790419D01*
X166411956Y-96826508D01*
X166435524Y-96888566D01*
X166436600Y-96917944D01*
X166436600Y-97038400D01*
X164150600Y-97038400D01*
X164150600Y-96911400D01*
X164159893Y-96833448D01*
X164205809Y-96796241D01*
X164315400Y-96784967D01*
X164382539Y-96784400D01*
X164617094Y-96758654D01*
X164794582Y-96686787D01*
X164873722Y-96611695D01*
X164881846Y-96550243D01*
X164889399Y-96398256D01*
X164896181Y-96166796D01*
X164901993Y-95866927D01*
X164906637Y-95509713D01*
X164909914Y-95106217D01*
X164911624Y-94667503D01*
X164911822Y-94493573D01*
X164911747Y-93979199D01*
X164910837Y-93556940D01*
X164908702Y-93217314D01*
X164904950Y-92950838D01*
X164899191Y-92748028D01*
X164891034Y-92599401D01*
X164880089Y-92495474D01*
X164865964Y-92426764D01*
X164848270Y-92383787D01*
X164826616Y-92357060D01*
X164823700Y-92354466D01*
X164680211Y-92268327D01*
X164488888Y-92198219D01*
X164303463Y-92162859D01*
X164270019Y-92161600D01*
X164178555Y-92138661D01*
X164150875Y-92051345D01*
X164150600Y-92034600D01*
X164150600Y-91907600D01*
X166436600Y-91907600D01*
X166436600Y-92034600D01*
G37*
X166436600Y-92034600D02*
X166418062Y-92128247D01*
X166342039Y-92160146D01*
X166296900Y-92161883D01*
X166100411Y-92182418D01*
X165915917Y-92235342D01*
X165776963Y-92308797D01*
X165725997Y-92363683D01*
X165712248Y-92440992D01*
X165700429Y-92614514D01*
X165690670Y-92878876D01*
X165683101Y-93228706D01*
X165677851Y-93658632D01*
X165675050Y-94163282D01*
X165674600Y-94491373D01*
X165674600Y-96523025D01*
X165807164Y-96627301D01*
X165939057Y-96697440D01*
X166115537Y-96751615D01*
X166188164Y-96764533D01*
X166338015Y-96790419D01*
X166411956Y-96826508D01*
X166435524Y-96888566D01*
X166436600Y-96917944D01*
X166436600Y-97038400D01*
X164150600Y-97038400D01*
X164150600Y-96911400D01*
X164159893Y-96833448D01*
X164205809Y-96796241D01*
X164315400Y-96784967D01*
X164382539Y-96784400D01*
X164617094Y-96758654D01*
X164794582Y-96686787D01*
X164873722Y-96611695D01*
X164881846Y-96550243D01*
X164889399Y-96398256D01*
X164896181Y-96166796D01*
X164901993Y-95866927D01*
X164906637Y-95509713D01*
X164909914Y-95106217D01*
X164911624Y-94667503D01*
X164911822Y-94493573D01*
X164911747Y-93979199D01*
X164910837Y-93556940D01*
X164908702Y-93217314D01*
X164904950Y-92950838D01*
X164899191Y-92748028D01*
X164891034Y-92599401D01*
X164880089Y-92495474D01*
X164865964Y-92426764D01*
X164848270Y-92383787D01*
X164826616Y-92357060D01*
X164823700Y-92354466D01*
X164680211Y-92268327D01*
X164488888Y-92198219D01*
X164303463Y-92162859D01*
X164270019Y-92161600D01*
X164178555Y-92138661D01*
X164150875Y-92051345D01*
X164150600Y-92034600D01*
X164150600Y-91907600D01*
X166436600Y-91907600D01*
X166436600Y-92034600D01*
G36*
X126700226Y-75474572D02*
G01*
X126757447Y-75506984D01*
X126850337Y-75587181D01*
X126970216Y-75705500D01*
X127108407Y-75852281D01*
X127256229Y-76017862D01*
X127405004Y-76192584D01*
X127546053Y-76366784D01*
X127670697Y-76530803D01*
X127747609Y-76640450D01*
X128041289Y-77139619D01*
X128266832Y-77656049D01*
X128422605Y-78185660D01*
X128474523Y-78458650D01*
X128491161Y-78627594D01*
X128499160Y-78849613D01*
X128499167Y-79105807D01*
X128491829Y-79377274D01*
X128477793Y-79645115D01*
X128457706Y-79890429D01*
X128432213Y-80094317D01*
X128415457Y-80185000D01*
X128314597Y-80570015D01*
X128175779Y-80989300D01*
X128007040Y-81420991D01*
X127816415Y-81843221D01*
X127775319Y-81926714D01*
X127710677Y-82054419D01*
X127646629Y-82176608D01*
X127579455Y-82299161D01*
X127505438Y-82427957D01*
X127420858Y-82568875D01*
X127321998Y-82727794D01*
X127205138Y-82910595D01*
X127066560Y-83123157D01*
X126902545Y-83371358D01*
X126709375Y-83661078D01*
X126483332Y-83998198D01*
X126220696Y-84388595D01*
X126180300Y-84448572D01*
X125868337Y-84931597D01*
X125599581Y-85389428D01*
X125377164Y-85816152D01*
X125204218Y-86205858D01*
X125108474Y-86471500D01*
X125061757Y-86610377D01*
X125020586Y-86718418D01*
X124991069Y-86780232D01*
X124982446Y-86789000D01*
X124950829Y-86760929D01*
X124895339Y-86688453D01*
X124847075Y-86616643D01*
X124611885Y-86198248D01*
X124433562Y-85762821D01*
X124309428Y-85300522D01*
X124236810Y-84801512D01*
X124213104Y-84285404D01*
X124213766Y-84047706D01*
X124219617Y-83860926D01*
X124232698Y-83703479D01*
X124255050Y-83553782D01*
X124288713Y-83390249D01*
X124304022Y-83323714D01*
X124364824Y-83080084D01*
X124431734Y-82847068D01*
X124508121Y-82617720D01*
X124597356Y-82385093D01*
X124702810Y-82142239D01*
X124827854Y-81882212D01*
X124975857Y-81598063D01*
X125150191Y-81282847D01*
X125354225Y-80929615D01*
X125591332Y-80531420D01*
X125864880Y-80081316D01*
X125923662Y-79985429D01*
X126175968Y-79566429D01*
X126387464Y-79196336D01*
X126561746Y-78866657D01*
X126702410Y-78568898D01*
X126813052Y-78294568D01*
X126897270Y-78035173D01*
X126958658Y-77782221D01*
X127000813Y-77527218D01*
X127014482Y-77409384D01*
X127029341Y-76925303D01*
X126975053Y-76452041D01*
X126852799Y-75996953D01*
X126744046Y-75728572D01*
X126684591Y-75597654D01*
X126653943Y-75519669D01*
X126649916Y-75481933D01*
X126670319Y-75471760D01*
X126700226Y-75474572D01*
G37*
X126700226Y-75474572D02*
X126757447Y-75506984D01*
X126850337Y-75587181D01*
X126970216Y-75705500D01*
X127108407Y-75852281D01*
X127256229Y-76017862D01*
X127405004Y-76192584D01*
X127546053Y-76366784D01*
X127670697Y-76530803D01*
X127747609Y-76640450D01*
X128041289Y-77139619D01*
X128266832Y-77656049D01*
X128422605Y-78185660D01*
X128474523Y-78458650D01*
X128491161Y-78627594D01*
X128499160Y-78849613D01*
X128499167Y-79105807D01*
X128491829Y-79377274D01*
X128477793Y-79645115D01*
X128457706Y-79890429D01*
X128432213Y-80094317D01*
X128415457Y-80185000D01*
X128314597Y-80570015D01*
X128175779Y-80989300D01*
X128007040Y-81420991D01*
X127816415Y-81843221D01*
X127775319Y-81926714D01*
X127710677Y-82054419D01*
X127646629Y-82176608D01*
X127579455Y-82299161D01*
X127505438Y-82427957D01*
X127420858Y-82568875D01*
X127321998Y-82727794D01*
X127205138Y-82910595D01*
X127066560Y-83123157D01*
X126902545Y-83371358D01*
X126709375Y-83661078D01*
X126483332Y-83998198D01*
X126220696Y-84388595D01*
X126180300Y-84448572D01*
X125868337Y-84931597D01*
X125599581Y-85389428D01*
X125377164Y-85816152D01*
X125204218Y-86205858D01*
X125108474Y-86471500D01*
X125061757Y-86610377D01*
X125020586Y-86718418D01*
X124991069Y-86780232D01*
X124982446Y-86789000D01*
X124950829Y-86760929D01*
X124895339Y-86688453D01*
X124847075Y-86616643D01*
X124611885Y-86198248D01*
X124433562Y-85762821D01*
X124309428Y-85300522D01*
X124236810Y-84801512D01*
X124213104Y-84285404D01*
X124213766Y-84047706D01*
X124219617Y-83860926D01*
X124232698Y-83703479D01*
X124255050Y-83553782D01*
X124288713Y-83390249D01*
X124304022Y-83323714D01*
X124364824Y-83080084D01*
X124431734Y-82847068D01*
X124508121Y-82617720D01*
X124597356Y-82385093D01*
X124702810Y-82142239D01*
X124827854Y-81882212D01*
X124975857Y-81598063D01*
X125150191Y-81282847D01*
X125354225Y-80929615D01*
X125591332Y-80531420D01*
X125864880Y-80081316D01*
X125923662Y-79985429D01*
X126175968Y-79566429D01*
X126387464Y-79196336D01*
X126561746Y-78866657D01*
X126702410Y-78568898D01*
X126813052Y-78294568D01*
X126897270Y-78035173D01*
X126958658Y-77782221D01*
X127000813Y-77527218D01*
X127014482Y-77409384D01*
X127029341Y-76925303D01*
X126975053Y-76452041D01*
X126852799Y-75996953D01*
X126744046Y-75728572D01*
X126684591Y-75597654D01*
X126653943Y-75519669D01*
X126649916Y-75481933D01*
X126670319Y-75471760D01*
X126700226Y-75474572D01*
D13*
X200025000Y-84328000D03*
X202438000Y-78867000D03*
X197612000Y-83058000D03*
X194437000Y-85344000D03*
D14*
X200424999Y-83928001D02*
X201313999Y-83928001D01*
X200025000Y-84328000D02*
X200424999Y-83928001D01*
X201313999Y-83928001D02*
X202438000Y-82804000D01*
X202438000Y-82804000D02*
X202438000Y-78867000D01*
X202438000Y-78867000D02*
X202438000Y-78867000D01*
X197612000Y-83058000D02*
X196723000Y-83058000D01*
X196723000Y-83058000D02*
X194437000Y-85344000D01*
M02*
